<?xml version="1.0" encoding="utf-8"?>
<!-- Generator: Adobe Illustrator 27.5.0, SVG Export Plug-In . SVG Version: 6.00 Build 0)  -->
<svg version="1.1" id="Layer_1" xmlns="http://www.w3.org/2000/svg" xmlns:xlink="http://www.w3.org/1999/xlink" x="0px" y="0px"
	 viewBox="0 0 1000 1000" style="enable-background:new 0 0 1000 1000;" xml:space="preserve">
<rect x="0.3" y="1.15" style="fill-rule:evenodd;clip-rule:evenodd;fill:#FFFFFF;" width="999.7" height="999.7"/>
<path style="opacity:0.46;fill-rule:evenodd;clip-rule:evenodd;fill:#CCCCFF;" d="M340.891,260.695
	c0,0,54.426,120.677-75.716,139.607c-130.142,18.929-177.006,129.301-30.761,210.591c146.243,81.292-13.097,179.901,179.188,205.448
	c192.283,25.549,165.052-128.203,270.81-105.753c105.759,22.453,220.053-68.126,60.303-210.154
	c-159.753-142.026-148.271-171.12-98.58-220.81c49.69-49.691-81.042-140.79-150.846-72.17S340.891,260.695,340.891,260.695"/>
<g>
	<defs>
		<polygon id="SVGID_47_" points="563.503,812.466 560.227,773.1 538.486,748.769 529.271,709.04 480.607,666.942 443.041,663.264 
			420.177,693.888 387.512,694.706 355.255,726.964 314.424,731.046 271.551,747.378 229.904,812.466 		"/>
	</defs>
	<clipPath id="SVGID_00000179606389289967511750000004251445486387438220_">
		<use xlink:href="#SVGID_47_"  style="overflow:visible;"/>
	</clipPath>
	<linearGradient id="SVGID_1_" gradientUnits="userSpaceOnUse" x1="440.2682" y1="824.3212" x2="386.3676" y2="717.3533">
		<stop  offset="0" style="stop-color:#9999FF"/>
		<stop  offset="1" style="stop-color:#CCCCFF"/>
	</linearGradient>
	
		<rect x="229.904" y="663.264" style="clip-path:url(#SVGID_00000179606389289967511750000004251445486387438220_);fill:url(#SVGID_1_);" width="333.599" height="149.202"/>
</g>
<polygon style="fill-rule:evenodd;clip-rule:evenodd;fill:#9999FF;" points="563.503,812.466 560.227,773.1 538.486,748.769 
	529.271,709.04 496.162,680.397 461.005,709.812 421.808,708.177 403.842,744.927 407.108,798.824 354.846,785.758 377.71,752.276 
	340.145,746.559 318.096,769.426 271.551,747.378 229.904,812.466 "/>
<g>
	<defs>
		<path id="SVGID_50_" d="M215.302,812.466c11.977,0,17.966,0,17.966,0c17.508-56.379,17.508-116.743,0-173.124
			C199.317,690.636,192.606,755.294,215.302,812.466"/>
	</defs>
	<clipPath id="SVGID_00000080178963487746734180000012648228549615502740_">
		<use xlink:href="#SVGID_50_"  style="overflow:visible;"/>
	</clipPath>
	
		<linearGradient id="SVGID_00000000199243097526951360000010256359489891706293_" gradientUnits="userSpaceOnUse" x1="204.2856" y1="796.3047" x2="243.4408" y2="637.9355">
		<stop  offset="0" style="stop-color:#328B09"/>
		<stop  offset="1" style="stop-color:#B0F122"/>
	</linearGradient>
	
		<rect x="192.606" y="639.342" style="clip-path:url(#SVGID_00000080178963487746734180000012648228549615502740_);fill:url(#SVGID_00000000199243097526951360000010256359489891706293_);" width="58.171" height="173.124"/>
</g>
<g>
	<defs>
		<path id="SVGID_53_" d="M264.296,812.466c10.563,0,15.846,0,15.846,0c15.444-49.731,15.444-102.976,0-152.707
			C250.196,705.003,244.278,762.039,264.296,812.466"/>
	</defs>
	<clipPath id="SVGID_00000057127479512638488610000004362168404114183328_">
		<use xlink:href="#SVGID_53_"  style="overflow:visible;"/>
	</clipPath>
	
		<linearGradient id="SVGID_00000137108774022720241020000001873636227691962766_" gradientUnits="userSpaceOnUse" x1="249.8214" y1="819.4754" x2="286.5602" y2="667.1877">
		<stop  offset="0" style="stop-color:#328B09"/>
		<stop  offset="1" style="stop-color:#B0F122"/>
	</linearGradient>
	
		<rect x="244.278" y="659.76" style="clip-path:url(#SVGID_00000057127479512638488610000004362168404114183328_);fill:url(#SVGID_00000137108774022720241020000001873636227691962766_);" width="51.309" height="152.707"/>
</g>
<defs>
	<filter id="Adobe_OpacityMaskFilter" filterUnits="userSpaceOnUse" x="267.141" y="688.742" width="9.173" height="123.724">
		<feColorMatrix  type="matrix" values="1 0 0 0 0  0 1 0 0 0  0 0 1 0 0  0 0 0 1 0"/>
	</filter>
</defs>
<mask maskUnits="userSpaceOnUse" x="267.141" y="688.742" width="9.173" height="123.724" id="SVGID_00000080902105105812720670000015547821585903283334_">
	<g style="filter:url(#Adobe_OpacityMaskFilter);">
		
			<linearGradient id="SVGID_00000179617992014981973340000014223778717270257579_" gradientUnits="userSpaceOnUse" x1="-179.973" y1="872.1785" x2="-157.2296" y2="692.3985" gradientTransform="matrix(1 0 0 1 439.1804 -22.6128)">
			<stop  offset="0" style="stop-color:#FFFFFF"/>
			<stop  offset="1" style="stop-color:#000000"/>
		</linearGradient>
		
			<rect x="267.139" y="688.742" style="fill:url(#SVGID_00000179617992014981973340000014223778717270257579_);" width="9.175" height="123.724"/>
	</g>
</mask>
<path style="mask:url(#SVGID_00000080902105105812720670000015547821585903283334_);fill-rule:evenodd;clip-rule:evenodd;fill:#FFFFFF;" d="
	M276.314,688.742c0,0-10.636,46.151-4.095,123.724h-3.256C268.963,812.466,261.654,748.304,276.314,688.742"/>
<g>
	<defs>
		<path id="SVGID_58_" d="M258.914,812.466c-10.565,0-15.848,0-15.848,0c-15.442-49.731-15.442-102.976,0-152.707
			C273.015,705.003,278.933,762.039,258.914,812.466"/>
	</defs>
	<clipPath id="SVGID_00000029034364858267991770000014421444436551941509_">
		<use xlink:href="#SVGID_58_"  style="overflow:visible;"/>
	</clipPath>
	
		<linearGradient id="SVGID_00000049222810175285636450000001984493567019448720_" gradientUnits="userSpaceOnUse" x1="264.4162" y1="815.6645" x2="241.6731" y2="653.2138">
		<stop  offset="0" style="stop-color:#53C506"/>
		<stop  offset="1" style="stop-color:#B0F122"/>
	</linearGradient>
	
		<rect x="227.625" y="659.76" style="clip-path:url(#SVGID_00000029034364858267991770000014421444436551941509_);fill:url(#SVGID_00000049222810175285636450000001984493567019448720_);" width="51.309" height="152.707"/>
</g>
<defs>
	
		<filter id="Adobe_OpacityMaskFilter_00000093888105415835986550000003696552756193654435_" filterUnits="userSpaceOnUse" x="215.126" y="663.023" width="12.823" height="149.443">
		<feColorMatrix  type="matrix" values="1 0 0 0 0  0 1 0 0 0  0 0 1 0 0  0 0 0 1 0"/>
	</filter>
</defs>
<mask maskUnits="userSpaceOnUse" x="215.126" y="663.023" width="12.823" height="149.443" id="SVGID_00000066510591292604633050000014577533919383420079_">
	<g style="filter:url(#Adobe_OpacityMaskFilter_00000093888105415835986550000003696552756193654435_);">
		
			<linearGradient id="SVGID_00000113347994154433799360000000599086703453725866_" gradientUnits="userSpaceOnUse" x1="-229.341" y1="891.7492" x2="-198.6837" y2="667.2339" gradientTransform="matrix(1 0 0 1 432.9369 -22.6128)">
			<stop  offset="0" style="stop-color:#FFFFFF"/>
			<stop  offset="1" style="stop-color:#000000"/>
		</linearGradient>
		
			<rect x="215.126" y="663.023" style="fill:url(#SVGID_00000113347994154433799360000000599086703453725866_);" width="12.823" height="149.443"/>
	</g>
</mask>
<path style="mask:url(#SVGID_00000066510591292604633050000014577533919383420079_);fill-rule:evenodd;clip-rule:evenodd;fill:#FFFFFF;" d="
	M227.949,663.023c0,0-17.123,66.558-3.663,149.443h-5.118C219.168,812.466,205.694,739.172,227.949,663.023"/>
<g>
	<defs>
		<path id="SVGID_63_" d="M224.286,812.466c3.868-50.337-13.618-99.981-48.181-136.783c19.409,38.19,2.527,88.06,22.457,136.783
			H224.286z"/>
	</defs>
	<clipPath id="SVGID_00000150797273038937697540000014691085680849225631_">
		<use xlink:href="#SVGID_63_"  style="overflow:visible;"/>
	</clipPath>
	
		<linearGradient id="SVGID_00000125567955873442313430000008199598999959405456_" gradientUnits="userSpaceOnUse" x1="194.8622" y1="816.454" x2="209.6078" y2="669.5807">
		<stop  offset="0" style="stop-color:#53C506"/>
		<stop  offset="1" style="stop-color:#B0F122"/>
	</linearGradient>
	
		<rect x="176.104" y="675.683" style="clip-path:url(#SVGID_00000150797273038937697540000014691085680849225631_);fill:url(#SVGID_00000125567955873442313430000008199598999959405456_);" width="52.049" height="136.783"/>
</g>
<defs>
	
		<filter id="Adobe_OpacityMaskFilter_00000069376705239897457720000007430744149154796721_" filterUnits="userSpaceOnUse" x="248.368" y="685.073" width="13.512" height="127.394">
		<feColorMatrix  type="matrix" values="1 0 0 0 0  0 1 0 0 0  0 0 1 0 0  0 0 0 1 0"/>
	</filter>
</defs>
<mask maskUnits="userSpaceOnUse" x="248.368" y="685.073" width="13.512" height="127.394" id="SVGID_00000023976462623338205900000015694330624968532381_">
	<g style="filter:url(#Adobe_OpacityMaskFilter_00000069376705239897457720000007430744149154796721_);">
		
			<linearGradient id="SVGID_00000047769415212116879180000015100664982127518909_" gradientUnits="userSpaceOnUse" x1="-198.8808" y1="896.4531" x2="-168.2234" y2="671.9373" gradientTransform="matrix(1 0 0 1 436.9272 -22.6128)">
			<stop  offset="0" style="stop-color:#FFFFFF"/>
			<stop  offset="1" style="stop-color:#000000"/>
		</linearGradient>
		
			<rect x="248.368" y="685.073" style="fill:url(#SVGID_00000047769415212116879180000015100664982127518909_);" width="13.513" height="127.394"/>
	</g>
</mask>
<path style="mask:url(#SVGID_00000023976462623338205900000015694330624968532381_);fill-rule:evenodd;clip-rule:evenodd;fill:#FFFFFF;" d="
	M248.368,685.073c0,0,26.13,58.388,5.717,127.393h-3.096C250.989,812.466,270.013,765.406,248.368,685.073"/>
<defs>
	
		<filter id="Adobe_OpacityMaskFilter_00000055685410230573709650000015145615080206551965_" filterUnits="userSpaceOnUse" x="194.257" y="708.548" width="21.081" height="103.918">
		<feColorMatrix  type="matrix" values="1 0 0 0 0  0 1 0 0 0  0 0 1 0 0  0 0 0 1 0"/>
	</filter>
</defs>
<mask maskUnits="userSpaceOnUse" x="194.257" y="708.548" width="21.081" height="103.918" id="SVGID_00000003068080818918170360000004010101364562743739_">
	<g style="filter:url(#Adobe_OpacityMaskFilter_00000055685410230573709650000015145615080206551965_);">
		
			<linearGradient id="SVGID_00000008139486411219690340000014317874930770989241_" gradientUnits="userSpaceOnUse" x1="-213.1541" y1="852.7688" x2="-237.2304" y2="718.3922" gradientTransform="matrix(1 0 0 1 430.4319 -22.6128)">
			<stop  offset="0" style="stop-color:#FFFFFF"/>
			<stop  offset="1" style="stop-color:#000000"/>
		</linearGradient>
		
			<rect x="194.257" y="708.548" style="fill:url(#SVGID_00000008139486411219690340000014317874930770989241_);" width="21.084" height="103.918"/>
	</g>
</mask>
<path style="mask:url(#SVGID_00000003068080818918170360000004010101364562743739_);fill-rule:evenodd;clip-rule:evenodd;fill:#FFFFFF;" d="
	M194.257,708.548c0,0,22.084,36.755,21.045,103.918h-3.877C211.425,812.466,215.14,761.422,194.257,708.548"/>
<path style="fill-rule:evenodd;clip-rule:evenodd;fill:#1A85F8;" d="M428.333,299.263c96.276,0,174.324,78.045,174.324,174.321
	c0,96.275-78.047,174.321-174.324,174.321c-96.275,0-174.32-78.046-174.32-174.321C254.013,377.308,332.057,299.263,428.333,299.263
	 M428.333,277.761c108.15,0,195.823,87.673,195.823,195.823c0,108.149-87.673,195.82-195.823,195.82
	c-108.149,0-195.82-87.67-195.82-195.82C232.513,365.434,320.184,277.761,428.333,277.761z"/>
<path style="fill-rule:evenodd;clip-rule:evenodd;fill:#15B0F8;" d="M368.068,358.192h120.531c4.369,0,7.942,3.575,7.942,7.943
	v214.899c0,4.366-3.573,7.939-7.942,7.939H368.068c-4.369,0-7.942-3.573-7.942-7.939V366.136
	C360.126,361.767,363.699,358.192,368.068,358.192"/>
<path style="fill-rule:evenodd;clip-rule:evenodd;fill:#114FEE;" d="M373.149,368.119h23.65v7.55c0,1.693,1.385,3.077,3.075,3.077
	h56.917c1.693,0,3.077-1.384,3.077-3.077v-7.55h23.648c1.705,0,3.096,1.391,3.096,3.097V575.95c0,1.707-1.391,3.098-3.096,3.098
	H373.149c-1.704,0-3.096-1.391-3.096-3.098V371.216C370.054,369.511,371.445,368.119,373.149,368.119"/>
<path style="fill-rule:evenodd;clip-rule:evenodd;fill:#BFE6ED;" d="M428.333,434.598c11.071,0,20.047,8.977,20.047,20.047
	c0,11.071-8.976,20.044-20.047,20.044c-11.07,0-20.046-8.973-20.046-20.044C408.286,443.574,417.263,434.598,428.333,434.598
	 M428.333,431.884c12.57,0,22.761,10.19,22.761,22.761s-10.19,22.76-22.761,22.76c-12.57,0-22.76-10.189-22.76-22.76
	S415.763,431.884,428.333,431.884z"/>
<path style="fill-rule:evenodd;clip-rule:evenodd;fill:#BFE6ED;" d="M443.567,463.439c-3.041,5.254-8.723,8.792-15.235,8.792
	c-6.508,0-12.192-3.537-15.234-8.792c3.041-5.257,8.726-8.794,15.234-8.794C434.844,454.645,440.526,458.182,443.567,463.439"/>
<path style="fill-rule:evenodd;clip-rule:evenodd;fill:#BFE6ED;" d="M428.333,440.849c2.978,0,5.394,2.416,5.394,5.393
	c0,2.978-2.416,5.392-5.394,5.392c-2.977,0-5.391-2.414-5.391-5.392C422.942,443.265,425.355,440.849,428.333,440.849"/>
<path style="fill-rule:evenodd;clip-rule:evenodd;fill:#BFE6ED;" d="M393.997,492.335h68.674c2.956,0,5.372,2.416,5.372,5.373
	c0,2.957-2.416,5.372-5.372,5.372h-68.674c-2.957,0-5.372-2.415-5.372-5.372C388.625,494.751,391.041,492.335,393.997,492.335"/>
<path style="fill-rule:evenodd;clip-rule:evenodd;fill:#BFE6ED;" d="M393.997,512.232h68.674c2.956,0,5.372,2.416,5.372,5.373
	s-2.416,5.372-5.372,5.372h-68.674c-2.957,0-5.372-2.416-5.372-5.372S391.041,512.232,393.997,512.232"/>
<path style="fill-rule:evenodd;clip-rule:evenodd;fill:#15B0F8;" d="M394.629,495.416c1.264,0,2.291,1.027,2.291,2.291
	c0,1.265-1.027,2.29-2.291,2.29c-1.265,0-2.29-1.025-2.29-2.29C392.339,496.443,393.364,495.416,394.629,495.416"/>
<path style="fill-rule:evenodd;clip-rule:evenodd;fill:#15B0F8;" d="M402.026,495.416c1.263,0,2.29,1.027,2.29,2.291
	c0,1.265-1.027,2.29-2.29,2.29c-1.266,0-2.291-1.025-2.291-2.29C399.736,496.443,400.76,495.416,402.026,495.416"/>
<path style="fill-rule:evenodd;clip-rule:evenodd;fill:#15B0F8;" d="M409.422,495.416c1.263,0,2.29,1.027,2.29,2.291
	c0,1.265-1.027,2.29-2.29,2.29c-1.266,0-2.291-1.025-2.291-2.29C407.132,496.443,408.156,495.416,409.422,495.416"/>
<path style="fill-rule:evenodd;clip-rule:evenodd;fill:#15B0F8;" d="M416.819,495.416c1.265,0,2.29,1.027,2.29,2.291
	c0,1.265-1.025,2.29-2.29,2.29c-1.264,0-2.291-1.025-2.291-2.29C414.528,496.443,415.555,495.416,416.819,495.416"/>
<path style="fill-rule:evenodd;clip-rule:evenodd;fill:#15B0F8;" d="M424.215,495.416c1.266,0,2.29,1.027,2.29,2.291
	c0,1.265-1.025,2.29-2.29,2.29c-1.264,0-2.291-1.025-2.291-2.29C421.924,496.443,422.951,495.416,424.215,495.416"/>
<path style="fill-rule:evenodd;clip-rule:evenodd;fill:#15B0F8;" d="M431.611,495.416c1.265,0,2.291,1.027,2.291,2.291
	c0,1.265-1.026,2.29-2.291,2.29c-1.264,0-2.291-1.025-2.291-2.29C429.32,496.443,430.347,495.416,431.611,495.416"/>
<path style="fill-rule:evenodd;clip-rule:evenodd;fill:#15B0F8;" d="M439.007,495.416c1.265,0,2.291,1.027,2.291,2.291
	c0,1.265-1.026,2.29-2.291,2.29c-1.263,0-2.288-1.025-2.288-2.29C436.719,496.443,437.744,495.416,439.007,495.416"/>
<path style="fill-rule:evenodd;clip-rule:evenodd;fill:#15B0F8;" d="M394.629,515.317c1.264,0,2.291,1.025,2.291,2.29
	c0,1.264-1.027,2.288-2.291,2.288c-1.265,0-2.29-1.025-2.29-2.288C392.339,516.342,393.364,515.317,394.629,515.317"/>
<path style="fill-rule:evenodd;clip-rule:evenodd;fill:#15B0F8;" d="M402.026,515.317c1.263,0,2.29,1.025,2.29,2.29
	c0,1.264-1.027,2.288-2.29,2.288c-1.266,0-2.291-1.025-2.291-2.288C399.736,516.342,400.76,515.317,402.026,515.317"/>
<path style="fill-rule:evenodd;clip-rule:evenodd;fill:#15B0F8;" d="M409.422,515.317c1.263,0,2.29,1.025,2.29,2.29
	c0,1.264-1.027,2.288-2.29,2.288c-1.266,0-2.291-1.025-2.291-2.288C407.132,516.342,408.156,515.317,409.422,515.317"/>
<path style="fill-rule:evenodd;clip-rule:evenodd;fill:#15B0F8;" d="M416.819,515.317c1.265,0,2.29,1.025,2.29,2.29
	c0,1.264-1.025,2.288-2.29,2.288c-1.264,0-2.291-1.025-2.291-2.288C414.528,516.342,415.555,515.317,416.819,515.317"/>
<path style="fill-rule:evenodd;clip-rule:evenodd;fill:#15B0F8;" d="M424.215,515.317c1.266,0,2.29,1.025,2.29,2.29
	c0,1.264-1.025,2.288-2.29,2.288c-1.264,0-2.291-1.025-2.291-2.288C421.924,516.342,422.951,515.317,424.215,515.317"/>
<path style="fill-rule:evenodd;clip-rule:evenodd;fill:#15B0F8;" d="M431.611,515.317c1.265,0,2.291,1.025,2.291,2.29
	c0,1.264-1.026,2.288-2.291,2.288c-1.264,0-2.291-1.025-2.291-2.288C429.32,516.342,430.347,515.317,431.611,515.317"/>
<path style="fill-rule:evenodd;clip-rule:evenodd;fill:#15B0F8;" d="M439.007,515.317c1.265,0,2.291,1.025,2.291,2.29
	c0,1.264-1.026,2.288-2.291,2.288c-1.263,0-2.288-1.025-2.288-2.288C436.719,516.342,437.744,515.317,439.007,515.317"/>
<path style="fill-rule:evenodd;clip-rule:evenodd;fill:#15B0F8;" d="M428.333,235.569c28.886,0,52.303,23.416,52.303,52.302
	c0,28.886-23.416,52.303-52.303,52.303c-28.885,0-52.302-23.416-52.302-52.303C376.031,258.985,399.447,235.569,428.333,235.569"/>
<path style="fill-rule:evenodd;clip-rule:evenodd;fill:#15B0F8;" d="M666.351,473.584c0,28.885-23.419,52.302-52.304,52.302
	c-28.886,0-52.303-23.416-52.303-52.302c0-28.886,23.417-52.303,52.303-52.303C642.932,421.282,666.351,444.698,666.351,473.584"/>
<path style="fill-rule:evenodd;clip-rule:evenodd;fill:#15B0F8;" d="M428.333,711.6c-28.885,0-52.302-23.417-52.302-52.303
	c0-28.886,23.416-52.303,52.302-52.303c28.886,0,52.303,23.416,52.303,52.303C480.635,688.183,457.219,711.6,428.333,711.6"/>
<path style="fill-rule:evenodd;clip-rule:evenodd;fill:#15B0F8;" d="M190.318,473.584c0-28.886,23.416-52.303,52.302-52.303
	c28.886,0,52.303,23.416,52.303,52.303c0,28.885-23.417,52.302-52.303,52.302C213.735,525.886,190.318,502.47,190.318,473.584"/>
<path style="fill:#FFFFFF;" d="M410.069,280.234c-2.029,0.51-3.899,1.098-5.583,1.759c-4.77,1.873-7.724,3.981-7.724,5.877
	c0,1.897,2.954,4.005,7.724,5.878c1.684,0.661,3.554,1.249,5.583,1.759c-0.198-2.473-0.304-5.028-0.304-7.638
	C409.765,285.262,409.871,282.707,410.069,280.234 M437.553,278.652c-2.923-0.319-6.015-0.487-9.22-0.487
	c-3.204,0-6.295,0.168-9.219,0.487c-0.319,2.923-0.486,6.015-0.486,9.219c0,3.205,0.167,6.296,0.486,9.22
	c2.923,0.319,6.015,0.487,9.219,0.487c3.205,0,6.296-0.168,9.22-0.487c0.319-2.923,0.486-6.015,0.486-9.22
	C438.039,284.667,437.872,281.575,437.553,278.652z M452.18,293.749c4.77-1.873,7.724-3.981,7.724-5.878
	c0-1.896-2.954-4.005-7.724-5.877c-1.684-0.661-3.554-1.25-5.583-1.759c0.198,2.473,0.304,5.028,0.304,7.637
	c0,2.61-0.106,5.165-0.304,7.638C448.626,294.998,450.496,294.411,452.18,293.749z M445.314,270.89
	c3.734,0.736,7.137,1.71,10.084,2.867c0.506,0.198,0.999,0.401,1.481,0.614c-1.561-3.295-3.675-6.277-6.223-8.822
	c-2.545-2.548-5.526-4.662-8.823-6.223c0.213,0.482,0.416,0.976,0.614,1.481C443.605,263.753,444.578,267.156,445.314,270.89z
	 M420.696,269.607c2.473-0.198,5.028-0.304,7.637-0.304c2.61,0,5.165,0.106,7.638,0.304c-0.511-2.029-1.098-3.899-1.76-5.583
	c-1.873-4.77-3.981-7.724-5.878-7.724c-1.896,0-4.005,2.954-5.877,7.724C421.794,265.708,421.207,267.579,420.696,269.607z
	 M399.787,274.371c0.482-0.212,0.975-0.416,1.481-0.614c2.947-1.157,6.35-2.13,10.083-2.867c0.737-3.734,1.71-7.137,2.867-10.084
	c0.198-0.506,0.401-0.999,0.614-1.481c-3.295,1.561-6.277,3.675-8.822,6.223C403.462,268.094,401.348,271.076,399.787,274.371z
	 M411.352,304.853c-3.734-0.737-7.137-1.71-10.083-2.867c-0.506-0.198-0.999-0.402-1.481-0.614c1.561,3.297,3.675,6.277,6.223,8.822
	c2.545,2.548,5.527,4.662,8.822,6.223c-0.213-0.482-0.416-0.975-0.614-1.481C413.061,311.99,412.089,308.586,411.352,304.853z
	 M435.97,306.135c-2.473,0.198-5.028,0.304-7.638,0.304c-2.609,0-5.164-0.106-7.637-0.304c0.511,2.029,1.098,3.899,1.76,5.583
	c1.873,4.77,3.981,7.724,5.877,7.724c1.897,0,4.005-2.954,5.878-7.724C434.872,310.034,435.46,308.164,435.97,306.135z
	 M456.879,301.372c-0.482,0.212-0.975,0.416-1.481,0.614c-2.947,1.157-6.35,2.13-10.084,2.867
	c-0.737,3.734-1.709,7.137-2.867,10.084c-0.198,0.506-0.401,0.999-0.614,1.481c3.296-1.561,6.277-3.675,8.823-6.223
	C453.204,307.649,455.318,304.668,456.879,301.372z M428.333,247.44c11.166,0,21.275,4.525,28.589,11.843
	c7.318,7.316,11.845,17.426,11.845,28.588c0,11.161-4.527,21.273-11.845,28.589c-7.314,7.318-17.423,11.845-28.589,11.845
	c-11.16,0-21.272-4.527-28.588-11.845c-7.318-7.316-11.842-17.428-11.842-28.589c0-11.162,4.524-21.272,11.842-28.588
	C407.061,251.965,417.173,247.44,428.333,247.44z"/>
<path style="fill-rule:evenodd;clip-rule:evenodd;fill:#FFFFFF;" d="M586.707,452.172h54.678c2.263,0,4.114,1.849,4.114,4.111
	v20.566v4.839v13.307l-9.859-9.193h-48.933c-2.263,0-4.114-1.851-4.114-4.114v-25.405
	C582.593,454.021,584.444,452.172,586.707,452.172"/>
<path style="fill-rule:evenodd;clip-rule:evenodd;fill:#1A85F8;" d="M616.75,463.21c3.191,0,5.777,2.586,5.777,5.777
	c0,3.19-2.586,5.776-5.777,5.776c-3.19,0-5.776-2.586-5.776-5.776C610.974,465.796,613.56,463.21,616.75,463.21"/>
<path style="fill-rule:evenodd;clip-rule:evenodd;fill:#1A85F8;" d="M634.081,464.769c2.329,0,4.218,1.889,4.218,4.218
	c0,2.33-1.889,4.217-4.218,4.217c-2.328,0-4.218-1.887-4.218-4.217C629.863,466.658,631.753,464.769,634.081,464.769"/>
<path style="fill-rule:evenodd;clip-rule:evenodd;fill:#1A85F8;" d="M597.125,461.651c4.053,0,7.336,3.285,7.336,7.335
	c0,4.05-3.282,7.335-7.336,7.335c-4.049,0-7.334-3.285-7.334-7.335C589.791,464.936,593.076,461.651,597.125,461.651"/>
<path style="fill:#FFFFFF;" d="M211.019,458.176l31.601,13.144l31.602-13.144c-0.109-0.185-0.239-0.352-0.387-0.501
	c-0.452-0.451-1.072-0.732-1.753-0.732H213.16c-0.682,0-1.304,0.281-1.752,0.732C211.257,457.823,211.127,457.991,211.019,458.176
	 M210.679,483.828l19.598-13.115l-19.598-8.152V483.828z M254.964,470.713l19.601,13.115v-21.267L254.964,470.713z M274.361,488.717
	l-24.026-16.077l-7.715,3.209l-7.715-3.209l-24.025,16.077c0.125,0.293,0.307,0.555,0.529,0.777c0.448,0.451,1.07,0.73,1.752,0.73
	h58.922c0.681,0,1.301-0.279,1.753-0.73C274.057,489.271,274.236,489.01,274.361,488.717z M213.16,452.753h58.922
	c1.835,0,3.505,0.751,4.714,1.96c1.207,1.207,1.958,2.877,1.958,4.711v28.319c0,1.835-0.75,3.505-1.958,4.711
	c-1.209,1.21-2.879,1.96-4.714,1.96H213.16c-1.837,0-3.506-0.751-4.713-1.96c-1.209-1.206-1.958-2.876-1.958-4.711v-28.319
	c0-1.835,0.749-3.504,1.958-4.711C209.654,453.505,211.324,452.753,213.16,452.753z"/>
<path style="fill-rule:evenodd;clip-rule:evenodd;fill:#FFFFFF;" d="M437.595,668.23h0.005c0.099-0.059,0.198-0.111,0.302-0.158
	c6.48-3.436,10.897-10.249,10.897-18.094c0-11.302-9.163-20.465-20.466-20.465c-11.302,0-20.465,9.163-20.465,20.465
	c0,11.302,9.163,20.465,20.465,20.465c3.33,0,6.476-0.796,9.255-2.208L437.595,668.23z M428.333,622.92
	c14.944,0,27.059,12.115,27.059,27.058c0,8.906-4.303,16.807-10.943,21.738l10.204,17.676c1.152,1.995,0.462,4.569-1.533,5.722
	h-0.002c-1.995,1.152-4.569,0.463-5.722-1.533l-10.374-17.969c-2.728,0.924-5.648,1.425-8.688,1.425
	c-14.943,0-27.058-12.115-27.058-27.059C401.275,635.035,413.39,622.92,428.333,622.92z"/>
<path style="fill-rule:evenodd;clip-rule:evenodd;fill:#FFFFFF;" d="M415.397,636.863c-2.731,2.697-4.629,6.242-5.258,10.206
	c-0.149,0.947-0.227,1.92-0.227,2.909c0,8.032,5.141,14.864,12.31,17.383c1.913,0.673,3.97,1.039,6.111,1.039
	c2.145,0,4.199-0.366,6.112-1.039c0.765-0.267,1.504-0.586,2.227-0.954c0.092-0.052,0.182-0.097,0.273-0.142
	c2.404-1.275,4.49-3.063,6.114-5.219c-1.273,1.255-2.73,2.328-4.323,3.174c-0.092,0.045-0.182,0.09-0.274,0.142
	c-0.722,0.368-1.461,0.687-2.229,0.954c-1.91,0.676-3.967,1.04-6.109,1.04c-2.144,0-4.199-0.364-6.114-1.04
	c-7.169-2.519-12.308-9.351-12.308-17.382c0-0.99,0.078-1.963,0.227-2.91C412.409,641.997,413.63,639.21,415.397,636.863"/>
<g>
	<defs>
		<polygon id="SVGID_70_" points="516.627,812.466 519.903,773.1 541.645,748.769 550.859,709.04 599.523,666.942 637.087,663.264 
			659.953,693.888 692.618,694.706 724.873,726.964 765.706,731.046 808.579,747.378 850.227,812.466 		"/>
	</defs>
	<clipPath id="SVGID_00000137092690338744427250000003875955595321020827_">
		<use xlink:href="#SVGID_70_"  style="overflow:visible;"/>
	</clipPath>
	
		<linearGradient id="SVGID_00000049916527407486438880000016731734801963106486_" gradientUnits="userSpaceOnUse" x1="639.8577" y1="824.3298" x2="693.7584" y2="717.3619">
		<stop  offset="0" style="stop-color:#9999FF"/>
		<stop  offset="1" style="stop-color:#CCCCFF"/>
	</linearGradient>
	
		<rect x="516.627" y="663.264" style="clip-path:url(#SVGID_00000137092690338744427250000003875955595321020827_);fill:url(#SVGID_00000049916527407486438880000016731734801963106486_);" width="333.599" height="149.202"/>
</g>
<polygon style="fill-rule:evenodd;clip-rule:evenodd;fill:#9999FF;" points="516.627,812.466 519.903,773.1 541.645,748.769 
	550.859,709.04 583.968,680.397 619.123,709.812 658.321,708.177 676.288,744.927 673.022,798.824 725.284,785.758 702.421,752.276 
	739.984,746.559 762.032,769.426 808.579,747.378 850.227,812.466 "/>
<g>
	<defs>
		<path id="SVGID_73_" d="M581.467,812.466c-11.976,0-17.966,0-17.966,0c-17.506-56.379-17.506-116.743,0-173.124
			C597.452,690.636,604.164,755.294,581.467,812.466"/>
	</defs>
	<clipPath id="SVGID_00000120530358124454138530000014814134634434322110_">
		<use xlink:href="#SVGID_73_"  style="overflow:visible;"/>
	</clipPath>
	
		<linearGradient id="SVGID_00000077290828237964904800000005543725218590065312_" gradientUnits="userSpaceOnUse" x1="592.4854" y1="796.3061" x2="553.3303" y2="637.9368">
		<stop  offset="0" style="stop-color:#328B09"/>
		<stop  offset="1" style="stop-color:#B0F122"/>
	</linearGradient>
	
		<rect x="545.995" y="639.342" style="clip-path:url(#SVGID_00000120530358124454138530000014814134634434322110_);fill:url(#SVGID_00000077290828237964904800000005543725218590065312_);" width="58.168" height="173.124"/>
</g>
<g>
	<defs>
		<path id="SVGID_76_" d="M532.475,812.466c-10.565,0-15.848,0-15.848,0c-15.442-49.731-15.442-102.976,0-152.707
			C546.573,705.003,552.494,762.039,532.475,812.466"/>
	</defs>
	<clipPath id="SVGID_00000044891611681550453570000003721731754258867630_">
		<use xlink:href="#SVGID_76_"  style="overflow:visible;"/>
	</clipPath>
	
		<linearGradient id="SVGID_00000026842580401436906180000006709504879664418227_" gradientUnits="userSpaceOnUse" x1="546.9508" y1="819.4766" x2="510.2118" y2="667.189">
		<stop  offset="0" style="stop-color:#328B09"/>
		<stop  offset="1" style="stop-color:#B0F122"/>
	</linearGradient>
	
		<rect x="501.185" y="659.76" style="clip-path:url(#SVGID_00000044891611681550453570000003721731754258867630_);fill:url(#SVGID_00000026842580401436906180000006709504879664418227_);" width="51.309" height="152.707"/>
</g>
<defs>
	
		<filter id="Adobe_OpacityMaskFilter_00000139998281119525783280000000467824246449428363_" filterUnits="userSpaceOnUse" x="520.455" y="688.742" width="9.173" height="123.724">
		<feColorMatrix  type="matrix" values="1 0 0 0 0  0 1 0 0 0  0 0 1 0 0  0 0 0 1 0"/>
	</filter>
</defs>
<mask maskUnits="userSpaceOnUse" x="520.455" y="688.742" width="9.173" height="123.724" id="SVGID_00000085229066609069624500000013845348735076710550_">
	<g style="filter:url(#Adobe_OpacityMaskFilter_00000139998281119525783280000000467824246449428363_);">
		
			<linearGradient id="SVGID_00000127742420441986153280000001946919031745719424_" gradientUnits="userSpaceOnUse" x1="67.9742" y1="872.1773" x2="45.2308" y2="692.3973" gradientTransform="matrix(1 0 0 1 469.5874 -22.6128)">
			<stop  offset="0" style="stop-color:#FFFFFF"/>
			<stop  offset="1" style="stop-color:#000000"/>
		</linearGradient>
		
			<rect x="520.455" y="688.742" style="fill:url(#SVGID_00000127742420441986153280000001946919031745719424_);" width="9.175" height="123.724"/>
	</g>
</mask>
<path style="mask:url(#SVGID_00000085229066609069624500000013845348735076710550_);fill-rule:evenodd;clip-rule:evenodd;fill:#FFFFFF;" d="
	M520.455,688.742c0,0,10.638,46.151,4.094,123.724h3.257C527.806,812.466,535.115,748.304,520.455,688.742"/>
<g>
	<defs>
		<path id="SVGID_81_" d="M537.855,812.466c10.565,0,15.848,0,15.848,0c15.442-49.731,15.442-102.976,0-152.707
			C523.757,705.003,517.836,762.039,537.855,812.466"/>
	</defs>
	<clipPath id="SVGID_00000000205389725336298180000017541918842831363249_">
		<use xlink:href="#SVGID_81_"  style="overflow:visible;"/>
	</clipPath>
	
		<linearGradient id="SVGID_00000138544387268159741430000013748488126120738747_" gradientUnits="userSpaceOnUse" x1="532.3532" y1="815.6634" x2="555.0963" y2="653.2127">
		<stop  offset="0" style="stop-color:#53C506"/>
		<stop  offset="1" style="stop-color:#B0F122"/>
	</linearGradient>
	
		<rect x="517.836" y="659.76" style="clip-path:url(#SVGID_00000000205389725336298180000017541918842831363249_);fill:url(#SVGID_00000138544387268159741430000013748488126120738747_);" width="51.309" height="152.707"/>
</g>
<defs>
	
		<filter id="Adobe_OpacityMaskFilter_00000066490389705942327860000012855737277408860854_" filterUnits="userSpaceOnUse" x="568.821" y="663.023" width="12.823" height="149.443">
		<feColorMatrix  type="matrix" values="1 0 0 0 0  0 1 0 0 0  0 0 1 0 0  0 0 0 1 0"/>
	</filter>
</defs>
<mask maskUnits="userSpaceOnUse" x="568.821" y="663.023" width="12.823" height="149.443" id="SVGID_00000014634217846292047640000008436879480110775180_">
	<g style="filter:url(#Adobe_OpacityMaskFilter_00000066490389705942327860000012855737277408860854_);">
		
			<linearGradient id="SVGID_00000172442575462211494280000009974172264201052085_" gradientUnits="userSpaceOnUse" x1="117.7807" y1="891.7501" x2="87.1233" y2="667.2348" gradientTransform="matrix(1 0 0 1 475.393 -22.6128)">
			<stop  offset="0" style="stop-color:#FFFFFF"/>
			<stop  offset="1" style="stop-color:#000000"/>
		</linearGradient>
		
			<rect x="568.821" y="663.023" style="fill:url(#SVGID_00000172442575462211494280000009974172264201052085_);" width="12.823" height="149.443"/>
	</g>
</mask>
<path style="mask:url(#SVGID_00000014634217846292047640000008436879480110775180_);fill-rule:evenodd;clip-rule:evenodd;fill:#FFFFFF;" d="
	M568.821,663.023c0,0,17.123,66.558,3.663,149.443h5.117C577.601,812.466,591.076,739.172,568.821,663.023"/>
<g>
	<defs>
		<path id="SVGID_86_" d="M572.484,812.466c-3.868-50.337,13.618-99.981,48.181-136.783c-19.409,38.19-2.524,88.06-22.457,136.783
			H572.484z"/>
	</defs>
	<clipPath id="SVGID_00000083088230337837271290000012450203652379608707_">
		<use xlink:href="#SVGID_86_"  style="overflow:visible;"/>
	</clipPath>
	
		<linearGradient id="SVGID_00000155130197736573253830000003027166488799197883_" gradientUnits="userSpaceOnUse" x1="601.9072" y1="816.4548" x2="587.1616" y2="669.5815">
		<stop  offset="0" style="stop-color:#53C506"/>
		<stop  offset="1" style="stop-color:#B0F122"/>
	</linearGradient>
	
		<rect x="568.616" y="675.683" style="clip-path:url(#SVGID_00000083088230337837271290000012450203652379608707_);fill:url(#SVGID_00000155130197736573253830000003027166488799197883_);" width="52.049" height="136.783"/>
</g>
<defs>
	
		<filter id="Adobe_OpacityMaskFilter_00000165934684131647686510000011533248488543227051_" filterUnits="userSpaceOnUse" x="534.889" y="685.073" width="13.512" height="127.394">
		<feColorMatrix  type="matrix" values="1 0 0 0 0  0 1 0 0 0  0 0 1 0 0  0 0 0 1 0"/>
	</filter>
</defs>
<mask maskUnits="userSpaceOnUse" x="534.889" y="685.073" width="13.512" height="127.394" id="SVGID_00000085219360324636756430000003146882222538442382_">
	<g style="filter:url(#Adobe_OpacityMaskFilter_00000165934684131647686510000011533248488543227051_);">
		
			<linearGradient id="SVGID_00000043419799999674269730000014459011953696554409_" gradientUnits="userSpaceOnUse" x1="87.4026" y1="896.4507" x2="56.7452" y2="671.935" gradientTransform="matrix(1 0 0 1 471.3199 -22.6128)">
			<stop  offset="0" style="stop-color:#FFFFFF"/>
			<stop  offset="1" style="stop-color:#000000"/>
		</linearGradient>
		
			<rect x="534.888" y="685.073" style="fill:url(#SVGID_00000043419799999674269730000014459011953696554409_);" width="13.513" height="127.394"/>
	</g>
</mask>
<path style="mask:url(#SVGID_00000085219360324636756430000003146882222538442382_);fill-rule:evenodd;clip-rule:evenodd;fill:#FFFFFF;" d="
	M548.401,685.073c0,0-26.13,58.388-5.715,127.393h3.094C545.78,812.466,526.758,765.406,548.401,685.073"/>
<defs>
	
		<filter id="Adobe_OpacityMaskFilter_00000056401682767918815380000005779239803808125100_" filterUnits="userSpaceOnUse" x="581.431" y="708.548" width="21.083" height="103.918">
		<feColorMatrix  type="matrix" values="1 0 0 0 0  0 1 0 0 0  0 0 1 0 0  0 0 0 1 0"/>
	</filter>
</defs>
<mask maskUnits="userSpaceOnUse" x="581.431" y="708.548" width="21.083" height="103.918" id="SVGID_00000040557768124017327540000013598663138762753965_">
	<g style="filter:url(#Adobe_OpacityMaskFilter_00000056401682767918815380000005779239803808125100_);">
		
			<linearGradient id="SVGID_00000006690732728418526630000013535398253831409555_" gradientUnits="userSpaceOnUse" x1="102.5867" y1="852.7701" x2="126.6629" y2="718.394" gradientTransform="matrix(1 0 0 1 476.9065 -22.6128)">
			<stop  offset="0" style="stop-color:#FFFFFF"/>
			<stop  offset="1" style="stop-color:#000000"/>
		</linearGradient>
		
			<rect x="581.429" y="708.548" style="fill:url(#SVGID_00000006690732728418526630000013535398253831409555_);" width="21.086" height="103.918"/>
	</g>
</mask>
<path style="mask:url(#SVGID_00000040557768124017327540000013598663138762753965_);fill-rule:evenodd;clip-rule:evenodd;fill:#FFFFFF;" d="
	M602.515,708.548c0,0-22.087,36.755-21.048,103.918h3.88C585.347,812.466,581.63,761.422,602.515,708.548"/>
<path style="fill-rule:evenodd;clip-rule:evenodd;fill:#F98AFE;" d="M699.719,523.291l-86.306,98.321
	c0,0,44.916,41.649,89.829,45.732l28.581-124.127L699.719,523.291z"/>
<path style="fill-rule:evenodd;clip-rule:evenodd;fill:#C835F8;" d="M622.942,610.759l-9.529,10.854
	c0,0,44.916,41.649,89.829,45.732l12.681-55.074c-8.027-15.421-14.102-27.068-14.102-27.068l-10.013,3.949
	c0,0,10.827,34.23-0.197,48.928C680.588,652.779,627.36,635.293,622.942,610.759"/>
<path style="fill-rule:evenodd;clip-rule:evenodd;fill:#4A1877;" d="M623.865,630.357h-0.003l-12.888,35.465l14.688,32.554
	l95.54,51.041l26.136,42.87l44.916-6.535l-53.899-64.511l-28.581-21.232l66.145-28.583l5.718,50.63c0,0,17.149,6.535,43.281-1.631
	l-32.664-85.746l-89.012,32.666C671.494,664.457,639.748,642.805,623.865,630.357"/>
<path style="fill-rule:evenodd;clip-rule:evenodd;fill:#4A1877;" d="M759.795,798.21l-7.963,14.257h88.604l-10.004-7.724
	l-34.501-10.207C795.931,794.535,784.702,806.579,759.795,798.21"/>
<path style="fill-rule:evenodd;clip-rule:evenodd;fill:#FFAC9C;" d="M763.68,789.909l-1.535,9.042
	c15.711,4.638,25.608,0.999,30.38-1.856l-11.129-9.762L763.68,789.909z"/>
<path style="fill-rule:evenodd;clip-rule:evenodd;fill:#4A1877;" d="M789.6,733.899l-3.266,12.249l69.82,23.681l-2.857-18.374
	l-37.565-20.416C815.732,731.039,805.523,740.022,789.6,733.899"/>
<path style="fill-rule:evenodd;clip-rule:evenodd;fill:#FFAC9C;" d="M791.926,724.158l-2.326,9.741
	c9.715,3.736,17.303,1.849,21.743-0.191l-3.352-9.675l-0.002-0.003C801.589,724.748,796.162,724.602,791.926,724.158"/>
<polygon style="fill-rule:evenodd;clip-rule:evenodd;fill:#F98AFE;" points="721.78,586.835 776.737,614.058 819.61,580.168 
	805.318,569.553 773.471,585.885 731.823,543.218 "/>
<polygon style="fill-rule:evenodd;clip-rule:evenodd;fill:#C835F8;" points="721.78,586.835 734.27,587.314 731.823,543.218 "/>
<path style="fill-rule:evenodd;clip-rule:evenodd;fill:#F98AFE;" d="M714.672,559.753c0,0-18.781,0.408-22.864,29.399l42.87,54.305
	l92.278-13.064l-5.921-15.926l-67.166,0.408L714.672,559.753z"/>
<path style="fill-rule:evenodd;clip-rule:evenodd;fill:#34495E;" d="M743.246,464.211c0,0,60.837,36.341,84.521,3.675
	c23.681-32.664-13.475-35.522-21.233-27.356c0,0-61.653-52.264-83.703-13.066c0,0-47.35,28.983-22.45,59.611
	C725.277,517.704,743.246,464.211,743.246,464.211"/>
<path style="fill-rule:evenodd;clip-rule:evenodd;fill:#FFAC9C;" d="M710.596,514.851l-0.003,0.003l-6.805,10.962l17.685,10.979
	l-0.003-12.788C717.352,521.572,713.68,518.472,710.596,514.851"/>
<path style="fill-rule:evenodd;clip-rule:evenodd;fill:#9999FF;" d="M832.532,522.094l19.277,5.167
	c2.336,0.626,3.734,3.046,3.108,5.382L844.5,571.518c-0.626,2.336-3.046,3.734-5.384,3.108l-19.277-5.165
	c-2.336-0.626-3.734-3.046-3.108-5.382l10.417-38.878C827.776,522.866,830.194,521.468,832.532,522.094"/>
<path style="fill-rule:evenodd;clip-rule:evenodd;fill:#CCCCFF;" d="M831.679,525.282c-0.574-0.154-1.19,0.201-1.344,0.774
	l-10.417,38.873c-0.153,0.576,0.201,1.19,0.777,1.343l19.272,5.165c0.577,0.156,1.191-0.201,1.344-0.775l10.417-38.872
	c0.153-0.576-0.201-1.19-0.777-1.344L831.679,525.282z"/>
<path style="fill-rule:evenodd;clip-rule:evenodd;fill:#FFCCBC;" d="M831.17,557.687l19.597-1.226l1.838,5.512
	C852.605,561.973,835.658,566.056,831.17,557.687"/>
<path style="fill-rule:evenodd;clip-rule:evenodd;fill:#FFCCBC;" d="M831.958,563.264l19.598-1.223l1.839,5.512
	C853.395,567.553,836.45,571.636,831.958,563.264"/>
<path style="fill-rule:evenodd;clip-rule:evenodd;fill:#FFCCBC;" d="M831.538,568.703l18.195-1.138l1.705,5.118
	C851.438,572.682,835.706,576.472,831.538,568.703"/>
<path style="fill-rule:evenodd;clip-rule:evenodd;fill:#FFAC9C;" d="M840.323,574.774l-20.713,5.394l-7.979-5.927l8.409-4.728
	l19.073,5.113C839.517,574.734,839.923,574.782,840.323,574.774"/>
<path style="fill-rule:evenodd;clip-rule:evenodd;fill:#FFCCBC;" d="M805.318,569.553l3.249-14.178l9.798-8.167l16.129,5.307
	c0,0-3.007,6.96-12.018,2.867c0,0-3.221,4.208-0.232,8.159c2.99,3.948,0.26,10.478-7.934,12.69L805.318,569.553z"/>
<polygon style="fill-rule:evenodd;clip-rule:evenodd;fill:#FFCCBC;" points="821.036,614.466 834.483,610.459 846.528,617.4 
	850.203,628.834 849.348,636.926 844.013,630.605 847.945,637.713 847.142,640.878 838.872,629.344 826.957,630.392 "/>
<path style="fill-rule:evenodd;clip-rule:evenodd;fill:#FFCCBC;" d="M708.218,488.544c-5.878,35.196,9.111,32.726,40.223,55.543
	l17.638-24.989l9.8,6.369l8.636-45.32l-0.002-0.005c-21.428-4.083-41.267-15.93-41.267-15.93S723.317,509.375,708.218,488.544"/>
<path style="fill-rule:evenodd;clip-rule:evenodd;fill:#FFCCBC;" d="M728.718,471.324c5.075,0,9.189,5.979,9.189,13.352
	c0,7.373-4.114,13.352-9.189,13.352c-5.072,0-9.186-5.979-9.186-13.352C719.531,477.303,723.645,471.324,728.718,471.324"/>
</svg>
