<?xml version="1.0" encoding="utf-8"?>
<!-- Generator: Adobe Illustrator 27.5.0, SVG Export Plug-In . SVG Version: 6.00 Build 0)  -->
<svg version="1.1" xmlns="http://www.w3.org/2000/svg" xmlns:xlink="http://www.w3.org/1999/xlink" x="0px" y="0px"
	 viewBox="0 0 500 500" style="enable-background:new 0 0 500 500;" xml:space="preserve">
<g id="BACKGROUND">
	<rect style="fill:#FFFFFF;" width="500" height="500"/>
</g>
<g id="OBJECTS">
	<g>
		<path style="fill:#E1E8EF;" d="M471.302,465.995H39.05c-6.052,0-10.959-4.906-10.959-10.959l0,0
			c0-6.053,4.906-10.959,10.959-10.959h432.251c6.052,0,10.959,4.906,10.959,10.959l0,0
			C482.26,461.088,477.354,465.995,471.302,465.995z"/>
		<path style="fill:#A4BFD8;" d="M229.364,457.52c0,0-5.97-16.558-42.566-4.315c-28.501,9.535-39.18-21.15-64.745-4.511
			s-44.041-15.248-53.288,8.825H229.364z"/>
		<ellipse style="fill:#F2F5F9;" cx="254.214" cy="255.839" rx="164.545" ry="154.423"/>
		<g>
			<path style="fill:#D5ECF7;" d="M374.736,114.293c0,0,3.495-34.033,34.951-34.033c31.456,0,37.087,29.154,34.951,34.785
				c0,0,19.417,1.747,21.553,15.34c2.136,13.592-9.514,23.495-27.572,23.495c-18.058,0-59.611,0-59.611,0
				s-26.019-0.582-26.019-17.281C352.988,119.9,365.609,114.317,374.736,114.293z"/>
			<path style="fill:#D5ECF7;" d="M213.204,66.054c0,0,3.325-32.381,33.255-32.381c29.929,0,35.287,27.739,33.255,33.097
				c0,0,18.475,1.663,20.507,14.595c2.032,12.932-9.053,22.355-26.234,22.355c-17.181,0-56.718,0-56.718,0
				s-24.756-0.554-24.756-16.443C192.512,71.388,204.521,66.077,213.204,66.054z"/>
		</g>
		<g>
			<g>
				<path style="fill:#433E51;" d="M94.876,59.915H86.94c0,0-9.779,3.98-9.779,14.669v286.953c0,3.171,2.571,5.743,5.743,5.743
					h169.639c3.228,0,6.226-1.673,7.921-4.419l5.558-9.005L94.876,59.915z"/>
				<path style="fill:#5A5368;" d="M259.956,358.751H93.032c-3.867,0-7.001-3.135-7.001-7.001V66.916
					c0-3.867,3.135-7.001,7.001-7.001h166.924c3.867,0,7.001,3.135,7.001,7.001v284.833
					C266.957,355.616,263.823,358.751,259.956,358.751z"/>
				<path style="fill:#E2ECF7;" d="M249.237,349.881H103.751c-3.507,0-6.349-2.843-6.349-6.349V75.133
					c0-3.507,2.843-6.349,6.349-6.349h145.486c3.507,0,6.349,2.843,6.349,6.349v268.398
					C255.586,347.038,252.743,349.881,249.237,349.881z"/>
				<polygon style="fill:#5A5368;" points="177.432,68.784 175.556,68.784 153.097,68.784 159.465,75.607 175.556,75.607 
					177.432,75.607 193.522,75.607 199.89,68.784 				"/>
				
					<text transform="matrix(1 0 0 1 104.457 79.0132)" style="fill:#5A5368; font-family:'Montserrat-ExtraBold'; font-size:7.9603px;">VPN</text>
				<circle style="fill:#5A5368;" cx="246.516" cy="76.213" r="3.79"/>
				<path style="fill:#5A5368;" d="M82.088,103.884v55.676c0,1.022-1.048,1.709-1.985,1.302l-4.989-2.169v-53.824l4.974-2.271
					C81.023,102.171,82.088,102.855,82.088,103.884z"/>
				<path style="fill:#5A5368;" d="M81.33,181.281v21.28c0,1.203-1.223,2.019-2.334,1.559l-3.883-1.61v-21.53l4.451-1.086
					C80.464,179.675,81.33,180.356,81.33,181.281z"/>
				<rect x="75.114" y="128.597" style="fill:#433E51;" width="6.974" height="1.289"/>
				<g>
					
						<line style="fill:none;stroke:#302D3D;stroke-linecap:round;stroke-linejoin:round;stroke-miterlimit:10;" x1="86.03" y1="84.249" x2="86.03" y2="294.844"/>
					
						<line style="fill:none;stroke:#302D3D;stroke-linecap:round;stroke-linejoin:round;stroke-miterlimit:10;" x1="86.03" y1="338.965" x2="86.03" y2="309.096"/>
				</g>
			</g>
			<g>
				<g>
					<path style="fill:#64C0FF;" d="M232.571,197.562c-32.802-15.672-55.344-15.672-55.344-15.672s-22.542,0-55.344,15.672
						c-3.511,1.678-5.63,5.345-5.278,9.221c1.508,16.644,5.892,61.572,10.684,78.543c0.944,3.342,2.929,6.288,5.667,8.424
						l37.967,29.628c1.801,1.405,4.02,2.169,6.304,2.169c2.284,0,4.503-0.763,6.304-2.169l37.967-29.628
						c2.738-2.137,4.723-5.082,5.667-8.424c4.793-16.972,9.176-61.899,10.684-78.543
						C238.201,202.907,236.083,199.24,232.571,197.562z"/>
					<path style="fill:#3396FF;" d="M228.617,201.575c-30.458-14.552-51.389-14.552-51.389-14.552s-20.931,0-51.389,14.552
						c-3.26,1.558-5.227,4.963-4.901,8.562c1.4,15.455,5.471,57.172,9.921,72.931c0.876,3.103,2.72,5.839,5.262,7.822l35.254,27.511
						c1.672,1.305,3.733,2.014,5.854,2.014c2.121,0,4.181-0.709,5.854-2.014l35.254-27.511c2.542-1.984,4.386-4.719,5.262-7.822
						c4.45-15.759,8.521-57.476,9.921-72.931C233.844,206.538,231.877,203.133,228.617,201.575z"/>
					<path style="opacity:0.35;fill:#3396FF;" d="M125.838,201.575c-3.26,1.558-5.227,4.963-4.901,8.562
						c1.4,15.455,5.471,57.172,9.921,72.931c0.876,3.103,2.72,5.838,5.262,7.822l35.254,27.511c1.672,1.305,3.733,2.014,5.854,2.014
						V187.023C177.227,187.023,156.296,187.023,125.838,201.575z"/>
				</g>
				<g>
					<path style="fill:#E2E8EB;" d="M191.092,239.012v-21.34c0-2.093-1.697-3.79-3.79-3.79h-20.043c-2.094,0-3.79,1.697-3.79,3.79
						v10.992h-5.117V214.74c0-3.489,2.828-6.317,6.317-6.317h25.8c3.489,0,6.317,2.828,6.317,6.317v24.271H191.092z"/>
					<path style="fill:#FFD41F;" d="M195.535,237.761h-18.308H158.92c-2.575,0-4.662,2.087-4.662,4.662v26.097
						c0,0,4.321,18.137,22.97,18.137s22.97-18.137,22.97-18.137v-26.097C200.197,239.848,198.11,237.761,195.535,237.761z"/>
					<path style="opacity:0.55;fill:#FFD41F;" d="M180.563,281.597c-18.649,0-22.97-18.137-22.97-18.137v-25.484
						c-1.924,0.574-3.336,2.337-3.336,4.447v26.097c0,0,4.321,18.137,22.97,18.137c12.171,0,18.237-7.723,20.984-13.09
						C194.725,277.729,189.174,281.597,180.563,281.597z"/>
					<path style="fill:#823D00;" d="M177.227,248.222c0,0-7.05,0-7.05,5.97c0,5.232,3.525,5.117,3.525,5.117v6.766h3.525h3.525
						v-6.766c0,0,3.525,0.115,3.525-5.117C184.278,248.222,177.227,248.222,177.227,248.222z"/>
				</g>
			</g>
			<g>
				
					<ellipse transform="matrix(0.9871 -0.1602 0.1602 0.9871 -19.6301 30.2106)" style="fill:#3396FF;" cx="177.568" cy="136.862" rx="29.32" ry="29.32"/>
				<path style="fill:#8ACDFF;" d="M163.765,140.719c-9.467,9.023-8.446,24.342-8.446,24.342c6.216,5.307,21.909,6.368,21.909,6.368
					s15.692-1.061,21.909-6.368c0,0,1.021-15.319-8.446-24.342C183.057,133.443,171.398,133.443,163.765,140.719z"/>
				<circle style="fill:#8ACDFF;" cx="177.227" cy="115.065" r="14.896"/>
			</g>
			<g>
				<path style="fill:#4C94FF;" d="M217.936,156.792v-43.438c0-2.512,2.036-4.549,4.548-4.549h33.507c0,0,5.307,2.729,5.307,7.884
					h19.369c2.826,0,5.117,2.291,5.117,5.117v33.545c0,3.517-2.851,6.368-6.368,6.368h-56.553
					C220.143,161.719,217.936,159.513,217.936,156.792z"/>
				<path style="opacity:0.55;fill:#4C94FF;" d="M217.936,156.792v-43.438c0-2.512,2.036-4.549,4.548-4.549h33.507
					c0,0,5.307,2.729,5.307,7.884h19.369c2.826,0,5.117,2.291,5.117,5.117v33.545c0,3.517-2.851,6.368-6.368,6.368h-56.553
					C220.143,161.719,217.936,159.513,217.936,156.792z"/>
				<g>
					<path style="fill:#FFFFFF;" d="M229.535,119.045V89.688c0-3.067,2.486-5.553,5.553-5.553h36.976l11.22,11.03v27.897h-53.748
						V119.045z"/>
					<path style="fill:#EFEFEF;" d="M271.722,84.217v10.302c0,1.257,1.042,2.231,2.225,2.081l9.147-1.158
						c0.18-0.023,0.254-0.257,0.121-0.389l-11.091-11.02C271.972,83.882,271.722,83.996,271.722,84.217z"/>
					<path style="fill:#E89D3A;" d="M245.296,98.608l2.571-1.567c0.22-0.134,0.503-0.104,0.69,0.073l4.59,4.346
						c0.238,0.225,0.616,0.205,0.828-0.044l8.417-9.881c0.195-0.229,0.534-0.268,0.775-0.089l3.051,2.26
						c0.282,0.209,0.311,0.621,0.06,0.867l-11.896,11.683c-0.207,0.203-0.533,0.219-0.759,0.037l-8.39-6.752
						C244.927,99.294,244.958,98.814,245.296,98.608z"/>
				</g>
				<path style="fill:#4C94FF;" d="M222.637,159.83v-43.438c0-2.512,2.036-4.549,4.548-4.549h33.507c0,0,5.307,2.729,5.307,7.884
					h19.369c2.826,0,5.117,2.291,5.117,5.117v33.545c0,3.517-2.851,6.368-6.368,6.368h-56.553
					C224.843,164.757,222.637,162.551,222.637,159.83z"/>
				<rect x="228.853" y="127.611" style="fill:#FFD41F;" width="54.43" height="4.548"/>
				<rect x="254.779" y="127.611" style="fill:#FFB522;" width="28.504" height="4.548"/>
				<rect x="267.288" y="127.611" style="fill:#FF9B24;" width="15.995" height="4.548"/>
			</g>
			<g>
				<g>
					<circle style="fill:#FFFFFF;" cx="191.1" cy="109.173" r="2.9"/>
					
						<path style="fill:none;stroke:#FFFFFF;stroke-width:1.2;stroke-linecap:round;stroke-linejoin:round;stroke-miterlimit:10;" d="
						M191.1,109.173V94.464c0-2.585,2.096-4.681,4.681-4.681h29.281"/>
				</g>
				<g>
					<path style="fill:#FFFFFF;" d="M201.221,136.862c0,1.602-1.298,2.9-2.9,2.9c-1.601,0-2.9-1.298-2.9-2.9
						c0-1.601,1.298-2.9,2.9-2.9C199.923,133.963,201.221,135.261,201.221,136.862z"/>
					
						<path style="fill:none;stroke:#FFFFFF;stroke-width:1.2;stroke-linecap:round;stroke-linejoin:round;stroke-miterlimit:10;" d="
						M198.321,136.862v-32.121c0-2.907,2.357-5.263,5.263-5.263h20.265"/>
				</g>
				<g>
					<path style="fill:#FFFFFF;" d="M208.925,187.708c0,1.732-1.404,3.137-3.137,3.137s-3.137-1.404-3.137-3.137
						c0-1.732,1.404-3.137,3.137-3.137S208.925,185.976,208.925,187.708z"/>
					
						<path style="fill:none;stroke:#FFFFFF;stroke-width:1.2;stroke-linecap:round;stroke-linejoin:round;stroke-miterlimit:10;" d="
						M205.788,187.708h21.444c2.905,0,5.259-2.355,5.259-5.259v-13.447"/>
				</g>
				<g>
					<path style="fill:#FFFFFF;" d="M218.772,229.63c0,2.041-1.655,3.696-3.696,3.696c-2.041,0-3.696-1.655-3.696-3.696
						s1.655-3.696,3.696-3.696C217.117,225.935,218.772,227.589,218.772,229.63z"/>
					
						<path style="fill:none;stroke:#FFFFFF;stroke-width:1.2;stroke-linecap:round;stroke-linejoin:round;stroke-miterlimit:10;" d="
						M215.076,229.63h25.531c3.132,0,5.671-2.539,5.671-5.671v-54.957"/>
				</g>
			</g>
		</g>
		<g>
			<path style="fill:#FFB031;" d="M229.383,249.587c0,0-1.061-5.534-8.491-5.534c-4.466,0-6.658,1.808-7.697,3.25
				c-0.768,1.067-1.976,1.727-3.29,1.697l-16.418-0.38c0,0-2.217,1.251-2.388,1.478c-0.136,0.182,1.541,3.7,2.222,5.109
				c0.171,0.354,0.525,0.584,0.918,0.597l2.887,0.093v-1.308l2.335,0.058c0.383,0.009,0.727,0.234,0.891,0.58l1.095,2.319h3.582
				v-1.824c0-0.514,0.423-0.927,0.937-0.915l3.479,0.086l1.383,3.165h3.525c0,0,1.663,2.674,5.636,3.469
				c3.973,0.795,9.376-0.058,10.285-2.218C231.184,257.149,229.383,249.587,229.383,249.587z M220.893,256.068
				c-1.649,0-2.985-1.336-2.985-2.985c0-1.649,1.336-2.985,2.985-2.985c1.648,0,2.985,1.336,2.985,2.985
				C223.878,254.732,222.541,256.068,220.893,256.068z"/>
			<g>
				<path style="fill:#EFEFEF;" d="M310.422,434.028v8.339c0,0-24.259,10.31-25.775,11.371c-1.516,1.061-0.682,4.169,2.426,4.776
					l47.418-0.834v-22.629L310.422,434.028z"/>
				<path style="fill:#51251E;" d="M287.073,458.514l47.418-0.834v-15.92c0,0-4.89,2.843-13.077,2.843
					c-8.187,0-10.992-2.236-10.992-2.236s-24.259,10.31-25.775,11.371C283.132,454.8,283.965,457.908,287.073,458.514z"/>
				<path style="fill:#381612;" d="M284.039,455.968c0.31,1.101,1.308,2.209,3.034,2.546l47.418-0.834v-3.688L284.039,455.968z"/>
				
					<line style="fill:none;stroke:#381612;stroke-width:0.75;stroke-linecap:round;stroke-miterlimit:10;" x1="301.894" y1="446.764" x2="305.419" y2="450.327"/>
				
					<line style="fill:none;stroke:#381612;stroke-width:0.75;stroke-linecap:round;stroke-miterlimit:10;" x1="306.185" y1="444.714" x2="310.084" y2="448.656"/>
			</g>
			<path style="fill:#411B13;" d="M415.341,418.108l5.231,3.866c0,0-6.368,20.241-2.615,28.201c0,0,2.388,1.213,4.511-0.531
				c1.919-1.576,17.781-33.766,20.805-39.923c0.281-0.572,0.062-1.256-0.495-1.567l-17.202-9.605L415.341,418.108z"/>
			<g>
				<path style="fill:#51251E;" d="M415.341,418.108l5.231,3.866c0,0-6.368,20.241-2.615,28.201c0,0,2.388,1.213,4.511-0.531
					c1.919-1.576,17.781-33.766,20.805-39.923c0.281-0.572,0.062-1.256-0.495-1.567l-17.202-9.605L415.341,418.108z"/>
				<path style="fill:#EFEFEF;" d="M431.718,401.98l-6.143-3.43l-10.08,19.264c0.063,0.184,0.13,0.371,0.206,0.561l4.871,3.6
					C420.572,421.975,430.243,415.303,431.718,401.98z"/>
				<path style="fill:#381612;" d="M422.467,449.645c1.919-1.576,17.781-33.766,20.805-39.923c0.281-0.572,0.062-1.256-0.495-1.567
					l-2.333-1.302l-22.488,43.323C417.956,450.175,420.344,451.388,422.467,449.645z"/>
				
					<line style="fill:none;stroke:#381612;stroke-width:0.75;stroke-linecap:round;stroke-miterlimit:10;" x1="420.268" y1="425.078" x2="426.599" y2="423.965"/>
				
					<line style="fill:none;stroke:#381612;stroke-width:0.75;stroke-linecap:round;stroke-miterlimit:10;" x1="418.973" y1="430.219" x2="424.722" y2="429.252"/>
			</g>
			<g>
				<path style="fill:#5A2402;" d="M311.067,300.53c0,0-8.528,70.729-7.619,135.014c0,0,24.107,1.895,38.207,1.213
					c0,0-1.668-35.023,0-53.521c1.668-18.497,4.397-66.56,4.397-66.56s12.433,70.957,22.439,79.826
					c10.007,8.87,46.167,28.201,46.167,28.201l14.024-29.338l-32.901-20.317l-6.823-75.215L311.067,300.53z"/>
				<polyline style="fill:none;stroke:#7F370E;stroke-width:0.75;stroke-linecap:round;stroke-miterlimit:10;" points="
					383.473,310.309 388.391,378.566 424.722,403.652 				"/>
				
					<line style="fill:none;stroke:#7F370E;stroke-width:0.75;stroke-linecap:round;stroke-miterlimit:10;" x1="340.028" y1="314.186" x2="336.442" y2="436.896"/>
				<path style="opacity:0.44;fill:#5A2402;" d="M343.291,361.442c1.392-20.644,2.762-44.765,2.762-44.765l-6.024-2.491
					L343.291,361.442z"/>
				<path style="fill:none;stroke:#7F370E;stroke-width:0.75;stroke-linecap:round;stroke-miterlimit:10;" d="M310.574,310.309
					c0,0,3.866-1.516,6.747-6.747"/>
				
					<line style="fill:none;stroke:#7F370E;stroke-width:0.75;stroke-linecap:round;stroke-miterlimit:10;" x1="337.391" y1="313.095" x2="346.052" y2="316.677"/>
				<path style="fill:none;stroke:#7F370E;stroke-width:0.75;stroke-linecap:round;stroke-miterlimit:10;" d="M370.614,304.699
					c0,0,5.041,6.747,17.777,5.837"/>
			</g>
			<g>
				<path style="fill:#F9D5BF;" d="M242.271,248.146c0,0-16.678,0.455-17.208,0.455c-0.531,0-2.956,0.682-3.032,3.26
					c-0.076,2.578,5.231,3.715,7.278,3.715c0,0-1.421,6.065-7.05,6.065c0,0-2.672,0.227-4.378-0.853c0,0-1.137,0.568-0.512,2.559
					c0.626,1.99,3.525,3.696,3.525,3.696s-1.649,3.354,2.047,5.913c3.696,2.559,8.87,3.013,9.211-1.137c0,0,2.54,3.013,7.315,2.786
					c4.776-0.227,6.812-1.895,6.812-1.895L242.271,248.146z"/>
				<path style="fill:#FCA695;" d="M237.105,262.392c-4.597-2.091-4.557-6.267-4.557-6.267l-3.254-0.499
					c-0.1,0.389-1.022,3.654-3.82,5.203c2.116,0.297,3.361,0.698,3.361,0.698l2.215-3.071
					C233.232,261.352,237.105,262.392,237.105,262.392z"/>
				<path style="fill:none;stroke:#DB7665;stroke-width:0.5;stroke-linecap:round;stroke-miterlimit:10;" d="M238.784,263.232
					c0,0-5.496-1.99-6.235-7.107c0,0-4.464-0.596-7.178-1.264"/>
				<path style="fill:none;stroke:#DB7665;stroke-width:0.5;stroke-linecap:round;stroke-miterlimit:10;" d="M225.788,260.917
					c0,0,3.69,0.041,5.567,2.315c1.876,2.274-1.365,5.288-2.274,5.288c0,0-6.254-0.739-8.187-1.478"/>
				<path style="fill:none;stroke:#DB7665;stroke-width:0.5;stroke-linecap:round;stroke-miterlimit:10;" d="M229.08,268.52
					c0,0,2.331,0.91,3.07,3.298c0,0,0.227,3.158-3.753,3.086"/>
			</g>
			<g>
				<path style="fill:#F9D5BF;" d="M400.502,303.543c0,0-3.184,4.776-3.468,7.164c-0.284,2.388,1.478,5.572,3.184,7.278
					c0,0,0.682,4.492,0.853,5.686c0.171,1.194,3.525,2.16,5.686,0.398c0,0,3.506,3.257,6.538,0.965c0,0,1.061,0.589,2.578-0.094
					c1.516-0.682,7.278-4.397,7.505-5.155c0.227-0.758,0.379-16.678,0-18.118C422.998,300.227,400.502,303.543,400.502,303.543z"/>
				<path style="fill:#FCA695;" d="M397.706,314.186c0.622,1.461,1.569,2.857,2.511,3.799c0,0,0.09,0.594,0.213,1.403
					c0.237,0.25,0.384,0.395,0.384,0.395l-0.404-4.357C399.517,315.448,398.455,314.768,397.706,314.186z"/>
				
					<line style="fill:none;stroke:#DB7665;stroke-width:0.5;stroke-linecap:round;stroke-miterlimit:10;" x1="400.255" y1="313.759" x2="401.089" y2="322.742"/>
			</g>
			<g>
				<path style="fill:#FFFFFF;" d="M397.375,298.654l1.876,5.591c0,0,18.814-0.91,25.415-1.668c0,0-0.455-4.697-1.137-6.669
					C422.846,293.935,397.375,298.654,397.375,298.654z"/>
				<path style="fill:#FFFFFF;" d="M250.284,248.146h-8.013c0,0,1.342,18.497,4.007,24.562h5.811L250.284,248.146z"/>
				<path style="fill:#73A2F4;" d="M325.707,189.9c0,0-7.287,2.452-6.851,7.455c0,0-13.475,3.336-17.682,6.633
					c-4.207,3.298-22.288,31.498-24.334,37.184l-26.066,4.432c-1.139,0.194-1.936,1.233-1.827,2.384l2.776,29.349
					c0.12,1.269,1.223,2.211,2.494,2.124c5.598-0.384,20.127-1.547,27.854-3.721c9.703-2.729,25.926-25.017,25.926-25.017
					l3.335,16.981c0,0-4.852,19.862-3.032,34.114c0,0,16.375,2.426,41.846,2.426c25.471,0,40.482-1.061,40.482-1.061
					s-0.606-46.091-1.213-48.669l2.426,3.032c0,0,3.184,39.42,4.7,42.756l32.56-3.411c0,0-0.796-42.528-6.254-53.9
					c-5.394-11.237-32.108-39.353-49.857-48.355c-0.42-0.213-0.874-0.33-1.344-0.362l-13.73-0.919c0,0-1.102-8.147-4.055-11.11
					c-0.463-0.464-1.115-0.683-1.77-0.676C349.122,181.605,339.298,182.353,325.707,189.9z"/>
				<path style="fill:#578DDD;" d="M396.541,300.302l32.56-3.411c0,0-0.081-4.283-0.364-10.487
					c-16.748-0.027-28.616,2.547-33.793,3.937C395.536,295.435,396.107,299.348,396.541,300.302z"/>
				<path style="opacity:0.33;fill:#73A2F4;" d="M374.221,239.771l8.061,12.786c2.712,4.302,4.635,9.054,5.677,14.031l2.076,9.91
					l-0.488-21.169L374.221,239.771z"/>
				<g>
					<path style="opacity:0.33;fill:#73A2F4;" d="M307.978,250.75l-1.96-9.728c0,0-3.256,14.341-12.165,26.285
						C301.104,260.133,307.724,251.098,307.978,250.75z"/>
					<polygon style="opacity:0.55;fill:#73A2F4;" points="308.918,255.414 308.919,255.421 308.919,255.421 					"/>
				</g>
				<path style="opacity:0.33;fill:#73A2F4;" d="M353.861,182.246c-0.463-0.464-1.115-0.683-1.77-0.676
					c-2.969,0.035-12.793,0.782-26.384,8.329c0,0-6.318,2.131-6.831,6.467c1.813,0.13,6.818-0.122,19.106-3.745
					c11.33-3.34,15.762-6.389,17.453-8.032C354.982,183.671,354.462,182.849,353.861,182.246z"/>
				<polyline style="fill:none;stroke:#2662AA;stroke-linecap:round;stroke-miterlimit:10;" points="303.334,227.868 
					307.997,250.724 311.332,267.705 				"/>
				<path style="fill:none;stroke:#2662AA;stroke-linecap:round;stroke-miterlimit:10;" d="M371.979,237.382
					c0.455,0.758,19.862,20.165,19.862,20.165l3.127,33.006"/>
				
					<line style="fill:none;stroke:#2662AA;stroke-linecap:round;stroke-miterlimit:10;" x1="390.565" y1="295.907" x2="389.504" y2="255.208"/>
				<path style="fill:none;stroke:#2662AA;stroke-linecap:round;stroke-miterlimit:10;" d="M320.164,196.369
					c0,0,4.789,0.22,16.381-3.301c11.592-3.521,16.176-6.478,16.176-6.478"/>
				<path style="fill:none;stroke:#2662AA;stroke-linecap:round;stroke-miterlimit:10;" d="M318.856,197.355
					c0,0,1.308,5.837,5.667,8.87"/>
				<path style="fill:none;stroke:#2662AA;stroke-linecap:round;stroke-miterlimit:10;" d="M350.811,202.283
					c0,0,5.627-4.511,7.105-8.926"/>
				<path style="fill:#578DDD;" d="M258.454,244.298l-7.682,1.306c-1.139,0.194-1.936,1.233-1.827,2.384l2.776,29.349
					c0.12,1.269,1.223,2.211,2.494,2.124c2.041-0.14,5.276-0.385,8.93-0.744C263.209,266.294,259.991,250.913,258.454,244.298z"/>
				<path style="fill:none;stroke:#2662AA;stroke-linecap:round;stroke-miterlimit:10;" d="M258.63,244.816
					c0,0,3.199,7.745,4.516,33.313"/>
				
					<line style="fill:none;stroke:#2662AA;stroke-linecap:round;stroke-miterlimit:10;" x1="249.719" y1="251.122" x2="259.98" y2="249.82"/>
				
					<line style="fill:none;stroke:#2662AA;stroke-linecap:round;stroke-miterlimit:10;" x1="250.284" y1="258.031" x2="260.888" y2="256.686"/>
				
					<line style="fill:none;stroke:#2662AA;stroke-linecap:round;stroke-miterlimit:10;" x1="251.236" y1="267.771" x2="262.024" y2="266.403"/>
				
					<line style="fill:none;stroke:#2662AA;stroke-linecap:round;stroke-miterlimit:10;" x1="252.088" y1="276.84" x2="262.784" y2="275.851"/>
				<path style="fill:none;stroke:#2662AA;stroke-linecap:round;stroke-miterlimit:10;" d="M395.314,290.243
					c0,0,19.952-3.839,32.914-3.837"/>
				
					<line style="fill:none;stroke:#2662AA;stroke-linecap:round;stroke-miterlimit:10;" x1="400.034" y1="289.404" x2="402.257" y2="299.214"/>
				
					<line style="fill:none;stroke:#2662AA;stroke-linecap:round;stroke-miterlimit:10;" x1="409.715" y1="287.931" x2="412.044" y2="298.127"/>
				
					<line style="fill:none;stroke:#2662AA;stroke-linecap:round;stroke-miterlimit:10;" x1="418.759" y1="286.898" x2="420.515" y2="297.232"/>
				
					<line style="fill:none;stroke:#2662AA;stroke-linecap:round;stroke-miterlimit:10;" x1="426.251" y1="286.434" x2="427.622" y2="296.626"/>
			</g>
			<g>
				<path style="fill:#F9D5BF;" d="M304.983,163.961c0,0-3.809,23.69,19.843,26.419l2.653,5.307c0,0,13.418-3.563,17.815-5.837
					l-3.184-6.292l0.455-2.047c0,0,9.173-5.079,10.689-12.053c1.242-5.712-1.895-7.429-1.895-7.429l-16.185-14.441l-25.883,3.278
					C309.29,150.865,305.036,157.127,304.983,163.961z"/>
				<path style="fill:#FCA695;" d="M324.836,190.401l1.876,3.752c2.811-0.475,9.463-2.241,11.27-8.507
					C337.982,185.647,334.937,190.068,324.836,190.401z"/>
				<path style="fill:#FCA695;" d="M348.533,167.36c-1.025,0.535-4.067,2.465-5.269,7.029c-0.117,0.445,0.276,0.865,0.73,0.794
					c1.546-0.241,4.607-0.971,6.076-3.073c1.757-2.515-0.057-4.149-0.857-4.704C349.009,167.265,348.754,167.245,348.533,167.36z"/>
				<path style="fill:#5A2402;" d="M305.561,161.86c0,0,1.488-1.045,3.913-1.007c1.268,0.02,2.132,0.433,2.668,0.823
					c0.397,0.289,0.954,0.075,1.035-0.41c0.096-0.573,0.123-1.333-0.102-2.194c-0.493-1.895-3.623-3.151-6.103-2.085
					C304.494,158.053,305.561,161.86,305.561,161.86z"/>
				<path style="fill:#5A2402;" d="M321.591,160.552c-0.051-0.533-0.065-1.22,0.06-1.923c0.056-0.315,0.245-0.585,0.505-0.772
					c1.028-0.74,3.901-2.538,6.991-2.083c2.973,0.437,4.937,2.958,5.686,4.1c0.237,0.362,0.227,0.823-0.024,1.175
					c-0.335,0.472-0.904,1.084-1.716,1.328c-0.429,0.129-0.9-0.033-1.199-0.368c-0.577-0.646-1.88-1.725-4.15-1.725
					c-2.115,0-4.021,0.549-5.089,0.93C322.167,161.39,321.64,161.069,321.591,160.552z"/>
				<path style="fill:#5A2402;" d="M310.214,153.614c0,0-3.639,3.468-5.231,10.348c0,0-1.762-6.595,1.08-11.087L310.214,153.614z"/>
				<path style="opacity:0.5;fill:#5A2402;" d="M310.214,153.614c0,0-3.639,3.468-5.231,10.348c0,0-1.762-6.595,1.08-11.087
					L310.214,153.614z"/>
				<path style="fill:#5A2402;" d="M307.011,149.747c0,0-2.426,0.455-2.578,3.26c-0.152,2.805,5.458,2.653,6.671,0.682
					c0,0,0.379,1.963,2.767,1.455c2.388-0.508,3.184-2.657,3.184-2.657s2.388,2.414,5.875-1.604c0,0,0.36,2.672,3.032,2.9
					c2.672,0.227,4.605-1.933,4.605-1.933s-1.023,3.287,0.625,3.378c1.649,0.091,3.696-1.843,3.696-1.843s2.559,11.599,7.221,13.134
					c0,0,2.502-7.903,9.249-4.492c0,0,1.668-1.895,1.289-3.411c-0.379-1.516-3.032-2.729-3.032-2.729s3.372-1.365,3.088-3.032
					c-0.284-1.668-2.861-2.805-2.861-2.805s2.22-1.113,1.365-3.639c-0.796-2.35-5.382-1.668-5.382-1.668s0.152-3.013-3.544-3.013
					c0,0-1.232-4.264-6.69-3.051c0,0-0.986-2.957-3.942-3.411c-2.957-0.455-7.353,1.895-7.353,1.895s-2.938-1.687-5.382-1.289
					c-2.445,0.398-3.525,2.843-3.525,2.843s-3.07-1.023-4.89,0.872c-1.819,1.895-0.682,3.866-0.682,3.866s-3.241,0.208-4.615,3.407
					C304.147,149.315,307.011,149.747,307.011,149.747z"/>
				<path style="fill:#5A2402;" d="M312.289,167.833c0.376,1.916-0.094,3.62-1.05,3.808c-0.955,0.187-2.034-1.214-2.41-3.129
					c-0.375-1.915,0.094-3.62,1.05-3.808C310.835,164.516,311.914,165.917,312.289,167.833z"/>
				<path style="fill:#5A2402;" d="M328.253,167.661c0.685,1.853,0.499,3.628-0.414,3.966c-0.913,0.337-2.208-0.891-2.893-2.744
					c-0.685-1.853-0.5-3.628,0.414-3.966C326.273,164.579,327.569,165.808,328.253,167.661z"/>
				<path style="fill:none;stroke:#5A2402;stroke-width:0.75;stroke-linecap:round;stroke-miterlimit:10;" d="M306.405,165.212
					c0,0,4.264-1.819,7.619,1.308"/>
				<path style="fill:none;stroke:#5A2402;stroke-width:0.75;stroke-linecap:round;stroke-miterlimit:10;" d="M322.722,165.895
					c0,0,4.776-2.331,8.472,0"/>
				<path style="fill:none;stroke:#DB7665;stroke-width:0.75;stroke-linecap:round;stroke-miterlimit:10;" d="M316.336,168.491
					c0,0-0.72,5.022-0.607,7.183c0,0,1.08,0.512,3.127,0"/>
				<path style="fill:none;stroke:#DB7665;stroke-width:0.75;stroke-linecap:round;stroke-miterlimit:10;" d="M321.87,182.421
					c0,0,4.73-1.289,6.494-5.079"/>
				<path style="fill:none;stroke:#DB7665;stroke-width:0.75;stroke-linecap:round;stroke-miterlimit:10;" d="M349.274,167.089
					c0,0-3.639,0.568-5.686,6.368"/>
				<path style="fill:none;stroke:#DB7665;stroke-width:0.75;stroke-linecap:round;stroke-miterlimit:10;" d="M348.876,170.5
					c0,0-2.17,1.233-4.269,0.673"/>
				<path style="fill:none;stroke:#DB7665;stroke-width:0.75;stroke-linecap:round;stroke-miterlimit:10;" d="M325.117,190.408
					c0,0,8.352,0.731,13.81-5.788"/>
				<path style="opacity:0.39;fill:#FCA695;" d="M325.707,184.003c0,0,2.009-1.535,2.956-2.104c0.948-0.569,0.868,1.69,0.231,2.426
					C328.108,185.235,326.077,184.779,325.707,184.003z"/>
			</g>
		</g>
		<path style="fill:#D5ECF7;" d="M31.448,213.597c0,0,2.729-26.574,27.291-26.574c24.562,0,28.959,22.765,27.291,27.161
			c0,0,15.162,1.365,16.829,11.978c1.668,10.613-7.429,18.346-21.529,18.346c-14.1,0-46.546,0-46.546,0s-20.317-0.455-20.317-13.494
			S24.322,213.616,31.448,213.597z"/>
		<g>
			<path id="path162821_00000022544325292120732310000008893765926331798197_" style="fill:#A4BFD8;" d="M78.214,304.648
				c-3.565,0.044-7.11,0.531-10.555,1.45v9.697c-1.522,0.506-3.006,1.121-4.44,1.839l-6.886-6.886
				c-3.085,1.786-5.936,3.949-8.487,6.44c-2.491,2.552-4.654,5.403-6.44,8.489l6.86,6.862c-0.726,1.447-1.346,2.944-1.856,4.481
				h-9.715c-0.919,3.445-1.406,6.99-1.449,10.555c0.043,3.565,0.53,7.111,1.449,10.556h9.676c0.514,1.552,1.14,3.064,1.874,4.525
				l-6.856,6.856c1.786,3.085,3.948,5.936,6.438,8.488c2.552,2.49,5.403,4.654,8.489,6.44l6.848-6.848
				c1.451,0.728,2.953,1.35,4.494,1.86v9.699c3.445,0.919,6.99,1.406,10.555,1.449c3.565-0.043,7.111-0.53,10.556-1.449v-9.693
				c1.556-0.515,3.073-1.142,4.537-1.879l6.906,6.906c3.062-1.817,5.886-4.007,8.408-6.521c2.49-2.552,4.653-5.403,6.438-8.489
				l-6.85-6.85c0.729-1.451,1.351-2.953,1.862-4.494h9.79c0.88-3.45,1.329-6.996,1.335-10.556c-0.044-3.565-0.531-7.11-1.45-10.555
				h-9.705c-0.509-1.527-1.128-3.016-1.851-4.455l6.935-6.934c-1.817-3.062-4.008-5.887-6.522-8.408
				c-2.552-2.489-5.403-4.652-8.489-6.437l-6.857,6.857c-1.449-0.727-2.948-1.347-4.487-1.857v-9.804
				C85.321,305.102,81.775,304.654,78.214,304.648z M78.558,331.849c8.917,0,16.146,7.228,16.146,16.145c0,0,0,0,0,0
				c0,8.917-7.229,16.146-16.146,16.146c0,0,0,0,0,0c-8.917,0-16.146-7.228-16.147-16.145c0,0,0,0,0,0
				C62.411,339.078,69.64,331.849,78.558,331.849C78.557,331.849,78.557,331.849,78.558,331.849L78.558,331.849z"/>
			<path id="path162821_00000171705908932795285570000018369812357411067825_" style="fill:#A4BFD8;" d="M148.244,380.317
				c-1.933,0.024-3.856,0.288-5.723,0.786v5.258c-0.825,0.275-1.63,0.608-2.407,0.997l-3.734-3.734
				c-1.673,0.969-3.219,2.142-4.602,3.492c-1.35,1.384-2.524,2.93-3.492,4.603l3.72,3.721c-0.394,0.785-0.73,1.596-1.006,2.43
				h-5.268c-0.498,1.868-0.762,3.79-0.786,5.723c0.023,1.933,0.287,3.856,0.786,5.724h5.247c0.278,0.842,0.618,1.662,1.016,2.454
				l-3.718,3.718c0.968,1.673,2.141,3.219,3.491,4.602c1.384,1.35,2.93,2.524,4.603,3.492l3.714-3.714
				c0.787,0.395,1.601,0.732,2.437,1.009v5.259c1.868,0.498,3.79,0.762,5.723,0.786c1.933-0.023,3.856-0.287,5.724-0.786v-5.256
				c0.844-0.279,1.666-0.619,2.46-1.019l3.745,3.745c1.661-0.985,3.192-2.173,4.56-3.536c1.35-1.384,2.523-2.93,3.491-4.603
				l-3.714-3.714c0.395-0.787,0.733-1.601,1.01-2.437h5.309c0.477-1.871,0.72-3.794,0.724-5.724
				c-0.024-1.933-0.288-3.856-0.786-5.723h-5.262c-0.276-0.828-0.612-1.636-1.004-2.416l3.761-3.76
				c-0.986-1.661-2.174-3.192-3.537-4.559c-1.384-1.35-2.93-2.522-4.603-3.491l-3.718,3.718c-0.786-0.394-1.599-0.73-2.433-1.007
				v-5.316C152.098,380.563,150.175,380.32,148.244,380.317z M148.431,395.067c4.835,0,8.755,3.92,8.755,8.755c0,0,0,0,0,0
				c0,4.835-3.92,8.755-8.755,8.755c0,0,0,0,0,0c-4.836,0-8.756-3.92-8.756-8.755c0,0,0,0,0,0
				C139.675,398.987,143.595,395.067,148.431,395.067C148.43,395.067,148.43,395.067,148.431,395.067L148.431,395.067z"/>
		</g>
		<g>
			<path style="fill:#A4BFD8;" d="M408.804,83.126v-21.34c0-2.093-1.697-3.79-3.79-3.79H384.97c-2.094,0-3.79,1.697-3.79,3.79
				v10.992h-5.117V58.854c0-3.489,2.828-6.317,6.317-6.317h25.8c3.489,0,6.317,2.828,6.317,6.317v24.271H408.804z"/>
			<path style="fill:#A4BFD8;" d="M414.493,82.044c-0.4-0.11-0.82-0.17-1.25-0.17h-36.61c-2.58,0-4.66,2.09-4.66,4.66v26.1
				c0,0,4.32,18.14,22.97,18.14c18.64,0,22.97-18.14,22.97-18.14v-26.1C417.913,84.394,416.463,82.593,414.493,82.044z
				 M398.463,103.424v6.77h-7.05v-6.77c0,0-3.52,0.11-3.52-5.12c0-5.97,7.05-5.97,7.05-5.97s7.05,0,7.05,5.97
				C401.993,103.534,398.463,103.424,398.463,103.424z"/>
		</g>
	</g>
</g>
</svg>
