<?xml version="1.0" encoding="utf-8"?>
<!-- Generator: Adobe Illustrator 27.5.0, SVG Export Plug-In . SVG Version: 6.00 Build 0)  -->
<svg version="1.1" xmlns="http://www.w3.org/2000/svg" xmlns:xlink="http://www.w3.org/1999/xlink" x="0px" y="0px"
	 viewBox="0 0 500 500" style="enable-background:new 0 0 500 500;" xml:space="preserve">
<g id="Background_Complete">
	<g>
		<rect y="382.398" style="fill:#EBEBEB;" width="500" height="0.25"/>
		<rect x="52.459" y="391.922" style="fill:#EBEBEB;" width="25.997" height="0.25"/>
		<rect x="146.333" y="389.208" style="fill:#EBEBEB;" width="54.101" height="0.25"/>
		<rect x="79.457" y="401.208" style="fill:#EBEBEB;" width="26.317" height="0.25"/>
		<rect x="430.667" y="399.528" style="fill:#EBEBEB;" width="19.235" height="0.25"/>
		<rect x="391.471" y="399.528" style="fill:#EBEBEB;" width="30.292" height="0.25"/>
		<rect x="258.227" y="395.306" style="fill:#EBEBEB;" width="54.556" height="0.25"/>
		<path style="fill:#EBEBEB;" d="M237.014,337.8H43.915c-3.147,0-5.708-2.561-5.708-5.708V60.66c0-3.147,2.561-5.708,5.708-5.708
			h193.099c3.146,0,5.707,2.561,5.707,5.708v271.432C242.721,335.239,240.16,337.8,237.014,337.8z M43.915,55.203
			c-3.01,0-5.458,2.448-5.458,5.458v271.432c0,3.01,2.448,5.458,5.458,5.458h193.099c3.009,0,5.457-2.448,5.457-5.458V60.66
			c0-3.009-2.448-5.458-5.457-5.458H43.915z"/>
		<path style="fill:#EBEBEB;" d="M453.31,337.8H260.212c-3.147,0-5.707-2.561-5.707-5.708V60.66c0-3.147,2.561-5.708,5.707-5.708
			H453.31c3.148,0,5.708,2.561,5.708,5.708v271.432C459.019,335.239,456.458,337.8,453.31,337.8z M260.212,55.203
			c-3.009,0-5.457,2.448-5.457,5.458v271.432c0,3.01,2.448,5.458,5.457,5.458H453.31c3.01,0,5.458-2.448,5.458-5.458V60.66
			c0-3.009-2.448-5.458-5.458-5.458H260.212z"/>
	</g>
	<g>
		<g>
			<rect x="413.751" y="277.342" style="fill:#E6E6E6;" width="27.503" height="105.056"/>
			<polygon style="fill:#F0F0F0;" points="436.03,382.398 441.254,382.398 441.254,367.54 430.553,367.54 			"/>
			<rect x="256.827" y="277.342" style="fill:#E6E6E6;" width="27.503" height="105.056"/>
			<rect x="279.771" y="277.342" style="fill:#F0F0F0;" width="161.483" height="95.938"/>
			<g>
				
					<rect x="272.826" y="294.522" transform="matrix(6.123234e-17 -1 1 6.123234e-17 -9.3811 627.5311)" style="fill:#E6E6E6;" width="72.498" height="47.869"/>
				<path style="fill:#F0F0F0;" d="M313.81,286.364h-9.47c-4.114,0-8.046-1.691-10.875-4.678l0,0h31.221h0
					C321.856,284.672,317.924,286.364,313.81,286.364z"/>
			</g>
			<g>
				
					<rect x="324.264" y="294.522" transform="matrix(6.123234e-17 -1 1 6.123234e-17 42.0565 678.9688)" style="fill:#E6E6E6;" width="72.498" height="47.869"/>
				<path style="fill:#F0F0F0;" d="M365.732,286.364h-9.47c-4.114,0-8.046-1.691-10.875-4.678l0,0h31.221l0,0
					C373.778,284.672,369.845,286.364,365.732,286.364z"/>
			</g>
			<g>
				
					<rect x="375.701" y="294.522" transform="matrix(6.123234e-17 -1 1 6.123234e-17 93.4941 730.4064)" style="fill:#E6E6E6;" width="72.498" height="47.869"/>
				<path style="fill:#F0F0F0;" d="M417.169,286.364h-9.47c-4.114,0-8.046-1.691-10.875-4.678h0h31.221l0,0
					C425.216,284.672,421.283,286.364,417.169,286.364z"/>
			</g>
			<polygon style="fill:#F0F0F0;" points="284.995,382.398 279.771,382.398 279.771,367.54 290.472,367.54 			"/>
		</g>
		<g>
			<rect x="68.256" y="73.991" style="fill:#E6E6E6;" width="151.505" height="141.897"/>
			<rect x="70.798" y="73.991" style="fill:#F0F0F0;" width="154.403" height="141.897"/>
			<rect x="68.256" y="215.887" style="fill:#E6E6E6;" width="151.505" height="10.111"/>
			<rect x="79.863" y="215.887" style="fill:#F0F0F0;" width="154.403" height="10.111"/>
			
				<rect x="84.669" y="75.355" transform="matrix(-1.836970e-16 1 -1 -1.836970e-16 292.9391 -3.0608)" style="fill:#FAFAFA;" width="126.662" height="139.168"/>
			<polygon style="fill:#FFFFFF;" points="92.988,208.27 137.697,81.608 158.803,81.608 114.094,208.27 			"/>
			<path style="fill:#F0F0F0;" d="M81.942,165.297c0.301,0,0.544-0.244,0.544-0.544V86.564c0-0.3-0.243-0.544-0.544-0.544
				s-0.544,0.244-0.544,0.544v78.188C81.398,165.053,81.641,165.297,81.942,165.297z"/>
			<polygon style="fill:#FFFFFF;" points="118.628,208.27 163.336,81.608 171.564,81.608 126.855,208.27 			"/>
			
				<rect x="153.77" y="144.456" transform="matrix(-1.836970e-16 1 -1 -1.836970e-16 362.0396 -72.1613)" style="fill:#E6E6E6;" width="126.662" height="0.967"/>
			<polygon style="opacity:0.5;fill:#E6E6E6;" points="227.002,94.737 75.497,94.737 74.796,84.569 226.301,84.569 			"/>
			<polygon style="opacity:0.5;fill:#E6E6E6;" points="227.002,102.179 75.497,102.179 74.796,92.011 226.301,92.011 			"/>
			<polygon style="opacity:0.5;fill:#E6E6E6;" points="227.002,111.11 75.497,111.11 74.796,100.942 226.301,100.942 			"/>
			<polygon style="opacity:0.5;fill:#E6E6E6;" points="227.002,121.048 75.497,121.048 74.796,110.88 226.301,110.88 			"/>
			<polygon style="opacity:0.5;fill:#E6E6E6;" points="227.002,132.955 75.497,132.955 74.796,122.788 226.301,122.788 			"/>
			<polygon style="opacity:0.5;fill:#E6E6E6;" points="227.002,146.351 75.497,146.351 74.796,136.184 226.301,136.184 			"/>
		</g>
		<g>
			<g>
				<rect x="183.786" y="288.195" style="fill:#E6E6E6;" width="44.839" height="94.203"/>
				<polygon style="fill:#F0F0F0;" points="224.115,382.398 228.625,382.398 228.625,369.569 219.386,369.569 				"/>
				<rect x="73.487" y="288.195" style="fill:#E6E6E6;" width="44.839" height="94.203"/>
				<rect x="114.39" y="288.195" style="fill:#F0F0F0;" width="114.235" height="86.331"/>
				<rect x="117.889" y="292.022" style="fill:#E6E6E6;" width="107.237" height="23.675"/>
				<path style="fill:#F0F0F0;" d="M176.573,299.379h-10.131c-4.4,0-8.607-2.921-11.634-8.077l0,0h33.398l0,0
					C185.18,296.458,180.973,299.379,176.573,299.379z"/>
				<polygon style="fill:#F0F0F0;" points="118.9,382.398 114.39,382.398 114.39,369.569 123.629,369.569 				"/>
				<rect x="117.889" y="319.523" style="fill:#E6E6E6;" width="107.237" height="23.675"/>
				<path style="fill:#F0F0F0;" d="M176.573,326.88h-10.131c-4.4,0-8.607-2.921-11.634-8.077l0,0h33.398l0,0
					C185.18,323.96,180.973,326.88,176.573,326.88z"/>
				<rect x="117.889" y="347.025" style="fill:#E6E6E6;" width="107.237" height="23.675"/>
				<path style="fill:#F0F0F0;" d="M176.573,354.382h-10.131c-4.4,0-8.607-2.921-11.634-8.077l0,0h33.398l0,0
					C185.18,351.461,180.973,354.382,176.573,354.382z"/>
			</g>
		</g>
		<g>
			<rect x="322.609" y="93.468" style="fill:#E6E6E6;" width="87.055" height="116.438"/>
			<rect x="323.828" y="93.468" style="fill:#F0F0F0;" width="91.496" height="116.438"/>
			
				<rect x="324.022" y="118.604" transform="matrix(-1.836970e-16 1 -1 -1.836970e-16 521.2624 -217.8885)" style="fill:#FFFFFF;" width="91.107" height="66.165"/>
			
				<rect x="356.609" y="151.191" transform="matrix(-1.836970e-16 1 -1 -1.836970e-16 553.8494 -250.4755)" style="fill:#E6E6E6;" width="91.107" height="0.992"/>
			<path style="fill:#F0F0F0;" d="M370.809,132.415h-19.77c-0.406,0-0.736,0.33-0.736,0.736v19.77
				c0,9.946,8.093,18.038,18.039,18.038h19.77c0.406,0,0.736-0.33,0.736-0.736v-19.77
				C388.848,140.507,380.756,132.415,370.809,132.415z M368.342,169.488c-9.135,0-16.566-7.432-16.566-16.566v-19.034h19.034
				c9.135,0,16.566,7.432,16.566,16.566L368.342,169.488z"/>
		</g>
	</g>
</g>
<g id="Background_Simple" style="display:none;">
	<g style="display:inline;">
		<path style="fill:#407BFF;" d="M248.606,146.462c-47.504-5.968-82.959-21.351-123.459,13.663
			c-27.336,23.634-46.285,63.775-35.637,99.27c19.262,64.21,123.505,150.502,191.188,96.89
			c33.076-26.199,44.324-61.975,84.288-83.465c39.85-21.429,73.163-41.513,67.808-94.394c-3.43-33.869-29.847-70.542-66.858-70.175
			C321.192,108.694,301.986,153.168,248.606,146.462z"/>
		<path style="opacity:0.9;fill:#FFFFFF;" d="M248.606,146.462c-47.504-5.968-82.959-21.351-123.459,13.663
			c-27.336,23.634-46.285,63.775-35.637,99.27c19.262,64.21,123.505,150.502,191.188,96.89
			c33.076-26.199,44.324-61.975,84.288-83.465c39.85-21.429,73.163-41.513,67.808-94.394c-3.43-33.869-29.847-70.542-66.858-70.175
			C321.192,108.694,301.986,153.168,248.606,146.462z"/>
	</g>
</g>
<g id="Shadow_1_">
	<ellipse id="_x3C_Path_x3E__77_" style="fill:#F5F5F5;" cx="250" cy="416.238" rx="193.889" ry="11.323"/>
</g>
<g id="Contract">
	<g>
		<g>
			<g>
				<g>
					<path style="fill:#407BFF;" d="M246.594,88.033c-0.915-5.521,2.819-9.997,8.34-9.997h-9.998h-30.335
						c-5.521,0-9.256,4.476-8.34,9.997H246.594z"/>
					<path style="opacity:0.3;" d="M246.594,88.033c-0.915-5.521,2.819-9.997,8.34-9.997h-9.998h-30.335
						c-5.521,0-9.256,4.476-8.34,9.997H246.594z"/>
				</g>
				<path style="fill:#407BFF;" d="M254.935,78.036H224.6h-9.997c5.521,0,10.739,4.476,11.655,9.997l8.838,53.32
					c0.915,5.521,6.133,9.997,11.654,9.997h20.338c5.521,0,9.256-4.476,8.34-9.997l-8.838-53.32
					C265.674,82.512,260.456,78.036,254.935,78.036z"/>
				<g>
					<path style="fill:#407BFF;" d="M255.09,141.353c0.915,5.521-2.819,9.997-8.34,9.997h9.998h30.335
						c5.522,0,9.256-4.476,8.341-9.997H255.09z"/>
					<path style="opacity:0.3;" d="M255.09,141.353c0.915,5.521-2.819,9.997-8.34,9.997h9.998h30.335
						c5.522,0,9.256-4.476,8.341-9.997H255.09z"/>
				</g>
			</g>
			<g>
				<path style="fill:#FFFFFF;" d="M261.582,92.627h-28.796c-0.329,0-0.643-0.269-0.697-0.598l0,0
					c-0.055-0.329,0.17-0.598,0.499-0.598h28.796c0.329,0,0.643,0.269,0.697,0.598l0,0
					C262.136,92.358,261.911,92.627,261.582,92.627z"/>
				<path style="fill:#FFFFFF;" d="M245.627,96.791h-12.15c-0.329,0-0.643-0.269-0.697-0.598l0,0
					c-0.055-0.329,0.17-0.598,0.499-0.598h12.15c0.329,0,0.643,0.269,0.697,0.598l0,0C246.181,96.522,245.956,96.791,245.627,96.791
					z"/>
				<path style="fill:#FFFFFF;" d="M256.866,96.791h-8.393c-0.329,0-0.643-0.269-0.698-0.598l0,0
					c-0.055-0.329,0.17-0.598,0.499-0.598h8.393c0.329,0,0.643,0.269,0.697,0.598l0,0C257.419,96.522,257.195,96.791,256.866,96.791
					z"/>
				<path style="fill:#FFFFFF;" d="M262.963,100.955h-28.796c-0.329,0-0.643-0.269-0.697-0.598l0,0
					c-0.055-0.329,0.17-0.598,0.499-0.598h28.796c0.329,0,0.643,0.269,0.698,0.598l0,0
					C263.516,100.686,263.292,100.955,262.963,100.955z"/>
				<path style="fill:#FFFFFF;" d="M260.81,105.119h-25.953c-0.329,0-0.643-0.269-0.697-0.598l0,0
					c-0.055-0.329,0.17-0.598,0.499-0.598h25.953c0.329,0,0.643,0.269,0.698,0.598l0,0
					C261.364,104.849,261.139,105.119,260.81,105.119z"/>
				<path style="fill:#FFFFFF;" d="M253.01,109.283h-17.463c-0.329,0-0.643-0.269-0.697-0.598l0,0
					c-0.055-0.329,0.17-0.598,0.499-0.598h17.463c0.329,0,0.643,0.269,0.697,0.598l0,0
					C253.564,109.013,253.339,109.283,253.01,109.283z"/>
				<path style="fill:#FFFFFF;" d="M265.033,113.446h-28.796c-0.329,0-0.643-0.269-0.697-0.598l0,0
					c-0.055-0.329,0.17-0.598,0.499-0.598h28.796c0.329,0,0.643,0.269,0.698,0.598l0,0
					C265.587,113.177,265.362,113.446,265.033,113.446z"/>
				<path style="fill:#FFFFFF;" d="M265.723,117.61h-28.796c-0.329,0-0.643-0.269-0.697-0.598l0,0
					c-0.055-0.329,0.17-0.598,0.499-0.598h28.796c0.329,0,0.643,0.269,0.698,0.598l0,0
					C266.277,117.341,266.052,117.61,265.723,117.61z"/>
				<path style="fill:#FFFFFF;" d="M255.081,121.774h-17.463c-0.329,0-0.643-0.269-0.698-0.598l0,0
					c-0.054-0.329,0.17-0.598,0.499-0.598h17.463c0.329,0,0.643,0.269,0.697,0.598l0,0
					C255.634,121.505,255.41,121.774,255.081,121.774z"/>
			</g>
			<g>
				<g>
					<g>
						
							<rect x="285.276" y="85.284" transform="matrix(-0.8498 -0.5271 0.5271 -0.8498 470.8891 357.1831)" style="fill:#263238;" width="2.117" height="52.434"/>
						
							<rect x="285.276" y="85.284" transform="matrix(-0.8498 -0.5271 0.5271 -0.8498 470.8891 357.1831)" style="opacity:0.3;" width="2.117" height="52.434"/>
					</g>
					<g>
						
							<rect x="281.678" y="83.052" transform="matrix(-0.8498 -0.5271 0.5271 -0.8498 465.4092 351.1576)" style="fill:#263238;" width="2.117" height="52.434"/>
						
							<rect x="281.678" y="83.052" transform="matrix(-0.8498 -0.5271 0.5271 -0.8498 465.4092 351.1576)" style="opacity:0.3;" width="2.117" height="52.434"/>
					</g>
					
						<rect x="283.477" y="84.168" transform="matrix(-0.8498 -0.5271 0.5271 -0.8498 468.1552 354.1658)" style="fill:#263238;" width="2.117" height="52.434"/>
					<polygon style="fill:#FF8B7B;" points="267.97,135.285 269.589,136.29 273.416,134.338 268.018,130.99 					"/>
					<polygon style="fill:#263238;" points="267.949,137.126 269.589,136.29 267.97,135.285 					"/>
				</g>
				<path style="fill:#FFFFFF;" d="M266.955,137.502c-0.025,0-0.051-0.004-0.076-0.012c-1.386-0.441-2.436-1.508-3.452-2.54
					c-0.601-0.611-1.222-1.242-1.891-1.712c-0.298-0.209-0.58-0.154-0.729-0.007c-0.128,0.128-0.196,0.366,0.001,0.652
					c0.244,0.354,0.508,0.7,0.784,1.03c0.224,0.268,0.256,0.622,0.082,0.883c-0.166,0.249-0.477,0.346-0.785,0.248
					c-0.378-0.118-0.755-0.263-1.121-0.429c-0.091-0.041-0.172-0.036-0.224,0.015c-0.053,0.053-0.06,0.14-0.02,0.233l0.052,0.121
					c0.118,0.287,0.09,0.586-0.076,0.82c-0.163,0.229-0.438,0.354-0.737,0.338c-4.357-0.249-8.433-0.161-13.214,0.046
					c-0.146,0.003-0.255-0.101-0.261-0.239c-0.006-0.138,0.101-0.255,0.239-0.261c4.797-0.208,8.888-0.295,13.264-0.046
					c0.125,0.007,0.238-0.039,0.302-0.129c0.064-0.091,0.072-0.214,0.021-0.339l-0.046-0.109c-0.125-0.282-0.076-0.592,0.125-0.791
					c0.202-0.199,0.5-0.243,0.783-0.115c0.347,0.158,0.705,0.295,1.063,0.407c0.099,0.031,0.179,0.013,0.22-0.049
					c0.038-0.057,0.048-0.166-0.051-0.284c-0.286-0.342-0.559-0.701-0.811-1.067c-0.349-0.506-0.223-1.013,0.058-1.291
					c0.35-0.348,0.913-0.367,1.368-0.047c0.706,0.496,1.344,1.144,1.96,1.77c0.973,0.988,1.979,2.01,3.247,2.414
					c0.132,0.042,0.205,0.183,0.163,0.314C267.159,137.434,267.061,137.502,266.955,137.502z"/>
			</g>
		</g>
		<polygon style="fill:#407BFF;" points="262.715,174.141 269.397,162.567 256.034,162.567 		"/>
	</g>
</g>
<g id="Character_2">
	<g>
		<path style="fill:#263238;" d="M337.776,140.161c-3.193-2.754-6.887-3.847-10.333-3.706c-2.436-4.893-7.447-7.76-12.746-6.79
			c-7.597,1.391-9.912,10.52-4.641,13.854c1.813,1.146,3.667,1.963,5.622,2.555c-0.009,0.08-0.02,0.159-0.027,0.24
			c-6.311,2.442-10.813,7.94-11.284,14.793c-0.779,11.326,11.382,17.939,18.046,11.642c0.937-0.886,1.793-1.805,2.591-2.752
			c1.277,1.8,2.659,3.64,4.147,5.559C345.686,167.941,348.481,149.395,337.776,140.161z"/>
		<path style="fill:#FFB573;" d="M304.532,184.173c-0.099,1.4-0.224,2.613-0.398,3.895c-0.165,1.265-0.357,2.52-0.562,3.774
			c-0.421,2.505-0.984,4.983-1.595,7.452c-1.228,4.936-2.882,9.801-5.082,14.486l-0.202,0.44c-0.081,0.169-0.1,0.233-0.253,0.529
			c-0.249,0.494-0.549,0.969-0.889,1.396c-0.675,0.863-1.484,1.548-2.29,2.05c-1.632,1.003-3.213,1.432-4.686,1.711
			c-2.949,0.519-5.626,0.365-8.229,0.115c-5.194-0.635-10.027-1.841-14.826-3.576l1.096-3.999c2.313,0.35,4.725,0.672,7.078,0.887
			c2.358,0.241,4.713,0.383,7.002,0.351c2.273,0.005,4.535-0.19,6.383-0.678c0.909-0.245,1.689-0.602,2.108-0.947
			c0.216-0.167,0.33-0.314,0.389-0.428c0.034-0.057,0.051-0.109,0.067-0.166l0.275-0.714c0.422-1.074,0.829-2.154,1.187-3.261
			c0.396-1.087,0.716-2.212,1.067-3.32c0.63-2.248,1.252-4.502,1.755-6.797c0.516-2.29,0.935-4.607,1.324-6.927
			c0.393-2.291,0.698-4.713,0.932-6.879L304.532,184.173z"/>
		<g>
			<path style="fill:#263238;" d="M298.836,174.155c-3.374,0.859-5.735,14.745-5.735,14.745l9.299,6.324
				c0,0,8.915-14.009,6.32-17.719C306.017,173.642,303.761,172.902,298.836,174.155z"/>
		</g>
		<polygon style="opacity:0.2;" points="299.141,177.257 296.549,191.253 301.775,194.797 		"/>
		<path style="fill:#FFB573;" d="M263.142,212.581l-6.314,2.458l7.127,4.303c0,0,4.551-2.633,4.44-6.034l-0.703-0.398
			C266.302,212.123,264.631,212.002,263.142,212.581z"/>
		<path style="opacity:0.1;" d="M262.674,212.89c0,0-1.856,0.636-3.128,1.077c-1.092,0.378-1.787,0.719-1.787,0.719
			s2.064,0.861,3.086,0.281c1.386,0.318,4.677-0.282,4.677-0.282L262.674,212.89z"/>
		<polygon style="fill:#FFB573;" points="252.903,219.695 258.267,224.163 263.955,219.343 256.828,215.039 		"/>
		<polygon style="fill:#FFB573;" points="317.093,407.878 308.906,407.878 308.359,388.918 316.546,388.918 		"/>
		<path style="fill:#263238;" d="M308.625,406.93l9.198,0c0.335,0,0.606,0.233,0.653,0.559l1.048,7.277
			c0.109,0.755-0.54,1.469-1.313,1.456c-3.207-0.055-4.752-0.243-8.797-0.243c-2.488,0-9.636,0.259-13.073,0.259
			c-3.361,0-3.62-3.398-2.189-3.706c6.416-1.38,10.942-3.283,13.103-5.098C307.647,407.106,308.135,406.93,308.625,406.93z"/>
		<g style="opacity:0.2;">
			<polygon points="308.361,388.923 308.641,398.697 316.832,398.697 316.552,388.923 			"/>
		</g>
		<g>
			<path style="fill:#263238;" d="M298.836,174.155c0,0-3.9,1.374,3.913,49.414c13.195,0,26.831,0,33.252,0
				c-0.558-13.533-0.574-21.878,5.894-49.652c0,0-6.967-1.516-14.12-1.86c-5.595-0.27-10.18-0.448-15.099,0.001
				C306.191,172.65,298.836,174.155,298.836,174.155z"/>
		</g>
		<path style="fill:#FFFFFF;" d="M321.738,187.332c-4.167,0-7.557-2.332-7.71-2.439c-0.113-0.079-0.141-0.235-0.062-0.348
			c0.078-0.113,0.235-0.141,0.348-0.062c0.038,0.027,3.89,2.675,8.275,2.314c1.094-0.686,8.632-5.721,9.201-14.425
			c0.009-0.138,0.138-0.242,0.266-0.233c0.138,0.009,0.242,0.128,0.233,0.266c-0.583,8.913-8.006,13.933-9.488,14.849
			c-0.033,0.021-0.07,0.033-0.109,0.036C322.372,187.319,322.052,187.332,321.738,187.332z"/>
		<path style="fill:#FFFFFF;" d="M307.589,185.792c-0.046,0-0.092-0.013-0.131-0.037c-0.624-0.385-1.034-1.188-1.22-2.386
			c-0.472-3.053,0.659-8.38,3.037-11.142c0.09-0.105,0.249-0.116,0.353-0.026c0.104,0.09,0.117,0.248,0.026,0.353
			c-2.223,2.583-3.375,7.8-2.921,10.74c0.153,0.99,0.474,1.679,0.93,1.999c1.322-0.045,4.007-1.253,4.034-1.265
			c0.124-0.057,0.274-0.001,0.331,0.125c0.057,0.126,0.001,0.274-0.125,0.331C311.784,184.534,308.989,185.792,307.589,185.792z"/>
		<path style="fill:#FFB573;" d="M326.279,155.056c-0.953,4.858-1.903,13.76,1.496,17.001c0,0-1.328,4.928-10.355,4.928
			c-9.926,0-4.744-4.928-4.744-4.928c5.418-1.294,5.278-5.313,4.334-9.088L326.279,155.056z"/>
		<path style="fill:#FFB573;" d="M327.771,172.062c-5.596-0.275-10.177-0.455-15.097,0c-0.328,0.032-0.656,0.064-0.984,0.095
			c-1.206,2.285-1.513,5.797,1.375,10.95c0,0,13.245-5.332,16.694-10.918C329.104,172.136,328.437,172.094,327.771,172.062z"/>
		<path style="opacity:0.2;" d="M322.5,158.285l-5.486,4.681c0.227,0.893,0.403,1.799,0.466,2.68
			c2.07-0.299,4.913-2.571,5.132-4.738C322.722,159.827,322.677,158.789,322.5,158.285z"/>
		<path style="fill:#FFB573;" d="M331.519,146.638c-1.852,7.912-2.467,11.3-7.204,14.716c-7.125,5.139-16.438,1.133-16.987-7.172
			c-0.494-7.476,2.618-19.158,10.986-21.008C326.558,131.352,333.371,138.726,331.519,146.638z"/>
		<g>
			<path style="fill:#407BFF;" d="M302.749,223.57c0,0-6.458,63.068-5.921,88.036c0.558,25.97,10.074,85.199,10.074,85.199h11.071
				c0,0-1.752-57.712-0.773-83.216c1.067-27.805,9.899-90.018,9.899-90.018H302.749z"/>
			<path style="opacity:0.3;fill:#FFFFFF;" d="M302.749,223.57c0,0-6.458,63.068-5.921,88.036
				c0.558,25.97,10.074,85.199,10.074,85.199h11.071c0,0-1.752-57.712-0.773-83.216c1.067-27.805,9.899-90.018,9.899-90.018H302.749
				z"/>
		</g>
		<polygon style="fill:#263238;" points="318.933,397.201 305.943,397.201 304.99,393.057 319.537,392.55 		"/>
		<path style="opacity:0.2;" d="M317.092,239.262c-8.167,16.429-1.64,46.4,1.248,57.551c1.481-16.747,3.978-37.218,5.924-52.251
			C323.027,236.056,320.858,231.687,317.092,239.262z"/>
		<polygon style="fill:#FFB573;" points="355.36,407.878 347.173,407.878 344.165,388.918 352.353,388.918 		"/>
		<path style="fill:#263238;" d="M346.769,406.93l9.198,0c0.335,0,0.637,0.233,0.726,0.559l1.992,7.277
			c0.207,0.755-0.35,1.469-1.124,1.456c-3.214-0.055-4.784-0.243-8.829-0.243c-2.488,0-9.602,0.259-13.039,0.259
			c-3.361,0-4.061-3.398-2.669-3.706c6.237-1.38,10.515-3.283,12.441-5.098C345.813,407.106,346.279,406.93,346.769,406.93z"/>
		<g style="opacity:0.2;">
			<polygon points="344.168,388.923 345.716,398.697 353.907,398.697 352.359,388.923 			"/>
		</g>
		<g>
			<path style="fill:#407BFF;" d="M311.947,223.57c0,0,6.877,63.068,10.653,88.036c3.928,25.97,21.131,85.199,21.131,85.199h11.071
				c0,0-9.242-57.712-11.573-83.216c-2.542-27.805-6.933-90.018-6.933-90.018H311.947z"/>
			<path style="opacity:0.3;fill:#FFFFFF;" d="M311.947,223.57c0,0,6.877,63.068,10.653,88.036
				c3.928,25.97,21.131,85.199,21.131,85.199h11.071c0,0-9.242-57.712-11.573-83.216c-2.542-27.805-6.933-90.018-6.933-90.018
				H311.947z"/>
		</g>
		<polygon style="fill:#263238;" points="355.814,397.201 342.824,397.201 341.333,393.057 355.814,392.55 		"/>
		<path style="fill:#407BFF;" d="M343.881,408.361c-0.814,0-1.581-0.126-2.051-0.504c-0.298-0.24-0.457-0.558-0.473-0.944
			c-0.009-0.231,0.082-0.409,0.262-0.516c0.931-0.549,4.412,1.117,4.805,1.309c0.078,0.038,0.13,0.118,0.129,0.199
			c-0.001,0.082-0.054,0.147-0.133,0.163C345.742,408.207,344.783,408.361,343.881,408.361z M342.202,406.667
			c-0.15,0-0.271,0.022-0.353,0.07c-0.074,0.044-0.106,0.108-0.101,0.21c0.01,0.262,0.11,0.465,0.303,0.621
			c0.555,0.447,1.912,0.525,3.688,0.223C344.546,407.253,342.978,406.667,342.202,406.667z"/>
		<path style="fill:#407BFF;" d="M346.383,408.072c-0.027,0-0.055-0.006-0.082-0.017c-1.033-0.441-3.193-2.207-3.162-3.134
			c0.007-0.22,0.128-0.493,0.658-0.547c0.391-0.04,0.768,0.072,1.117,0.335c1.141,0.857,1.616,3.061,1.635,3.154
			c0.014,0.069-0.008,0.135-0.059,0.174C346.46,408.06,346.422,408.072,346.383,408.072z M344.001,404.753
			c-0.038,0-0.077,0.002-0.116,0.006c-0.349,0.036-0.354,0.177-0.356,0.224c-0.019,0.557,1.472,1.946,2.545,2.548
			c-0.179-0.642-0.623-1.964-1.371-2.526C344.478,404.837,344.247,404.753,344.001,404.753z"/>
		<path style="fill:#263238;" d="M318.406,146.59c-0.111,0.651-0.546,1.12-0.971,1.048c-0.426-0.072-0.681-0.659-0.57-1.31
			c0.111-0.651,0.546-1.12,0.971-1.048C318.262,145.352,318.517,145.939,318.406,146.59z"/>
		<path style="fill:#263238;" d="M311.048,145.337c-0.111,0.651-0.546,1.12-0.971,1.048c-0.426-0.072-0.681-0.659-0.57-1.31
			c0.111-0.651,0.546-1.12,0.971-1.048C310.904,144.1,311.159,144.686,311.048,145.337z"/>
		<path style="fill:#263238;" d="M310.66,144.095l-1.487-0.717C309.173,143.378,309.767,144.736,310.66,144.095z"/>
		<path style="fill:#ED893E;" d="M313.117,146.896c0,0-1.582,2.615-3.028,3.76c0.723,0.949,2.247,0.831,2.247,0.831L313.117,146.896
			z"/>
		<path style="fill:#263238;" d="M315.452,154.64c-0.308-0.005-0.631-0.033-0.971-0.091c-0.106-0.018-0.177-0.118-0.159-0.224
			c0.018-0.106,0.127-0.175,0.223-0.159c2.866,0.487,4.531-1.282,4.548-1.3c0.073-0.079,0.195-0.084,0.274-0.011
			c0.078,0.073,0.083,0.195,0.011,0.274C319.313,153.201,317.914,154.679,315.452,154.64z"/>
		<path style="fill:#263238;" d="M335.379,134.319c-0.982-0.691-2.05-1.119-3.133-1.34c-0.91-7.799-7.16-12.759-14.125-11.191
			c-7.904,1.779-10.656,11.584-5.341,14.924c3.165,1.989,6.496,2.936,10.303,3.349c0.133,6.466,4.165,12.01,6.998,12.295
			C338.165,149.138,340.25,137.745,335.379,134.319z"/>
		<path style="fill:#FFB573;" d="M332.437,154.338c-0.834,1.463-2.266,2.405-3.607,2.749c-2.017,0.518-2.981-1.297-2.384-3.178
			c0.538-1.693,2.235-4.001,4.242-3.686C332.665,150.535,333.391,152.664,332.437,154.338z"/>
		<path style="fill:#263238;" d="M321.616,145.594c-0.164-0.003-0.314-0.109-0.364-0.273c-0.529-1.715-2.72-2.446-2.742-2.454
			c-0.204-0.066-0.315-0.285-0.249-0.489c0.066-0.203,0.284-0.316,0.489-0.249c0.106,0.035,2.597,0.868,3.243,2.962
			c0.063,0.205-0.052,0.422-0.256,0.485C321.696,145.589,321.655,145.594,321.616,145.594z"/>
		<path style="fill:#263238;" d="M309.416,141.561c-0.132-0.002-0.26-0.072-0.331-0.195c-0.106-0.186-0.042-0.423,0.144-0.529
			c1.86-1.067,3.465-0.271,3.532-0.236c0.191,0.097,0.266,0.331,0.169,0.522c-0.097,0.19-0.329,0.266-0.52,0.17l0,0
			c-0.053-0.026-1.309-0.634-2.795,0.218C309.552,141.546,309.483,141.562,309.416,141.561z"/>
		<path style="fill:#FFB573;" d="M345.722,183.452c0.958,4.706,1.656,9.343,2.219,14.068c0.577,4.713,0.953,9.465,1.023,14.309
			c0.011,0.241,0.004,0.737-0.014,1.181c-0.031,0.41-0.071,0.804-0.125,1.173c-0.112,0.727-0.246,1.402-0.411,2.043
			c-0.325,1.282-0.702,2.477-1.107,3.643c-0.801,2.33-1.744,4.537-2.704,6.721c-1.989,4.342-4.1,8.541-6.511,12.646l-3.76-1.748
			l2.226-6.578c0.754-2.185,1.474-4.376,2.142-6.567c0.695-2.178,1.324-4.367,1.875-6.503c0.272-1.067,0.503-2.127,0.665-3.126
			c0.08-0.5,0.143-0.975,0.177-1.405c0.015-0.21,0.016-0.399,0.018-0.57l-0.043-0.568c-0.18-2.237-0.447-4.494-0.714-6.754
			l-0.936-6.796c-0.695-4.521-1.464-9.103-2.238-13.567L345.722,183.452z"/>
		<g>
			<path style="fill:#263238;" d="M341.895,173.918c3.331,1.013,7.333,12.484,7.333,12.484l-12.925,9.241
				c0,0-4.714-9.576-3.314-13.882C334.447,177.277,338.094,172.762,341.895,173.918z"/>
		</g>
		<path style="fill:#407BFF;" d="M305.552,408.361c-0.814,0-1.565-0.126-1.986-0.504c-0.267-0.24-0.385-0.558-0.35-0.944
			c0.021-0.231,0.135-0.409,0.329-0.516c1.002-0.549,4.267,1.117,4.635,1.309c0.073,0.038,0.114,0.118,0.103,0.199
			c-0.012,0.082-0.073,0.147-0.154,0.163C307.433,408.207,306.453,408.361,305.552,408.361z M304.092,406.667
			c-0.15,0-0.273,0.022-0.362,0.07c-0.08,0.044-0.12,0.108-0.128,0.21c-0.024,0.262,0.049,0.465,0.223,0.621
			c0.496,0.447,1.844,0.525,3.659,0.223C306.36,407.253,304.868,406.667,304.092,406.667z"/>
		<path style="fill:#407BFF;" d="M308.091,408.072c-0.027,0-0.054-0.006-0.08-0.017c-0.976-0.441-2.907-2.207-2.755-3.134
			c0.036-0.22,0.191-0.493,0.728-0.547c0.397-0.04,0.759,0.072,1.074,0.335c1.029,0.857,1.218,3.061,1.226,3.154
			c0.005,0.069-0.025,0.135-0.082,0.174C308.169,408.06,308.13,408.072,308.091,408.072z M306.14,404.753
			c-0.038,0-0.077,0.002-0.117,0.006c-0.354,0.036-0.377,0.177-0.385,0.224c-0.091,0.557,1.22,1.946,2.214,2.548
			c-0.096-0.642-0.368-1.964-1.044-2.526C306.606,404.837,306.386,404.753,306.14,404.753z"/>
		<path style="fill:#263238;" d="M318.018,145.348l-1.487-0.717C316.532,144.631,317.126,145.989,318.018,145.348z"/>
		<path style="fill:#407BFF;" d="M336.499,221.618l0.85,2.976c0.116,0.231-0.157,0.466-0.542,0.466h-34.223
			c-0.3,0-0.548-0.147-0.567-0.335l-0.3-2.976c-0.021-0.206,0.239-0.381,0.567-0.381h33.672
			C336.205,221.368,336.424,221.47,336.499,221.618z"/>
		<g>
			<g>
				<path style="fill:#407BFF;" d="M331.976,225.383h0.902c0.18,0,0.316-0.093,0.304-0.206l-0.423-3.867
					c-0.012-0.113-0.169-0.206-0.349-0.206h-0.902c-0.18,0-0.316,0.093-0.304,0.206l0.423,3.867
					C331.64,225.291,331.797,225.383,331.976,225.383z"/>
				<g style="opacity:0.3;">
					<path style="fill:#FFFFFF;" d="M331.976,225.383h0.902c0.18,0,0.316-0.093,0.304-0.206l-0.423-3.867
						c-0.012-0.113-0.169-0.206-0.349-0.206h-0.902c-0.18,0-0.316,0.093-0.304,0.206l0.423,3.867
						C331.64,225.291,331.797,225.383,331.976,225.383z"/>
				</g>
			</g>
			<g>
				<path style="fill:#407BFF;" d="M305.119,225.383h0.902c0.18,0,0.316-0.093,0.304-0.206l-0.423-3.867
					c-0.012-0.113-0.169-0.206-0.349-0.206h-0.902c-0.18,0-0.316,0.093-0.304,0.206l0.423,3.867
					C304.783,225.291,304.94,225.383,305.119,225.383z"/>
				<path style="opacity:0.3;fill:#FFFFFF;" d="M305.119,225.383h0.902c0.18,0,0.316-0.093,0.304-0.206l-0.423-3.867
					c-0.012-0.113-0.169-0.206-0.349-0.206h-0.902c-0.18,0-0.316,0.093-0.304,0.206l0.423,3.867
					C304.783,225.291,304.94,225.383,305.119,225.383z"/>
			</g>
			<g>
				<path style="fill:#407BFF;" d="M318.548,225.383h0.902c0.18,0,0.316-0.093,0.304-0.206l-0.423-3.867
					c-0.012-0.113-0.17-0.206-0.349-0.206h-0.902c-0.18,0-0.316,0.093-0.304,0.206l0.423,3.867
					C318.211,225.291,318.368,225.383,318.548,225.383z"/>
				<path style="opacity:0.3;fill:#FFFFFF;" d="M318.548,225.383h0.902c0.18,0,0.316-0.093,0.304-0.206l-0.423-3.867
					c-0.012-0.113-0.17-0.206-0.349-0.206h-0.902c-0.18,0-0.316,0.093-0.304,0.206l0.423,3.867
					C318.211,225.291,318.368,225.383,318.548,225.383z"/>
			</g>
		</g>
		<path style="fill:#FFB573;" d="M334.465,236.699l-6.347,6.161l8.284,0.831c0,0,2.982-4.33,1.423-7.355L334.465,236.699z"/>
		<polygon style="fill:#FFB573;" points="327.183,249.68 334.156,250 336.402,243.691 328.118,242.86 		"/>
	</g>
</g>
<g id="Character_1">
	<g>
		<path style="fill:#407BFF;" d="M165.302,409.114c0.942,0,1.872-0.13,2.239-0.553c0.129-0.148,0.25-0.401,0.098-0.761
			c-0.086-0.202-0.251-0.339-0.492-0.407c-1.173-0.333-3.956,1.131-4.074,1.193c-0.068,0.036-0.113,0.108-0.111,0.179
			c0.001,0.072,0.048,0.128,0.117,0.143C163.534,409.001,164.423,409.114,165.302,409.114z M166.676,407.689
			c0.122,0,0.234,0.012,0.331,0.04c0.154,0.044,0.254,0.123,0.305,0.244c0.092,0.216,0.031,0.323-0.022,0.385
			c-0.412,0.475-2.271,0.485-3.608,0.293C164.414,408.3,165.818,407.689,166.676,407.689z"/>
		<path style="fill:#407BFF;" d="M163.112,408.911c0.024,0,0.049-0.005,0.073-0.015c0.945-0.398,2.935-1.986,2.923-2.817
			c-0.003-0.195-0.105-0.438-0.576-0.486c-0.35-0.036-0.689,0.064-1.009,0.298c-1.048,0.767-1.536,2.746-1.557,2.83
			c-0.015,0.062,0.004,0.122,0.049,0.158C163.042,408.9,163.076,408.911,163.112,408.911z M165.342,405.933
			c0.034,0,0.069,0.002,0.104,0.005c0.308,0.032,0.31,0.155,0.311,0.196c0.007,0.498-1.37,1.747-2.355,2.291
			c0.18-0.578,0.616-1.762,1.303-2.265C164.912,406.008,165.122,405.933,165.342,405.933z"/>
		<polygon style="fill:#B55B52;" points="155.06,408.737 162.406,408.737 165.64,391.724 158.294,391.724 		"/>
		<path style="fill:#263238;" d="M162.483,407.886h-8.023c-0.3,0-0.591,0.209-0.699,0.502l-2.412,6.53
			c-0.25,0.677,0.17,1.319,0.865,1.307c2.901-0.049,7.108-0.219,10.745-0.219c4.253,0,3.864,0.232,8.852,0.232
			c3.016,0,4.301-3.049,3.08-3.325c-5.562-1.257-6.207-1.392-10.723-4.454C163.678,408.126,163.117,407.886,162.483,407.886z"/>
		<polygon style="opacity:0.2;" points="165.637,391.729 163.972,400.498 156.623,400.498 158.288,391.729 		"/>
		<path style="fill:#B55B52;" d="M166.191,225.452l4.808,5.052l-7.757,2.706c0,0-2.823-4.121-0.652-6.94L166.191,225.452z"/>
		<polygon style="fill:#B55B52;" points="172.444,237.563 164.76,238.682 163.242,233.211 170.999,230.505 		"/>
		<g>
			<path style="fill:#263238;" d="M137.364,267.363l37.479,1.647c1.749,0.077,3.442-1.269,3.782-3.006l4.485-22.899
				c0.34-1.737-0.802-3.207-2.55-3.284l-37.48-1.647c-1.748-0.077-3.442,1.269-3.782,3.006l-4.485,22.899
				C134.474,265.816,135.615,267.287,137.364,267.363z"/>
			<g>
				<path style="fill:#407BFF;" d="M139.932,274.4l46.293,2.034c2.16,0.095,4.061-1.576,4.247-3.732l2.451-28.42
					c0.186-2.156-1.414-3.98-3.574-4.075l-46.293-2.034c-2.16-0.095-4.061,1.576-4.247,3.732l-2.451,28.42
					C136.172,272.48,137.773,274.305,139.932,274.4z"/>
				<path style="opacity:0.2;" d="M139.932,274.4l46.293,2.034c2.16,0.095,4.061-1.576,4.247-3.732l2.451-28.42
					c0.186-2.156-1.414-3.98-3.574-4.075l-46.293-2.034c-2.16-0.095-4.061,1.576-4.247,3.732l-2.451,28.42
					C136.172,272.48,137.773,274.305,139.932,274.4z"/>
			</g>
			<path style="fill:#407BFF;" d="M173.898,247.705c-0.038,0-0.076-0.001-0.115-0.003l-13.446-0.591l0,0
				c-0.714-0.031-1.366-0.343-1.835-0.877c-0.469-0.534-0.693-1.221-0.632-1.933l0.528-6.129c0.223-2.588,2.514-4.598,5.111-4.486
				l8.992,0.395c1.332,0.059,2.544,0.637,3.415,1.629c0.871,0.992,1.287,2.27,1.173,3.598l-0.512,5.942
				C176.459,246.627,175.269,247.705,173.898,247.705z M160.897,244.134l12.717,0.559l0.486-5.642
				c0.044-0.506-0.112-0.989-0.438-1.361c-0.326-0.372-0.785-0.589-1.292-0.611l-8.992-0.395c-1.003-0.041-1.905,0.756-1.99,1.747
				L160.897,244.134z"/>
			<path style="fill:#407BFF;" d="M191.183,276.651l-46.293-2.034c-2.16-0.095-3.949-1.928-3.997-4.094l-0.625-28.555
				c-0.047-2.166,1.665-3.845,3.825-3.75l46.293,2.034c2.16,0.095,3.949,1.928,3.997,4.094l0.625,28.555
				C195.055,275.067,193.343,276.746,191.183,276.651z"/>
		</g>
		<path style="fill:#407BFF;" d="M177.469,169.52c-0.491,0.961-1.066,2.136-1.59,3.232c-0.534,1.115-1.05,2.245-1.553,3.379
			c-1.011,2.266-1.979,4.547-2.857,6.843c-0.873,2.298-1.659,4.598-2.371,6.888c-0.333,1.145-0.664,2.29-0.922,3.421
			c-0.151,0.571-0.275,1.135-0.374,1.692l-0.166,0.84c-0.057,0.281-0.12,0.578-0.132,0.771c-0.049,0.442-0.129,0.84-0.142,1.43
			c-0.025,0.546-0.077,1.078-0.077,1.687c-0.041,1.165-0.021,2.402-0.009,3.631c0.059,2.491,0.201,5.028,0.351,7.581
			c0.298,5.105,0.724,10.296,1.124,15.414l-9.167,1.482c-1.23-5.207-2.214-10.375-3.095-15.656
			c-0.417-2.643-0.776-5.308-1.082-8.031c-0.134-1.379-0.275-2.75-0.352-4.2c-0.057-0.697-0.068-1.472-0.073-2.232
			c-0.028-0.718,0.032-1.621,0.087-2.481c0.022-0.461,0.072-0.808,0.118-1.172l0.139-1.095c0.084-0.738,0.194-1.458,0.327-2.164
			c0.23-1.436,0.531-2.827,0.839-4.216c0.642-2.757,1.39-5.458,2.271-8.083c0.875-2.627,1.81-5.216,2.843-7.761
			c0.522-1.27,1.058-2.532,1.618-3.79c0.563-1.281,1.117-2.462,1.806-3.834L177.469,169.52z"/>
		<path style="fill:#263238;" d="M197.508,221.87c0,0-7.067,54.927-11.16,77.33c-4.258,23.302-19.388,99.601-19.388,99.601h-12.445
			c0,0,6.334-74.937,9.146-97.822c3.066-24.949,8.019-79.108,8.019-79.108H197.508z"/>
		<path style="fill:#407BFF;" d="M170.083,393.843c0.057,0-1.462,5.167-1.462,5.167h-15.138l0.269-4.611L170.083,393.843z"/>
		<path style="fill:#263238;" d="M203.531,130.652c0,0.622,0.33,1.127,0.736,1.127c0.407,0,0.736-0.504,0.736-1.127
			s-0.33-1.126-0.736-1.126C203.861,129.525,203.531,130.029,203.531,130.652z"/>
		<path style="fill:#A02724;" d="M203.804,131.778c0,0,1.415,3.589,2.972,5.321c-1.101,1.027-2.972,0.558-2.972,0.558V131.778z"/>
		<path style="fill:#263238;" d="M201.327,127.204c0.074,0,0.149-0.022,0.213-0.069c1.322-0.952,2.583-0.482,2.596-0.477
			c0.188,0.073,0.4-0.021,0.473-0.209c0.073-0.188-0.021-0.4-0.209-0.473c-0.066-0.026-1.646-0.616-3.286,0.566
			c-0.164,0.118-0.201,0.346-0.083,0.51C201.102,127.151,201.214,127.204,201.327,127.204z"/>
		<path style="fill:#B55B52;" d="M183.836,137.525c1.054,5.374,2.105,15.222-1.655,18.808c0,0,1.469,5.452,11.456,5.452
			c10.981,0,5.248-5.451,5.248-5.451c-5.993-1.431-5.838-5.878-4.794-10.053L183.836,137.525z"/>
		<path style="fill:#263238;" d="M180.742,158.204c-0.787-1.726-1.654-3.701,0.139-4.319c1.972-0.681,12.768-1.375,16.49-0.097
			s2.667,4.778,2.667,4.778L180.742,158.204z"/>
		<path style="fill:#407BFF;" d="M167.713,158.443c-6.433,2.918-10.435,25.057-10.435,25.057l12.609,4c0,0,3.982-9.201,6.167-18.012
			C178.343,160.256,174.291,155.46,167.713,158.443z"/>
		<path style="fill:#B55B52;" d="M245.964,213.264l7.751,0.016l-1.357,9.285c0,0-6.079-0.224-8.834-4.81L245.964,213.264z"/>
		<polygon style="fill:#B55B52;" points="261.062,216.49 257.16,223.66 252.359,222.565 253.715,213.28 		"/>
		<path style="fill:#B55B52;" d="M182.781,129.333c0.469,7.641,0.356,12.137,4.215,16.058c5.805,5.899,15.236,2.4,17.059-5.227
			c1.641-6.865,0.598-18.207-6.881-21.248C189.805,115.921,182.312,121.692,182.781,129.333z"/>
		<path style="fill:#263238;" d="M181.902,139.723c0,0-6.927-10.383-5.425-17.149c1.376-6.198,15.344-8.404,21.145-7.779
			c6.154,0.663,8.56,3.316,5.175,8.654c-3.484,1.619-6.25,2.117-6.25,2.117s3.438,4.212,3.462,6.974
			c-0.962,0.525-4.085,1.763-4.085,1.763s-4.384,10.803-4.515,10.787c-1.691-0.204-5.6-0.263-6.992,0.265
			C183.098,143.165,181.902,139.723,181.902,139.723z"/>
		<path style="fill:#B55B52;" d="M192.887,133.214c0.504,1.921,1.775,3.587,3.104,4.586c1.999,1.503,3.488,0.077,3.342-2.165
			c-0.131-2.018-1.33-5.232-3.533-5.863C193.629,129.149,192.311,131.016,192.887,133.214z"/>
		<path style="opacity:0.3;" d="M192.215,242.4c-9.84,2.28-7.98,37.84-6.11,58.11c0.08-0.46,0.16-0.89,0.24-1.31
			c2.44-13.34,5.93-38.2,8.36-56.14C193.895,242.69,192.835,242.25,192.215,242.4z"/>
		<g>
			<path style="fill:#407BFF;" d="M201.721,409.114c0.942,0,1.853-0.13,2.158-0.553c0.107-0.148,0.191-0.401-0.014-0.761
				c-0.115-0.202-0.301-0.339-0.552-0.407c-1.222-0.333-3.79,1.131-3.899,1.193c-0.063,0.036-0.097,0.108-0.085,0.179
				c0.012,0.072,0.066,0.128,0.138,0.143C199.936,409.001,200.842,409.114,201.721,409.114z M202.886,407.689
				c0.122,0,0.236,0.012,0.336,0.04c0.16,0.044,0.272,0.123,0.341,0.244c0.123,0.216,0.079,0.323,0.034,0.385
				c-0.342,0.475-2.199,0.485-3.565,0.293C200.713,408.3,202.027,407.689,202.886,407.689z"/>
			<path style="fill:#407BFF;" d="M199.501,408.911c0.024,0,0.048-0.005,0.071-0.015c0.887-0.398,2.643-1.986,2.509-2.817
				c-0.031-0.195-0.17-0.438-0.648-0.486c-0.355-0.036-0.68,0.064-0.965,0.298c-0.935,0.767-1.133,2.746-1.14,2.83
				c-0.006,0.062,0.021,0.122,0.072,0.158C199.43,408.9,199.465,408.911,199.501,408.911z M201.294,405.933
				c0.034,0,0.069,0.002,0.104,0.005c0.313,0.032,0.333,0.155,0.34,0.196c0.081,0.498-1.113,1.747-2.018,2.291
				c0.094-0.578,0.357-1.762,0.97-2.265C200.874,406.008,201.073,405.933,201.294,405.933z"/>
			<polygon style="fill:#B55B52;" points="191.423,408.737 198.77,408.737 199.501,391.724 192.155,391.724 			"/>
			<path style="fill:#263238;" d="M198.721,407.886h-8.023c-0.3,0-0.56,0.209-0.625,0.502l-1.451,6.53
				c-0.15,0.677,0.364,1.319,1.057,1.307c2.894-0.049,7.076-0.219,10.713-0.219c4.253,0,7.926,0.232,12.914,0.232
				c3.016,0,3.853-3.049,2.59-3.325c-5.747-1.257-10.439-1.392-15.406-4.454C199.951,408.126,199.355,407.886,198.721,407.886z"/>
			<g>
				<polygon style="opacity:0.2;" points="199.5,391.729 199.124,400.498 191.774,400.498 192.15,391.729 				"/>
			</g>
			<path style="fill:#263238;" d="M210.619,221.87c0,0,1.012,54.927,0.213,77.33c-0.831,23.302-8.97,99.601-8.97,99.601h-12.445
				c0,0-0.457-74.937-1.01-97.822c-0.604-24.949-3.616-79.108-3.616-79.108H210.619z"/>
			<path style="fill:#407BFF;" d="M204.256,393.843c0.057,0-0.702,5.167-0.702,5.167h-15.139l-0.409-4.611L204.256,393.843z"/>
		</g>
		<path style="fill:#407BFF;" d="M210.184,158.372c0,0,8.814,13.441,1.43,68.106c-11.839,0-35.743,0-41.504,0
			c-0.271-6.032,4.736-40.064-1.082-68.485c0,0,6.735-1.352,13.153-1.661c5.021-0.242,12.29-0.402,16.703,0.001
			C204.703,156.864,210.184,158.372,210.184,158.372z"/>
		<path style="opacity:0.2;" d="M214.556,186.34l-8.7-14.42c0,0,3.27,20.44,8.28,29.66
			C214.476,195.81,214.596,190.75,214.556,186.34z"/>
		<path style="fill:#407BFF;" d="M218.271,168.894c1.432,4.564,3.014,9.247,4.608,13.822c1.623,4.581,3.291,9.135,5.132,13.502
			l0.7,1.622c0.157,0.371,0.139,0.295,0.154,0.371c0.015,0.059,0.103,0.178,0.14,0.273c0.297,0.469,0.866,1.154,1.548,1.819
			c1.395,1.355,3.183,2.726,5.062,4.013c1.883,1.3,3.875,2.562,5.924,3.757c2.028,1.191,4.173,2.408,6.195,3.453l-3.895,9.084
			c-4.964-1.858-9.587-3.901-14.29-6.521c-2.333-1.336-4.654-2.781-7.005-4.688c-1.173-0.979-2.373-2.057-3.555-3.585
			c-0.301-0.425-0.59-0.802-0.879-1.284c-0.28-0.47-0.614-1.08-0.705-1.279l-0.88-1.749c-2.288-4.664-4.34-9.322-6.226-14.029
			c-1.919-4.713-3.654-9.39-5.343-14.252L218.271,168.894z"/>
		<path style="fill:#407BFF;" d="M200.38,161.688c-2.565,6.539,13.063,32.868,13.063,32.868l10.167-9.722
			c0,0-2.222-8.278-5.183-18.231C215.514,156.81,202.832,155.437,200.38,161.688z"/>
	</g>
</g>
</svg>
