<?xml version="1.0" encoding="utf-8"?>
<!-- Generator: Adobe Illustrator 27.5.0, SVG Export Plug-In . SVG Version: 6.00 Build 0)  -->
<svg version="1.1" xmlns="http://www.w3.org/2000/svg" xmlns:xlink="http://www.w3.org/1999/xlink" x="0px" y="0px"
	 viewBox="0 0 750 500" style="enable-background:new 0 0 750 500;" xml:space="preserve">
<g id="BACKGROUND">
</g>
<g id="OBJECTS">
	<rect style="fill:#EFF3F4;" width="750" height="500"/>
	<g>
		<path style="fill:#DFE7EA;" d="M243.651,388.271c0,3.603-48.171,6.525-107.593,6.525c-59.422,0-107.594-2.921-107.594-6.525
			c0-3.603,48.171-6.525,107.594-6.525C195.48,381.747,243.651,384.668,243.651,388.271z"/>
		<ellipse style="fill:#DFE7EA;" cx="493.274" cy="467.213" rx="107.593" ry="6.524"/>
		<ellipse style="fill:#DFE7EA;" cx="622.925" cy="390.615" rx="107.593" ry="6.524"/>
		<path style="fill:#DFE7EA;" d="M225.143,271.53c8.344-28.516,30.67-51.655,57.074-65.28c26.403-13.624,56.59-18.496,86.3-18.778
			c49.676-0.471,100.931,12.33,139.185,44.026c38.254,31.695,60.974,84.246,49.292,132.531
			c-9.987,41.285-44.025,74.693-84.191,88.51c-40.166,13.816-85.344,9.285-124.272-7.709
			C287.881,418.353,202.848,347.729,225.143,271.53z"/>
		<path style="fill:#DFE7EA;" d="M365.622,97.082c14.821-31.229,44.72-53.715,77.556-64.52
			c32.836-10.805,68.411-10.86,102.596-5.729c57.159,8.579,113.694,32.697,151.824,76.134
			c38.13,43.437,54.584,107.983,32.299,161.313c-19.054,45.598-64.293,77.731-112.975,86.23
			c-48.682,8.499-99.755-5.002-141.359-31.673C410.743,277.283,326.017,180.533,365.622,97.082z"/>
		<path style="fill:#DFE7EA;" d="M30.994,253.958c-10.773-31.261-5.39-66.639,9.817-96s39.482-53.209,66.277-72.583
			c44.803-32.394,99.58-53.751,154.71-49.588c55.13,4.164,109.575,37.26,130.039,88.62c17.497,43.913,8.089,96.151-19.491,134.542
			c-27.58,38.391-71.518,63.348-117.8,72.967C182.437,346.903,59.782,337.494,30.994,253.958z"/>
	</g>
	<g>
		<g>
			<g>
				<g>
					<g>
						<path style="fill:#38677C;" d="M338.197,263.336h-7.533v-22.021c0-6.14,4.995-11.135,11.135-11.135
							c6.141,0,11.136,4.995,11.136,11.135v7.123h-7.533v-7.123c0-1.986-1.616-3.602-3.603-3.602s-3.602,1.615-3.602,3.602V263.336z
							"/>
					</g>
					<g>
						<path style="fill:#24586F;" d="M333.74,263.336h-7.533v-22.021c0-6.14,4.995-11.135,11.135-11.135
							c6.141,0,11.136,4.995,11.136,11.135v7.123h-7.533v-7.123c0-1.986-1.616-3.602-3.602-3.602c-1.986,0-3.602,1.615-3.602,3.602
							V263.336z"/>
					</g>
				</g>
				<g>
					<rect x="350.706" y="255.065" width="7.533" height="8.272"/>
				</g>
				<g>
					<rect x="315.683" y="255.065" width="7.533" height="8.272"/>
				</g>
				<g>
					<rect x="318.337" y="259.57" style="fill:#38677C;" width="42.75" height="7.533"/>
				</g>
				<g>
					<rect x="310.665" y="259.57" style="fill:#24586F;" width="19.999" height="7.533"/>
				</g>
			</g>
			<rect x="287.149" y="267.103" style="fill:#38677C;" width="106.301" height="11.276"/>
			<rect x="287.149" y="267.103" style="fill:#24586F;" width="29.733" height="11.276"/>
			<line style="fill:none;stroke:#24586F;stroke-miterlimit:10;" x1="287.149" y1="267.103" x2="393.449" y2="267.103"/>
			<path style="fill:#38677C;" d="M365.221,313.512h-78.073v-35.133H388.87v11.484C388.87,302.924,378.282,313.512,365.221,313.512z
				"/>
			<path style="fill:#24586F;" d="M309.035,313.512h-21.886v-35.133h45.535v11.484C332.684,302.924,322.096,313.512,309.035,313.512
				z"/>
			<line style="fill:none;stroke:#24586F;stroke-miterlimit:10;" x1="388.87" y1="278.379" x2="287.149" y2="278.379"/>
			<path style="fill:#24586F;" d="M378.957,344.064c0,4.368-3.551,7.903-7.918,7.903h-47.128v-15.822h47.128
				c2.184,0,4.16,0.891,5.601,2.318c0.669,0.683,1.218,1.471,1.619,2.362C378.705,341.806,378.957,342.905,378.957,344.064z"/>
			<path style="fill:#38677C;" d="M378.259,340.825c-1.248,2.748-4.011,4.65-7.22,4.65h-47.128v-9.33h47.128
				c2.184,0,4.16,0.891,5.601,2.318C377.308,339.146,377.858,339.934,378.259,340.825z"/>
			<rect x="323.907" y="336.15" style="fill:#24586F;" width="20.522" height="15.822"/>
			<g>
				<g>
					<path style="fill:#38677C;" d="M332.202,373.86H317.26v-51.607h19.999v46.551C337.258,371.597,334.995,373.86,332.202,373.86z"
						/>
					<path style="fill:#24586F;" d="M319.715,373.86h-4.91c-2.792,0-5.056-2.264-5.056-5.056v-46.551h15.023v46.551
						C324.771,371.597,322.507,373.86,319.715,373.86z"/>
				</g>
				<path style="fill:#38677C;" d="M345.049,326.982h-34.97c-5.008,0-9.067-4.06-9.067-9.067v-4.403h53.104v4.403
					C354.117,322.923,350.057,326.982,345.049,326.982z"/>
				<path style="fill:#24586F;" d="M315.228,326.982h-8.806c-5.008,0-9.067-4.06-9.067-9.067v-4.403h26.94v4.403
					C324.295,322.923,320.236,326.982,315.228,326.982z"/>
				<line style="fill:none;stroke:#24586F;stroke-miterlimit:10;" x1="297.355" y1="313.512" x2="354.117" y2="313.512"/>
				<line style="fill:none;stroke:#24586F;stroke-miterlimit:10;" x1="310.825" y1="326.982" x2="337.258" y2="326.982"/>
			</g>
			<line style="fill:none;stroke:#24586F;stroke-miterlimit:10;" x1="309.748" y1="348.057" x2="337.258" y2="348.057"/>
			<line style="fill:none;stroke:#24586F;stroke-miterlimit:10;" x1="309.748" y1="355.832" x2="337.258" y2="355.832"/>
			<path style="fill:#38677C;" d="M341.228,355.187h-32.914c-1.197,0-2.168-0.97-2.168-2.168v-2.105c0-1.197,0.97-2.167,2.168-2.167
				h32.914c1.197,0,2.168,0.97,2.168,2.167v2.105C343.396,354.217,342.425,355.187,341.228,355.187z"/>
			<path style="fill:#24586F;" d="M317.973,355.187h-9.659c-1.197,0-2.168-0.97-2.168-2.168v-2.105c0-1.197,0.97-2.167,2.168-2.167
				h9.659c1.197,0,2.168,0.97,2.168,2.167v2.105C320.14,354.217,319.17,355.187,317.973,355.187z"/>
		</g>
		<g>
			<g>
				<g>
					<g>
						<g>
							<polygon style="fill:#FFFFFF;" points="460.981,441.911 438.929,443.488 434.706,416.065 458.005,415.995 							"/>
						</g>
					</g>
					<g>
						<g>
							<g>
								<path d="M465.761,459.825l-50.142,1.327l0.322-4.487c0.109-1.464,0.454-2.83,1.005-4.071
									c1.167-2.64,3.276-4.705,6.075-5.849l1.253-0.511c1.228-0.502,2.342-1.149,3.335-1.923c0.855-0.666,1.618-1.417,2.27-2.26
									c1.43-1.812,2.385-4.012,2.766-6.474l28.174-0.745l3.198,16.518L465.761,459.825z"/>
							</g>
						</g>
						<g>
							<g>
								
									<rect x="431.672" y="437.664" transform="matrix(0.9997 -0.0264 0.0264 0.9997 -11.4401 11.7019)" style="fill:#FFFFFF;" width="9.909" height="1.275"/>
							</g>
						</g>
						<g>
							<g>
								
									<rect x="429.879" y="441.163" transform="matrix(0.9997 -0.0264 0.0264 0.9997 -11.5334 11.6558)" style="fill:#FFFFFF;" width="9.909" height="1.275"/>
							</g>
						</g>
						<g>
							<g>
								<g>
									<path style="fill:#FFFFFF;" d="M452.787,449.958c-0.971,0.026-1.922-0.705-2.165-1.663
										c-0.131-0.515-0.036-1.033,0.258-1.422c0.289-0.38,0.748-0.606,1.258-0.62c0.97-0.026,1.922,0.704,2.165,1.663l0.001,0.001
										c0.129,0.515,0.035,1.033-0.259,1.421C453.756,449.718,453.299,449.944,452.787,449.958z M452.171,447.528
										c-0.087,0.002-0.206,0.024-0.275,0.116c-0.06,0.079-0.074,0.199-0.04,0.339c0.099,0.383,0.517,0.711,0.897,0.701
										c0.087-0.002,0.206-0.024,0.275-0.116c0.06-0.079,0.075-0.199,0.04-0.337l0,0
										C452.969,447.847,452.551,447.518,452.171,447.528z"/>
								</g>
							</g>
							<g>
								<g>
									<path style="fill:#FFFFFF;" d="M446.806,450.116c-0.972,0.026-1.923-0.705-2.167-1.664
										c-0.131-0.512-0.036-1.03,0.258-1.419c0.289-0.381,0.746-0.608,1.258-0.621c0.97-0.026,1.922,0.704,2.165,1.663
										l0.001,0.001c0.13,0.515,0.035,1.033-0.259,1.421C447.774,449.878,447.317,450.103,446.806,450.116z M446.189,447.686
										c-0.087,0.002-0.205,0.024-0.275,0.116c-0.06,0.079-0.073,0.199-0.038,0.337c0.097,0.385,0.516,0.713,0.897,0.702
										c0.087-0.002,0.205-0.024,0.274-0.114c0.06-0.08,0.074-0.2,0.04-0.339l0,0
										C446.987,448.005,446.568,447.676,446.189,447.686z"/>
								</g>
							</g>
						</g>
						<g>
							<g>
								<path style="fill:#FFFFFF;" d="M465.761,459.825l-50.142,1.327l0.322-4.487c0.109-1.464,0.454-2.83,1.005-4.071l47.07-1.245
									L465.761,459.825z"/>
							</g>
						</g>
						<g>
							<g>
								
									<rect x="433.186" y="455.371" transform="matrix(0.9997 -0.0264 0.0264 0.9997 -11.9029 12.033)" style="fill:#94C19B;" width="31.543" height="1.275"/>
							</g>
						</g>
						<g>
							<g>
								<path style="fill:#FFFFFF;" d="M443.76,460.407l-28.141,0.745l0.322-4.487c0.109-1.464,0.454-2.83,1.005-4.071
									c1.167-2.64,3.276-4.705,6.075-5.849l1.253-0.511c1.228-0.502,2.342-1.149,3.335-1.923
									C434.8,447.138,441.022,453.139,443.76,460.407z"/>
							</g>
						</g>
						<g>
							<g>
								<path d="M432.644,435.576l-1.194-2.465c-0.841-1.736,0.072-3.432,1.873-3.48l2.512-0.066c1.983-0.053,4.085,0.9,5.58,2.529
									l2.911,3.173L432.644,435.576z"/>
							</g>
						</g>
					</g>
				</g>
			</g>
			<g>
				<g>
					<g>
						<g>
							<polygon style="fill:#FFFFFF;" points="552.613,424.715 554.19,446.767 526.766,450.989 526.697,427.69 							"/>
						</g>
					</g>
					<g>
						<g>
							<g>
								<path d="M570.526,419.935l1.327,50.142l-4.487-0.322c-1.464-0.109-2.83-0.454-4.071-1.005
									c-2.64-1.167-4.705-3.276-5.848-6.075l-0.511-1.253c-0.502-1.228-1.149-2.342-1.923-3.335
									c-0.666-0.855-1.417-1.618-2.26-2.27c-1.812-1.43-4.011-2.385-6.474-2.766l-0.745-28.174l16.518-3.198L570.526,419.935z"/>
							</g>
						</g>
						<g>
							<g>
								
									<rect x="548.365" y="444.114" transform="matrix(0.9997 -0.0264 0.0264 0.9997 -11.6813 14.6724)" style="fill:#FFFFFF;" width="1.275" height="9.909"/>
							</g>
						</g>
						<g>
							<g>
								
									<rect x="551.864" y="445.907" transform="matrix(0.9997 -0.0264 0.0264 0.9997 -11.7318 14.7711)" style="fill:#FFFFFF;" width="1.275" height="9.909"/>
							</g>
						</g>
						<g>
							<g>
								<g>
									<path style="fill:#FFFFFF;" d="M560.659,432.908c0.026,0.971-0.705,1.922-1.663,2.165
										c-0.515,0.131-1.033,0.036-1.422-0.258c-0.38-0.289-0.606-0.748-0.62-1.258c-0.026-0.97,0.704-1.922,1.663-2.165
										l0.001-0.001c0.515-0.129,1.033-0.035,1.421,0.259C560.42,431.939,560.646,432.396,560.659,432.908z M558.229,433.524
										c0.002,0.087,0.024,0.206,0.116,0.275c0.079,0.06,0.199,0.074,0.339,0.04c0.384-0.099,0.711-0.517,0.701-0.897
										c-0.002-0.087-0.024-0.206-0.116-0.275c-0.079-0.06-0.199-0.074-0.337-0.04l0,0
										C558.548,432.726,558.219,433.144,558.229,433.524z"/>
								</g>
							</g>
							<g>
								<g>
									<path style="fill:#FFFFFF;" d="M560.818,438.889c0.026,0.972-0.705,1.923-1.664,2.167
										c-0.512,0.131-1.031,0.036-1.419-0.258c-0.381-0.289-0.608-0.746-0.621-1.258c-0.026-0.97,0.704-1.922,1.663-2.165
										l0.001-0.001c0.515-0.13,1.033-0.035,1.421,0.259C560.579,437.921,560.804,438.379,560.818,438.889z M558.388,439.506
										c0.002,0.087,0.024,0.205,0.116,0.275c0.079,0.06,0.199,0.073,0.337,0.039c0.385-0.097,0.713-0.516,0.703-0.897
										c-0.002-0.087-0.024-0.205-0.114-0.274c-0.08-0.06-0.2-0.074-0.339-0.039l0,0
										C558.706,438.708,558.378,439.127,558.388,439.506z"/>
								</g>
							</g>
						</g>
						<g>
							<g>
								<path style="fill:#FFFFFF;" d="M570.526,419.935l1.327,50.142l-4.487-0.322c-1.464-0.109-2.83-0.454-4.071-1.005
									l-1.245-47.07L570.526,419.935z"/>
							</g>
						</g>
						<g>
							<g>
								
									<rect x="566.072" y="420.967" transform="matrix(0.9997 -0.0264 0.0264 0.9997 -11.3507 15.1386)" style="fill:#94C19B;" width="1.275" height="31.543"/>
							</g>
						</g>
						<g>
							<g>
								<path style="fill:#FFFFFF;" d="M571.108,441.935l0.744,28.141l-4.487-0.322c-1.464-0.109-2.83-0.454-4.071-1.005
									c-2.64-1.167-4.705-3.276-5.848-6.075l-0.511-1.253c-0.502-1.228-1.149-2.342-1.923-3.335
									C557.839,450.895,563.841,444.673,571.108,441.935z"/>
							</g>
						</g>
						<g>
							<g>
								<path d="M546.277,453.051l-2.465,1.194c-1.735,0.841-3.432-0.073-3.48-1.874l-0.067-2.512
									c-0.052-1.983,0.9-4.085,2.529-5.58l3.173-2.911L546.277,453.051z"/>
							</g>
						</g>
					</g>
				</g>
			</g>
			<path style="fill:#38677C;" d="M534.075,425.868l-2.474,31.193l-7.476,0.891l0.439-5.228l-33.175,8.779
				c-8.833,2.341-16.827-2.98-19.341-10.495c-1.184-3.538-1.144-7.582,0.625-11.533l9.138-39.201c0,0-8.048-2.94-26.245-8.527
				l5.414,28.945l4.775,0.266l0.625,8.779l-15.643-0.093l-14.898-0.08l-13.901-60.91c-2.195-9.577,6.026-18.317,15.723-16.721
				l47.901,7.862l33.628-5.946c0,0,18.437,37.911-7.888,75.715L534.075,425.868z"/>
			<g>
				<g>
					<path style="fill:#CA3D16;" d="M483.394,329.375c-13.049,13.887-34.732,15.257-55.523,11.466
						c0-0.027,13.874-19.554,13.874-19.554l15.656-3.698l7.463-1.756l12.491-2.953c2.049-0.372,4.097-0.013,5.84,0.944
						c1.609,0.865,2.953,2.235,3.791,3.977C488.994,321.992,486.587,325.97,483.394,329.375z"/>
					<path style="fill:#92482D;" d="M441.75,321.282l-42.192-12.005l-4.347,4.615c0,0,8.826,15.433,32.665,26.943L441.75,321.282z"
						/>
				</g>
				<g>
					<g>
						<g>
							<g>
								<g>
									<g>
										<path style="fill:#92482D;" d="M384.791,295.245l-11.798,2.304c-0.915,0.179-1.551,1.015-1.48,1.945l0,0
											c0.077,0.995,0.934,1.747,1.931,1.694l11.685-0.629L384.791,295.245z"/>
									</g>
								</g>
							</g>
						</g>
						<g>
							<g>
								<g>
									<g>
										<path style="fill:#92482D;" d="M393.449,300.352l-8.658-5.107l-13.396,4.917c-0.917,0.337-1.377,1.361-1.02,2.271l0,0
											c0.264,0.671,0.914,1.11,1.635,1.104l9.005-0.078l11.839,10.317L393.449,300.352z"/>
									</g>
								</g>
							</g>
						</g>
						<g>
							<g>
								<g>
									<g>
										<path style="fill:#92482D;" d="M389.95,307.58l-5.371-11.325l-7.135-0.526c-0.521-0.038-0.946-0.431-1.025-0.948l0,0
											c-0.093-0.609,0.324-1.179,0.932-1.275l9.22-1.457l6.836,5.319L389.95,307.58z"/>
									</g>
								</g>
							</g>
						</g>
						<g>
							<g>
								<g>
									<g>
										<path style="fill:#92482D;" d="M408.684,324.074c-13.279-0.277-21.888-9.833-21.888-9.833l6.611-16.873l10.679,14.316
											L408.684,324.074z"/>
									</g>
								</g>
							</g>
						</g>
					</g>
					<g>
						<g>
							<g>
								<g>
									<path style="fill:#92482D;" d="M390.787,308.127l-11.518-2.962l-6.265,2.218c-0.696,0.246-0.967,1.087-0.547,1.694
										l0.042,0.06c0.224,0.323,0.6,0.505,0.993,0.479l5.704-0.368l7.6,4.994L390.787,308.127z"/>
								</g>
							</g>
						</g>
					</g>
				</g>
			</g>
			<g>
				<polygon style="fill:#BA6C57;" points="480.441,313.525 465.628,318.074 462.337,312.103 457.49,303.315 455.567,299.835 
					468.458,275.082 				"/>
				<path style="fill:#92482D;" d="M468.566,298.467c0,0,0.963,9.039-6.229,13.635l-4.848-8.788L468.566,298.467z"/>
				<path style="fill:#BA6C57;" d="M471.54,299.25l-15.442,8.732c-3.865,2.185-8.737-0.072-9.547-4.443
					c-1.127-5.956-1.898-13.994,0.075-20.692c1.166-3.956,3.603-7.251,6.788-9.53c1.427-1.032,3.015-1.852,4.708-2.423l0.017-0.008
					l0.961-0.293l0.097-0.034c0.482-0.132,0.968-0.234,1.461-0.32c1.171-0.216,2.372-0.323,3.594-0.296
					c1.168,0.021,2.293,0.236,3.331,0.616c4.359,1.594,7.25,6.094,6.547,11.003l-0.616,4.213L471.54,299.25z"/>
				<path d="M452.546,273.984c9.115-10.525,24.319-5.869,28.915-1.075c7.787,8.124,3.604,20.093-5.124,27.444l-9.406-22.506
					L452.546,273.984z"/>
				<ellipse transform="matrix(0.2289 -0.9735 0.9735 0.2289 90.6539 691.5106)" cx="481.812" cy="288.534" rx="8.734" ry="8.734"/>
				<ellipse transform="matrix(0.7071 -0.7071 0.7071 0.7071 -55.5548 401.045)" cx="456.327" cy="267.583" rx="8.734" ry="8.734"/>
				
					<ellipse transform="matrix(0.9228 -0.3852 0.3852 0.9228 -66.761 201.9131)" cx="470.568" cy="267.583" rx="10.745" ry="10.745"/>
				<path style="fill:#BA6C57;" d="M446.149,284.71c-0.895,3.331-3.106,4.28-4.609,4.502c-0.965,0.142-1.66,0.995-1.61,1.969l0,0
					c0.066,1.285,0.883,2.41,2.084,2.872l4.25,1.632c2.322,0.449,4.526-1.198,4.753-3.551l0.77-7.979L446.149,284.71z"/>
				<path d="M472.271,286.866c0,0-12.475,1.448-15.32-9.223l5.746-4.659c5.677-0.655,10.953,3.021,12.306,8.573l0.799,3.281
					L472.271,286.866z"/>
				<path style="fill:#BA6C57;" d="M467.181,288.672c16.353-12.28,18.438,9.456,0.695,8.286L467.181,288.672z"/>
				<polygon points="466.15,281.033 465.456,291.869 467.436,291.598 471.076,284.9 				"/>
				<path d="M451.172,282.556c3.309,0.449,3.72-1.298,1.239-2.023C449.743,279.753,447.056,281.997,451.172,282.556z"/>
				<path d="M449.22,288.916c-0.37,1.521-0.108,2.891,0.585,3.059c0.693,0.169,1.556-0.927,1.926-2.448
					c0.37-1.521,0.108-2.89-0.585-3.059C450.452,286.299,449.59,287.395,449.22,288.916z"/>
				<g>
					<path style="fill:#38677C;" d="M469.481,335.176l-6.039,2.78c-4.19-9.072-4.057-16.455-2.98-21.403l7.462-1.756
						C466.661,317.777,464.758,324.96,469.481,335.176z"/>
				</g>
				<path style="fill:#E15938;" d="M520.454,366.767l-20.126,2.714l-11.626,0.652l-2.567-8.447l-2.102-6.957l-3.631-4.855
					c0,0-3.858-0.918-8.061-3.658c-0.612-0.412-1.237-0.851-1.849-1.344c-0.612-0.479-1.21-0.998-1.796-1.583
					c-0.599-0.559-1.171-1.171-1.716-1.836c-1.157-1.37-2.195-2.953-3.02-4.762c-1.583-3.485-2.408-7.848-1.756-13.249
					c0.013-0.173,0.04-0.359,0.066-0.532c0.027-0.253,0.066-0.519,0.107-0.785c0.346-2.248,0.944-4.642,1.822-7.223l10.362-6.079
					c1.53-0.173,3.006-0.253,4.43-0.279c0.399,0,0.798,0,1.184,0.013c2.727,0.04,5.281,0.359,7.649,0.905
					C519.935,316.871,520.454,366.767,520.454,366.767z"/>
				<ellipse transform="matrix(0.2306 -0.973 0.973 0.2306 104.2349 684.4615)" cx="484.939" cy="276.317" rx="8.734" ry="8.734"/>
				<path d="M467.181,288.069c-3.715,3.541-21.77,7.288-21.77,7.288s-0.058,7.489,1.167,10.825c1.226,3.337,7.98,8.444,22.478-5.107
					l1.177-14.624L467.181,288.069z"/>
				<path style="fill:#FFFFFF;" d="M455.312,298.418c-0.915,3.232-4.427,2.094-4.819,0.293
					C450.101,296.909,456.317,294.872,455.312,298.418z"/>
			</g>
			<g>
				<g>
					<polygon style="fill:#24586F;" points="360.279,324.107 371.292,328.496 376.178,325.056 376.954,313.413 369.494,310.026 
						366.811,311.732 372.594,314.276 373.387,320.863 368.54,323.945 362.907,320.436 362.22,314.651 359.481,316.393 					"/>
					<polygon style="fill:#38677C;" points="358.202,325.428 369.215,329.816 374.101,326.377 374.877,314.734 367.417,311.346 
						365.576,312.517 370.517,315.597 371.31,322.184 366.463,325.265 360.83,321.757 360.143,315.972 358.296,317.146 					"/>
				</g>
				<path style="fill:#24586F;" d="M369.215,329.816l16.594,28.241c1.929,3.283,6.253,4.212,9.36,2.013l2.608-1.846
					c3.249-2.3,3.687-6.954,0.923-9.819l-22.522-23.349L369.215,329.816z"/>
				<path style="fill:#38677C;" d="M369.215,329.816l16.594,28.241c1.929,3.283,6.253,4.212,9.36,2.013l0,0
					c3.2-2.265,3.682-6.827,1.025-9.711l-22.094-23.983L369.215,329.816z"/>
			</g>
			<g>
				<path style="fill:#38677C;" d="M482.303,329.495l-6.624,0.638c-0.984-10.256,1.756-17.279,4.496-21.576
					c2.727,0.04,5.281,0.359,7.649,0.905C485.762,311.617,481.173,317.815,482.303,329.495z"/>
			</g>
			<g>
				<g>
					<path style="fill:#BA6C57;" d="M398.987,336.73c-10.568-4.495-23.848-2.122-23.848-2.122l8.525,19.444l16.306-10.287
						L398.987,336.73z"/>
					<polygon style="fill:#BA6C57;" points="394.122,345.118 382.621,355.798 372.305,340.172 375.139,334.608 					"/>
				</g>
				<path style="fill:#BA6C57;" d="M449.416,346.375l-50.429-9.645l-4.221,6.324c0,0,13.513,16.494,44,25.357L449.416,346.375z"/>
				<path style="fill:#CA3D16;" d="M496.576,332.754c0,10.562-3.991,20.259-10.442,28.932l-2.102-6.957l-3.631-4.855
					c0,0-3.858-0.918-8.061-3.658c-0.612-0.412-1.237-0.851-1.849-1.344c-0.612-0.479-1.21-0.998-1.796-1.583
					c-0.599-0.559-1.171-1.171-1.716-1.836C469.588,330.967,496.576,305.542,496.576,332.754z"/>
				<path style="fill:#38677C;" d="M519.19,353.851l-21.828-1.28l-23.604-18.588l-9.799,2.709c0,0,12.842,10.836,20.073,18.038
					l3.685,19.674l34.594-4.27L519.19,353.851z"/>
				<path style="fill:#24586F;" d="M493.274,349.35c-2.49,7.18-8.273,10.548-8.273,10.548l-0.968-5.169l-3.697-3.555l7.381-6.71
					L493.274,349.35z"/>
				<path style="fill:#E15938;" d="M495.166,336.678c-9.379,19.605-32.478,28.57-56.374,31.626
					c-0.017-0.003,7.218-22.581,7.218-22.581l36.893-24.881c2.104-1.111,4.45-1.418,6.674-0.993c2.05,0.392,3.981,1.41,5.493,3.014
					C498.707,326.729,497.458,331.886,495.166,336.678z"/>
			</g>
			<path style="fill:#BA6C57;" d="M478.991,308.544c-1.639,4.333-13.363,9.531-14.792,6.358l10.362-6.079
				C476.091,308.65,477.568,308.57,478.991,308.544z"/>
			<path style="fill:#24586F;" d="M487.717,377.382l-5.906,22.893c0,0-8.048-2.94-26.245-8.527l5.414,28.945l4.775,0.266
				l0.625,8.779l-15.643-0.093l-10.934-56.467L487.717,377.382z"/>
		</g>
	</g>
	<g>
		<g>
			<g>
				<g>
					<g>
						<polygon style="fill:#FFFFFF;" points="685.597,347.737 664.777,362.494 644.194,337.956 664.555,300.477 						"/>
					</g>
				</g>
				<g>
					<g>
						<g>
							<path d="M701.038,362.555l-48.693,31.324l-2.368-4.622c-0.768-1.51-1.246-3.065-1.445-4.619
								c-0.428-3.304,0.417-6.605,2.495-9.408l0.93-1.255c0.912-1.231,1.623-2.536,2.14-3.895c0.445-1.169,0.748-2.367,0.887-3.59
								c0.327-2.644-0.047-5.387-1.145-8.045l27.36-17.6l13.044,14.388L701.038,362.555z"/>
						</g>
					</g>
					<g>
						<g>
							
								<rect x="653.681" y="358.016" transform="matrix(0.841 -0.541 0.541 0.841 -89.2537 413.7885)" style="fill:#FFFFFF;" width="11.438" height="1.472"/>
						</g>
					</g>
					<g>
						<g>
							
								<rect x="654.006" y="362.543" transform="matrix(0.841 -0.541 0.541 0.841 -91.6515 414.6804)" style="fill:#FFFFFF;" width="11.438" height="1.472"/>
						</g>
					</g>
					<g>
						<g>
							<g>
								<path style="fill:#FFFFFF;" d="M682.327,360.583c-0.943,0.607-2.319,0.454-3.133-0.345c-0.437-0.43-0.654-0.998-0.597-1.558
									c0.058-0.548,0.375-1.046,0.87-1.365c0.942-0.606,2.318-0.456,3.132,0.345l0.002,0c0.436,0.431,0.653,0.999,0.595,1.557
									C683.14,359.766,682.824,360.263,682.327,360.583z M680.265,358.553c-0.085,0.055-0.189,0.147-0.202,0.279
									c-0.012,0.114,0.045,0.241,0.164,0.358c0.327,0.319,0.936,0.393,1.305,0.155c0.085-0.054,0.189-0.147,0.202-0.279
									c0.012-0.114-0.045-0.241-0.163-0.357l0,0C681.243,358.39,680.633,358.316,680.265,358.553z"/>
							</g>
						</g>
						<g>
							<g>
								<path style="fill:#FFFFFF;" d="M676.519,364.319c-0.944,0.607-2.32,0.455-3.134-0.346c-0.435-0.427-0.652-0.995-0.595-1.555
									c0.057-0.549,0.373-1.046,0.87-1.366c0.942-0.606,2.318-0.456,3.133,0.345l0.002,0c0.436,0.431,0.653,0.999,0.595,1.557
									C677.331,363.504,677.015,364,676.519,364.319z M674.455,362.29c-0.085,0.055-0.188,0.146-0.202,0.279
									c-0.012,0.114,0.047,0.24,0.164,0.356c0.327,0.322,0.936,0.395,1.306,0.157c0.085-0.054,0.188-0.146,0.201-0.277
									c0.011-0.115-0.046-0.242-0.164-0.358l0,0C675.434,362.128,674.824,362.053,674.455,362.29z"/>
							</g>
						</g>
					</g>
					<g>
						<g>
							<path style="fill:#FFFFFF;" d="M701.038,362.555l-48.693,31.324l-2.368-4.622c-0.768-1.51-1.246-3.065-1.445-4.619
								l45.71-29.405L701.038,362.555z"/>
						</g>
					</g>
					<g>
						<g>
							
								<rect x="663.964" y="368.111" transform="matrix(0.841 -0.541 0.541 0.841 -91.0955 427.7098)" style="fill:#94C19B;" width="36.409" height="1.472"/>
						</g>
					</g>
					<g>
						<g>
							<path style="fill:#FFFFFF;" d="M679.672,376.299l-27.328,17.58l-2.368-4.622c-0.768-1.51-1.246-3.065-1.445-4.619
								c-0.428-3.304,0.417-6.605,2.495-9.408l0.93-1.255c0.912-1.231,1.623-2.536,2.14-3.895
								C662.887,368.566,672.62,370.765,679.672,376.299z"/>
						</g>
					</g>
					<g>
						<g>
							<path d="M653.838,358.446l-2.654-1.718c-1.869-1.209-1.983-3.431-0.234-4.556l2.439-1.569
								c1.926-1.239,4.571-1.557,7.021-0.844l4.773,1.389L653.838,358.446z"/>
						</g>
					</g>
				</g>
			</g>
			<polygon style="fill:#38677C;" points="684.586,341.275 671.136,350.005 671.136,350.015 648.536,364.695 640.816,355.945 
				646.476,350.485 608.616,291.005 611.576,286.965 629.336,262.765 			"/>
			<polygon style="fill:#38677C;" points="629.336,262.765 611.576,286.965 608.616,291.005 607.486,287.435 590.656,234.575 
				585.646,218.815 579.256,198.745 594.546,197.395 607.366,196.255 620.236,235.205 620.246,235.265 			"/>
		</g>
		<g>
			<g>
				<g>
					<g>
						<polygon style="fill:#FFFFFF;" points="593.064,373.98 567.57,375.126 563.535,320.587 588.618,319.23 						"/>
					</g>
				</g>
				<g>
					<g>
						<g>
							<path d="M598.033,394.796h-57.898l0.508-5.168c0.171-1.686,0.61-3.251,1.284-4.666c1.427-3.01,3.924-5.329,7.188-6.563
								l1.461-0.552c1.433-0.542,2.737-1.254,3.907-2.117c1.006-0.743,1.91-1.586,2.688-2.539c1.705-2.047,2.875-4.556,3.39-7.386
								h32.532l3.186,19.157L598.033,394.796z"/>
						</g>
					</g>
					<g>
						<g>
							<rect x="559.354" y="368.335" style="fill:#FFFFFF;" width="11.438" height="1.472"/>
						</g>
					</g>
					<g>
						<g>
							<rect x="557.178" y="372.318" style="fill:#FFFFFF;" width="11.438" height="1.472"/>
						</g>
					</g>
					<g>
						<g>
							<g>
								<path style="fill:#FFFFFF;" d="M583.365,383.014c-1.121,0-2.196-0.872-2.448-1.985c-0.135-0.598-0.01-1.193,0.341-1.633
									c0.345-0.43,0.881-0.677,1.47-0.677c1.12,0,2.196,0.871,2.448,1.985l0.001,0.001c0.134,0.598,0.009,1.193-0.342,1.631
									C584.49,382.767,583.955,383.014,583.365,383.014z M582.728,380.192c-0.101,0-0.239,0.021-0.32,0.125
									c-0.072,0.089-0.092,0.227-0.056,0.389c0.102,0.446,0.575,0.837,1.013,0.837c0.101,0,0.239-0.022,0.32-0.125
									c0.072-0.089,0.092-0.227,0.056-0.388l0,0C583.639,380.584,583.166,380.192,582.728,380.192z"/>
							</g>
						</g>
						<g>
							<g>
								<path style="fill:#FFFFFF;" d="M576.458,383.014c-1.123,0-2.198-0.872-2.449-1.986c-0.135-0.595-0.01-1.19,0.341-1.63
									c0.345-0.431,0.88-0.678,1.47-0.678c1.12,0,2.196,0.871,2.448,1.985l0.001,0.001c0.134,0.598,0.009,1.193-0.342,1.631
									C577.582,382.769,577.047,383.014,576.458,383.014z M575.82,380.192c-0.101,0-0.237,0.021-0.32,0.125
									c-0.072,0.089-0.091,0.227-0.055,0.388c0.101,0.447,0.574,0.838,1.013,0.838c0.101,0,0.237-0.022,0.319-0.124
									c0.072-0.09,0.092-0.229,0.056-0.39l0,0C576.731,380.584,576.258,380.192,575.82,380.192z"/>
							</g>
						</g>
					</g>
					<g>
						<g>
							<path style="fill:#FFFFFF;" d="M598.033,394.796h-57.898l0.508-5.168c0.171-1.686,0.61-3.251,1.284-4.666h54.351
								L598.033,394.796z"/>
						</g>
					</g>
					<g>
						<g>
							<rect x="560.555" y="389.143" style="fill:#94C19B;" width="36.409" height="1.472"/>
						</g>
					</g>
					<g>
						<g>
							<path style="fill:#FFFFFF;" d="M572.629,394.796h-32.685l0.511-5.198c0.172-1.696,0.614-3.271,1.292-4.694
								c1.436-3.028,3.947-5.36,7.23-6.602l1.47-0.555c1.441-0.545,2.753-1.262,3.93-2.13
								C562.637,379.12,569.675,386.276,572.629,394.796z"/>
						</g>
					</g>
					<g>
						<g>
							<path d="M560.561,365.804l-1.303-2.88c-0.917-2.028,0.188-3.958,2.268-3.958h2.9c2.29,0,4.686,1.163,6.361,3.089l3.263,3.75
								H560.561z"/>
						</g>
					</g>
				</g>
			</g>
			<polygon style="fill:#38677C;" points="595.186,365.805 557.266,365.805 555.026,357.165 560.556,356.725 557.206,286.255 
				556.406,269.475 586.996,278.135 			"/>
			<polygon style="fill:#24586F;" points="586.996,278.135 595.186,365.805 582.136,365.805 576.136,289.385 557.206,286.255 
				556.406,269.475 			"/>
			<polygon style="fill:#38677C;" points="556.407,269.475 578.76,196.256 607.363,196.256 586.995,278.133 			"/>
		</g>
		<path style="fill:#171842;" d="M596.454,147.046c7.886,8.587-20.266,35.599-40.718,45.706c-0.016,0.002-0.578-25.88-0.578-25.88
			l25.431-30.221c1.541-1.643,3.547-2.643,5.669-2.948c1.957-0.281,3.999,0.034,5.848,1.004
			C596.556,137.045,593.051,143.34,596.454,147.046z"/>
		<path style="fill:#92482D;" d="M540.105,139.78c-6.428-8.098-20.915-9.151-20.915-9.151l1.348,16.269l17.32-1.13L540.105,139.78z"
			/>
		<path style="fill:#92482D;" d="M561.374,163.064l-21.269-23.284l-6.56,1.953c0,0,0.609,19.443,22.089,51.018l0,0
			C567.009,187.276,569.888,172.384,561.374,163.064z"/>
		<g>
			<g>
				<polygon style="fill:#BA6C57;" points="590.774,137.279 570.792,137.279 568.545,126.533 567.277,115.337 566.772,110.901 
					584.418,89.717 				"/>
			</g>
			<path style="fill:#484B84;" d="M605.717,217.118l-30.178-10.312l-2.77-25.111c0,0-6.665-10.833-7.312-19.726
				c-0.511-7.029,0.771-16.107,4.534-28.518l19.156-8.845C630.42,147.279,605.717,217.118,605.717,217.118z"/>
			<path style="fill:#171842;" d="M580.721,131.768c-2.274,17.307,14.247,33.187,14.247,33.187l12.395,31.301l-19.778,10.098
				C587.586,206.355,569.62,155.378,580.721,131.768z"/>
			<g>
				<polygon style="fill:#38677C;" points="620.246,235.265 590.656,234.575 585.806,234.465 566.546,234.015 574.686,199.035 
					594.796,196.805 610.856,195.015 620.236,235.205 				"/>
			</g>
			<path style="fill:#38677C;" d="M596.476,202.275l-21.79-3.24c0,0-1.44-3.63-3.26-9.17c-2.51-7.68-5.75-19.02-6.87-29.39
				c-0.28-2.61-0.42-5.15-0.39-7.56l14.28-3.84C578.446,149.075,582.726,183.625,596.476,202.275z"/>
			<path style="fill:#24586F;" d="M578.316,179.785l-6.89,10.08c-2.51-7.68-5.75-19.02-6.87-29.39l9.05-1.28L578.316,179.785z"/>
			<path style="fill:#38677C;" d="M578.448,149.076c-0.729-13.243,6.286-21.792,12.326-23.529l-1.626-0.94
				c0,0-18.883,3.305-15.086,27.069L578.448,149.076z"/>
			<path style="fill:#92482D;" d="M580.848,115.048c0,0-2.872,9.794-12.303,11.485l-1.268-11.196L580.848,115.048z"/>
			<path style="fill:#BA6C57;" d="M585.026,115.87l-17.395,9.701c-4.353,2.427-9.809-0.14-10.689-5.051
				c-1.225-6.694-2.037-15.723,0.222-23.231c1.336-4.433,4.093-8.116,7.685-10.654c1.609-1.149,3.397-2.059,5.301-2.689l0.019-0.009
				l1.081-0.322l0.109-0.038c0.542-0.145,1.088-0.257,1.642-0.349c1.316-0.235,2.665-0.347,4.037-0.308
				c1.311,0.032,2.573,0.281,3.735,0.714c4.884,1.818,8.099,6.89,7.277,12.397l-0.72,4.726L585.026,115.87z"/>
			<path d="M563.87,87.378c10.303-11.756,27.342-6.427,32.47-1.014c8.688,9.172,1.77,23.998-8.078,32.192l-8.268-26.745
				L563.87,87.378z"/>
			<path style="fill:#BA6C57;" d="M556.617,99.377c-1.026,3.733-3.515,4.785-5.204,5.023c-1.085,0.153-1.871,1.106-1.821,2.2l0,0
				c0.066,1.443,0.975,2.712,2.321,3.238l4.761,1.86c2.603,0.52,5.089-1.314,5.36-3.955l0.918-8.952L556.617,99.377z"/>
			<path d="M585.929,101.972c0,0-14.016,1.542-17.139-10.456l6.482-5.192c6.378-0.697,12.277,3.465,13.759,9.707l0.875,3.689
				L585.929,101.972z"/>
			<path style="fill:#BA6C57;" d="M580.203,103.965c18.441-13.677,20.638,10.739,0.725,9.307L580.203,103.965z"/>
			<polygon points="579.096,95.382 578.245,107.543 580.469,107.252 583.719,99.551 			"/>
			<path d="M562.27,96.992c3.712,0.526,4.185-1.432,1.405-2.263C560.684,93.835,557.652,96.338,562.27,96.992z"/>
			<path d="M560.036,104.119c-0.426,1.705-0.141,3.244,0.637,3.439c0.777,0.194,1.753-1.031,2.179-2.735
				c0.426-1.705,0.141-3.244-0.637-3.439C561.437,101.19,560.462,102.414,560.036,104.119z"/>
			<path style="fill:#FFFFFF;" d="M566.813,114.828c-1.049,3.622-4.984,2.322-5.413,0.296
				C560.972,113.099,567.964,110.853,566.813,114.828z"/>
		</g>
		<g>
			<g>
				<g>
					<path style="fill:#484B84;" d="M564.442,267.477l9.774-0.587l-2.193-36.53c-0.09-1.493-1.372-2.63-2.865-2.541l-4.368,0.262
						c-1.493,0.09-2.63,1.372-2.541,2.865L564.442,267.477z"/>
					<path style="fill:#171842;" d="M568.542,267.231l5.674-0.341l-2.227-37.101c-0.071-1.178-1.083-2.076-2.261-2.005l-1.409,0.085
						c-1.178,0.071-2.076,1.083-2.005,2.261L568.542,267.231z"/>
				</g>
				<g>
					<path style="fill:#484B84;" d="M585.658,265.47l9.586,1.998l7.469-35.826c0.305-1.464-0.634-2.898-2.098-3.204l-4.284-0.893
						c-1.464-0.305-2.898,0.634-3.203,2.098L585.658,265.47z"/>
					<path style="fill:#171842;" d="M589.679,266.308l5.565,1.16l7.585-36.385c0.241-1.155-0.5-2.287-1.656-2.528l-1.381-0.288
						c-1.155-0.241-2.287,0.5-2.528,1.656L589.679,266.308z"/>
				</g>
				<g>
					<path style="fill:#484B84;" d="M577.236,259.268l9.712-1.249l-4.667-36.297c-0.191-1.483-1.548-2.531-3.031-2.34l-4.34,0.558
						c-1.483,0.191-2.531,1.548-2.341,3.031L577.236,259.268z"/>
					<path style="fill:#171842;" d="M581.309,258.744l5.638-0.725l-4.74-36.864c-0.151-1.17-1.221-1.997-2.392-1.847l-1.399,0.18
						c-1.17,0.15-1.997,1.221-1.847,2.392L581.309,258.744z"/>
				</g>
				<g>
					<rect x="554.763" y="227.411" style="fill:#CA3D16;" width="4.912" height="22.28"/>
					<rect x="550.397" y="227.411" style="fill:#E15938;" width="4.912" height="22.28"/>
					<rect x="557.288" y="232.434" style="fill:#EDBD22;" width="56.087" height="5.657"/>
					<rect x="557.288" y="235.909" style="fill:#EA9700;" width="56.087" height="2.182"/>
					<rect x="609.788" y="227.411" style="fill:#CA3D16;" width="5.076" height="22.28"/>
					<rect x="605.276" y="227.411" style="fill:#E15938;" width="5.076" height="22.28"/>
					<path style="fill:#24586F;" d="M684.586,341.275l-13.45,8.73c-17.48-26.69-41.8-65.1-41.8-65.1l-17.76,2.06l-4.09,0.47
						l-16.83-52.86l-4.85-0.11l-2.72-9.49l2.56-6.16l8.9-21.42l0.25-0.59l16.06-1.79l9.38,40.19l0.01,0.06l9.09,27.5
						L684.586,341.275z"/>
					<path style="fill:#CA3D16;" d="M616.724,278.159h-67.27c-3.425,0-6.201-2.776-6.201-6.201v-26.34h79.672v26.34
						C622.925,275.383,620.149,278.159,616.724,278.159z"/>
					<path style="fill:#E15938;" d="M598.977,278.159h-49.523c-3.425,0-6.201-2.776-6.201-6.201v-26.34h61.924v26.34
						C605.178,275.383,602.402,278.159,598.977,278.159z"/>
					<rect x="539.83" y="245.618" style="fill:#EA9700;" width="86.519" height="5.779"/>
					<rect x="539.83" y="245.618" style="fill:#EDBD22;" width="67.247" height="5.779"/>
				</g>
			</g>
			<g>
				<g>
					<path style="fill:#BA6C57;" d="M578.448,219.802c-6.383,8.333-7.302,20.629-7.302,20.629l19.152-3.125l-5.398-16.774
						L578.448,219.802z"/>
					<polygon style="fill:#BA6C57;" points="584.767,226.017 591.606,238.627 575.426,244.206 571.146,240.431 					"/>
				</g>
				<path style="fill:#484B84;" d="M600.276,134.65c15.222,12.762,17.905,35.249,15.175,57.097
					c-0.007,0.015-18.979,1.005-18.979,1.005l-13.003-50.848c-0.505-2.115-0.243-4.262,0.639-6.134
					c0.813-1.726,2.153-3.204,3.917-4.178C592.274,129.252,596.555,131.53,600.276,134.65z"/>
				<path style="fill:#BA6C57;" d="M588.918,197.588l-10.47,22.214l4.638,5.175c0,0,17.674-8.211,32.454-33.184l0,0
					C606.918,184.507,593.731,187.377,588.918,197.588z"/>
			</g>
		</g>
		<rect x="473.112" y="76.408" style="fill:#24586F;" width="54.735" height="121.131"/>
		<rect x="473.112" y="76.408" style="fill:#38677C;" width="49.88" height="121.131"/>
		<polygon style="fill:#EDBD22;" points="493.254,111.787 484.783,137.813 499.228,134.838 493.504,160.519 513.613,127.482 
			495.266,128.696 507.319,111.787 		"/>
		<rect x="405.503" y="76.408" style="fill:#38677C;" width="39.895" height="121.131"/>
		
			<rect x="445.398" y="76.408" transform="matrix(-1 -1.224647e-16 1.224647e-16 -1 918.51 273.9474)" style="fill:#24586F;" width="27.714" height="121.131"/>
		
			<rect x="453.66" y="86.247" transform="matrix(-1 -1.224647e-16 1.224647e-16 -1 918.5099 273.9473)" width="11.19" height="101.453"/>
		<path style="fill:#92482D;" d="M539.83,140.005l-8.389-14.609l-9.982-4.023c-0.926-0.373-1.969,0.154-2.216,1.122l0,0
			c-0.191,0.747,0.16,1.528,0.847,1.879l4.373,2.24l3.564,11.106L539.83,140.005z"/>
	</g>
	<g>
		<polygon style="fill:#24586F;" points="271.658,284.896 269.801,305.403 268.944,314.964 266.504,341.922 221.402,341.922 
			215.644,284.896 		"/>
		<path style="fill:#5A8192;" d="M271.658,284.896l-1.857,20.507l-0.857,9.561l-2.44,26.958h-13.721
			c-10.777,0-20.085-7.54-22.321-18.083l-8.26-38.942H271.658z"/>
		<path style="fill:#EDBD22;" d="M269.801,305.403l-0.857,9.561c-3.583,1.758-9.012,2.879-15.089,2.879
			c-10.77,0-19.507-3.528-19.507-7.891c0-4.363,8.737-7.902,19.507-7.902C260.449,302.051,266.273,303.37,269.801,305.403z"/>
		<path style="fill:none;stroke:#212121;stroke-width:2;stroke-miterlimit:10;" d="M264.467,284.896
			c0,13.387-9.32,24.24-20.816,24.24c-11.497,0-20.816-10.853-20.816-24.24"/>
		<ellipse style="fill:#FFFFFF;" cx="243.651" cy="284.896" rx="28.007" ry="5.376"/>
		<path style="fill:#24586F;" d="M271.655,284.895c0,0.986-1.374,1.905-3.763,2.692c-4.844,1.602-13.886,2.682-24.236,2.682
			c-10.36,0-19.402-1.081-24.246-2.682c-2.389-0.787-3.763-1.706-3.763-2.692c0-2.967,12.54-5.374,28.009-5.374
			C259.115,279.52,271.655,281.928,271.655,284.895z"/>
		<path style="fill:#EDBD22;" d="M267.892,287.587c-4.844,1.602-13.886,2.682-24.236,2.682c-10.36,0-19.402-1.081-24.246-2.682
			c4.843-1.611,13.886-2.692,24.246-2.692C254.006,284.895,263.048,285.975,267.892,287.587z"/>
	</g>
	<g>
		<path style="fill:#E15938;" d="M222.473,324.036h-35.822l2.333,12.7c0.552,3.004,3.171,5.186,6.225,5.186h18.706
			c3.054,0,5.673-2.181,6.225-5.186L222.473,324.036z"/>
		<path style="fill:#CA3D16;" d="M207.283,324.036h-20.632l2.333,12.7c0.552,3.004,3.171,5.186,6.225,5.186h3.515
			c3.054,0,5.673-2.181,6.225-5.186L207.283,324.036z"/>
		<polygon style="fill:#E15938;" points="202.674,324.036 164.171,324.036 170.15,336.646 196.695,336.646 		"/>
		<path style="fill:#E15938;" d="M173.884,324.036h-55.208l2.333,12.7c0.552,3.004,3.171,5.186,6.225,5.186h38.091
			c3.054,0,5.673-2.181,6.225-5.186L173.884,324.036z"/>
		<path style="fill:#CA3D16;" d="M154.5,324.036h-35.824l2.333,12.7c0.552,3.004,3.171,5.186,6.225,5.186h18.708
			c3.054,0,5.673-2.181,6.225-5.186L154.5,324.036z"/>
	</g>
	<g>
		<g>
			<rect x="239.819" y="112.681" style="fill:#EDBD22;" width="63.678" height="107.573"/>
			<polygon style="fill:#EDBD22;" points="239.819,232.868 303.497,232.868 303.497,216.035 239.819,223.012 			"/>
			<polygon style="fill:#EDBD22;" points="239.819,232.868 303.497,246.328 303.497,237.05 239.819,227.772 			"/>
			<polygon style="fill:#EDBD22;" points="239.819,243.828 303.497,250.558 303.497,241.279 239.819,238.731 			"/>
			<polygon style="fill:#EDBD22;" points="239.819,108.828 303.497,115.558 303.497,106.28 239.819,98.543 			"/>
			<polygon style="fill:#EDBD22;" points="239.819,81.274 303.497,96.35 303.497,79.919 239.819,63.837 			"/>
			<polygon style="fill:#EDBD22;" points="239.819,108.828 303.497,98.543 303.497,88.259 239.819,98.543 			"/>
		</g>
		<g>
			<g>
				<g>
					<g>
						<polygon style="fill:#FFFFFF;" points="63.025,345.522 81.063,358.307 98.895,337.049 81.255,304.579 						"/>
					</g>
				</g>
				<g>
					<g>
						<g>
							<path d="M49.648,358.36l42.185,27.137l2.052-4.004c0.666-1.309,1.079-2.655,1.251-4.002c0.371-2.862-0.362-5.722-2.161-8.151
								l-0.806-1.087c-0.79-1.067-1.406-2.197-1.854-3.374c-0.385-1.013-0.648-2.051-0.768-3.11
								c-0.283-2.291,0.041-4.667,0.992-6.97l-23.703-15.248l-11.3,12.465L49.648,358.36z"/>
						</g>
					</g>
					<g>
						<g>
							
								<rect x="85.083" y="350.111" transform="matrix(0.541 -0.841 0.841 0.541 -259.2695 235.0595)" style="fill:#FFFFFF;" width="1.275" height="9.909"/>
						</g>
					</g>
					<g>
						<g>
							
								<rect x="84.802" y="354.033" transform="matrix(0.541 -0.841 0.841 0.541 -262.6983 236.6269)" style="fill:#FFFFFF;" width="1.275" height="9.909"/>
						</g>
					</g>
					<g>
						<g>
							<g>
								<path style="fill:#FFFFFF;" d="M65.104,355.469c-0.05-0.484,0.138-0.976,0.515-1.349l0.002,0
									c0.705-0.694,1.898-0.824,2.714-0.299c0.429,0.276,0.704,0.708,0.754,1.182c0.049,0.485-0.138,0.977-0.517,1.349
									c-0.705,0.693-1.897,0.824-2.714,0.299C65.427,356.375,65.154,355.944,65.104,355.469z M66.514,355.029L66.514,355.029
									c-0.102,0.1-0.152,0.211-0.141,0.309c0.011,0.114,0.102,0.194,0.175,0.241c0.32,0.205,0.847,0.142,1.13-0.135
									c0.102-0.102,0.152-0.211,0.142-0.31c-0.011-0.114-0.102-0.194-0.175-0.241C67.325,354.688,66.797,354.752,66.514,355.029z"
									/>
							</g>
						</g>
						<g>
							<g>
								<path style="fill:#FFFFFF;" d="M70.137,358.707c-0.05-0.484,0.138-0.976,0.515-1.349l0.002,0
									c0.705-0.694,1.898-0.824,2.714-0.299c0.43,0.277,0.704,0.708,0.753,1.184c0.049,0.485-0.138,0.977-0.516,1.347
									c-0.705,0.694-1.898,0.826-2.715,0.299C70.46,359.612,70.186,359.182,70.137,358.707z M71.547,358.266L71.547,358.266
									c-0.102,0.1-0.152,0.211-0.142,0.31c0.012,0.113,0.101,0.193,0.175,0.24c0.32,0.206,0.848,0.143,1.131-0.136
									c0.102-0.101,0.153-0.21,0.142-0.308c-0.012-0.115-0.102-0.194-0.175-0.241C72.358,357.925,71.83,357.99,71.547,358.266z"/>
							</g>
						</g>
					</g>
					<g>
						<g>
							<path style="fill:#FFFFFF;" d="M49.648,358.36l42.185,27.137l2.052-4.004c0.666-1.309,1.079-2.655,1.251-4.002l-39.6-25.475
								L49.648,358.36z"/>
						</g>
					</g>
					<g>
						<g>
							
								<rect x="65.358" y="348.04" transform="matrix(0.541 -0.841 0.841 0.541 -275.6784 222.4848)" style="fill:#94C19B;" width="1.275" height="31.543"/>
						</g>
					</g>
					<g>
						<g>
							<path style="fill:#FFFFFF;" d="M68.158,370.267l23.675,15.23l2.052-4.004c0.666-1.309,1.079-2.655,1.251-4.002
								c0.371-2.862-0.362-5.722-2.161-8.151l-0.806-1.087c-0.79-1.067-1.406-2.197-1.854-3.374
								C82.7,363.568,74.267,365.473,68.158,370.267z"/>
						</g>
					</g>
					<g>
						<g>
							<path d="M90.539,354.8l2.299-1.488c1.619-1.048,1.718-2.972,0.203-3.947l-2.113-1.359c-1.668-1.073-3.96-1.349-6.082-0.731
								l-4.135,1.203L90.539,354.8z"/>
						</g>
					</g>
				</g>
			</g>
			<polygon style="fill:#EDBD22;" points="165.326,224.414 118.121,224.35 124.735,204.129 127.104,198.499 128.356,195.535 
				129.101,193.764 149.688,186.539 150.798,189.191 152.254,192.729 154.961,199.302 			"/>
			<g>
				
					<polyline style="fill:none;stroke:#212121;stroke-width:2;stroke-linecap:round;stroke-linejoin:round;stroke-miterlimit:10;" points="
					213.021,157.347 242.215,134.019 237.938,112.64 266.617,87.842 				"/>
				<g>
					<path style="fill:#92482D;" d="M143.28,163.524c3.901,17.017,20.428,28.109,38.62,34.71c0.014,0-1.943-21.873-1.943-21.873
						l-24.278-23.091c-1.453-1.241-3.238-1.895-5.056-1.953c-1.676-0.053-3.369,0.404-4.836,1.395
						C142.255,155.103,142.326,159.364,143.28,163.524z"/>
					<g>
						<path style="fill:#92482D;" d="M196.194,165.458c2.379-8.442,13.37-14.009,13.37-14.009l4.272,13.172l-13.924,4.787
							L196.194,165.458z"/>
						<polygon style="fill:#92482D;" points="203.515,166.574 215.374,164.835 218.471,153.307 209.564,151.449 						"/>
					</g>
					<path style="fill:#92482D;" d="M164.58,184.735l33.852-21.643l5.028,2.904c0,0-3.679,15.863-21.561,32.239L164.58,184.735z"/>
				</g>
				<g>
					<path style="fill:#BA6C57;" d="M159.047,166.419l-8.249,22.771l-1.407,3.876l-2.93,8.067l-5.688,15.635
						c-3.403-1.753-6.902-4.198-10.359-7.204c-0.563-0.49-1.128-0.998-1.693-1.506c-1.328-1.232-2.662-2.535-3.986-3.93
						c-5.394-5.658-10.489-12.438-14.733-19.542c-0.166-0.255-0.315-0.53-0.483-0.803c-3.709-6.325-7.102-12.533-5.117-18.022
						c1.535-4.264,6.285-8.106,16.572-11.278c0.315-0.099,0.629-0.198,0.946-0.28l18.361-4.733l9.115,1.133
						c0.453,0.051,0.892,0.138,1.316,0.263C157.48,152.473,161.483,159.706,159.047,166.419z"/>
				</g>
				<path style="fill:#EDBD22;" d="M155.248,187.412l15.326-22.195c0,0-17.41-21.155-28.676-12.748
					C130.634,160.877,147.238,183.328,155.248,187.412z"/>
				<g>
					<path style="fill:#EDBD22;" d="M159.047,166.419l-8.249,22.771l-1.407,3.876l-2.93,8.067l-5.688,15.635
						c-3.403-1.753-6.902-4.198-10.359-7.204c-0.563-0.49-1.128-0.998-1.693-1.506c-1.328-1.232-2.662-2.535-3.986-3.93
						c-5.394-5.658-10.489-12.438-14.733-19.542c-0.166-0.255-0.315-0.53-0.483-0.803c-3.709-6.325-7.102-12.533-5.117-18.022
						c1.535-4.264,1.344-7.591,16.572-11.278c0.321-0.078,0.629-0.198,0.946-0.28l18.361-4.733l9.115,1.133
						c0.453,0.051,0.892,0.138,1.316,0.263C157.48,152.473,161.483,159.706,159.047,166.419z"/>
				</g>
				<path style="fill:#38677C;" d="M147.301,149.471c7.659,1.978,13.146,12.481,9.142,24.135h-3.734c0,0,4.382-22.537-14.301-23.743
					L147.301,149.471z"/>
				<path style="fill:#38677C;" d="M192.886,277.711l-0.05,0.02l-17.25,8.3l-9.09,4.37l-0.51-0.9l-29.57-52.19
					c0,0,0.32-0.89,0.8-2.25v-0.01c1.05-2.99,2.84-8.24,3.56-11.34c0.05-0.25,0.11-0.48,0.17-0.71l17.24,1l1.74,0.11l5.4,0.31
					L192.886,277.711z"/>
				<g>
					<g>
						<g>
							<polygon style="fill:#FFFFFF;" points="161.125,368.258 183.211,369.251 186.707,322.001 164.976,320.826 							"/>
						</g>
					</g>
					<g>
						<g>
							<g>
								<path d="M156.82,386.292h50.16l-0.441-4.477c-0.148-1.461-0.529-2.817-1.113-4.043c-1.236-2.608-3.4-4.616-6.227-5.686
									l-1.266-0.478c-1.241-0.47-2.371-1.087-3.385-1.834c-0.872-0.643-1.654-1.374-2.329-2.2
									c-1.477-1.773-2.49-3.947-2.936-6.399H161.1l-2.76,16.597L156.82,386.292z"/>
							</g>
						</g>
						<g>
							<g>
								<rect x="180.42" y="363.367" style="fill:#FFFFFF;" width="9.909" height="1.275"/>
							</g>
						</g>
						<g>
							<g>
								<rect x="182.305" y="366.818" style="fill:#FFFFFF;" width="9.909" height="1.275"/>
							</g>
						</g>
						<g>
							<g>
								<g>
									<path style="fill:#FFFFFF;" d="M168.254,375.499c-0.304-0.38-0.412-0.895-0.296-1.413l0.001-0.001
										c0.218-0.965,1.151-1.72,2.121-1.72c0.51,0,0.975,0.214,1.274,0.586c0.304,0.381,0.412,0.897,0.295,1.415
										c-0.218,0.964-1.149,1.72-2.121,1.72C169.016,376.085,168.553,375.871,168.254,375.499z M169.202,374.365L169.202,374.365
										c-0.031,0.139-0.014,0.259,0.049,0.336c0.071,0.09,0.191,0.108,0.278,0.108c0.38,0,0.79-0.339,0.878-0.725
										c0.031-0.141,0.014-0.26-0.049-0.337c-0.071-0.09-0.191-0.108-0.278-0.108C169.7,373.639,169.29,373.979,169.202,374.365z"
										/>
								</g>
							</g>
							<g>
								<g>
									<path style="fill:#FFFFFF;" d="M174.238,375.499c-0.304-0.38-0.412-0.895-0.296-1.413l0.001-0.001
										c0.218-0.965,1.151-1.72,2.121-1.72c0.512,0,0.975,0.214,1.274,0.588c0.304,0.381,0.412,0.897,0.295,1.412
										c-0.218,0.965-1.149,1.721-2.122,1.721C175.001,376.085,174.537,375.872,174.238,375.499z M175.186,374.365
										L175.186,374.365c-0.031,0.139-0.014,0.259,0.049,0.337c0.071,0.088,0.189,0.107,0.276,0.107
										c0.381,0,0.791-0.339,0.878-0.726c0.031-0.139,0.015-0.259-0.047-0.336c-0.072-0.09-0.19-0.108-0.278-0.108
										C175.684,373.639,175.275,373.979,175.186,374.365z"/>
								</g>
							</g>
						</g>
						<g>
							<g>
								<path style="fill:#FFFFFF;" d="M156.82,386.292h50.16l-0.441-4.477c-0.148-1.461-0.529-2.817-1.113-4.043H158.34
									L156.82,386.292z"/>
							</g>
						</g>
						<g>
							<g>
								<rect x="157.746" y="381.395" style="fill:#94C19B;" width="31.543" height="1.275"/>
							</g>
						</g>
						<g>
							<g>
								<path style="fill:#FFFFFF;" d="M178.829,386.292h28.316l-0.443-4.504c-0.149-1.469-0.532-2.833-1.119-4.066
									c-1.244-2.623-3.42-4.644-6.264-5.719l-1.273-0.481c-1.249-0.472-2.385-1.093-3.405-1.845
									C187.485,372.711,181.388,378.911,178.829,386.292z"/>
							</g>
						</g>
						<g>
							<g>
								<path d="M189.284,361.175l1.129-2.495c0.795-1.757-0.163-3.429-1.965-3.429h-2.513c-1.984,0-4.06,1.008-5.511,2.676
									l-2.826,3.249H189.284z"/>
							</g>
						</g>
					</g>
					<polygon style="fill:#38677C;" points="194.076,353.691 192.146,361.172 159.296,361.172 165.986,289.501 166.386,285.221 
						175.216,282.721 192.836,277.732 192.886,277.721 189.286,353.311 					"/>
				</g>
				<path style="fill:#24586F;" d="M175.786,283.602l-0.2,2.43l-6.16,75.14h-10.13l6.69-71.67l-29.57-52.19c0,0,0.32-0.89,0.8-2.25
					v-0.01l5.12-3.36l32.88,51.03L175.786,283.602z"/>
				<path style="fill:#38677C;" d="M148.098,223.079l-18.38,73.292l-26.563-9.383l0.013-0.034c-0.001-0.016-0.001-0.016-0.003-0.032
					l12.19-53.255l0.786-3.451l1.021-4.475l6.265-0.542c0.016-0.001,0.032-0.003,0.032-0.003l9.496-0.806L148.098,223.079z"/>
				<path style="fill:#EA9700;" d="M154.961,199.302l-8.499,1.831l-15.184,3.255l-0.863,5.176l-2.142,12.066l-9.226,2.227
					l5.688-19.729c-5.394-5.658-10.489-12.438-14.733-19.542l5.495-10.391l12.254,21.41l0.605-0.07l21.035-2.468l2.863-0.338
					L154.961,199.302z"/>
				<path style="fill:#38677C;" d="M131.462,227.53l-5.902,12.408l-22.393,47.016c-0.001-0.016-0.001-0.016-0.003-0.032
					c0.193-1.7,4.698-41.082,10.33-58.095c0.497-1.548,1.027-2.905,1.544-4.034c2.654-0.376,5.54-0.14,8.387,0.407
					c0.016-0.001,0.032-0.003,0.032-0.003C126.275,225.761,129.037,226.623,131.462,227.53z"/>
				<path style="fill:#38677C;" d="M165.326,224.414c-3.591,6.238-39.765,15.523-50.286,0.379l5.171-11.767l10.297-2.023
					l27.094-5.31L165.326,224.414z"/>
				<path style="fill:#38677C;" d="M157.128,207.241c0,0,4.686-9.145,5.263-19.154c0.218-3.77-2.976-17.329-2.976-17.329
					l-30.994,0.994c0,0,2.257,8.9,2.257,17.247c0,10.591-7.443,26.899-7.443,26.899L157.128,207.241z"/>
				<polygon style="fill:#24586F;" points="138.1,183.12 159.296,181.551 157.789,198.234 148.098,205.693 136.416,198.234 				"/>
				<g>
					<g>
						<path style="fill:#212121;" d="M148.85,117.435c-7.61-12.391-27.846-9.049-32.344,3.082
							c-5.686,15.334,11.473,35.658,28.274,16.693L148.85,117.435z"/>
						<polygon style="fill:#BA6C57;" points="126.723,129.821 125.119,154.861 141.503,161.469 144.365,134.146 						"/>
						<path style="fill:#92482D;" d="M142.663,149.864c0,0-7.148-2.365-8.263-10.305l9.02,3.8L142.663,149.864z"/>
						<path style="fill:#BA6C57;" d="M126.443,120.998l2.066,5.958l0.945,2.715l2.532,7.29c1.367,3.936,4.675,6.883,8.741,7.789
							l6.322,1.408c5.48,1.221,10.645-2.957,10.66-8.572c0.01-4.12-0.405-8.89-2.4-13.823c-2.32-5.73-7.439-9.921-13.215-11.27
							l-0.023-0.005l-1.011-0.209l-0.109-0.018c-0.503-0.086-1.019-0.147-1.533-0.187c-1.22-0.109-2.471-0.093-3.723,0.052
							l-3.971,0.461C127.68,113.057,125.109,117.15,126.443,120.998z"/>
						<path style="fill:#BA6C57;" d="M155.943,125.493c1.257,3.336,3.494,4.089,5.062,4.165c1.007,0.049,1.809,0.855,1.856,1.863
							l0,0c0.062,1.329-0.664,2.569-1.853,3.165l-4.207,2.109c-2.343,0.697-4.777-0.774-5.249-3.172l-1.6-8.129L155.943,125.493z"/>
						<path style="fill:#212121;" d="M131.428,131.538c11.204-3.133,9.079-20.147,9.079-20.147l-6.984,0.605
							c-8.054,0.697-12.838,9.33-9.16,16.529l0.446,0.873L131.428,131.538z"/>
						<path style="fill:#212121;" d="M125.835,118.467c10.974-1.373,9.458-23.313-4.318-22.203
							C107.74,97.374,106.82,120.846,125.835,118.467z"/>
						<path style="fill:#BA6C57;" d="M132.964,131.833c-15.711-14.142-19.85,8.045-1.475,8.467L132.964,131.833z"/>
						<path style="fill:#212121;" d="M151.503,126.938c0.65,1.599,0.586,3.137-0.143,3.433c-0.729,0.296-1.848-0.76-2.498-2.359
							c-0.65-1.599-0.586-3.137,0.143-3.433C149.735,124.283,150.853,125.339,151.503,126.938z"/>
						<path style="fill:#212121;" d="M146.83,119.582c-3.372,1.482-4.339-0.245-1.929-1.768
							C147.493,116.175,151.025,117.738,146.83,119.582z"/>
					</g>
					<path style="fill:#FFFFFF;" d="M145.62,135.849c1.478,5.767,7.411,3.96,8.663,1.057
						C155.032,135.171,145.125,133.918,145.62,135.849z"/>
				</g>
				
					<line style="fill:none;stroke:#212121;stroke-width:5;stroke-linecap:round;stroke-linejoin:round;stroke-miterlimit:10;" x1="207.69" y1="161.998" x2="102.806" y2="253.506"/>
				<g>
					<path style="fill:#BA6C57;" d="M121.584,177.432c-3.551,11.377-9.209,24.888-16.796,40.371
						c-0.012,0.008-9.532-19.783-9.532-19.783l9.028-32.266c0.613-1.81,1.811-3.286,3.343-4.267c1.412-0.904,3.1-1.378,4.868-1.278
						c0.887,0.051,1.902,0.454,2.953,1.061C121.027,164.49,123.503,171.284,121.584,177.432z"/>
					<g>
						<path style="fill:#BA6C57;" d="M129.199,215.898c8.249,2.979,14.445,11.211,14.445,11.211l-14.878,6.446l-3.774-14.232
							L129.199,215.898z"/>
						<polygon style="fill:#BA6C57;" points="127.56,223.121 128.442,235.074 142.337,231.695 143.644,227.109 						"/>
					</g>
					<path style="fill:#BA6C57;" d="M96.933,191.954l32.265,23.944l-0.926,5.732c0,0-16.134,2.202-37.798-8.688L96.933,191.954z"/>
				</g>
			</g>
			<g>
				<path style="fill:#EA9700;" d="M291.548,105.422l-50.249-18.15c-2.645-0.955-4.014-3.873-3.059-6.518l1.142-3.162
					c0.955-2.645,3.873-4.014,6.518-3.059l50.25,18.15c2.644,0.955,4.014,3.873,3.059,6.518l-1.142,3.162
					C297.111,105.007,294.193,106.377,291.548,105.422z"/>
				<path style="fill:#FFFFFF;" d="M291.548,105.422l-3.162-1.142c-2.644-0.955-4.014-3.873-3.059-6.518l1.142-3.162
					c0.955-2.644,3.873-4.014,6.518-3.059l3.162,1.142c2.644,0.955,4.014,3.873,3.059,6.518l-1.142,3.162
					C297.111,105.007,294.193,106.377,291.548,105.422z"/>
			</g>
			<path style="fill:#212121;" d="M287.797,104.19l-42.702-15.408c-4.91-1.78-7.467-7.221-3.699-11.414l42.681,15.408
				C280.309,96.968,282.866,102.41,287.797,104.19z"/>
			<polygon style="fill:#38677C;" points="129.718,296.371 96.921,347.905 101.819,352.631 95.136,360.21 63.902,339.924 
				111.769,271.905 			"/>
			<path style="fill:#38677C;" d="M120.166,154.223c9.308,1.305,15.488,7.246,15.436,21.441h-4.983c0,0-0.353-17.902-17.127-18.978
				L120.166,154.223z"/>
			<path style="fill:#EDBD22;" d="M99.443,179.086l20.766,8.876c0,0,8.611-19.692-2.896-27.766
				C105.807,152.123,100.819,170.2,99.443,179.086z"/>
		</g>
	</g>
</g>
</svg>
