<?xml version="1.0" encoding="utf-8"?>
<!-- Generator: Adobe Illustrator 27.5.0, SVG Export Plug-In . SVG Version: 6.00 Build 0)  -->
<svg version="1.1" xmlns="http://www.w3.org/2000/svg" xmlns:xlink="http://www.w3.org/1999/xlink" x="0px" y="0px"
	 viewBox="0 0 500 500" style="enable-background:new 0 0 500 500;" xml:space="preserve">
<g id="BACKGROUND">
</g>
<g id="OBJECTS">
	<g>
		<g>
			<path style="fill:#9EA7A8;" d="M304.221,432.791h-0.974c-1.101,0-2.001-0.901-2.001-2.001v-7.587
				c0-1.101,0.901-2.001,2.001-2.001h0.974c1.101,0,2.001,0.901,2.001,2.001v7.587C306.222,431.89,305.322,432.791,304.221,432.791z
				"/>
			<path style="fill:#2D2128;" d="M253.332,218.364L253.332,218.364c-2.333,0-4.241-1.908-4.241-4.241v-25.657
				c0-2.332,1.908-4.241,4.241-4.241l0,0c2.333,0,4.241,1.908,4.241,4.241v25.657C257.573,216.456,255.665,218.364,253.332,218.364z
				"/>
			<path style="fill:#2D2128;" d="M254.008,406.645h-1.352c-4.152,0-7.549-3.397-7.549-7.549v-52.617
				c0-4.152,3.397-7.549,7.549-7.549h1.352c4.152,0,7.549,3.397,7.549,7.549v52.617C261.558,403.247,258.16,406.645,254.008,406.645
				z"/>
			<path style="fill:#2D2128;" d="M295.426,335.639h-84.187l-6.112-99.292c-0.81-13.947,10.281-25.701,24.251-25.701h47.908
				c13.97,0,25.061,11.754,24.251,25.701L295.426,335.639z"/>
			<path style="fill:#373947;" d="M215.009,331.644l-5.893-95.528c-0.327-5.636,1.626-11,5.5-15.106
				c3.874-4.106,9.117-6.367,14.762-6.367h47.908c5.645,0,10.888,2.261,14.762,6.367c3.874,4.106,5.828,9.47,5.5,15.106
				l-5.893,95.528H215.009z"/>
			<path style="fill:#373947;" d="M276.657,196.554h-46.65c-5.598,0-10.178-4.58-10.178-10.178v-9.056
				c0-5.598,4.58-10.178,10.178-10.178h46.65c5.598,0,10.178,4.58,10.178,10.178v9.056
				C286.835,191.974,282.255,196.554,276.657,196.554z"/>
			<path style="fill:#2D2128;" d="M276.657,186.164h-46.65c-5.373,0-9.796-4.222-10.144-9.511c-0.015,0.221-0.034,0.442-0.034,0.667
				v9.056c0,5.598,4.58,10.178,10.178,10.178h46.65c5.598,0,10.178-4.58,10.178-10.178v-9.056c0-0.225-0.019-0.446-0.034-0.667
				C286.453,181.941,282.03,186.164,276.657,186.164z"/>
			<path style="fill:#2D2128;" d="M266.802,409.206h-26.941c-3.416,0-6.211-2.795-6.211-6.211l0,0c0-3.416,2.795-6.211,6.211-6.211
				h26.941c3.416,0,6.211,2.795,6.211,6.211l0,0C273.013,406.411,270.219,409.206,266.802,409.206z"/>
			<path style="fill:#2D2128;" d="M301.548,424.746l-35.403-17.865c-2.097-1.058-2.947-3.639-1.888-5.736v0
				c1.058-2.097,3.639-2.947,5.736-1.889l35.403,17.865c2.097,1.058,2.947,3.639,1.889,5.736l0,0
				C306.226,424.954,303.645,425.804,301.548,424.746z"/>
			<path style="fill:#51484E;" d="M310.801,435.212c0,3.903-3.164,7.068-7.068,7.068c-3.903,0-7.068-3.164-7.068-7.068
				c0-3.903,3.164-7.068,7.068-7.068C307.637,428.145,310.801,431.309,310.801,435.212z"/>
			<path style="fill:#9EA7A8;" d="M253.819,438.436h-0.974c-1.101,0-2.002-0.901-2.002-2.001v-7.587
				c0-1.101,0.901-2.001,2.002-2.001h0.974c1.101,0,2.001,0.901,2.001,2.001v7.587C255.821,437.536,254.92,438.436,253.819,438.436z
				"/>
			<path style="fill:#51484E;" d="M260.4,440.858c0,3.903-3.164,7.068-7.068,7.068c-3.903,0-7.068-3.164-7.068-7.068
				c0-3.903,3.164-7.068,7.068-7.068C257.236,433.79,260.4,436.954,260.4,440.858z"/>
			<path style="fill:#9EA7A8;" d="M202.443,432.791h0.974c1.101,0,2.001-0.901,2.001-2.001v-7.587c0-1.101-0.901-2.001-2.001-2.001
				h-0.974c-1.101,0-2.001,0.901-2.001,2.001v7.587C200.442,431.89,201.343,432.791,202.443,432.791z"/>
			<path style="fill:#2D2128;" d="M205.116,424.746l35.403-17.865c2.097-1.058,2.947-3.639,1.888-5.736v0
				c-1.058-2.097-3.639-2.947-5.736-1.889l-35.403,17.865c-2.097,1.058-2.947,3.639-1.889,5.736l0,0
				C200.438,424.954,203.02,425.804,205.116,424.746z"/>
			<path style="fill:#51484E;" d="M195.863,435.212c0,3.903,3.164,7.068,7.068,7.068c3.903,0,7.068-3.164,7.068-7.068
				c0-3.903-3.164-7.068-7.068-7.068C199.027,428.145,195.863,431.309,195.863,435.212z"/>
			<path style="fill:#2D2128;" d="M249.062,426.275v-23.28c0-2.349,1.921-4.27,4.27-4.27l0,0c2.349,0,4.27,1.921,4.27,4.27l0,23.28
				c0,2.349-1.922,4.27-4.27,4.27l0,0C250.983,430.545,249.062,428.624,249.062,426.275z"/>
			<path style="fill:#2D2128;" d="M211.508,271.685l3.501,59.959h76.646l1.311-27.397
				C274.023,312.5,246.149,311.302,211.508,271.685z"/>
			<path style="fill:#373947;" d="M306.78,354.717H199.884c-6.149,0-11.18-5.031-11.18-11.18v-0.466
				c0-6.149,5.031-11.18,11.18-11.18H306.78c6.149,0,11.18,5.031,11.18,11.18v0.466C317.96,349.686,312.929,354.717,306.78,354.717z
				"/>
			<path style="fill:#2D2128;" d="M306.78,345.977H199.884c-4.688,0-8.719-2.928-10.373-7.043c-0.516,1.282-0.807,2.676-0.807,4.137
				v0.466c0,6.149,5.031,11.18,11.18,11.18H306.78c6.149,0,11.18-5.031,11.18-11.18v-0.466c0-1.461-0.292-2.855-0.807-4.137
				C315.499,343.048,311.468,345.977,306.78,345.977z"/>
		</g>
		<g>
			<g>
				<path style="fill:#3672C9;" d="M244.472,329.052c-6.343,7.694-12.847,15.257-19.448,22.738l-4.968,5.597l-2.496,2.789
					l-0.558,0.614c0.078-0.114,0.142-0.236,0.207-0.356c0.124-0.244,0.213-0.502,0.278-0.76c0.064-0.259,0.096-0.522,0.096-0.783
					c0.001-0.13-0.005-0.26-0.02-0.389c-0.002-0.064-0.02-0.128-0.025-0.191l-0.018-0.094l-0.006-0.023l0.003,0.057l0.006,0.117
					l0.173,3.74l0.316,7.482c0.433,9.975,0.78,19.958,1.08,29.945c0.292,9.988,0.504,19.984,0.596,29.99
					c0.036,3.941-3.129,7.165-7.07,7.202c-3.534,0.033-6.491-2.512-7.09-5.879c-1.763-9.851-3.406-19.713-4.968-29.582
					c-1.555-9.87-3.063-19.745-4.485-29.627l-1.075-7.411l-0.522-3.707l-0.016-0.116l-0.022-0.199l-0.05-0.56
					c-0.034-0.374-0.042-0.75-0.054-1.125c-0.013-0.751,0.014-1.505,0.085-2.254c0.143-1.499,0.457-2.985,0.933-4.42
					c0.475-1.435,1.123-2.816,1.914-4.113c0.393-0.65,0.831-1.273,1.297-1.874l0.629-0.831l2.262-2.981l4.548-5.943
					c6.088-7.905,12.273-15.729,18.619-23.422c4.521-5.481,12.629-6.259,18.109-1.738
					C248.213,315.467,248.993,323.572,244.472,329.052z"/>
			</g>
			<g>
				<g>
					<path style="fill:#2D2128;" d="M220.063,428.3l2.79,18.099c0,0-22.926,9.448-40.194,3.012c0,0-3.442-15.613,22.666-14.219
						l0.027-5.386C205.353,429.805,211.125,430.977,220.063,428.3z"/>
				</g>
				<g>
					<path style="fill:#878C8C;" d="M223.468,444.858c0,0-21.606,10.498-41.096,3.764l-0.376,2.434c0,0,15.876,7.684,41.801-3.285
						L223.468,444.858z"/>
				</g>
			</g>
			<g>
				<path style="fill:#3672C9;" d="M275.483,328.893c-6.198,7.767-12.558,15.405-19.018,22.964l-4.862,5.655l-2.443,2.818
					l-0.153,0.176c-0.042,0.047-0.136,0.158-0.084,0.091l0.106-0.177c0.067-0.12,0.125-0.245,0.179-0.37
					c0.105-0.252,0.175-0.514,0.222-0.775c0.045-0.262,0.058-0.526,0.04-0.786c-0.008-0.13-0.023-0.259-0.047-0.385l-0.017-0.094
					l-0.012-0.046c-0.003-0.006,0.004,0.065,0.005,0.094l0.033,0.465l0.255,3.722l0.48,7.447c0.652,9.928,1.218,19.866,1.736,29.81
					c0.511,9.945,0.942,19.898,1.254,29.866c0.123,3.94-2.971,7.233-6.91,7.356c-3.531,0.11-6.543-2.366-7.218-5.717
					c-1.978-9.774-3.837-19.562-5.616-29.36c-1.771-9.798-3.495-19.602-5.133-29.416l-1.237-7.359l-0.604-3.681l-0.074-0.46
					l-0.054-0.416l-0.059-0.558c-0.066-0.746-0.091-1.496-0.074-2.247c0.037-1.501,0.243-3,0.615-4.46
					c0.37-1.461,0.913-2.88,1.607-4.225c0.345-0.674,0.733-1.326,1.154-1.956c0.207-0.318,0.434-0.622,0.658-0.927l0.341-0.464
					l2.206-3.007l4.437-5.995c5.939-7.974,11.978-15.869,18.178-23.634c4.433-5.552,12.528-6.459,18.079-2.026
					C279.007,315.25,279.917,323.341,275.483,328.893z"/>
			</g>
			<g>
				<g>
					<path style="fill:#2D2128;" d="M253.549,428.3l2.79,18.099c0,0-22.926,9.448-40.194,3.012c0,0-3.443-15.613,22.666-14.219
						l0.027-5.386C238.839,429.805,244.611,430.977,253.549,428.3z"/>
				</g>
				<g>
					<path style="fill:#878C8C;" d="M256.954,444.858c0,0-21.606,10.498-41.096,3.764l-0.376,2.434c0,0,15.876,7.684,41.801-3.285
						L256.954,444.858z"/>
				</g>
			</g>
			<g>
				<path style="fill:#3672C9;" d="M241.484,333.172h26.386c7.908,0,14.378-6.47,14.378-14.378l0,0
					c0-7.908-6.47-14.378-14.378-14.378h-26.386c-7.908,0-14.378,6.47-14.378,14.378l0,0
					C227.106,326.702,233.576,333.172,241.484,333.172z"/>
			</g>
			<g>
				<g>
					<path style="fill:#FEFEFE;" d="M231.158,305.595h43.943v-60.457c0-4.239-3.468-7.707-7.707-7.707h-28.528
						c-4.239,0-7.707,3.468-7.707,7.707V305.595z"/>
				</g>
			</g>
			<g>
				<path style="fill:#EFC09A;" d="M250.929,245.355h4.667c3.563,0,6.478-2.915,6.478-6.478v-10.684
					c0-3.563-2.915-6.478-6.478-6.478h-4.667c-3.563,0-6.478,2.915-6.478,6.478v10.684
					C244.451,242.439,247.366,245.355,250.929,245.355z"/>
			</g>
			<g>
				<path style="opacity:0.1;" d="M244.451,231.301h17.623c0,0,0,0,0,0v-14.162c0-3.563-2.915-6.478-6.478-6.478h-4.667
					c-3.563,0-6.478,2.915-6.478,6.478V231.301z"/>
			</g>
			<g>
				<g>
					<path style="fill:#EFC09A;" d="M247.76,228.547h12.919c13.093,0,23.806-10.713,23.806-23.806v-11.068
						c0-13.093-10.713-23.806-23.806-23.806H247.76c-13.094,0-23.806,10.713-23.806,23.806v11.068
						C223.954,217.834,234.666,228.547,247.76,228.547z"/>
				</g>
				<g>
					<g>
						<g>
							<path style="fill:#7C3D09;" d="M284.307,202.106c0,0,9.223-34.091-29.66-34.091c-38.883,0-30.746,32.752-30.746,32.752h2.533
								c0,0,3.632-8.86,5.064-17.289c0,0,18.99,5.878,44.942,0c0,0,1.313,12.76,3.527,18.176L284.307,202.106z"/>
						</g>
					</g>
				</g>
				<g>
					<g>
						<path style="opacity:0.1;" d="M279.967,201.654c-2.214-5.416-3.527-18.176-3.527-18.176c-25.953,5.878-44.942,0-44.942,0
							c-1.431,8.429-5.064,17.289-5.064,17.289h-2.533c0,0-2.904-11.701,3.062-21.116c6.742,4.173,23.088,10.019,53.398-1.887
							c7.803,10.075,3.947,24.341,3.947,24.341L279.967,201.654z"/>
					</g>
				</g>
				<g>
					<g>
						<path style="fill:#EFC09A;" d="M280.029,199.579c-1.542,6.048,0.053,11.674,3.561,12.57c3.508,0.893,7.601-3.284,9.142-9.332
							c1.542-6.048-0.052-11.676-3.561-12.569C285.664,189.353,281.57,193.531,280.029,199.579z"/>
					</g>
					<path style="opacity:0.05;" d="M282.412,200.187c-0.964,3.779,0.032,7.296,2.225,7.854c2.192,0.559,4.75-2.052,5.712-5.831
						c0.964-3.78-0.032-7.297-2.224-7.855C285.933,193.795,283.375,196.406,282.412,200.187z"/>
					<g>
						<path style="fill:#EFC09A;" d="M228.426,199.579c1.542,6.048-0.053,11.674-3.561,12.57c-3.508,0.893-7.601-3.284-9.142-9.332
							c-1.543-6.048,0.052-11.676,3.56-12.569C222.791,189.353,226.884,193.531,228.426,199.579z"/>
					</g>
					<path style="opacity:0.05;" d="M226.043,200.187c0.964,3.779-0.032,7.296-2.225,7.854c-2.192,0.559-4.75-2.052-5.713-5.831
						c-0.964-3.78,0.032-7.297,2.224-7.855C222.522,193.795,225.08,196.406,226.043,200.187z"/>
				</g>
				<g>
					<g>
						<path style="fill:#472218;" d="M264.028,214.147c0,0-13.115,4.284-23.718,0c0,0,0.578,10.369,11.859,10.369
							C263.451,224.516,264.028,214.147,264.028,214.147z"/>
					</g>
					<g>
						<path style="fill:#FFFFFF;" d="M264.028,214.147c0,0-0.006,0.105-0.027,0.287c-1.681,2.065-5.059,4.252-11.832,4.252
							c-6.773,0-10.15-2.187-11.832-4.252c-0.021-0.183-0.027-0.287-0.027-0.287C250.913,218.431,264.028,214.147,264.028,214.147z"
							/>
					</g>
					<g>
						<path style="fill:#E59595;" d="M256.164,219.886c-0.678,0.989-0.98,2.169-0.98,2.169c2.187-2.747,5.544-2.692,7.01-2.512
							c-1.588,2.52-4.539,4.972-10.025,4.972c-1.744,0-3.231-0.249-4.501-0.668C250.636,219.926,256.164,219.886,256.164,219.886z"
							/>
					</g>
				</g>
				<g>
					<g>
						<g>
							<path style="fill:#472218;" d="M234.394,204.653c0,2.252,1.826,4.077,4.077,4.077c2.252,0,4.078-1.826,4.078-4.077
								s-1.826-4.077-4.078-4.077C236.219,200.576,234.394,202.401,234.394,204.653z"/>
						</g>
					</g>
					<g>
						<g>
							<circle style="fill:#472218;" cx="265.704" cy="204.653" r="4.078"/>
						</g>
					</g>
					<g>
						<path style="fill:#7C3D09;" d="M266.355,196.286l5.02,1.794c0.752,0.269,1.587-0.127,1.856-0.879l0,0
							c0.269-0.752-0.127-1.587-0.879-1.856l-5.02-1.794c-0.752-0.269-1.587,0.127-1.856,0.879l0,0
							C265.207,195.182,265.603,196.017,266.355,196.286z"/>
					</g>
					<g>
						<path style="fill:#7C3D09;" d="M237.984,196.286l-5.02,1.794c-0.752,0.269-1.587-0.127-1.856-0.879l0,0
							c-0.269-0.752,0.127-1.587,0.879-1.856l5.02-1.794c0.752-0.269,1.587,0.127,1.856,0.879l0,0
							C239.132,195.182,238.736,196.017,237.984,196.286z"/>
					</g>
				</g>
				<g>
					<path style="fill:#7C3D09;" d="M227.531,179.074h28.673c0,0-4.605-9.137-11.206-10.223l6.141-8.455
						C251.139,160.396,228.484,158.915,227.531,179.074z"/>
				</g>
			</g>
			<polygon style="fill:#E82200;" points="254.391,256.133 251.608,256.133 247.573,308.77 252.999,314.11 258.426,308.77 			"/>
			<polygon style="fill:#E82200;" points="253.095,259.385 257.856,251.138 248.333,251.138 			"/>
			<polygon style="fill:#E6E6E6;" points="244.451,233.534 252.891,245.355 252.891,249.362 247.022,254.232 237.008,238.1 			"/>
			<polygon style="fill:#E6E6E6;" points="262.074,233.534 252.891,245.355 252.891,249.362 258.759,254.232 268.773,238.1 			"/>
			<path style="fill:#3672C9;" d="M267.158,236.66v71.594h11.317v-61.558C278.475,246.696,277.858,237.732,267.158,236.66z"/>
			
				<path style="fill:none;stroke:#3672C9;stroke-width:15.437;stroke-linecap:round;stroke-linejoin:round;stroke-miterlimit:10;" d="
				M275.875,245.636c0,0-1.353,39.564-4.378,43.428c-3.025,3.864-33.207,5.289-33.207,5.289"/>
			<path style="fill:#3672C9;" d="M238.509,236.66v71.594h-11.317v-61.558C227.192,246.696,227.809,237.732,238.509,236.66z"/>
			
				<polyline style="fill:none;stroke:#3672C9;stroke-width:13.6875;stroke-linecap:round;stroke-linejoin:round;stroke-miterlimit:10;" points="
				229.747,244.279 200.809,259.944 184.215,233.534 			"/>
			<path style="fill:#EEBF99;" d="M240.729,301.357c-3.736,3.908-9.932,4.047-13.839,0.311c-3.908-3.736-4.047-9.932-0.311-13.839
				c3.736-3.908,9.932-4.047,13.839-0.311C244.325,291.253,244.464,297.449,240.729,301.357z"/>
			<path style="fill:#E59595;" d="M250.867,204.457l-2.207,6.132c-0.483,1.341,0.511,2.755,1.937,2.755h2.478
				c1.426,0,2.419-1.414,1.937-2.755l-2.207-6.132C252.477,203.549,251.194,203.549,250.867,204.457z"/>
			<path style="fill:#EFC09A;" d="M188.954,224.842c-0.881,5.462-4.851,9.364-8.867,8.716c-4.016-0.648-6.557-5.601-5.676-11.062
				s4.851-9.364,8.867-8.716C187.294,214.428,189.835,219.381,188.954,224.842z"/>
			<path style="fill:#EFC09A;" d="M184.215,220.841L184.215,220.841c-1.588,0-2.887-1.299-2.887-2.887v-10.961
				c0-1.588,1.299-2.887,2.887-2.887l0,0c1.588,0,2.887,1.299,2.887,2.887v10.961C187.103,219.542,185.803,220.841,184.215,220.841z
				"/>
			<path style="fill:#EFC09A;" d="M179.429,219.425h-7.869c-1.794,0-3.261-1.467-3.261-3.261v0c0-1.794,1.467-3.261,3.261-3.261
				h7.869c1.794,0,3.261,1.467,3.261,3.261v0C182.689,217.957,181.222,219.425,179.429,219.425z"/>
			<path style="fill:#EFC09A;" d="M177.696,224.762h-7.869c-1.794,0-3.261-1.467-3.261-3.261l0,0c0-1.794,1.467-3.261,3.261-3.261
				h7.869c1.794,0,3.261,1.467,3.261,3.261l0,0C180.957,223.294,179.49,224.762,177.696,224.762z"/>
			<path style="fill:#EFC09A;" d="M179.068,228.926h-9.6c-1.317,0-2.395-1.078-2.395-2.395v-0.16c0-1.317,1.078-2.395,2.395-2.395
				h9.6c1.317,0,2.395,1.078,2.395,2.395v0.16C181.463,227.849,180.385,228.926,179.068,228.926z"/>
			<path style="fill:#EFC09A;" d="M177.059,232.037h-5.439c-1.24,0-2.254-1.014-2.254-2.254l0,0c0-1.24,1.014-2.254,2.254-2.254
				h5.439c1.24,0,2.254,1.014,2.254,2.254l0,0C179.313,231.023,178.298,232.037,177.059,232.037z"/>
		</g>
		<g>
			<path style="fill:#C7CFD9;" d="M232.938,296.501h-78.151c-1.6,0-2.909-1.309-2.909-2.91v-42.395c0-1.6,1.309-2.91,2.909-2.91
				h78.151c1.6,0,2.91,1.309,2.91,2.91v42.395C235.848,295.192,234.538,296.501,232.938,296.501z"/>
			<path style="fill:#FEFEFE;" d="M201.14,276.394c0,3.986-3.231,7.217-7.216,7.217c-3.986,0-7.216-3.231-7.216-7.217
				c0-3.985,3.231-7.216,7.216-7.216C197.91,269.178,201.14,272.409,201.14,276.394z"/>
			<path style="fill:#A3AAB3;" d="M233.469,301.259h-79.212c-1.309,0-2.379-1.071-2.379-2.379l0,0c0-1.308,1.07-2.379,2.379-2.379
				h79.212c1.308,0,2.379,1.07,2.379,2.379l0,0C235.848,300.189,234.777,301.259,233.469,301.259z"/>
		</g>
		<g>
			<g>
				<g>
					<rect x="348.195" y="314.639" style="fill:#A3AAB3;" width="10.695" height="132.566"/>
					<rect x="348.195" y="447.206" style="fill:#2D2128;" width="10.695" height="2.094"/>
					<path style="fill:#A3AAB3;" d="M353.542,454.487L353.542,454.487c-1.8,0-3.259-1.459-3.259-3.259v-1.929h6.517v1.929
						C356.801,453.028,355.342,454.487,353.542,454.487z"/>
				</g>
				<g>
					<rect x="131.11" y="314.639" style="fill:#A3AAB3;" width="10.695" height="132.566"/>
					<rect x="131.11" y="447.206" style="fill:#2D2128;" width="10.695" height="2.094"/>
					<path style="fill:#A3AAB3;" d="M136.458,454.487L136.458,454.487c-1.8,0-3.259-1.459-3.259-3.259v-1.929h6.517v1.929
						C139.716,453.028,138.257,454.487,136.458,454.487z"/>
				</g>
			</g>
			<g>
				<rect x="107.736" y="321.937" style="fill:#C7CFD9;" width="10.695" height="129.55"/>
				<rect x="107.736" y="451.487" style="fill:#373947;" width="10.695" height="2.094"/>
				<path style="fill:#C7CFD9;" d="M113.083,458.768L113.083,458.768c-1.8,0-3.259-1.459-3.259-3.259v-1.929h6.517v1.929
					C116.342,457.309,114.883,458.768,113.083,458.768z"/>
			</g>
			<g>
				<rect x="371.569" y="321.937" style="fill:#C7CFD9;" width="10.695" height="129.55"/>
				<rect x="371.569" y="451.487" style="fill:#373947;" width="10.695" height="2.094"/>
				<path style="fill:#C7CFD9;" d="M376.917,458.768L376.917,458.768c-1.8,0-3.259-1.459-3.259-3.259v-1.929h6.517v1.929
					C380.175,457.309,378.716,458.768,376.917,458.768z"/>
			</g>
			<rect x="107.736" y="314.155" style="fill:#C7CFD9;" width="274.528" height="12.589"/>
			<rect x="107.736" y="314.155" style="opacity:0.1;" width="274.528" height="4.17"/>
			<path style="fill:#F9BA67;" d="M395.462,314.689H94.538v-8.978c0-2.585,2.095-4.68,4.68-4.68h291.564
				c2.585,0,4.68,2.095,4.68,4.68V314.689z"/>
			<rect x="94.538" y="309.763" style="opacity:0.1;" width="300.925" height="4.927"/>
		</g>
		<g>
			<path style="fill:#62BDDD;" d="M340.715,298.88L340.715,298.88c-1.558,0-2.833-1.275-2.833-2.833v-3.645
				c0-1.558,1.275-2.833,2.833-2.833l0,0c1.558,0,2.833,1.275,2.833,2.833v3.645C343.548,297.605,342.273,298.88,340.715,298.88z"/>
			<path style="fill:#F9BA67;" d="M381.405,245.318L381.405,245.318c-1.303-0.661-2.91-0.136-3.571,1.167l-26.046,50.972h5.966
				l24.818-48.569C383.233,247.585,382.708,245.979,381.405,245.318z"/>
			<path style="fill:#F9BA67;" d="M330.629,189.309L330.629,189.309c1.109-0.951,2.795-0.822,3.746,0.287l48.472,56.864
				c0.951,1.109,0.822,2.795-0.287,3.746l0,0c-1.109,0.951-2.795,0.822-3.746-0.287l-48.472-56.865
				C329.39,191.946,329.52,190.26,330.629,189.309z"/>
			<path style="fill:#FFFFFF;" d="M381.733,248.113c-0.114,0.82-0.872,1.393-1.692,1.279c-0.82-0.114-1.393-0.872-1.279-1.692
				c0.114-0.82,0.872-1.393,1.692-1.279C381.275,246.535,381.847,247.292,381.733,248.113z"/>
			<path style="fill:#3672C9;" d="M332.59,295.955h39.293c1.396,0,2.538,1.142,2.538,2.538l0,0c0,1.396-1.142,2.538-2.538,2.538
				H332.59c-1.396,0-2.538-1.142-2.538-2.538l0,0C330.052,297.097,331.194,295.955,332.59,295.955z"/>
			<polygon style="fill:#62BDDD;" points="337.668,191.738 336.548,190.441 332.488,185.736 331.368,184.438 308.683,191.277 
				301.058,197.856 308.478,206.455 312.538,211.159 319.957,219.758 327.582,213.178 			"/>
			<polygon style="opacity:0.1;" points="331.348,190.999 321.604,203.075 311.882,210.4 312.538,211.16 319.957,219.758 
				327.582,213.178 336.853,193.47 			"/>
			<path style="fill:#3672C9;" d="M334.697,198.902l-10.135-11.656c-1.141-1.312-1.001-3.32,0.311-4.461l0,0
				c1.312-1.141,3.32-1.001,4.461,0.311l10.135,11.656c1.141,1.312,1.001,3.319-0.311,4.461l0,0
				C337.846,200.354,335.839,200.214,334.697,198.902z"/>
			
				<rect x="330.954" y="181.846" transform="matrix(0.6562 0.7546 -0.7546 0.6562 256.0957 -190.6228)" style="fill:#62BDDD;" width="12.549" height="7.74"/>
		</g>
		<g>
			<g>
				<path style="fill:#F9BA67;" d="M290.922,292.026c-0.18,0-0.362-0.009-0.546-0.027c-1.431-0.139-2.82-0.818-3.913-1.911
					c-2.317-2.316-2.586-5.817-0.6-7.803c1.986-1.986,5.487-1.717,7.803,0.6c2.317,2.317,2.586,5.818,0.6,7.803
					C293.394,291.561,292.221,292.026,290.922,292.026z M289.221,283.279c-0.656,0-1.261,0.215-1.705,0.659
					c-1.075,1.075-0.806,3.093,0.6,4.499c0.711,0.711,1.594,1.15,2.487,1.237c0.809,0.08,1.522-0.148,2.012-0.638
					c1.075-1.075,0.806-3.093-0.6-4.499C291.189,283.712,290.153,283.279,289.221,283.279z"/>
			</g>
			<g>
				<path style="fill:#FFFFFF;stroke:#000000;stroke-width:1.0711;stroke-miterlimit:10;" d="M310.719,295.072
					c0,0.579-2.952,1.048-6.593,1.048c-3.641,0-6.593-0.469-6.593-1.048s2.952-1.048,6.593-1.048
					C307.767,294.024,310.719,294.493,310.719,295.072z"/>
			</g>
			<g>
				<path style="fill:#F9BA67;" d="M318.125,278.827h-13.129h-1.742h-13.129c0,0-1.227,12.687,7.408,16.245v2.562
					c0,0.579,2.952,1.048,6.593,1.048c3.641,0,6.593-0.469,6.593-1.048c0-0.005-0.002-0.009-0.002-0.014v-2.548
					C319.352,291.513,318.125,278.827,318.125,278.827z"/>
			</g>
			<g>
				<path style="opacity:0.1;" d="M310.719,297.634c0-0.005-0.002-0.009-0.002-0.014v-2.548c0.664-0.274,1.269-0.602,1.822-0.973
					c-11.264,2.139-17.677-1.841-20.88-5.079c1.086,2.507,2.892,4.824,5.873,6.053v2.562c0,0.579,2.952,1.048,6.593,1.048
					C307.767,298.681,310.719,298.212,310.719,297.634z"/>
			</g>
			<g>
				<path style="fill:#3672C9;" d="M318.754,301.031h-29.257c-1.628,0-2.961-1.332-2.961-2.961l0,0c0-0.192,0.157-0.349,0.349-0.349
					h34.48c0.192,0,0.349,0.157,0.349,0.349l0,0C321.715,299.699,320.383,301.031,318.754,301.031z"/>
			</g>
		</g>
		<g>
			<g>
				
					<rect x="122.457" y="251.693" transform="matrix(0.9871 -0.16 0.16 0.9871 -42.2576 23.4383)" style="fill:#3672C9;" width="3.957" height="44.938"/>
				<polygon style="fill:#CAE6FF;" points="121.424,248.506 119.192,248.868 118.889,252.299 122.795,251.666 				"/>
				<polygon style="fill:#1B3759;" points="119.192,248.868 121.424,248.506 119.604,244.342 				"/>
			</g>
			<g>
				
					<rect x="126.013" y="249.356" transform="matrix(0.9973 -0.0738 0.0738 0.9973 -19.7043 10.1829)" style="fill:#F9BA67;" width="3.957" height="44.938"/>
				<polygon style="fill:#CAE6FF;" points="127.215,246.004 124.96,246.171 124.361,249.563 128.307,249.271 				"/>
				<polygon style="fill:#1B3759;" points="124.96,246.171 127.215,246.004 125.763,241.698 				"/>
			</g>
			<g>
				
					<rect x="134.833" y="252.509" transform="matrix(0.9964 0.0849 -0.0849 0.9964 23.8367 -10.6213)" style="fill:#62BDDD;" width="3.957" height="44.938"/>
				<polygon style="fill:#CAE6FF;" points="140.128,249.359 137.875,249.168 136.747,252.422 140.689,252.758 				"/>
				<polygon style="fill:#1B3759;" points="137.875,249.168 140.128,249.359 139.375,244.878 				"/>
			</g>
			<polygon style="fill:#3672C9;" points="138.939,301.031 120.672,301.031 117.683,267.415 141.928,267.415 			"/>
			<path style="opacity:0.1;" d="M120.672,301.031h18.267l0.478-5.378c-6.459,1.823-14.036-0.525-20.528-14.673L120.672,301.031z"/>
		</g>
	</g>
	<g>
		<path style="fill:#3672C9;" d="M306.221,92.603l-2.549,0.524c-0.562-0.707-1.184-1.358-1.863-1.946l0.642-2.52
			c0.271-1.072-0.267-2.182-1.282-2.623l-2.902-1.277c-0.489-0.215-1.039-0.277-1.553-0.133c-0.539,0.151-0.987,0.479-1.285,0.938
			L294,87.745c-0.927-0.107-1.861-0.129-2.79-0.054l-1.317-2.208c-0.567-0.951-1.73-1.351-2.762-0.95l-2.996,1.165
			c-1.032,0.401-1.62,1.482-1.395,2.566l0.528,2.58c-0.7,0.559-1.349,1.188-1.934,1.875l-2.505-0.648
			c-0.456-0.118-0.935-0.087-1.377,0.085c-0.562,0.219-1.01,0.647-1.247,1.198l-1.303,2.948c-0.444,1.008-0.098,2.193,0.827,2.8
			l2.201,1.446c-0.101,0.899-0.112,1.797-0.042,2.695l-2.208,1.317c-0.951,0.567-1.351,1.73-0.95,2.762l1.165,2.996
			c0.401,1.032,1.482,1.619,2.566,1.394l2.58-0.528c0.559,0.7,1.188,1.349,1.875,1.934l-0.644,2.495
			c-0.271,1.072,0.267,2.182,1.282,2.623l2.945,1.296c0.554,0.244,1.167,0.259,1.729,0.041c0.441-0.171,0.809-0.47,1.065-0.864
			l1.446-2.201c0.865,0.097,1.739,0.11,2.609,0.05l1.328,2.236c0.567,0.951,1.73,1.351,2.762,0.95l3.004-1.168
			c1.032-0.401,1.62-1.482,1.395-2.566l-0.524-2.549c0.708-0.562,1.359-1.184,1.947-1.863l2.519,0.642
			c0.456,0.118,0.935,0.087,1.376-0.084c0.562-0.219,1.003-0.644,1.247-1.198l1.296-2.946c0.444-1.008,0.097-2.193-0.827-2.8
			l-2.179-1.431c0.101-0.899,0.127-1.803,0.059-2.694l2.236-1.329c0.952-0.566,1.351-1.73,0.95-2.762l-1.165-2.996
			C308.386,92.966,307.305,92.378,306.221,92.603z M294.71,108.269c-3.393,1.319-7.212-0.361-8.532-3.754
			c-1.319-3.393,0.361-7.213,3.754-8.532c3.393-1.319,7.213,0.361,8.532,3.754C299.783,103.13,298.102,106.95,294.71,108.269z"/>
		<path style="fill:#CAE6FF;" d="M275.839,113.058l-2.097,0.431c-0.462-0.582-0.974-1.117-1.532-1.601l0.528-2.072
			c0.223-0.882-0.22-1.795-1.054-2.157l-2.387-1.05c-0.402-0.177-0.854-0.228-1.277-0.11c-0.443,0.124-0.812,0.394-1.056,0.772
			l-1.176,1.791c-0.762-0.088-1.53-0.106-2.295-0.044l-1.083-1.816c-0.466-0.782-1.423-1.111-2.271-0.781l-2.464,0.958
			c-0.849,0.33-1.332,1.219-1.147,2.111l0.435,2.122c-0.576,0.46-1.109,0.977-1.59,1.542l-2.06-0.533
			c-0.375-0.097-0.769-0.071-1.132,0.07c-0.463,0.18-0.831,0.532-1.025,0.985l-1.072,2.425c-0.365,0.829-0.08,1.804,0.68,2.303
			l1.81,1.19c-0.083,0.74-0.093,1.478-0.034,2.217l-1.816,1.083c-0.783,0.466-1.111,1.423-0.781,2.272l0.958,2.464
			c0.33,0.849,1.219,1.332,2.111,1.147l2.122-0.434c0.46,0.576,0.977,1.109,1.542,1.59l-0.53,2.052
			c-0.223,0.882,0.22,1.795,1.055,2.157l2.422,1.066c0.455,0.201,0.959,0.213,1.422,0.034c0.363-0.141,0.665-0.387,0.876-0.711
			l1.19-1.81c0.712,0.08,1.43,0.091,2.145,0.042l1.092,1.839c0.466,0.783,1.423,1.111,2.272,0.781l2.47-0.961
			c0.849-0.33,1.332-1.219,1.147-2.111l-0.431-2.096c0.582-0.462,1.117-0.974,1.601-1.532l2.072,0.528
			c0.375,0.097,0.769,0.072,1.132-0.069c0.462-0.18,0.825-0.53,1.025-0.985l1.066-2.423c0.365-0.829,0.08-1.803-0.68-2.303
			l-1.792-1.177c0.083-0.74,0.104-1.483,0.048-2.215l1.839-1.093c0.783-0.466,1.111-1.423,0.781-2.271l-0.958-2.464
			C277.619,113.356,276.73,112.873,275.839,113.058z M266.371,125.942c-2.79,1.085-5.932-0.297-7.017-3.087
			c-1.085-2.79,0.297-5.932,3.087-7.017c2.79-1.085,5.932,0.297,7.017,3.087C270.544,121.716,269.161,124.857,266.371,125.942z"/>
		<path style="fill:#62BDDD;" d="M288.62,135.818l-1.436,0.295c-0.316-0.398-0.667-0.765-1.049-1.096l0.362-1.42
			c0.153-0.604-0.15-1.229-0.722-1.478l-1.635-0.719c-0.275-0.121-0.585-0.156-0.875-0.075c-0.304,0.085-0.556,0.27-0.724,0.529
			l-0.806,1.227c-0.522-0.06-1.048-0.072-1.572-0.03l-0.742-1.244c-0.319-0.536-0.975-0.761-1.556-0.535l-1.688,0.656
			c-0.581,0.226-0.912,0.835-0.786,1.446l0.298,1.454c-0.394,0.315-0.76,0.669-1.089,1.056l-1.411-0.365
			c-0.257-0.066-0.527-0.049-0.775,0.048c-0.317,0.123-0.569,0.364-0.702,0.675l-0.734,1.661c-0.25,0.568-0.055,1.235,0.466,1.577
			l1.24,0.815c-0.057,0.507-0.063,1.012-0.023,1.519l-1.244,0.742c-0.536,0.319-0.761,0.975-0.535,1.556l0.656,1.688
			c0.226,0.581,0.835,0.912,1.446,0.785l1.454-0.297c0.315,0.394,0.669,0.76,1.056,1.089l-0.363,1.406
			c-0.153,0.604,0.15,1.229,0.722,1.478l1.659,0.73c0.312,0.137,0.657,0.146,0.974,0.023c0.248-0.096,0.455-0.265,0.6-0.487
			l0.815-1.24c0.488,0.055,0.98,0.062,1.47,0.028l0.748,1.26c0.319,0.536,0.975,0.761,1.556,0.535l1.692-0.658
			c0.582-0.226,0.913-0.835,0.786-1.446l-0.295-1.436c0.399-0.317,0.765-0.667,1.097-1.05l1.419,0.362
			c0.257,0.066,0.527,0.049,0.775-0.048c0.317-0.123,0.565-0.363,0.703-0.675l0.73-1.66c0.25-0.568,0.055-1.235-0.466-1.577
			l-1.227-0.806c0.057-0.507,0.071-1.016,0.033-1.518l1.26-0.749c0.536-0.319,0.761-0.974,0.535-1.556l-0.656-1.688
			C289.839,136.022,289.23,135.691,288.62,135.818z M282.135,144.643c-1.911,0.743-4.063-0.204-4.806-2.115
			c-0.743-1.911,0.204-4.063,2.115-4.807s4.063,0.204,4.806,2.115C284.993,141.748,284.046,143.9,282.135,144.643z"/>
	</g>
	<g>
		<path style="fill:#CAE6FF;" d="M419.473,243.93l-1.678,0.345c-0.37-0.466-0.779-0.894-1.227-1.281l0.423-1.659
			c0.178-0.706-0.176-1.437-0.844-1.727l-1.91-0.84c-0.322-0.142-0.684-0.182-1.022-0.088c-0.355,0.099-0.65,0.316-0.846,0.618
			l-0.942,1.434c-0.61-0.07-1.225-0.085-1.837-0.035l-0.867-1.453c-0.373-0.626-1.139-0.889-1.818-0.625l-1.973,0.767
			c-0.679,0.264-1.066,0.976-0.918,1.69l0.348,1.699c-0.461,0.368-0.888,0.782-1.273,1.234l-1.649-0.427
			c-0.3-0.077-0.616-0.057-0.906,0.056c-0.37,0.144-0.665,0.426-0.821,0.788l-0.858,1.941c-0.292,0.664-0.064,1.444,0.544,1.844
			l1.449,0.952c-0.066,0.592-0.074,1.183-0.027,1.774l-1.453,0.867c-0.626,0.373-0.89,1.139-0.625,1.818l0.767,1.973
			c0.264,0.679,0.976,1.066,1.69,0.918l1.699-0.348c0.368,0.461,0.782,0.888,1.234,1.273l-0.424,1.643
			c-0.178,0.706,0.176,1.437,0.844,1.727l1.939,0.853c0.365,0.161,0.768,0.171,1.138,0.027c0.29-0.113,0.532-0.309,0.701-0.569
			l0.952-1.449c0.57,0.064,1.145,0.073,1.717,0.033l0.875,1.472c0.373,0.626,1.139,0.889,1.818,0.625l1.977-0.769
			c0.679-0.264,1.066-0.976,0.918-1.689l-0.345-1.678c0.466-0.37,0.894-0.779,1.282-1.227l1.659,0.423
			c0.3,0.078,0.616,0.057,0.906-0.055c0.37-0.144,0.66-0.424,0.821-0.789l0.853-1.939c0.292-0.664,0.064-1.444-0.544-1.843
			l-1.434-0.942c0.066-0.592,0.083-1.187,0.039-1.773l1.472-0.875c0.626-0.373,0.889-1.139,0.625-1.818l-0.767-1.973
			C420.898,244.168,420.186,243.781,419.473,243.93z M411.894,254.243c-2.234,0.869-4.748-0.238-5.617-2.471
			c-0.869-2.234,0.238-4.748,2.471-5.617c2.234-0.869,4.748,0.238,5.617,2.471C415.234,250.86,414.128,253.375,411.894,254.243z"/>
		<path style="fill:#62BDDD;" d="M429.704,262.148l-1.15,0.236c-0.253-0.319-0.534-0.613-0.84-0.878l0.29-1.136
			c0.122-0.484-0.12-0.984-0.578-1.183l-1.309-0.576c-0.22-0.097-0.468-0.125-0.7-0.06c-0.243,0.068-0.445,0.216-0.579,0.423
			l-0.645,0.982c-0.418-0.048-0.839-0.058-1.258-0.024l-0.594-0.996c-0.256-0.429-0.78-0.609-1.245-0.428l-1.351,0.526
			c-0.465,0.181-0.73,0.668-0.629,1.157l0.238,1.164c-0.316,0.252-0.608,0.536-0.872,0.845l-1.13-0.292
			c-0.206-0.053-0.422-0.039-0.621,0.038c-0.254,0.099-0.456,0.292-0.562,0.54l-0.588,1.33c-0.2,0.455-0.044,0.989,0.373,1.263
			l0.993,0.652c-0.046,0.406-0.051,0.81-0.019,1.215l-0.996,0.594c-0.429,0.256-0.609,0.78-0.428,1.246l0.526,1.351
			c0.181,0.465,0.668,0.73,1.157,0.629l1.163-0.238c0.252,0.316,0.536,0.608,0.845,0.872l-0.29,1.125
			c-0.122,0.484,0.12,0.984,0.578,1.183l1.328,0.584c0.25,0.11,0.526,0.117,0.78,0.018c0.199-0.077,0.365-0.212,0.48-0.39
			l0.652-0.993c0.39,0.044,0.784,0.05,1.176,0.023l0.599,1.009c0.256,0.429,0.78,0.609,1.246,0.428l1.354-0.527
			c0.465-0.181,0.73-0.668,0.629-1.157l-0.236-1.149c0.319-0.254,0.613-0.534,0.878-0.84l1.136,0.29
			c0.205,0.053,0.422,0.039,0.621-0.038c0.254-0.099,0.452-0.29,0.562-0.54l0.585-1.328c0.2-0.455,0.044-0.989-0.373-1.263
			l-0.983-0.645c0.046-0.406,0.057-0.813,0.026-1.215l1.009-0.599c0.429-0.255,0.609-0.78,0.428-1.245l-0.525-1.351
			C430.68,262.312,430.193,262.047,429.704,262.148z M424.513,269.213c-1.53,0.595-3.252-0.163-3.847-1.693s0.163-3.253,1.693-3.848
			c1.53-0.595,3.253,0.163,3.848,1.693C426.8,266.895,426.042,268.618,424.513,269.213z"/>
	</g>
	<g>
		<path style="fill:#3672C9;" d="M28.828,154.731l-0.843,2.168c-0.291,0.747-0.001,1.589,0.687,1.998l1.618,0.962
			c-0.049,0.645-0.031,1.298,0.042,1.949l-1.576,1.035c-0.669,0.439-0.92,1.296-0.599,2.026l0.938,2.132
			c0.176,0.401,0.495,0.709,0.902,0.867c0.319,0.124,0.666,0.146,0.996,0.061l1.823-0.465c0.425,0.492,0.897,0.942,1.409,1.348
			l-0.379,1.844c-0.163,0.785,0.262,1.566,1.009,1.857l2.173,0.845c0.747,0.29,1.588,0.001,1.999-0.687l0.961-1.618
			c0.63,0.043,1.262,0.034,1.888-0.037l1.046,1.593c0.186,0.285,0.451,0.501,0.771,0.626c0.407,0.158,0.85,0.147,1.251-0.029
			l2.131-0.938c0.735-0.319,1.124-1.122,0.928-1.898l-0.466-1.806c0.497-0.424,0.952-0.893,1.357-1.399l1.867,0.382
			c0.785,0.163,1.567-0.262,1.857-1.009l0.843-2.168c0.29-0.747,0.001-1.589-0.687-1.999l-1.597-0.953
			c0.051-0.65,0.043-1.299-0.03-1.95l1.593-1.047c0.669-0.439,0.92-1.297,0.598-2.026l-0.943-2.133
			c-0.171-0.399-0.495-0.708-0.902-0.867c-0.319-0.124-0.666-0.147-0.996-0.062l-1.813,0.469c-0.423-0.497-0.893-0.952-1.399-1.357
			l0.382-1.867c0.163-0.785-0.262-1.567-1.009-1.857l-2.168-0.843c-0.747-0.29-1.588-0.001-1.998,0.687l-0.953,1.598
			c-0.673-0.054-1.349-0.038-2.019,0.039l-1.035-1.576c-0.215-0.332-0.539-0.57-0.93-0.679c-0.372-0.104-0.77-0.059-1.124,0.096
			l-2.1,0.924c-0.735,0.319-1.124,1.122-0.928,1.898l0.465,1.823c-0.491,0.425-0.941,0.896-1.348,1.408l-1.845-0.379
			C29.89,153.555,29.108,153.981,28.828,154.731z M36.288,158.88c0.955-2.455,3.719-3.671,6.174-2.716
			c2.455,0.955,3.671,3.719,2.716,6.174c-0.955,2.455-3.719,3.671-6.174,2.716C36.549,164.099,35.333,161.335,36.288,158.88z"/>
		<path style="fill:#62BDDD;" d="M51.14,169.353l-0.693,1.783c-0.239,0.614-0.001,1.307,0.565,1.644l1.331,0.791
			c-0.041,0.53-0.025,1.068,0.035,1.603l-1.296,0.851c-0.55,0.361-0.756,1.066-0.492,1.666l0.771,1.753
			c0.145,0.33,0.407,0.583,0.742,0.713c0.262,0.102,0.548,0.12,0.819,0.05l1.499-0.382c0.35,0.404,0.737,0.774,1.158,1.109
			l-0.312,1.517c-0.134,0.645,0.216,1.288,0.83,1.527l1.787,0.695c0.614,0.239,1.306,0.001,1.644-0.565l0.791-1.331
			c0.518,0.036,1.037,0.028,1.552-0.03l0.861,1.31c0.153,0.235,0.371,0.412,0.634,0.514c0.335,0.13,0.699,0.121,1.029-0.024
			l1.753-0.771c0.604-0.262,0.924-0.923,0.763-1.561l-0.383-1.485c0.409-0.348,0.783-0.734,1.116-1.151l1.535,0.314
			c0.645,0.134,1.289-0.216,1.527-0.83l0.693-1.783c0.239-0.614,0.001-1.307-0.565-1.644l-1.314-0.784
			c0.042-0.535,0.035-1.069-0.025-1.604l1.31-0.861c0.55-0.361,0.756-1.066,0.492-1.667l-0.775-1.755
			c-0.141-0.328-0.407-0.583-0.742-0.713c-0.263-0.102-0.548-0.121-0.819-0.051l-1.491,0.386c-0.348-0.408-0.734-0.783-1.151-1.116
			l0.314-1.535c0.134-0.645-0.216-1.288-0.83-1.527l-1.783-0.694c-0.614-0.239-1.306-0.001-1.644,0.565l-0.784,1.314
			c-0.553-0.045-1.109-0.032-1.661,0.032l-0.851-1.296c-0.177-0.273-0.444-0.469-0.764-0.558c-0.306-0.085-0.633-0.049-0.924,0.079
			l-1.727,0.76c-0.604,0.262-0.924,0.923-0.763,1.561l0.382,1.5c-0.404,0.35-0.774,0.737-1.109,1.158l-1.517-0.312
			C52.014,168.385,51.371,168.735,51.14,169.353z M57.276,172.765c0.785-2.019,3.058-3.019,5.077-2.234s3.019,3.059,2.234,5.077
			c-0.785,2.019-3.058,3.019-5.077,2.234C57.491,177.057,56.491,174.784,57.276,172.765z"/>
	</g>
	<g>
		<polygon style="fill:#F9BA67;" points="419.141,55.824 384.831,55.824 384.831,77.233 389.772,77.233 389.772,82.723 
			395.262,77.233 419.141,77.233 		"/>
		<g>
			<rect x="389.821" y="60.401" style="fill:#FFFFFF;" width="25.017" height="1.33"/>
			<rect x="389.821" y="65.463" style="fill:#FFFFFF;" width="25.017" height="1.376"/>
			<rect x="389.821" y="70.524" style="fill:#FFFFFF;" width="19.764" height="1.272"/>
		</g>
	</g>
	<g>
		<path style="fill:#62BDDD;" d="M387.08,157.189L387.08,157.189c1.293,1.049,3.191,0.852,4.24-0.441l16.936-20.87l-4.681-3.799
			l-16.936,20.87C385.59,154.242,385.787,156.14,387.08,157.189z"/>
		<path style="fill:#3672C9;" d="M404.047,104.015c-7.098,8.747-5.761,21.591,2.985,28.689c8.746,7.098,21.591,5.761,28.689-2.985
			c7.098-8.747,5.761-21.591-2.985-28.689C423.99,93.932,411.145,95.268,404.047,104.015z"/>
		<path style="fill:#FFFFFF;" d="M402.572,133.077l4.915,3.988c0.678,0.551,1.675,0.447,2.226-0.231l0,0
			c0.551-0.679,0.447-1.675-0.232-2.226l-4.915-3.988c-0.679-0.551-1.675-0.447-2.226,0.232l0,0
			C401.789,131.529,401.893,132.526,402.572,133.077z"/>
		<path style="fill:#FFFFFF;" d="M409.552,104.253c-0.837,0.687-1.617,1.468-2.326,2.341c-5.673,6.991-4.605,17.257,2.386,22.931
			c6.991,5.673,17.258,4.605,22.931-2.386c5.673-6.991,4.605-17.257-2.386-22.931c-2.738-2.222-5.977-3.41-9.247-3.613
			c-0.729-0.045-1.46-0.042-2.187,0.011c-0.506,0.036-1.009,0.096-1.51,0.179c-0.799,0.132-1.59,0.325-2.364,0.575"/>
		<path style="fill:#F9BA67;" d="M406.744,132.387l-0.865-0.702l-1.313-1.065c-0.679-0.551-1.675-0.447-2.226,0.232l0,0
			c-0.551,0.679-0.447,1.675,0.232,2.226l4.915,3.988c0.678,0.551,1.675,0.447,2.226-0.231l0,0c0.551-0.679,0.447-1.675-0.232-2.226
			l-1.327-1.077"/>
		<path style="opacity:0.1;" d="M426.785,129.886c7.098-8.747,5.761-21.591-2.985-28.689c-2.636-2.139-5.645-3.507-8.755-4.142
			c5.979-1.456,12.545-0.203,17.691,3.974c8.747,7.098,10.083,19.942,2.985,28.689c-4.959,6.111-12.722,8.599-19.934,7.127
			C419.969,135.827,423.864,133.486,426.785,129.886z"/>
	</g>
	<g>
		<rect x="129.461" y="41.88" style="fill:#62BDDD;" width="42.403" height="50.427"/>
		<rect x="132.494" y="45.303" style="fill:#FFFFFF;" width="36.338" height="10.107"/>
		<g>
			<g>
				<rect x="132.801" y="59.742" style="fill:#3672C9;" width="7.431" height="7.431"/>
				<rect x="142.232" y="59.742" style="fill:#3672C9;" width="7.431" height="7.431"/>
				<rect x="151.663" y="59.742" style="fill:#3672C9;" width="7.431" height="7.431"/>
				<rect x="161.094" y="59.742" style="fill:#3672C9;" width="7.431" height="7.431"/>
			</g>
			<g>
				<rect x="132.801" y="70.351" style="fill:#3672C9;" width="7.431" height="7.431"/>
				<rect x="142.232" y="70.351" style="fill:#3672C9;" width="7.431" height="7.431"/>
				<rect x="151.663" y="70.351" style="fill:#3672C9;" width="7.431" height="7.431"/>
				<rect x="161.094" y="70.351" style="fill:#3672C9;" width="7.431" height="11.632"/>
			</g>
			<g>
				<rect x="132.801" y="80.961" style="fill:#F9BA67;" width="7.431" height="7.431"/>
				<rect x="142.232" y="80.961" style="fill:#3672C9;" width="7.431" height="7.431"/>
				<rect x="151.663" y="80.961" style="fill:#3672C9;" width="7.431" height="7.431"/>
				<rect x="161.094" y="80.961" style="fill:#3672C9;" width="7.431" height="7.431"/>
			</g>
		</g>
		<text transform="matrix(1 0 0 1 163.0289 52.6397)" style="fill:#3672C9; font-family:'Dosis-Bold'; font-size:6.7844px;">$</text>
	</g>
	<g>
		<circle style="fill:#CAE6FF;" cx="272.261" cy="51.023" r="20.867"/>
		
			<ellipse transform="matrix(0.2313 -0.9729 0.9729 0.2313 159.6361 304.0941)" style="fill:#62BDDD;" cx="272.261" cy="51.023" rx="16.071" ry="16.071"/>
		
			<ellipse transform="matrix(0.2307 -0.973 0.973 0.2307 159.7963 304.1653)" style="fill:#3672C9;" cx="272.261" cy="51.023" rx="9.868" ry="9.868"/>
		<path style="fill:#F9BA67;" d="M276.448,51.023c0,2.313-1.875,4.187-4.188,4.187c-2.313,0-4.188-1.875-4.188-4.187
			c0-2.313,1.875-4.188,4.188-4.188C274.574,46.835,276.448,48.71,276.448,51.023z"/>
		<path style="fill:#373947;" d="M301.383,48.724c0.058-0.097,0.059-0.218,0.003-0.316c-0.056-0.098-0.16-0.159-0.273-0.159h-5.781
			c-0.09,0-0.174,0.038-0.234,0.105l-2.11,2.355h-20.727c-0.174,0-0.314,0.141-0.314,0.314c0,0.174,0.14,0.314,0.314,0.314h20.866
			c0.001,0,0.001,0,0.001,0c0,0,0.001,0,0.001,0h0.036l1.516,2.639c0.049,0.086,0.141,0.139,0.24,0.139h5.832
			c0.319,0,0.519-0.344,0.361-0.621l-1.158-2.028c-0.044-0.077-0.117-0.126-0.197-0.157c0.066-0.025,0.125-0.063,0.162-0.125
			L301.383,48.724z"/>
	</g>
	<g>
		
			<ellipse transform="matrix(0.7071 -0.7071 0.7071 0.7071 60.1836 258.6693)" style="fill:#CAE6FF;" cx="342.333" cy="56.687" rx="23.52" ry="23.52"/>
		<path style="fill:#62BDDD;" d="M342.333,56.687l10.574,20.988c7.672-3.874,12.946-11.806,12.946-20.988
			c0-1.052-0.093-2.081-0.227-3.097c-5.9-0.285-13.345-0.427-13.345-0.427L342.333,56.687z"/>
		<path style="fill:#3672C9;" d="M342.333,33.167v23.52h23.52C365.853,43.697,355.323,33.167,342.333,33.167z"/>
	</g>
	<g>
		<g>
			<ellipse style="fill:#F9BA67;" cx="98.424" cy="198.633" rx="17.679" ry="17.933"/>
			<ellipse style="fill:#E59D48;" cx="98.424" cy="198.633" rx="14.894" ry="15.108"/>
			<g>
				<path style="fill:#FFCE94;" d="M99.931,200.268c0-0.41-0.116-0.743-0.348-1.001c-0.232-0.258-0.63-0.498-1.193-0.72
					c-1.107-0.41-1.927-0.866-2.464-1.369c-0.536-0.503-0.804-1.212-0.804-2.127c0-0.85,0.268-1.546,0.804-2.089
					c0.536-0.544,1.258-0.863,2.165-0.959v-1.631h1.189v1.646c0.877,0.131,1.566,0.503,2.067,1.115
					c0.501,0.612,0.746,1.405,0.736,2.381l-0.022,0.038h-2.131c0-0.597-0.121-1.057-0.363-1.38
					c-0.242-0.324-0.572-0.485-0.991-0.485c-0.428,0-0.748,0.125-0.957,0.375c-0.209,0.25-0.314,0.582-0.314,0.997
					c0,0.394,0.111,0.714,0.333,0.959c0.222,0.245,0.63,0.487,1.222,0.724c1.101,0.44,1.918,0.91,2.449,1.411
					c0.531,0.501,0.796,1.201,0.796,2.101c0,0.88-0.267,1.583-0.8,2.108c-0.533,0.526-1.258,0.837-2.176,0.933v1.502h-1.189v-1.494
					c-0.932-0.096-1.702-0.431-2.31-1.005c-0.608-0.574-0.903-1.417-0.882-2.529l0.015-0.038h2.131c0,0.677,0.153,1.163,0.46,1.456
					c0.307,0.294,0.697,0.44,1.17,0.44c0.454,0,0.801-0.123,1.043-0.368C99.81,201.012,99.931,200.682,99.931,200.268z"/>
			</g>
		</g>
		<g>
			<ellipse style="fill:#F9BA67;" cx="133.737" cy="206.231" rx="12.786" ry="12.97"/>
			<ellipse style="fill:#E59D48;" cx="133.737" cy="206.231" rx="10.772" ry="10.927"/>
			<g>
				<path style="fill:#FFCE94;" d="M134.827,207.414c0-0.296-0.084-0.538-0.251-0.724c-0.168-0.187-0.455-0.36-0.863-0.521
					c-0.8-0.296-1.394-0.626-1.782-0.99c-0.388-0.364-0.581-0.877-0.581-1.539c0-0.614,0.194-1.118,0.581-1.511
					c0.388-0.393,0.91-0.624,1.565-0.694v-1.179h0.86v1.19c0.634,0.095,1.133,0.364,1.495,0.806c0.362,0.443,0.54,1.016,0.533,1.722
					l-0.016,0.027h-1.541c0-0.432-0.088-0.764-0.262-0.998c-0.175-0.234-0.414-0.351-0.716-0.351c-0.31,0-0.541,0.09-0.692,0.271
					s-0.227,0.421-0.227,0.721c0,0.285,0.08,0.517,0.241,0.694c0.161,0.177,0.455,0.352,0.884,0.524
					c0.797,0.318,1.387,0.658,1.771,1.02c0.384,0.362,0.576,0.868,0.576,1.519c0,0.636-0.193,1.145-0.579,1.525
					c-0.386,0.38-0.91,0.605-1.574,0.675v1.086h-0.86v-1.081c-0.674-0.07-1.231-0.312-1.671-0.727
					c-0.44-0.415-0.653-1.025-0.638-1.829l0.011-0.027h1.541c0,0.49,0.111,0.841,0.333,1.053c0.222,0.212,0.504,0.318,0.846,0.318
					c0.328,0,0.58-0.089,0.754-0.266C134.739,207.952,134.827,207.714,134.827,207.414z"/>
			</g>
		</g>
		<g>
			<path style="fill:#F9BA67;" d="M162.024,188.87c0,5.078-4.058,9.195-9.064,9.195c-5.006,0-9.064-4.117-9.064-9.195
				c0-5.078,4.058-9.195,9.064-9.195C157.966,179.675,162.024,183.792,162.024,188.87z"/>
			<ellipse style="fill:#E59D48;" cx="152.96" cy="188.87" rx="7.637" ry="7.747"/>
			<g>
				<path style="fill:#FFCE94;" d="M153.733,189.708c0-0.21-0.059-0.381-0.178-0.513c-0.119-0.132-0.323-0.255-0.611-0.369
					c-0.567-0.21-0.988-0.444-1.263-0.702c-0.275-0.258-0.412-0.621-0.412-1.091c0-0.436,0.137-0.793,0.412-1.071
					c0.275-0.279,0.645-0.443,1.11-0.492v-0.836h0.61v0.844c0.45,0.067,0.803,0.258,1.06,0.572c0.257,0.314,0.383,0.721,0.378,1.221
					l-0.012,0.019h-1.092c0-0.306-0.062-0.542-0.186-0.708c-0.124-0.166-0.293-0.249-0.508-0.249c-0.22,0-0.383,0.064-0.491,0.193
					c-0.107,0.128-0.161,0.299-0.161,0.511c0,0.202,0.057,0.366,0.171,0.492c0.114,0.126,0.323,0.25,0.627,0.371
					c0.565,0.226,0.983,0.467,1.255,0.723c0.272,0.257,0.408,0.616,0.408,1.077c0,0.451-0.137,0.812-0.41,1.081
					c-0.273,0.27-0.645,0.429-1.115,0.478v0.77h-0.61v-0.766c-0.478-0.049-0.873-0.221-1.185-0.515
					c-0.312-0.294-0.463-0.726-0.452-1.297l0.008-0.019h1.093c0,0.347,0.079,0.596,0.236,0.747c0.157,0.15,0.357,0.226,0.6,0.226
					c0.233,0,0.411-0.063,0.535-0.189C153.671,190.09,153.733,189.921,153.733,189.708z"/>
			</g>
		</g>
		<rect x="80.745" y="216.609" style="fill:#F9BA67;" width="33.04" height="4.788"/>
		<rect x="80.745" y="226.084" style="fill:#F9BA67;" width="33.04" height="4.788"/>
		<rect x="87.082" y="221.397" style="fill:#E59D48;" width="33.04" height="4.788"/>
	</g>
	<g>
		<polygon style="fill:#F9BA67;" points="410.916,214.453 386.543,205.652 397.826,174.405 429.074,185.688 420.355,209.833 		"/>
		<polygon style="fill:#E59D48;" points="410.916,214.453 420.355,209.833 413.807,206.446 		"/>
	</g>
	<g>
		<polygon style="fill:#62BDDD;" points="407.088,201.005 383.196,211.039 370.332,180.408 400.963,167.544 410.904,191.213 		"/>
		<polygon style="fill:#3672C9;" points="407.088,201.005 410.904,191.213 403.792,193.157 		"/>
	</g>
	<g>
		<g>
			<rect x="206.68" y="59.515" style="fill:#3672C9;" width="7.111" height="18.179"/>
			<rect x="196.444" y="65.188" style="fill:#62BDDD;" width="7.111" height="12.506"/>
			<rect x="216.64" y="48.17" style="fill:#F9BA67;" width="7.111" height="29.524"/>
			<rect x="226.876" y="39.661" style="fill:#CAE6FF;" width="7.111" height="38.033"/>
		</g>
		<rect x="196.444" y="77.694" style="fill:#373947;" width="38.259" height="1.065"/>
		<rect x="195.442" y="39.661" style="fill:#373947;" width="1.002" height="39.098"/>
		<g>
			
				<rect x="191.899" y="47.384" transform="matrix(0.7743 -0.6328 0.6328 0.7743 17.0475 143.5721)" style="fill:#373947;" width="35.847" height="1"/>
		</g>
		<polygon style="fill:#373947;" points="225.199,34.614 219.343,36.183 223.63,40.469 		"/>
	</g>
	<g>
		
			<ellipse transform="matrix(0.1596 -0.9872 0.9872 0.1596 31.4515 304.9268)" style="fill:#3672C9;" cx="194.816" cy="133.991" rx="35.679" ry="35.678"/>
		
			<ellipse transform="matrix(0.1586 -0.9873 0.9873 0.1586 31.6225 305.0899)" style="fill:#CAE6FF;" cx="194.816" cy="133.991" rx="31.939" ry="31.939"/>
		<path style="fill:#3672C9;" d="M199.052,133.991c0,2.339-1.897,4.236-4.236,4.236s-4.236-1.897-4.236-4.236
			c0-2.339,1.896-4.236,4.236-4.236S199.052,131.652,199.052,133.991z"/>
		<rect x="193.857" y="104.839" style="fill:#3672C9;" width="1.55" height="29.85"/>
		
			<rect x="203.146" y="123.851" transform="matrix(-1.836970e-16 1 -1 -1.836970e-16 337.8344 -70.0072)" style="fill:#3672C9;" width="1.551" height="20.126"/>
		<g>
			<rect x="193.954" y="104.645" style="fill:#3672C9;" width="1.357" height="4.652"/>
			<rect x="193.954" y="159.305" style="fill:#3672C9;" width="1.357" height="4.652"/>
		</g>
		<g>
			
				<rect x="180.35" y="108.352" transform="matrix(0.866 -0.5 0.5 0.866 -31.086 105.3495)" style="fill:#3672C9;" width="1.357" height="4.652"/>
			
				<rect x="207.68" y="155.689" transform="matrix(0.866 -0.5 0.5 0.866 -51.0937 125.3583)" style="fill:#3672C9;" width="1.357" height="4.652"/>
		</g>
		<g>
			
				<rect x="170.422" y="118.365" transform="matrix(0.5 -0.866 0.866 0.5 -18.9711 208.5224)" style="fill:#3672C9;" width="1.357" height="4.652"/>
			
				<rect x="217.758" y="145.694" transform="matrix(0.5 -0.866 0.866 0.5 -18.975 263.1736)" style="fill:#3672C9;" width="1.357" height="4.652"/>
		</g>
		<g>
			
				<rect x="166.83" y="132" transform="matrix(6.123234e-17 -1 1 6.123234e-17 33.183 301.8345)" style="fill:#3672C9;" width="1.357" height="4.652"/>
			
				<rect x="221.49" y="132" transform="matrix(6.123234e-17 -1 1 6.123234e-17 87.8423 356.4938)" style="fill:#3672C9;" width="1.357" height="4.652"/>
		</g>
		<g>
			
				<rect x="170.537" y="145.604" transform="matrix(-0.5 -0.866 0.866 -0.5 128.7064 370.1709)" style="fill:#3672C9;" width="1.357" height="4.652"/>
			
				<rect x="217.874" y="118.274" transform="matrix(-0.5 -0.866 0.866 -0.5 223.3784 370.1722)" style="fill:#3672C9;" width="1.357" height="4.652"/>
		</g>
		<g>
			
				<rect x="180.55" y="155.532" transform="matrix(-0.866 -0.5 0.5 -0.866 259.2395 385.1839)" style="fill:#3672C9;" width="1.357" height="4.652"/>
			
				<rect x="207.88" y="108.196" transform="matrix(-0.866 -0.5 0.5 -0.866 333.9066 310.5195)" style="fill:#3672C9;" width="1.357" height="4.652"/>
		</g>
	</g>
	<g>
		
			<rect x="98.249" y="116.783" style="fill:none;stroke:#3672C9;stroke-linecap:round;stroke-linejoin:round;stroke-miterlimit:10;" width="13.163" height="13.163"/>
		<rect x="116.999" y="121.731" style="fill:#3672C9;" width="26.75" height="3.566"/>
		
			<polyline style="fill:none;stroke:#62BDDD;stroke-width:3;stroke-linecap:round;stroke-linejoin:round;stroke-miterlimit:10;" points="
			100.749,121.731 104.831,127.001 113.999,113.179 		"/>
		
			<rect x="98.249" y="134.828" style="fill:none;stroke:#3672C9;stroke-linecap:round;stroke-linejoin:round;stroke-miterlimit:10;" width="13.163" height="13.163"/>
		<rect x="116.999" y="139.776" style="fill:#3672C9;" width="26.75" height="3.566"/>
		
			<polyline style="fill:none;stroke:#62BDDD;stroke-width:3;stroke-linecap:round;stroke-linejoin:round;stroke-miterlimit:10;" points="
			100.749,139.776 104.831,145.046 113.999,131.224 		"/>
		
			<rect x="98.249" y="152.873" style="fill:none;stroke:#3672C9;stroke-linecap:round;stroke-linejoin:round;stroke-miterlimit:10;" width="13.163" height="13.163"/>
		<rect x="116.999" y="157.821" style="fill:#3672C9;" width="26.75" height="3.566"/>
		<g>
			<path style="fill:#F9BA67;" d="M105.082,163.215l-2.9-7.786l-0.25-0.282l0,0l-0.006-0.007l-1.033-1.169
				c-0.004-0.005-0.01-0.009-0.015-0.014l-26.527-29.951l-4.469,3.948l27.581,31.141l0,0l0.249,0.282L105.082,163.215z"/>
			<g>
				<path style="fill:#CAE6FF;" d="M74.352,124.005l-1.224-1.386c-0.962-1.089-2.625-1.192-3.714-0.23l-0.525,0.464
					c-1.089,0.962-1.192,2.625-0.23,3.714l1.224,1.385L74.352,124.005z"/>
				<path style="fill:#CAE6FF;" d="M105.082,163.215l-2.9-7.786l-0.027-0.031c-1.151,1.087-3.043,2.77-4.425,3.988L105.082,163.215z
					"/>
				<path style="fill:#1B3759;" d="M103.873,159.968c-0.486-0.031-0.984,0.124-1.378,0.473c-0.34,0.3-0.538,0.696-0.608,1.111
					l3.195,1.664L103.873,159.968z"/>
			</g>
		</g>
	</g>
	<g>
		<g>
			<path style="fill:#CAE6FF;" d="M107.721,85.572L72.296,97.878c-0.917,0.318-1.919-0.167-2.237-1.084l-7.53-21.677
				c-0.319-0.917,0.167-1.918,1.084-2.237l35.426-12.306c0.917-0.319,1.918,0.167,2.237,1.084l7.53,21.677
				C109.124,84.252,108.638,85.254,107.721,85.572z"/>
			<g>
				<polygon style="fill:#6990D6;" points="86.436,80.724 64.493,74.901 64.826,73.647 85.912,79.243 98.556,61.935 99.603,62.7 
									"/>
			</g>
		</g>
		
			<line style="fill:none;stroke:#62BDDD;stroke-width:1.6213;stroke-miterlimit:10;" x1="60.955" y1="79.226" x2="40.746" y2="86.332"/>
		
			<line style="fill:none;stroke:#62BDDD;stroke-width:1.6213;stroke-miterlimit:10;" x1="55.475" y1="86.78" x2="39.801" y2="92.291"/>
		
			<line style="fill:none;stroke:#62BDDD;stroke-width:1.6213;stroke-miterlimit:10;" x1="64.387" y1="88.177" x2="51.938" y2="92.555"/>
		
			<line style="fill:none;stroke:#62BDDD;stroke-width:1.6213;stroke-miterlimit:10;" x1="58.848" y1="94.826" x2="41.833" y2="100.809"/>
		
			<line style="fill:none;stroke:#62BDDD;stroke-width:1.6213;stroke-miterlimit:10;" x1="65.579" y1="97.466" x2="54.264" y2="101.445"/>
	</g>
	<g>
		<path style="fill:#F9BA67;" d="M365.595,124.299c0-8.668-7.259-15.641-16.03-15.17c-7.758,0.416-14.061,6.839-14.345,14.603
			c-0.155,4.235,1.43,8.093,4.091,10.932c2.192,2.339,4.044,4.973,5.286,7.928l0.816,1.943v2.88h3.968h2.046h3.967v-2.88
			l0.544-1.295c1.367-3.254,3.387-6.167,5.752-8.787C364.115,131.764,365.595,128.207,365.595,124.299z"/>
		<rect x="345.048" y="144.634" style="fill:#3672C9;" width="10.709" height="7.479"/>
		<path style="fill:#3672C9;" d="M352.782,152.283c0,1.314-1.066,2.38-2.38,2.38c-1.314,0-2.38-1.065-2.38-2.38
			c0-1.314,1.065-2.38,2.38-2.38C351.717,149.903,352.782,150.969,352.782,152.283z"/>
		<line style="fill:none;stroke:#3672C9;stroke-miterlimit:10;" x1="348.022" y1="146.525" x2="342.333" y2="125.167"/>
		<line style="fill:none;stroke:#3672C9;stroke-miterlimit:10;" x1="352.782" y1="146.525" x2="358.471" y2="125.167"/>
		
			<line style="fill:none;stroke:#3672C9;stroke-width:2;stroke-miterlimit:10;" x1="350.402" y1="105.298" x2="350.402" y2="96.667"/>
		
			<line style="fill:none;stroke:#3672C9;stroke-width:2;stroke-miterlimit:10;" x1="340.564" y1="107.987" x2="336.249" y2="100.511"/>
		
			<line style="fill:none;stroke:#3672C9;stroke-width:2;stroke-miterlimit:10;" x1="333.389" y1="115.234" x2="325.914" y2="110.918"/>
		
			<line style="fill:none;stroke:#3672C9;stroke-width:2;stroke-miterlimit:10;" x1="330.798" y1="125.098" x2="322.167" y2="125.098"/>
		
			<line style="fill:none;stroke:#3672C9;stroke-width:2;stroke-miterlimit:10;" x1="333.487" y1="134.936" x2="326.012" y2="139.251"/>
		
			<line style="fill:none;stroke:#3672C9;stroke-width:2;stroke-miterlimit:10;" x1="360.24" y1="107.987" x2="364.556" y2="100.511"/>
		
			<line style="fill:none;stroke:#3672C9;stroke-width:2;stroke-miterlimit:10;" x1="367.415" y1="115.234" x2="374.891" y2="110.918"/>
		
			<line style="fill:none;stroke:#3672C9;stroke-width:2;stroke-miterlimit:10;" x1="370.006" y1="125.098" x2="378.638" y2="125.098"/>
		
			<line style="fill:none;stroke:#3672C9;stroke-width:2;stroke-miterlimit:10;" x1="367.318" y1="134.936" x2="374.793" y2="139.251"/>
		<polyline style="fill:none;stroke:#3672C9;stroke-miterlimit:10;" points="342.333,125.167 345.018,127.167 347.706,125.167 
			350.395,127.167 353.084,125.167 355.778,127.167 358.471,125.167 		"/>
	</g>
</g>
<g id="DESIGNED_BY_FREEPIK">
	<g>
		<g id="XMLID_319_">
			<g id="XMLID_338_">
				<path id="XMLID_346_" style="fill:#1D262D;" d="M260.104,465.465c-0.432,0.443-0.803,0.931-1.108,1.453l-0.465-0.241
					c-0.067-0.298-0.349-0.503-0.659-0.466c-0.331,0.039-0.568,0.339-0.529,0.67s0.339,0.568,0.67,0.529
					c0.065-0.008,0.127-0.026,0.184-0.052l0.451,0.234c-0.251,0.554-0.433,1.139-0.539,1.744l0.746,0.132
					c0.23-1.306,0.85-2.507,1.792-3.473L260.104,465.465z"/>
				<path id="XMLID_345_" style="fill:#1D262D;" d="M265.592,463.163c-0.171,0-0.341,0.006-0.51,0.017l-0.074-0.626
					c0.188-0.149,0.296-0.389,0.266-0.645c-0.046-0.393-0.402-0.674-0.795-0.628s-0.674,0.402-0.628,0.795
					c0.03,0.254,0.189,0.461,0.405,0.564l0.073,0.624c-0.714,0.116-1.403,0.332-2.06,0.646l0.327,0.684
					c0.934-0.447,1.942-0.673,2.995-0.673c0.496,0,0.993,0.053,1.475,0.158l0.161-0.741
					C266.693,463.222,266.142,463.163,265.592,463.163z"/>
				<path id="XMLID_344_" style="fill:#1D262D;" d="M272.194,465.711c0.331-0.04,0.566-0.341,0.525-0.672
					c-0.04-0.331-0.341-0.566-0.672-0.526c-0.309,0.038-0.535,0.304-0.53,0.609l-0.416,0.363c-0.418-0.43-0.89-0.813-1.408-1.139
					l-0.404,0.641c1.134,0.715,2.021,1.726,2.563,2.925l0.691-0.313c-0.251-0.554-0.568-1.072-0.942-1.545l0.402-0.351
					C272.065,465.716,272.129,465.719,272.194,465.711z"/>
				<path id="XMLID_343_" style="fill:#1D262D;" d="M265.044,473.372c-0.386,0.023-0.775,0.035-1.157,0.035
					c-0.88,0-1.733-0.061-2.478-0.179c-0.39-0.062-0.846-0.155-1.27-0.292c1.046,1.861,3.069,3.125,5.388,3.125
					c2.855,0,5.262-1.916,5.95-4.504c-0.682,0.449-1.505,0.825-2.459,1.123C267.839,473.047,266.464,473.286,265.044,473.372z"/>
				<path id="XMLID_339_" style="fill:#1D262D;" d="M265.592,464.68c-3.352,0-6.08,2.666-6.08,5.943
					c0,0.426,0.046,0.849,0.137,1.261c0.674,0.483,2.706,0.89,5.348,0.731c2.879-0.173,5.297-0.957,6.672-2.159
					c-0.005-0.195-0.021-0.39-0.045-0.582C271.244,466.913,268.65,464.68,265.592,464.68z M263.432,471.194
					c-1.02,0-1.85-0.83-1.85-1.85c0-1.02,0.83-1.85,1.85-1.85c1.02,0,1.85,0.83,1.85,1.85
					C265.282,470.365,264.452,471.194,263.432,471.194z M268.17,470.286c-0.75,0-1.36-0.61-1.36-1.36s0.61-1.361,1.36-1.361
					c0.75,0,1.361,0.61,1.361,1.361S268.92,470.286,268.17,470.286z"/>
			</g>
			<path id="XMLID_336_" style="fill:#1D262D;" d="M281.595,466.547c-0.295-0.116-0.806-0.309-1.382-0.237
				c-0.551,0.069-0.844,0.341-0.844,1.007v0.866h2.228v1.717h-2.228v5.455h-1.932v-5.455h-1.34v-1.717h1.34v-0.888
				c0-1.68,0.896-2.783,2.568-2.783c0.642,0,1.157,0.122,1.59,0.308L281.595,466.547z"/>
			<path id="XMLID_334_" style="fill:#1D262D;" d="M286.298,469.879c-0.177-0.03-0.358-0.046-0.526-0.046
				c-0.896,0-1.51,0.548-1.51,1.614v3.908h-1.932v-7.172h1.873v0.785c0.451-0.673,1.14-0.977,2.021-0.977
				c0.414,0,0.848,0.128,1.094,0.337L286.298,469.879z"/>
			<path id="XMLID_331_" style="fill:#1D262D;" d="M293.965,471.757c0,0.222-0.015,0.489-0.037,0.651h-5.085
				c0.207,1.036,0.933,1.488,1.843,1.488c0.622,0,1.295-0.252,1.813-0.688l1.132,1.243c-0.814,0.748-1.85,1.088-3.057,1.088
				c-2.198,0-3.723-1.495-3.723-3.753c0-2.258,1.48-3.797,3.627-3.797C292.544,467.99,293.958,469.522,293.965,471.757z
				 M288.851,471.091h3.175c-0.177-0.918-0.733-1.436-1.562-1.436C289.554,469.655,289.021,470.203,288.851,471.091z"/>
			<path id="XMLID_328_" style="fill:#1D262D;" d="M301.618,471.757c0,0.222-0.015,0.489-0.037,0.651h-5.085
				c0.207,1.036,0.932,1.488,1.843,1.488c0.622,0,1.295-0.252,1.813-0.688l1.132,1.243c-0.814,0.748-1.85,1.088-3.057,1.088
				c-2.198,0-3.723-1.495-3.723-3.753c0-2.258,1.48-3.797,3.627-3.797C300.197,467.99,301.611,469.522,301.618,471.757z
				 M296.504,471.091h3.175c-0.178-0.918-0.733-1.436-1.562-1.436C297.207,469.655,296.674,470.203,296.504,471.091z"/>
			<path id="XMLID_325_" style="fill:#1D262D;" d="M309.964,471.764c0,2.154-1.495,3.775-3.471,3.775
				c-0.962,0-1.643-0.378-2.109-0.933v3.708h-1.924v-10.133h1.887v0.792c0.466-0.585,1.155-0.984,2.139-0.984
				C308.469,467.99,309.964,469.61,309.964,471.764z M304.287,471.764c0,1.132,0.747,1.976,1.843,1.976
				c1.14,0,1.85-0.881,1.85-1.976c0-1.095-0.71-1.976-1.85-1.976C305.035,469.788,304.287,470.632,304.287,471.764z"/>
			<path id="XMLID_322_" style="fill:#1D262D;" d="M313.068,465.836c0,0.696-0.54,1.229-1.236,1.229
				c-0.696,0-1.229-0.533-1.229-1.229c0-0.696,0.533-1.243,1.229-1.243C312.527,464.592,313.068,465.14,313.068,465.836z
				 M312.809,475.354h-1.932v-7.172h1.932V475.354z"/>
			<path id="XMLID_320_" style="fill:#1D262D;" d="M316.032,470.736l2.702-2.554h2.368l-3.479,3.375l3.501,3.797h-2.376
				l-2.716-2.901v2.901H314.1v-10.658h1.932V470.736z"/>
		</g>
		<g>
			<path style="fill:#1D262D;" d="M184.412,475.289v-1.055c-0.527,0.718-1.391,1.23-2.387,1.23c-1.846,0-3.149-1.406-3.149-3.706
				c0-2.256,1.289-3.721,3.149-3.721c0.952,0,1.816,0.469,2.387,1.245v-3.765h1.099v9.77H184.412z M184.412,473.37v-3.208
				c-0.395-0.615-1.245-1.143-2.124-1.143c-1.421,0-2.27,1.172-2.27,2.739c0,1.567,0.85,2.724,2.27,2.724
				C183.168,474.483,184.017,473.986,184.412,473.37z"/>
			<path style="fill:#1D262D;" d="M186.932,471.744c0-2.051,1.465-3.706,3.486-3.706c2.139,0,3.398,1.67,3.398,3.794v0.279h-5.727
				c0.088,1.333,1.025,2.446,2.549,2.446c0.805,0,1.626-0.322,2.182-0.894l0.527,0.718c-0.703,0.703-1.655,1.084-2.812,1.084
				C188.44,475.465,186.932,473.956,186.932,471.744z M190.403,468.947c-1.509,0-2.256,1.274-2.314,2.358h4.643
				C192.718,470.25,192.015,468.947,190.403,468.947z"/>
			<path style="fill:#1D262D;" d="M194.607,474.351l0.571-0.791c0.469,0.542,1.362,1.011,2.329,1.011c1.084,0,1.67-0.513,1.67-1.216
				c0-1.714-4.38-0.659-4.38-3.281c0-1.098,0.952-2.036,2.636-2.036c1.201,0,2.051,0.454,2.622,1.026l-0.513,0.762
				c-0.424-0.513-1.201-0.894-2.109-0.894c-0.967,0-1.567,0.483-1.567,1.113c0,1.552,4.38,0.527,4.38,3.281
				c0,1.187-0.952,2.138-2.783,2.138C196.306,475.465,195.325,475.113,194.607,474.351z"/>
			<path style="fill:#1D262D;" d="M201.477,466.471c0-0.41,0.337-0.747,0.732-0.747c0.41,0,0.747,0.337,0.747,0.747
				c0,0.41-0.337,0.732-0.747,0.732C201.814,467.203,201.477,466.881,201.477,466.471z M201.667,475.289v-7.075h1.099v7.075H201.667
				z"/>
			<path style="fill:#1D262D;" d="M204.582,477.105l0.556-0.82c0.586,0.703,1.289,0.967,2.3,0.967c1.172,0,2.27-0.571,2.27-2.124
				v-1.011c-0.513,0.718-1.377,1.26-2.373,1.26c-1.845,0-3.149-1.377-3.149-3.662c0-2.27,1.289-3.677,3.149-3.677
				c0.952,0,1.802,0.469,2.373,1.245v-1.069h1.098v6.87c0,2.344-1.641,3.076-3.369,3.076
				C206.237,478.16,205.417,477.926,204.582,477.105z M209.709,473.253v-3.091c-0.381-0.615-1.23-1.143-2.109-1.143
				c-1.421,0-2.27,1.128-2.27,2.695c0,1.553,0.849,2.695,2.27,2.695C208.478,474.41,209.328,473.868,209.709,473.253z"/>
			<path style="fill:#1D262D;" d="M217.413,475.289v-4.629c0-1.245-0.63-1.641-1.582-1.641c-0.865,0-1.685,0.527-2.095,1.099v5.17
				h-1.099v-7.075h1.099v1.025c0.498-0.586,1.464-1.201,2.519-1.201c1.48,0,2.256,0.747,2.256,2.285v4.966H217.413z"/>
			<path style="fill:#1D262D;" d="M219.932,471.744c0-2.051,1.465-3.706,3.486-3.706c2.139,0,3.398,1.67,3.398,3.794v0.279h-5.727
				c0.088,1.333,1.025,2.446,2.549,2.446c0.806,0,1.626-0.322,2.183-0.894l0.527,0.718c-0.703,0.703-1.655,1.084-2.812,1.084
				C221.441,475.465,219.932,473.956,219.932,471.744z M223.404,468.947c-1.509,0-2.256,1.274-2.314,2.358h4.643
				C225.718,470.25,225.015,468.947,223.404,468.947z"/>
			<path style="fill:#1D262D;" d="M233.35,475.289v-1.055c-0.527,0.718-1.392,1.23-2.388,1.23c-1.846,0-3.149-1.406-3.149-3.706
				c0-2.256,1.289-3.721,3.149-3.721c0.952,0,1.817,0.469,2.388,1.245v-3.765h1.098v9.77H233.35z M233.35,473.37v-3.208
				c-0.396-0.615-1.245-1.143-2.124-1.143c-1.421,0-2.27,1.172-2.27,2.739c0,1.567,0.849,2.724,2.27,2.724
				C232.105,474.483,232.954,473.986,233.35,473.37z"/>
			<path style="fill:#1D262D;" d="M239.692,475.289v-9.77h1.098v3.765c0.572-0.776,1.421-1.245,2.388-1.245
				c1.845,0,3.149,1.465,3.149,3.721c0,2.299-1.304,3.706-3.149,3.706c-0.996,0-1.86-0.513-2.388-1.23v1.055H239.692z
				 M242.9,474.483c1.436,0,2.285-1.157,2.285-2.724c0-1.568-0.85-2.739-2.285-2.739c-0.864,0-1.728,0.527-2.109,1.143v3.208
				C241.171,473.986,242.036,474.483,242.9,474.483z"/>
			<path style="fill:#1D262D;" d="M247.528,477.061c0.161,0.073,0.425,0.117,0.601,0.117c0.483,0,0.805-0.161,1.055-0.747
				l0.469-1.069l-2.959-7.148h1.187l2.358,5.8l2.344-5.8h1.201l-3.545,8.51c-0.425,1.025-1.143,1.421-2.08,1.435
				c-0.234,0-0.601-0.044-0.805-0.103L247.528,477.061z"/>
		</g>
	</g>
</g>
</svg>
