<?xml version="1.0" encoding="utf-8"?>
<!-- Generator: Adobe Illustrator 27.5.0, SVG Export Plug-In . SVG Version: 6.00 Build 0)  -->
<svg version="1.1" xmlns="http://www.w3.org/2000/svg" xmlns:xlink="http://www.w3.org/1999/xlink" x="0px" y="0px"
	 viewBox="0 0 3710 3710" style="enable-background:new 0 0 3710 3710;" xml:space="preserve">
<g id="Background">
	<g>
		<g>
			<rect style="fill:#FFFFFF;" width="3710" height="3710"/>
		</g>
	</g>
</g>
<g id="Illustration">
	<g>
		<linearGradient id="SVGID_1_" gradientUnits="userSpaceOnUse" x1="3422.6797" y1="3547.7764" x2="1535.7198" y2="1539.0776">
			<stop  offset="0" style="stop-color:#B37CFF"/>
			<stop  offset="1" style="stop-color:#F895E7"/>
		</linearGradient>
		<path style="opacity:0.3;fill:url(#SVGID_1_);" d="M2856.122,2741.895c-69.659,71.802-131.987,114.009-179.708,145.873
			c-465.41,310.759-997.426,221.191-1161.912,190.576c-265.378-49.392-489.393-84.237-681.863-258.125
			c-437.349-395.127-416.077-1219.392-81.889-1729.988c39.625-60.542,373.306-555.162,906.473-624.858
			c13.041-1.705,22.77-2.675,31.292-3.578c82.48-8.733,593.59-54.822,1010.349,294.339
			c59.657,49.981,155.663,140.133,244.691,277.63C3269.084,1536.516,3270.115,2315.167,2856.122,2741.895z"/>
		<g>
			
				<linearGradient id="SVGID_00000016065891127246597260000013394928188730277288_" gradientUnits="userSpaceOnUse" x1="2746.6951" y1="4376.6602" x2="2721.3208" y2="788.7361">
				<stop  offset="0" style="stop-color:#53D8FF"/>
				<stop  offset="1" style="stop-color:#3840F7"/>
			</linearGradient>
			<path style="fill:url(#SVGID_00000016065891127246597260000013394928188730277288_);" d="M2603.75,1425.201l237.39-55.264
				c0,0,158.723-14.268,180.188,126.809c21.465,141.077,15.245,976.879,8.528,1149.25c-2.214,56.818-1.942,109.311,2.892,155.084
				c10.07,95.35-64.325,178.633-160.191,180.292l-441.948,7.647L2603.75,1425.201z"/>
			<g>
				
					<linearGradient id="SVGID_00000105387922642674835210000002329521279433252493_" gradientUnits="userSpaceOnUse" x1="4973.9507" y1="2760.0735" x2="5333.6553" y2="2760.0735" gradientTransform="matrix(-0.9878 -0.1555 -0.1555 0.9878 8257.5615 605.2543)">
					<stop  offset="0" style="stop-color:#CB236D"/>
					<stop  offset="1" style="stop-color:#4C246D"/>
				</linearGradient>
				<path style="fill:url(#SVGID_00000105387922642674835210000002329521279433252493_);" d="M2477.456,3056.947
					c0,0,47.419-664.962,384.728-1070.306c4.398-5.285,12.016-3.959,14.343,2.542
					C2913.279,2091.864,3119.867,2752.187,2477.456,3056.947z"/>
				
					<linearGradient id="SVGID_00000100366781160199073110000017971567468312947858_" gradientUnits="userSpaceOnUse" x1="2490.6462" y1="2601.4622" x2="2847.6355" y2="2601.4622">
					<stop  offset="0" style="stop-color:#B37CFF"/>
					<stop  offset="0.7717" style="stop-color:#E88FEC"/>
					<stop  offset="1" style="stop-color:#F895E7"/>
				</linearGradient>
				<path style="opacity:0.5;fill:url(#SVGID_00000100366781160199073110000017971567468312947858_);" d="M2847.625,2179.606
					c-2.842,38.798-8.458,77.077-14.967,115.288c-6.731,38.152-14.636,76.115-23.942,113.751
					c-18.561,75.279-41.789,149.508-70.351,221.743c-14.399,36.059-29.669,71.808-46.763,106.71
					c-8.286,17.572-17.531,34.683-26.393,51.965c-9.415,17.004-18.605,34.124-28.8,50.682
					c-39.48,66.918-85.728,129.98-138.516,186.729c-1.573,1.691-4.221,1.787-5.914,0.213c-1.593-1.481-1.77-3.914-0.474-5.605
					l0.042-0.054c46.973-60.889,89.295-124.893,126.002-192.085c9.459-16.629,17.878-33.835,26.888-50.702
					c8.371-17.209,17.12-34.222,24.919-51.704c3.911-8.733,8.156-17.305,11.945-26.094l11.555-26.275
					c3.789-8.786,7.346-17.675,11.03-26.505c3.727-8.815,7.208-17.731,10.644-26.666c7.136-17.763,13.763-35.73,20.452-53.675
					c6.382-18.059,12.763-36.118,18.73-54.327c12.309-36.294,23.239-73.048,33.792-109.929
					c10.331-36.94,19.943-74.114,28.572-111.536c8.795-37.364,16.609-75.093,23.235-112.835l0.021-0.119
					c0.399-2.275,2.567-3.796,4.842-3.397C2846.307,2175.554,2847.773,2177.496,2847.625,2179.606z"/>
			</g>
			<g>
				
					<linearGradient id="SVGID_00000093140570279279948160000014994521550938763666_" gradientUnits="userSpaceOnUse" x1="4756.4609" y1="2750.9897" x2="5332.2954" y2="2750.9897" gradientTransform="matrix(-0.9708 -0.2397 -0.2397 0.9708 8445.2939 1227.0306)">
					<stop  offset="0" style="stop-color:#A737D5"/>
					<stop  offset="1" style="stop-color:#EF497A"/>
				</linearGradient>
				<path style="fill:url(#SVGID_00000093140570279279948160000014994521550938763666_);" d="M2519.262,2984.157
					c0,0,347.718-584.883,726.02-594.048c6.713-0.163,11.813,6.003,10.428,12.573
					C3239.606,2479.137,3126.975,2879.349,2519.262,2984.157z"/>
				
					<linearGradient id="SVGID_00000093164533277893857640000003393597937074263168_" gradientUnits="userSpaceOnUse" x1="2512.7151" y1="2572.7534" x2="3105.7019" y2="2572.7534" gradientTransform="matrix(0.9963 0.0858 -0.0858 0.9963 270.0128 -84.022)">
					<stop  offset="0" style="stop-color:#B37CFF"/>
					<stop  offset="0.7717" style="stop-color:#E88FEC"/>
					<stop  offset="1" style="stop-color:#F895E7"/>
				</linearGradient>
				<path style="opacity:0.5;fill:url(#SVGID_00000093164533277893857640000003393597937074263168_);" d="M3165.192,2482.907
					c-22.922,24.067-46.527,47.225-70.457,70.145c-12.086,11.315-24.176,22.632-36.385,33.816
					c-12.321,11.059-24.5,22.281-36.94,33.207c-49.644,43.84-100.829,85.938-153.366,126.276
					c-26.069,20.435-53.074,39.631-79.721,59.297l-40.765,28.405c-6.805,4.717-13.568,9.499-20.449,14.104l-20.806,13.579
					c-54.975,36.998-112.414,70.165-170.263,102.378c-2.018,1.124-4.563,0.4-5.686-1.617c-1.108-1.989-0.419-4.491,1.532-5.637
					l0.11-0.064l42.689-25.041l21.338-12.515c7.051-4.275,13.974-8.766,20.968-13.137l41.936-26.257
					c13.823-8.995,27.474-18.258,41.219-27.372l20.582-13.722l20.266-14.19l40.505-28.418c26.478-19.678,53.31-38.878,79.213-59.32
					c26.25-19.983,51.92-40.712,77.608-61.415l38.049-31.649l37.576-32.209c12.515-10.751,24.766-21.8,37.165-32.686
					c12.285-11.01,24.452-22.153,36.617-33.297c24.218-22.376,48.283-45.051,71.407-68.425l0.058-0.059
					c1.624-1.642,4.27-1.656,5.912-0.032C3166.727,2478.655,3166.757,2481.261,3165.192,2482.907z"/>
			</g>
			
				<linearGradient id="SVGID_00000065058697358800593790000008140260577443475384_" gradientUnits="userSpaceOnUse" x1="3390.6003" y1="904.6311" x2="887.8873" y2="4096.0806">
				<stop  offset="0" style="stop-color:#53D8FF"/>
				<stop  offset="1" style="stop-color:#3840F7"/>
			</linearGradient>
			<path style="fill:url(#SVGID_00000065058697358800593790000008140260577443475384_);" d="M2121.143,1436.678
				c0,0,432.255,23.753,719.998-66.741c0,0-191.286-13.106-191.286,428.536c0,337.661,50.078,982.154,6.354,1104.496
				c-43.723,122.342-207.216,286.801-441.582,145.463C1980.26,2907.094,2121.143,1436.678,2121.143,1436.678z"/>
			
				<linearGradient id="SVGID_00000080908363807041011970000009767112554524764594_" gradientUnits="userSpaceOnUse" x1="2514.2883" y1="1255.6271" x2="1650.9486" y2="-538.9583">
				<stop  offset="0" style="stop-color:#53D8FF"/>
				<stop  offset="1" style="stop-color:#3840F7"/>
			</linearGradient>
			<path style="fill:url(#SVGID_00000080908363807041011970000009767112554524764594_);" d="M2006.223,774.552
				c0,0,476.923,51.986,538.359-28.851c0,0-48.873-145.487-194.009-135.807C2205.437,619.575,2006.223,774.552,2006.223,774.552z"/>
			
				<linearGradient id="SVGID_00000179623704860198306660000009766065348710808475_" gradientUnits="userSpaceOnUse" x1="2168.4392" y1="1014.5299" x2="-306.8862" y2="4182.1865">
				<stop  offset="0" style="stop-color:#53D8FF"/>
				<stop  offset="1" style="stop-color:#3840F7"/>
			</linearGradient>
			<path style="fill:url(#SVGID_00000179623704860198306660000009766065348710808475_);" d="M455.107,938.235
				c41.587,467.378,128.942,1455.963,166.944,1937.526c8.472,107.357,94.522,192.155,201.992,199.053
				c382.825,24.573,1244.376,72.249,1574.996,27.89h0c-75.737-37.338-123.43-114.721-122.744-199.159L2293.85,742.63
				c0.62-76.356,76.673-131.221,148.177-104.428c45.047,16.88,79.158,52.841,102.555,107.5
				c-31.216-90.964-80.307-157.517-194.009-135.807c0,0-1112.052,11.118-1651.682,44.576
				C552.258,663.563,442.086,791.899,455.107,938.235z"/>
			<defs>
				<filter id="Adobe_OpacityMaskFilter" filterUnits="userSpaceOnUse" x="497.582" y="658.8" width="1797.11" height="2429.597">
					<feFlood  style="flood-color:white;flood-opacity:1" result="back"/>
					<feBlend  in="SourceGraphic" in2="back" mode="normal"/>
				</filter>
			</defs>
			
				<mask maskUnits="userSpaceOnUse" x="497.582" y="658.8" width="1797.11" height="2429.597" id="SVGID_00000106862041670540688820000006374843359507129506_">
				<g style="filter:url(#Adobe_OpacityMaskFilter);">
					<defs>
						
							<filter id="Adobe_OpacityMaskFilter_00000049923207874517354940000013971696132273407120_" filterUnits="userSpaceOnUse" x="497.582" y="658.8" width="1797.11" height="2429.597">
							<feFlood  style="flood-color:white;flood-opacity:1" result="back"/>
							<feBlend  in="SourceGraphic" in2="back" mode="normal"/>
						</filter>
					</defs>
					
						<mask maskUnits="userSpaceOnUse" x="497.582" y="658.8" width="1797.11" height="2429.597" id="SVGID_00000106862041670540688820000006374843359507129506_">
						<g style="filter:url(#Adobe_OpacityMaskFilter_00000049923207874517354940000013971696132273407120_);">
						</g>
					</mask>
					
						<linearGradient id="SVGID_00000127751637829152357180000004439852267725872006_" gradientUnits="userSpaceOnUse" x1="2071.7446" y1="1117.0466" x2="-229.1893" y2="4061.5356">
						<stop  offset="0" style="stop-color:#FFFFFF"/>
						<stop  offset="1" style="stop-color:#000000"/>
					</linearGradient>
					
						<path style="mask:url(#SVGID_00000106862041670540688820000006374843359507129506_);fill:url(#SVGID_00000127751637829152357180000004439852267725872006_);" d="
						M730.201,716.327L2224.467,658.8c-61.631,456.267-35.621,1385.419-12.104,2301.122c1.394,54.286,33.232,103.144,82.329,126.346
						l0,0c0,0-996.665,11.484-1424.907-18.89c-100.833-7.152-183.089-83.45-198.069-183.42
						c-58.791-392.323-199.447-1405.836-170.172-1942.409C508.248,818.676,607.235,721.061,730.201,716.327z"/>
				</g>
			</mask>
			
				<linearGradient id="SVGID_00000126282570307734625240000008137373783690374021_" gradientUnits="userSpaceOnUse" x1="2071.7446" y1="1117.0466" x2="-229.1893" y2="4061.5356">
				<stop  offset="0" style="stop-color:#FFFFFF"/>
				<stop  offset="1" style="stop-color:#FFFFFF"/>
			</linearGradient>
			<path style="opacity:0.53;fill:url(#SVGID_00000126282570307734625240000008137373783690374021_);" d="M730.201,716.327
				L2224.467,658.8c-61.631,456.267-35.621,1385.419-12.104,2301.122c1.394,54.286,33.232,103.144,82.329,126.346l0,0
				c0,0-996.665,11.484-1424.907-18.89c-100.833-7.152-183.089-83.45-198.069-183.42
				c-58.791-392.323-199.447-1405.836-170.172-1942.409C508.248,818.676,607.235,721.061,730.201,716.327z"/>
			<g>
				<path style="opacity:0.78;fill:#FFFFFF;" d="M710.425,1424.043l17.439,167.375c3.197,30.68,28.463,54.344,59.287,55.526
					l97.448,3.739c35.146,1.348,64.374-26.779,64.374-61.952v-180.556c0-36.243-30.955-64.757-67.075-61.789l-114.888,9.442
					C732.357,1358.677,706.821,1389.461,710.425,1424.043z"/>
				<path style="opacity:0.78;fill:#FFFFFF;" d="M1053.103,1372.452c162.192-5.043,784.804-25.284,942.024-30.399
					c19.831-0.645,36.224,15.257,36.224,35.099l0,0c0,18.887-14.939,34.391-33.813,35.092l-941.417,34.951
					c-18.134,0.673-33.795-12.581-36.128-30.577l-0.59-4.552C1016.734,1391.488,1032.363,1373.096,1053.103,1372.452z"/>
				<path style="opacity:0.78;fill:#FFFFFF;" d="M1042.916,1593.106L1042.916,1593.106c2.754,4.618,7.777,7.399,13.152,7.283
					l646.427-14.043c8.12-0.177,14.611-6.81,14.611-14.932v-42.617c0-8.468-7.032-15.241-15.494-14.925l-628.402,23.496
					C1045.223,1538.413,1028.571,1569.05,1042.916,1593.106z"/>
			</g>
			<g>
				<path style="opacity:0.78;fill:#FFFFFF;" d="M710.425,1888.571l17.439,167.375c3.197,30.681,28.463,54.344,59.287,55.526
					l97.448,3.739c35.146,1.348,64.374-26.779,64.374-61.952v-180.556c0-36.242-30.955-64.757-67.075-61.789l-114.888,9.442
					C732.357,1823.206,706.821,1853.989,710.425,1888.571z"/>
				<path style="opacity:0.78;fill:#FFFFFF;" d="M1053.103,1836.98c162.192-5.043,784.804-25.284,942.024-30.398
					c19.831-0.646,36.224,15.257,36.224,35.098v0c0,18.887-14.939,34.391-33.813,35.092l-941.417,34.95
					c-18.134,0.673-33.795-12.581-36.128-30.576l-0.59-4.553C1016.734,1856.016,1032.363,1837.625,1053.103,1836.98z"/>
				<path style="opacity:0.78;fill:#FFFFFF;" d="M1042.916,2057.635L1042.916,2057.635c2.754,4.618,7.777,7.399,13.152,7.282
					l646.427-14.043c8.12-0.177,14.611-6.81,14.611-14.932v-42.617c0-8.468-7.032-15.241-15.494-14.925l-628.402,23.496
					C1045.223,2002.942,1028.571,2033.579,1042.916,2057.635z"/>
			</g>
			<g>
				<path style="opacity:0.78;fill:#FFFFFF;" d="M710.425,2353.1l17.439,167.375c3.197,30.681,28.463,54.344,59.287,55.527
					l97.448,3.739c35.146,1.348,64.374-26.779,64.374-61.951v-180.556c0-36.242-30.955-64.757-67.075-61.789l-114.888,9.442
					C732.357,2287.735,706.821,2318.518,710.425,2353.1z"/>
				<path style="opacity:0.78;fill:#FFFFFF;" d="M1053.103,2301.509c162.192-5.043,784.804-25.283,942.024-30.398
					c19.831-0.645,36.224,15.257,36.224,35.099l0,0c0,18.887-14.939,34.391-33.813,35.092l-941.417,34.95
					c-18.134,0.673-33.795-12.581-36.128-30.576l-0.59-4.553C1016.734,2320.545,1032.363,2302.154,1053.103,2301.509z"/>
				<path style="opacity:0.78;fill:#FFFFFF;" d="M1042.916,2522.164L1042.916,2522.164c2.754,4.618,7.777,7.399,13.152,7.283
					l646.427-14.044c8.12-0.177,14.611-6.81,14.611-14.932v-42.618c0-8.468-7.032-15.241-15.494-14.925l-628.402,23.497
					C1045.223,2467.47,1028.571,2498.107,1042.916,2522.164z"/>
			</g>
			<path style="fill:#FFFFFF;" d="M2593.709,2402.098c-3.95,0-7.195-3.169-7.271-7.138c-0.005-0.223-0.445-23.143-2.648-101.684
				c-0.114-4.017,3.05-7.365,7.067-7.474c3.922-0.199,7.365,3.05,7.474,7.067c2.207,78.641,2.653,101.594,2.657,101.817
				c0.076,4.017-3.122,7.337-7.138,7.413C2593.804,2402.098,2593.757,2402.098,2593.709,2402.098z"/>
			<path style="fill:#FFFFFF;" d="M2588.424,2210.381c-3.917,0-7.148-3.112-7.266-7.053c-1.563-51.126-4.002-107.643-6.584-167.484
				c-3.481-80.849-7.091-164.453-8.995-244.989c-5.021-212.548,30.039-294.14,60.334-325.16
				c16.464-16.862,30.261-17.35,31.782-17.35c4.017,0,7.275,3.258,7.275,7.275c0,3.969-3.178,7.195-7.128,7.275
				c-1.658,0.118-85.24,9.302-77.713,327.618c1.899,80.394,5.499,163.923,8.985,244.705c2.582,59.884,5.021,116.448,6.584,167.664
				c0.123,4.017-3.031,7.371-7.048,7.494C2588.575,2210.381,2588.499,2210.381,2588.424,2210.381z"/>
			<g>
				
					<linearGradient id="SVGID_00000082366002881346210740000006091556659438738849_" gradientUnits="userSpaceOnUse" x1="1426.09" y1="2780.9658" x2="1840.3685" y2="2780.9658">
					<stop  offset="0" style="stop-color:#2B3582"/>
					<stop  offset="1" style="stop-color:#150E42"/>
				</linearGradient>
				<path style="fill:url(#SVGID_00000082366002881346210740000006091556659438738849_);" d="M1534.225,2994.285
					c-7.376,0-14.763-3.492-22.552-10.649c-28.653-26.324-36.051-66.773-38.062-105.246c-13.221,14.792-26.747,29.205-40.12,43.456
					l-7.401-6.945c15.704-16.735,31.62-33.692,46.978-51.214c-1.272-52.714,1.16-105.976,7.228-158.336
					c3.724-32.113,9.086-66.102,23.01-97.108c4.437-9.886,11.802-24.054,24.474-32.916c13.22-9.241,30.556-10.249,42.152-2.455
					c13.04,8.766,16.552,25.366,18.06,37.089c8.86,68.924-18.027,132.088-42.144,172.943c-17.902,30.325-39.572,58.08-62.527,84.476
					c1.188,39.385,6.644,82.53,35.22,108.781c6.023,5.534,11.365,8.217,16.167,7.963c8.049-0.287,14.568-8.108,19.884-15.718
					c24.156-34.601,42.947-72.115,56.079-111.907c1.533-11.968,4.878-23.704,9.97-34.664l9.534,3.337
					c-2.757,11.353-5.946,22.55-9.559,33.576c-1.343,11.27-0.93,22.752,1.303,33.897c1.188,5.928,6.18,25.475,20.619,28.224
					c10.742,2.055,21.992-6.113,34.389-24.953l50.814-77.237l-6.422,27.652c-2.267,9.764-6.066,33.071,7.558,38.675
					c7.747,3.192,15.947-1.424,25.442-6.773c9.435-5.316,19.187-10.804,30.277-9.337l5.229,0.697l-0.897,5.197
					c-0.512,2.974-4.617,29.119,8.943,32.116c6.192,1.381,11.402-2.924,19.232-10.157c6.151-5.686,12.511-11.568,20.877-13.593
					l2.389,9.866c-5.802,1.404-10.938,6.152-16.377,11.178c-7.725,7.143-16.476,15.235-28.311,12.618
					c-15.442-3.413-19.24-20.813-17.563-37.796c-6.085,0.885-12.311,4.391-18.817,8.055c-10.304,5.802-21.981,12.384-34.285,7.315
					c-10.15-4.173-15.646-14.257-16.066-28.683l-23.542,35.783c-9.509,14.449-24.5,33.187-44.769,29.347
					c-13.945-2.656-24.663-16.19-28.671-36.2c-0.56-2.792-1.014-5.604-1.366-8.429c-12.46,30.943-28.404,60.386-47.688,88.005
					c-6.355,9.1-15.263,19.597-27.84,20.049C1534.79,2994.279,1534.508,2994.285,1534.225,2994.285z M1551.894,2577.724
					c-6.673,0-13.403,2.501-18.3,5.924c-10.611,7.421-17.084,19.963-21.029,28.752c-13.358,29.75-18.557,62.818-22.185,94.121
					c-5.582,48.164-8.06,97.098-7.38,145.652c19.881-23.446,38.504-47.996,54.108-74.428
					c23.307-39.484,49.309-100.422,40.816-166.487c-1.996-15.519-6.334-25.039-13.654-29.958
					C1560.511,2578.771,1556.214,2577.724,1551.894,2577.724z"/>
			</g>
			<path style="opacity:0.78;fill:#FFFFFF;" d="M1979.587,1163.317l-1190.381,35.321c-42.76,1.269-78.67-31.921-80.766-74.649
				l-4.368-89.048c-2.159-44.013,32.311-81.186,76.361-82.351l1196.294-31.629c44.728-1.182,81.403,35.188,80.594,79.924
				l-1.545,85.356C2055.017,1128.148,2021.482,1162.073,1979.587,1163.317z"/>
		</g>
		<g>
			
				<linearGradient id="SVGID_00000044875184985577006570000013322880844407424943_" gradientUnits="userSpaceOnUse" x1="-2023.6316" y1="-10465.3369" x2="-1965.8966" y2="-10465.3369" gradientTransform="matrix(-0.9813 0.1926 -0.1926 -0.9813 -2396.9971 -7779.7432)">
				<stop  offset="0" style="stop-color:#F9B776"/>
				<stop  offset="1" style="stop-color:#F47960"/>
			</linearGradient>
			<path style="fill:url(#SVGID_00000044875184985577006570000013322880844407424943_);" d="M1604.623,2101.19
				c0,0-39.704-26.044-45.201-20.039c-1.956,2.136-6.527,9.399-10.783,17.323c-3.003,5.592-2.078,12.477,2.335,17.04l10.235,10.581
				c9.754,10.081,26.258,9.358,34.867-1.716C1600.418,2118.793,1603.876,2111.26,1604.623,2101.19z"/>
			<g>
				<g>
					
						<linearGradient id="SVGID_00000014612147464443728400000006600119874578824857_" gradientUnits="userSpaceOnUse" x1="266.567" y1="2043.233" x2="529.4674" y2="2043.233" gradientTransform="matrix(1 0 0 1 1290.1023 0)">
						<stop  offset="0" style="stop-color:#F9B776"/>
						<stop  offset="1" style="stop-color:#F47960"/>
					</linearGradient>
					<path style="fill:url(#SVGID_00000014612147464443728400000006600119874578824857_);" d="M1645.102,2051.716
						c0,0-13.626-35.867-29.54-32.583c-15.915,3.285-33.325,15.511-33.325,15.511l-25.567,34.578c0,0,71.772,28.274,97.014,12.071
						c0,0,73.31,12.667,165.886-2.524c-13.401-28.293-21.389-56.619-26.079-78.607
						C1746.602,2026.703,1696.098,2046.528,1645.102,2051.716z"/>
					
						<linearGradient id="SVGID_00000125601622779400424450000001356782913669521552_" gradientUnits="userSpaceOnUse" x1="2001.0481" y1="2014.4395" x2="2701.5605" y2="2759.3872">
						<stop  offset="0" style="stop-color:#FDF53F"/>
						<stop  offset="0.294" style="stop-color:#F2BF4A"/>
						<stop  offset="1" style="stop-color:#D93C65"/>
					</linearGradient>
					<path style="fill:url(#SVGID_00000125601622779400424450000001356782913669521552_);" d="M2033.432,1791.557
						c0,0-104.961,132.2-239.941,208.605c4.69,21.987,12.678,50.313,26.079,78.607c70.022-11.49,151.06-38.911,219.764-99.841
						L2033.432,1791.557z"/>
				</g>
				
					<linearGradient id="SVGID_00000109013893134830687500000006621172470397682613_" gradientUnits="userSpaceOnUse" x1="2096.1448" y1="1925.0154" x2="2796.657" y2="2669.9631">
					<stop  offset="0" style="stop-color:#FDF53F"/>
					<stop  offset="0.294" style="stop-color:#F2BF4A"/>
					<stop  offset="1" style="stop-color:#D93C65"/>
				</linearGradient>
				<path style="fill:url(#SVGID_00000109013893134830687500000006621172470397682613_);" d="M2164.331,2377.503
					c-20.527-97.5-41.053-153.947-109.783-338.756c-21.63-58.157-41.271-117-31.778-178.32l10.662-68.869
					c0,0,133.57-45.198,281.628-1.904c0,0,202,87.752,64.796,521.138C2318.013,2379.983,2245.635,2399.702,2164.331,2377.503z"/>
				
					<linearGradient id="SVGID_00000131328645798423630750000016599495302227371956_" gradientUnits="userSpaceOnUse" x1="854.8048" y1="1780.2788" x2="812.6472" y2="1653.8057" gradientTransform="matrix(1 0 0 1 1290.1023 0)">
					<stop  offset="0" style="stop-color:#F9B776"/>
					<stop  offset="1" style="stop-color:#F47960"/>
				</linearGradient>
				<path style="fill:url(#SVGID_00000131328645798423630750000016599495302227371956_);" d="M2056.168,1703.661l34.635,83.208
					c2.188,5.255,6.917,9,12.527,9.962c19.969,3.425,68.265,8.774,99.983-12.082c3.78-2.486,4.741-7.623,2.156-11.334
					l-63.988-91.866L2056.168,1703.661z"/>
				<g>
					
						<linearGradient id="SVGID_00000103265790945160215140000001983109650885518244_" gradientUnits="userSpaceOnUse" x1="2046.4335" y1="1625.0734" x2="2197.9565" y2="1690.953">
						<stop  offset="0" style="stop-color:#F9B776"/>
						<stop  offset="1" style="stop-color:#F47960"/>
					</linearGradient>
					<path style="fill:url(#SVGID_00000103265790945160215140000001983109650885518244_);" d="M2091.987,1576.355
						c-1.454,1.369-61.389,119.067-61.389,119.067l67.931,32.793l73.379-103.112
						C2171.907,1625.102,2116.339,1553.432,2091.987,1576.355z"/>
					
						<linearGradient id="SVGID_00000056396793081535459780000005447391285311163009_" gradientUnits="userSpaceOnUse" x1="4941.9136" y1="5829.1284" x2="5122.9175" y2="5829.1284" gradientTransform="matrix(-0.6854 -0.7281 -0.7281 0.6854 9787.373 1318.7853)">
						<stop  offset="0" style="stop-color:#2B3582"/>
						<stop  offset="1" style="stop-color:#150E42"/>
					</linearGradient>
					<path style="fill:url(#SVGID_00000056396793081535459780000005447391285311163009_);" d="M2141.037,1637.474l-33.88,56.477
						c-0.514,0.857-1.126,1.632-1.858,2.313c-4.032,3.754-17.832,14.673-28.5-0.193c-9.093-12.67-17.623-24.189-26.764-28.94
						c-5.338-2.774-11.907-0.559-14.617,4.812c-5.582,11.064-16.395,33.616-23.187,55.002c-1.702,5.36,1.064,11.114,6.276,13.226
						c13.756,5.573,40.942,15.652,65.065,18.981c3.963,0.547,7.886-1.125,10.244-4.356c10.379-14.219,39.632-53.953,49.616-63.899
						c9.275-9.24,26.394-5.756,34.108-3.54c2.928,0.842,6.046,0.436,8.656-1.135c7.826-4.714,21.484-16.453,8.99-36.329
						c-3.106-4.942-1.522-11.524,3.354-14.731c8.739-5.749,18.22-16.537,9.186-34.01c-9.145-17.687-25.475-19.276-36.598-17.916
						c-4.921,0.601-9.917-1.98-11.806-6.564c-0.839-2.038-2.5-3.777-5.591-4.404c-5.83-1.183-9.656-6.514-8.511-12.351
						c1.961-10.009,0.484-23.011-15.497-31.797c-29.31-16.115-54.984,10.143-61.512,32.308
						c-6.529,22.166,26.242,37.831,46.857,40.445c15.141,1.921,23.444,18.446,26.784,27.085
						C2143.063,1631.092,2142.766,1634.59,2141.037,1637.474z"/>
					
						<linearGradient id="SVGID_00000130632546369498059730000009473434269446505355_" gradientUnits="userSpaceOnUse" x1="2036.9915" y1="1646.79" x2="2188.5144" y2="1712.6697">
						<stop  offset="0" style="stop-color:#F9B776"/>
						<stop  offset="1" style="stop-color:#F47960"/>
					</linearGradient>
					<path style="fill:url(#SVGID_00000130632546369498059730000009473434269446505355_);" d="M2129.161,1707.804
						c0,0,14.579-34.303,31.262-32.902c16.683,1.4,29.813,18.02,9.137,36.702
						C2143.842,1734.844,2129.161,1707.804,2129.161,1707.804z"/>
				</g>
				<g>
					
						<linearGradient id="SVGID_00000132767989885385333920000002400340933084842915_" gradientUnits="userSpaceOnUse" x1="2419.5854" y1="3245.8914" x2="2607.8955" y2="3245.8914" gradientTransform="matrix(-1 0 0 1 4753.7588 0)">
						<stop  offset="0" style="stop-color:#CE1567"/>
						<stop  offset="1" style="stop-color:#7A1DBC"/>
					</linearGradient>
					<path style="fill:url(#SVGID_00000132767989885385333920000002400340933084842915_);" d="M2151.181,3236.783
						c32.26,2.789,88.249,7.318,132.387,9.26c26.532,1.168,41.807-1.431,50.605-4.951c-0.015,0.991-0.042,1.928-0.081,2.799
						c-0.209,4.644-3.984,8.36-8.675,8.622c-83.402,4.655-149.732,1.611-173.346,0.174c-4.883-0.298-7.793-5.604-5.296-9.767
						C2148.025,3240.84,2149.538,3238.8,2151.181,3236.783z"/>
					
						<linearGradient id="SVGID_00000011715546984467750090000007379425728754380725_" gradientUnits="userSpaceOnUse" x1="2788.6973" y1="3069.7097" x2="2106.8438" y2="3264.054">
						<stop  offset="0" style="stop-color:#CB236D"/>
						<stop  offset="1" style="stop-color:#4C246D"/>
					</linearGradient>
					<path style="fill:url(#SVGID_00000011715546984467750090000007379425728754380725_);" d="M2283.568,3246.044
						c-44.139-1.943-100.128-6.472-132.387-9.26c31.717-38.912,132.387-65.14,132.387-65.14h28.433
						c19.555,28.188,22.387,55.026,22.172,69.449C2325.375,3244.613,2310.1,3247.212,2283.568,3246.044z"/>
					
						<linearGradient id="SVGID_00000065755407316446472300000000562031707821509532_" gradientUnits="userSpaceOnUse" x1="2436.9707" y1="3157.459" x2="2490.0144" y2="3157.459" gradientTransform="matrix(-1 0 0 1 4753.7588 0)">
						<stop  offset="0" style="stop-color:#F9B776"/>
						<stop  offset="1" style="stop-color:#F47960"/>
					</linearGradient>
					<path style="fill:url(#SVGID_00000065755407316446472300000000562031707821509532_);" d="M2316.788,3125.226l-2.661,52.652
						c-0.288,5.701-4.556,10.493-10.266,11.309c-5.681,0.812-13.289,0.917-21.357-1.769c-4.964-1.652-8.649-5.835-9.565-10.937
						l-9.194-51.255H2316.788z"/>
				</g>
				<g>
					<g>
						
							<linearGradient id="SVGID_00000172398575033819634350000007711817995206012039_" gradientUnits="userSpaceOnUse" x1="2044.1736" y1="3241.8303" x2="2116.3367" y2="3241.8303" gradientTransform="matrix(-1 0 0 1 4753.7588 0)">
							<stop  offset="0" style="stop-color:#CE1567"/>
							<stop  offset="1" style="stop-color:#7A1DBC"/>
						</linearGradient>
						<path style="fill:url(#SVGID_00000172398575033819634350000007711817995206012039_);" d="M2686.087,3245.649
							c13.99-1.951,20.319-9.218,22.973-16.988c0.018,0.071,0.036,0.141,0.053,0.21c2.058,8.196-2.714,16.688-12.253,20.729
							c-11.531,4.882-24.136,5.715-33.924,5.311c-10.499-0.433-20.138-4.778-25.435-11.732l-0.079-0.105
							C2647.961,3248.289,2662.756,3248.904,2686.087,3245.649z"/>
						
							<linearGradient id="SVGID_00000034792464101471039310000007733803972995199145_" gradientUnits="userSpaceOnUse" x1="2408.575" y1="3030.2092" x2="2833.4976" y2="3306.9033">
							<stop  offset="0" style="stop-color:#CB236D"/>
							<stop  offset="1" style="stop-color:#4C246D"/>
						</linearGradient>
						<path style="fill:url(#SVGID_00000034792464101471039310000007733803972995199145_);" d="M2620.127,3124.888h23.448
							c35.716-0.73,58.144,74.602,65.485,103.773c-2.653,7.77-8.983,15.038-22.973,16.988c-23.331,3.255-38.126,2.64-48.665-2.575
							c-19.295-25.391-28.863-62.579-33.46-84.283C2598.731,3134.108,2620.127,3124.888,2620.127,3124.888z"/>
					</g>
					
						<linearGradient id="SVGID_00000151517199955257757460000001768180844245072520_" gradientUnits="userSpaceOnUse" x1="2099.7549" y1="3113.2405" x2="2163.1467" y2="3113.2405" gradientTransform="matrix(-1 0 0 1 4753.7588 0)">
						<stop  offset="0" style="stop-color:#F9B776"/>
						<stop  offset="1" style="stop-color:#F47960"/>
					</linearGradient>
					<path style="fill:url(#SVGID_00000151517199955257757460000001768180844245072520_);" d="M2640.561,3076.019l13.02,51.785
						c1.597,6.349-1.442,12.916-7.313,15.929c-7.284,3.738-17.538,7.666-26.963,6.529c-4.433-0.534-8.114-3.656-9.579-7.83
						l-19.115-54.483L2640.561,3076.019z"/>
				</g>
				
					<linearGradient id="SVGID_00000181794701516646345590000008605492163439224720_" gradientUnits="userSpaceOnUse" x1="-242.1859" y1="3206.3186" x2="725.1169" y2="1868.9763" gradientTransform="matrix(-1 0 0 1 2420.7585 0)">
					<stop  offset="0" style="stop-color:#2B3582"/>
					<stop  offset="1" style="stop-color:#150E42"/>
				</linearGradient>
				<path style="fill:url(#SVGID_00000181794701516646345590000008605492163439224720_);" d="M2656.092,3090.987
					c-16.199,14.369-68.889,16.266-68.889,16.266c-189.797-455.532-268.925-580.936-268.925-580.936
					c27.405,171.938,5.907,613.278,5.907,613.278c-31.32,13.821-71.7,0-71.7,0c-2.543-281.486-42.175-583.954-93.287-777.488
					c128.281-2.883,197.995-30.848,220.27-48.465C2486.399,2486.034,2656.092,3090.987,2656.092,3090.987z"/>
				<g>
					
						<linearGradient id="SVGID_00000085960717012002736660000014267213303347884954_" gradientUnits="userSpaceOnUse" x1="-27.595" y1="3514.8091" x2="-33.4776" y2="2971.645" gradientTransform="matrix(0.9919 -0.127 0.127 0.9919 1989.9969 -609.5969)">
						<stop  offset="0" style="stop-color:#CB236D"/>
						<stop  offset="1" style="stop-color:#4C246D"/>
					</linearGradient>
					<path style="fill:url(#SVGID_00000085960717012002736660000014267213303347884954_);" d="M2126.882,2489.405l23.604,146.812
						c4.116,25.6,27.829,43.357,53.688,40.203l353.286-43.093c17.283-2.108,30.39-16.539,30.736-33.867
						c0.756-37.935-0.734-105.446-16.655-166.955L2126.882,2489.405z"/>
					<path style="fill:#FFFFFF;" d="M2216.092,2666.571c-0.578,0-1.081-0.433-1.152-1.021c-0.078-0.638,0.375-1.219,1.013-1.295
						l9.229-1.127c0.626-0.069,1.218,0.373,1.293,1.011c0.078,0.638-0.375,1.219-1.013,1.295l-9.228,1.127
						C2216.186,2666.568,2216.139,2666.571,2216.092,2666.571z M2194.564,2666.165c-0.093,0-0.187-0.013-0.281-0.036
						c-3.074-0.76-6.086-1.837-8.954-3.198c-0.58-0.278-0.826-0.971-0.55-1.55c0.274-0.582,0.968-0.826,1.548-0.552
						c2.728,1.298,5.592,2.323,8.515,3.046c0.623,0.152,1.003,0.783,0.849,1.407
						C2195.56,2665.811,2195.084,2666.165,2194.564,2666.165z M2246.853,2662.818c-0.578,0-1.081-0.433-1.152-1.024
						c-0.078-0.634,0.375-1.216,1.013-1.292l9.229-1.124c0.644-0.083,1.218,0.374,1.293,1.014c0.078,0.635-0.375,1.216-1.013,1.292
						l-9.228,1.123C2246.947,2662.814,2246.899,2662.818,2246.853,2662.818z M2277.614,2659.067c-0.578,0-1.081-0.433-1.152-1.021
						c-0.078-0.638,0.375-1.219,1.013-1.295l9.229-1.127c0.638-0.079,1.218,0.377,1.293,1.011c0.078,0.638-0.375,1.219-1.013,1.295
						l-9.228,1.127C2277.708,2659.064,2277.662,2659.067,2277.614,2659.067z M2308.375,2655.314c-0.578,0-1.08-0.433-1.151-1.021
						c-0.078-0.638,0.375-1.219,1.013-1.295l9.228-1.127c0.621-0.083,1.218,0.377,1.294,1.011c0.078,0.638-0.375,1.219-1.013,1.295
						l-9.229,1.127C2308.469,2655.311,2308.423,2655.314,2308.375,2655.314z M2339.138,2651.561c-0.578,0-1.08-0.433-1.151-1.024
						c-0.078-0.634,0.375-1.216,1.013-1.292l9.228-1.124c0.648-0.066,1.218,0.377,1.293,1.014c0.078,0.635-0.375,1.216-1.013,1.292
						l-9.228,1.123C2339.232,2651.557,2339.184,2651.561,2339.138,2651.561z M2169.094,2649.555c-0.347,0-0.691-0.155-0.92-0.453
						c-1.941-2.518-3.628-5.237-5.015-8.088c-0.279-0.578-0.04-1.272,0.537-1.553c0.573-0.278,1.274-0.043,1.554,0.535
						c1.317,2.709,2.921,5.296,4.765,7.685c0.391,0.509,0.297,1.239-0.21,1.629
						C2169.593,2649.476,2169.342,2649.555,2169.094,2649.555z M2369.899,2647.81c-0.578,0-1.08-0.433-1.151-1.021
						c-0.078-0.638,0.375-1.219,1.013-1.295l9.228-1.127c0.631-0.093,1.216,0.373,1.294,1.011c0.078,0.638-0.375,1.219-1.013,1.295
						l-9.228,1.127C2369.993,2647.807,2369.947,2647.81,2369.899,2647.81z M2400.66,2644.057c-0.578,0-1.08-0.433-1.152-1.021
						c-0.077-0.638,0.375-1.219,1.013-1.295l9.229-1.127c0.636-0.096,1.218,0.373,1.294,1.011c0.077,0.638-0.375,1.219-1.013,1.295
						l-9.229,1.127C2400.755,2644.054,2400.708,2644.057,2400.66,2644.057z M2431.422,2640.307c-0.578,0-1.08-0.433-1.152-1.021
						c-0.078-0.638,0.375-1.219,1.013-1.295l9.228-1.127c0.641-0.059,1.218,0.374,1.293,1.011c0.078,0.638-0.375,1.219-1.013,1.295
						l-9.228,1.127C2431.516,2640.303,2431.469,2640.307,2431.422,2640.307z M2462.183,2636.553c-0.578,0-1.081-0.433-1.151-1.021
						c-0.078-0.638,0.375-1.219,1.013-1.295l9.228-1.127c0.625-0.063,1.218,0.373,1.293,1.011c0.078,0.638-0.375,1.219-1.013,1.295
						l-9.228,1.126C2462.277,2636.55,2462.231,2636.553,2462.183,2636.553z M2492.944,2632.8c-0.578,0-1.081-0.433-1.152-1.021
						c-0.078-0.638,0.375-1.219,1.013-1.295l9.23-1.124c0.661-0.086,1.218,0.374,1.293,1.014c0.078,0.635-0.375,1.216-1.013,1.292
						l-9.23,1.123C2493.038,2632.796,2492.99,2632.8,2492.944,2632.8z M2523.707,2629.05c-0.578,0-1.08-0.433-1.151-1.021
						c-0.078-0.638,0.375-1.219,1.013-1.295l9.228-1.127c0.635-0.073,1.218,0.377,1.294,1.011c0.078,0.638-0.375,1.219-1.013,1.295
						l-9.228,1.127C2523.801,2629.046,2523.755,2629.05,2523.707,2629.05z M2554.328,2624.573c-0.482,0-0.933-0.304-1.099-0.786
						c-0.208-0.604,0.114-1.269,0.72-1.477c2.83-0.971,5.511-2.336,7.969-4.054c0.527-0.37,1.25-0.238,1.617,0.284
						c0.368,0.529,0.241,1.252-0.286,1.619c-2.635,1.844-5.51,3.308-8.544,4.352
						C2554.581,2624.553,2554.453,2624.573,2554.328,2624.573z M2158.865,2620.75c-0.56,0-1.054-0.406-1.146-0.978l-1.475-9.179
						c-0.101-0.635,0.33-1.229,0.963-1.332c0.634-0.109,1.229,0.327,1.333,0.961l1.475,9.179c0.101,0.634-0.33,1.229-0.963,1.332
						C2158.988,2620.743,2158.926,2620.75,2158.865,2620.75z M2575.208,2603.211c-0.116,0-0.233-0.016-0.35-0.056
						c-0.611-0.192-0.952-0.846-0.758-1.457c0.9-2.848,1.394-5.815,1.47-8.819c0.015-0.641,0.545-1.206,1.191-1.133
						c0.641,0.016,1.148,0.552,1.132,1.193c-0.081,3.221-0.611,6.403-1.576,9.459
						C2576.16,2602.894,2575.702,2603.211,2575.208,2603.211z M2153.945,2590.154c-0.56,0-1.054-0.406-1.146-0.978l-1.475-9.179
						c-0.101-0.634,0.331-1.229,0.963-1.332c0.636-0.102,1.229,0.324,1.333,0.961l1.475,9.179c0.101,0.634-0.331,1.229-0.963,1.332
						C2154.069,2590.147,2154.006,2590.154,2153.945,2590.154z M2576.85,2572.378c-0.638,0-1.156-0.515-1.161-1.153
						c-0.026-2.997-0.071-6.096-0.139-9.288c-0.013-0.641,0.496-1.173,1.136-1.186c0.623-0.02,1.173,0.496,1.186,1.14
						c0.068,3.198,0.112,6.304,0.139,9.314c0.007,0.641-0.509,1.167-1.151,1.173
						C2576.857,2572.378,2576.854,2572.378,2576.85,2572.378z M2149.026,2559.554c-0.56,0-1.054-0.406-1.145-0.978l-1.479-9.179
						c-0.101-0.635,0.33-1.229,0.963-1.332c0.636-0.125,1.231,0.327,1.333,0.962l1.475,9.179c0.103,0.635-0.329,1.229-0.961,1.332
						C2149.15,2559.548,2149.087,2559.554,2149.026,2559.554z M2575.937,2541.392c-0.615,0-1.128-0.482-1.16-1.104
						c-0.152-3.043-0.327-6.132-0.527-9.271c-0.041-0.641,0.446-1.193,1.085-1.232c0.686-0.01,1.193,0.443,1.234,1.087
						c0.2,3.146,0.375,6.248,0.53,9.298c0.031,0.641-0.463,1.186-1.104,1.219
						C2575.976,2541.392,2575.956,2541.392,2575.937,2541.392z M2144.107,2528.958c-0.56,0-1.054-0.406-1.146-0.978l-1.475-9.179
						c-0.101-0.634,0.33-1.229,0.963-1.332c0.636-0.115,1.231,0.327,1.333,0.961l1.475,9.179c0.101,0.634-0.33,1.229-0.963,1.332
						C2144.23,2528.952,2144.168,2528.958,2144.107,2528.958z M2573.678,2510.482c-0.591,0-1.097-0.449-1.155-1.051
						c-0.296-3.053-0.615-6.133-0.965-9.232c-0.073-0.638,0.387-1.213,1.024-1.282c0.646-0.093,1.214,0.387,1.285,1.024
						c0.35,3.106,0.672,6.198,0.968,9.265c0.063,0.641-0.406,1.206-1.044,1.269
						C2573.754,2510.479,2573.716,2510.482,2573.678,2510.482z M2139.187,2498.362c-0.56,0-1.054-0.406-1.146-0.978l-1.665-10.365
						l8.513-1.09c0.636-0.099,1.218,0.37,1.3,1.005c0.081,0.638-0.368,1.219-1.006,1.302l-6.131,0.786l1.285,7.993
						c0.101,0.634-0.331,1.229-0.963,1.332C2139.311,2498.356,2139.248,2498.362,2139.187,2498.362z M2166.552,2485.493
						c-0.577,0-1.076-0.429-1.152-1.014c-0.081-0.638,0.368-1.219,1.006-1.302l9.22-1.179c0.621-0.089,1.218,0.37,1.3,1.004
						c0.081,0.638-0.368,1.219-1.006,1.302l-9.22,1.179C2166.65,2485.49,2166.601,2485.493,2166.552,2485.493z M2197.29,2481.561
						c-0.577,0-1.075-0.429-1.152-1.014c-0.081-0.638,0.368-1.219,1.004-1.302l9.224-1.183c0.624-0.079,1.219,0.37,1.3,1.004
						c0.081,0.638-0.368,1.219-1.004,1.302l-9.223,1.183C2197.389,2481.558,2197.339,2481.561,2197.29,2481.561z M2569.888,2479.73
						c-0.565,0-1.061-0.413-1.146-0.988c-0.463-3.046-0.952-6.103-1.472-9.162c-0.109-0.631,0.317-1.232,0.95-1.341
						c0.633-0.109,1.233,0.317,1.34,0.951c0.524,3.073,1.016,6.142,1.48,9.202c0.096,0.635-0.342,1.229-0.976,1.325
						C2570.006,2479.724,2569.946,2479.73,2569.888,2479.73z M2228.028,2477.626c-0.577,0-1.075-0.429-1.151-1.014
						c-0.081-0.638,0.368-1.219,1.006-1.302l9.222-1.18c0.628-0.069,1.218,0.37,1.3,1.004c0.081,0.638-0.368,1.219-1.006,1.302
						l-9.222,1.18C2228.127,2477.623,2228.077,2477.626,2228.028,2477.626z M2258.767,2473.694c-0.577,0-1.075-0.429-1.152-1.014
						c-0.081-0.638,0.368-1.219,1.006-1.302l9.22-1.183c0.654-0.099,1.219,0.37,1.302,1.004c0.081,0.638-0.368,1.219-1.006,1.302
						l-9.222,1.183C2258.866,2473.691,2258.817,2473.694,2258.767,2473.694z M2289.505,2469.759c-0.577,0-1.075-0.43-1.151-1.014
						c-0.081-0.638,0.368-1.219,1.006-1.302l9.222-1.18c0.636-0.093,1.218,0.37,1.3,1.005c0.081,0.638-0.368,1.219-1.006,1.302
						l-9.222,1.179C2289.604,2469.756,2289.555,2469.759,2289.505,2469.759z M2320.245,2465.827c-0.576,0-1.075-0.43-1.152-1.014
						c-0.081-0.638,0.368-1.219,1.006-1.302l9.222-1.183c0.618-0.079,1.218,0.37,1.3,1.004c0.081,0.638-0.368,1.219-1.004,1.302
						l-9.222,1.183C2320.344,2465.823,2320.295,2465.827,2320.245,2465.827z M2350.983,2461.892c-0.577,0-1.075-0.429-1.151-1.014
						c-0.081-0.638,0.368-1.219,1.006-1.302l9.222-1.179c0.623-0.073,1.219,0.37,1.3,1.004c0.081,0.638-0.368,1.219-1.006,1.302
						l-9.222,1.18C2351.082,2461.888,2351.033,2461.892,2350.983,2461.892z M2381.723,2457.96c-0.576,0-1.075-0.429-1.151-1.014
						c-0.081-0.637,0.368-1.219,1.004-1.302l9.222-1.183c0.649-0.059,1.219,0.367,1.302,1.004c0.081,0.638-0.368,1.219-1.006,1.302
						l-9.222,1.183C2381.822,2457.957,2381.772,2457.96,2381.723,2457.96z M2412.461,2454.025c-0.576,0-1.075-0.429-1.151-1.014
						c-0.081-0.638,0.368-1.219,1.006-1.302l9.222-1.18c0.631-0.096,1.218,0.37,1.3,1.004c0.081,0.638-0.368,1.219-1.006,1.302
						l-9.222,1.179C2412.56,2454.021,2412.51,2454.025,2412.461,2454.025z M2443.201,2450.093c-0.576,0-1.075-0.43-1.151-1.014
						c-0.081-0.638,0.368-1.219,1.006-1.302l9.222-1.183c0.635-0.083,1.218,0.37,1.3,1.004c0.081,0.638-0.368,1.219-1.006,1.302
						l-9.22,1.183C2443.3,2450.089,2443.25,2450.093,2443.201,2450.093z M2564.275,2449.25c-0.533,0-1.014-0.37-1.133-0.915
						c-0.664-3.02-1.361-6.03-2.093-9.033c-0.154-0.621,0.229-1.252,0.852-1.404c0.611-0.158,1.252,0.228,1.404,0.856
						c0.739,3.017,1.439,6.047,2.106,9.086c0.137,0.625-0.259,1.246-0.885,1.385
						C2564.442,2449.24,2564.357,2449.25,2564.275,2449.25z M2473.939,2446.157c-0.576,0-1.075-0.429-1.151-1.014
						c-0.081-0.638,0.368-1.219,1.006-1.302l9.222-1.179c0.618-0.076,1.218,0.37,1.3,1.004c0.081,0.638-0.368,1.219-1.006,1.302
						l-9.222,1.18C2474.038,2446.154,2473.988,2446.157,2473.939,2446.157z M2504.679,2442.226c-0.577,0-1.076-0.429-1.152-1.014
						c-0.081-0.638,0.368-1.219,1.006-1.302l9.222-1.179c0.621-0.066,1.218,0.37,1.3,1.004c0.081,0.638-0.368,1.219-1.006,1.302
						l-9.222,1.18C2504.778,2442.222,2504.728,2442.226,2504.679,2442.226z M2535.417,2438.291c-0.577,0-1.075-0.43-1.152-1.014
						c-0.081-0.638,0.368-1.219,1.006-1.302l9.222-1.18c0.626-0.096,1.218,0.37,1.3,1.005c0.081,0.638-0.368,1.219-1.006,1.302
						l-9.222,1.179C2535.516,2438.287,2535.466,2438.291,2535.417,2438.291z"/>
					
						<linearGradient id="SVGID_00000067230211673129329790000008532416242603381911_" gradientUnits="userSpaceOnUse" x1="-121.5189" y1="3013.1462" x2="-124.1333" y2="2949.7461" gradientTransform="matrix(0.9919 -0.127 0.127 0.9919 1989.9969 -609.5969)">
						<stop  offset="0" style="stop-color:#CB236D"/>
						<stop  offset="1" style="stop-color:#4C246D"/>
					</linearGradient>
					<path style="fill:url(#SVGID_00000067230211673129329790000008532416242603381911_);" d="M2216.646,2369.147l-0.393-11.505
						c0.852-2.868,3.095-5.108,5.976-5.952c10.774-3.158,37.656-9.725,52.046-1.591l3.653,12.961L2216.646,2369.147z"/>
					
						<linearGradient id="SVGID_00000106862310573535133890000017398720690407318412_" gradientUnits="userSpaceOnUse" x1="-124.8261" y1="2917.9644" x2="-111.7554" y2="3099.6477" gradientTransform="matrix(0.9919 -0.127 0.127 0.9919 1989.9969 -609.5969)">
						<stop  offset="0" style="stop-color:#CB236D"/>
						<stop  offset="1" style="stop-color:#4C246D"/>
					</linearGradient>
					<path style="fill:url(#SVGID_00000106862310573535133890000017398720690407318412_);" d="M2249.602,2353.812
						c-2.454,0.942-4.99,1.265-7.612,0.965c-3.172-0.362-5.693-2.836-6.096-5.988l-4.555-35.601l18.117-2.318l4.553,35.574
						C2254.414,2349.61,2252.595,2352.663,2249.602,2353.812z"/>
					
						<linearGradient id="SVGID_00000074422956115846999390000013420558088829081021_" gradientUnits="userSpaceOnUse" x1="55.0925" y1="3005.875" x2="52.4781" y2="2942.4756" gradientTransform="matrix(0.9919 -0.127 0.127 0.9919 1989.9969 -609.5969)">
						<stop  offset="0" style="stop-color:#CB236D"/>
						<stop  offset="1" style="stop-color:#4C246D"/>
					</linearGradient>
					<path style="fill:url(#SVGID_00000074422956115846999390000013420558088829081021_);" d="M2392.126,2346.692l-0.393-11.505
						c0.852-2.868,3.095-5.108,5.977-5.952c10.774-3.158,37.656-9.726,52.045-1.592l3.653,12.961L2392.126,2346.692z"/>
					
						<linearGradient id="SVGID_00000056428042344109278820000000486062626235882880_" gradientUnits="userSpaceOnUse" x1="51.3105" y1="2905.3059" x2="64.3812" y2="3086.9883" gradientTransform="matrix(0.9919 -0.127 0.127 0.9919 1989.9969 -609.5969)">
						<stop  offset="0" style="stop-color:#CB236D"/>
						<stop  offset="1" style="stop-color:#4C246D"/>
					</linearGradient>
					<path style="fill:url(#SVGID_00000056428042344109278820000000486062626235882880_);" d="M2425.082,2331.357
						c-2.453,0.942-4.99,1.265-7.611,0.965c-3.172-0.362-5.693-2.836-6.096-5.989l-5.035-39.351l18.117-2.318l5.032,39.325
						C2429.894,2327.155,2428.076,2330.208,2425.082,2331.357z"/>
					
						<linearGradient id="SVGID_00000067944102609408031890000008181351829271919757_" gradientUnits="userSpaceOnUse" x1="-21.2375" y1="2816.8416" x2="-38.8801" y2="2946.22" gradientTransform="matrix(0.9919 -0.127 0.127 0.9919 1989.9969 -609.5969)">
						<stop  offset="0" style="stop-color:#CB236D"/>
						<stop  offset="1" style="stop-color:#4C246D"/>
					</linearGradient>
					<path style="fill:url(#SVGID_00000067944102609408031890000008181351829271919757_);" d="M2230.615,2322.15l194.016-31.382
						c4.423-0.715,7.782-4.402,7.987-8.858c0.287-6.236,0.06-15.488-2.555-24.774c-2.973-10.56-13.256-17.372-24.218-16.234
						c-36.459,3.786-128.987,15.653-177.405,42.353c-5.121,2.824-8.531,7.945-9.178,13.735c-0.618,5.522-0.568,12.784,2.065,19.844
						C2222.726,2320.585,2226.646,2322.792,2230.615,2322.15z"/>
					<g>
						<path style="fill:#FFFFFF;" d="M2225.833,2314.697c-1.409,0-2.683-0.968-3.015-2.399c-0.074-0.321-1.809-7.943-0.748-15.642
							c0.869-6.311,5.06-11.829,10.941-14.403c10.549-4.619,30.804-12.767,47.933-15.447c1.688-0.238,3.278,0.892,3.541,2.584
							c0.264,1.692-0.892,3.278-2.582,3.542c-17.052,2.666-38.134,11.376-46.406,14.997c-3.917,1.715-6.711,5.382-7.287,9.572
							c-0.905,6.578,0.631,13.329,0.646,13.395c0.386,1.668-0.651,3.334-2.318,3.72
							C2226.301,2314.671,2226.067,2314.697,2225.833,2314.697z"/>
					</g>
					
						<linearGradient id="SVGID_00000005247339443661428080000000520975483804993434_" gradientUnits="userSpaceOnUse" x1="-15.9259" y1="2917.6194" x2="-80.6204" y2="3521.4348" gradientTransform="matrix(0.9919 -0.127 0.127 0.9919 1989.9969 -609.5969)">
						<stop  offset="0" style="stop-color:#CB236D"/>
						<stop  offset="1" style="stop-color:#4C246D"/>
					</linearGradient>
					<path style="fill:url(#SVGID_00000005247339443661428080000000520975483804993434_);" d="M2125.68,2376.286
						c62.844-8.86,334.782-46.565,415.102-47.144c6.915-0.05,13.11,4.221,15.439,10.701c7.378,20.531,23.062,68.414,28.174,117.213
						c0.695,6.641-3.445,12.849-9.824,14.923l-176.184,57.262l-64.136,8.208l-197.278-13.624
						c-6.953-0.48-12.687-5.584-13.918-12.412c-4.382-24.319-13.687-81.506-11.798-119.323
						C2111.657,2384.053,2117.677,2377.414,2125.68,2376.286z"/>
					<path style="fill:#FFFFFF;" d="M2333.936,2522.849l-9.503-0.635c-0.639-0.046-1.123-0.598-1.079-1.239
						c0.046-0.641,0.623-1.07,1.241-1.08l9.275,0.641l4.963-0.657c0.624-0.069,1.219,0.37,1.3,1.005
						c0.081,0.638-0.368,1.219-1.006,1.302L2333.936,2522.849z M2302.874,2520.725c-0.028,0-0.054-0.003-0.083-0.003l-9.275-0.641
						c-0.639-0.046-1.123-0.598-1.079-1.239c0.045-0.644,0.648-1.094,1.239-1.081l9.276,0.641c0.639,0.046,1.123,0.598,1.079,1.239
						C2303.989,2520.255,2303.479,2520.725,2302.874,2520.725z M2360.494,2519.439c-0.577,0-1.075-0.429-1.152-1.014
						c-0.081-0.638,0.368-1.219,1.006-1.302l9.222-1.179c0.63-0.099,1.218,0.37,1.3,1.004c0.081,0.638-0.368,1.219-1.006,1.302
						l-9.222,1.18C2360.593,2519.436,2360.544,2519.439,2360.494,2519.439z M2271.959,2518.59c-0.028,0-0.055-0.003-0.081-0.003
						l-9.276-0.641c-0.639-0.046-1.124-0.598-1.079-1.239c0.044-0.644,0.595-1.044,1.241-1.081l9.273,0.641
						c0.641,0.046,1.125,0.598,1.08,1.239C2273.074,2518.121,2272.564,2518.59,2271.959,2518.59z M2241.042,2516.452
						c-0.028,0-0.055-0.003-0.081-0.003l-9.276-0.641c-0.639-0.046-1.124-0.598-1.079-1.239c0.046-0.641,0.656-1.064,1.239-1.081
						l9.276,0.641c0.639,0.046,1.124,0.598,1.079,1.239C2242.158,2515.983,2241.647,2516.452,2241.042,2516.452z M2391.232,2515.504
						c-0.577,0-1.075-0.429-1.151-1.014c-0.081-0.638,0.37-1.219,1.006-1.302l3.702-0.473l5.08-1.672
						c0.618-0.205,1.267,0.135,1.465,0.744c0.198,0.611-0.135,1.265-0.745,1.464l-5.293,1.721l-3.915,0.522
						C2391.331,2515.501,2391.282,2515.504,2391.232,2515.504z M2210.128,2514.318c-0.028,0-0.055-0.003-0.081-0.003l-9.276-0.641
						c-0.641-0.046-1.125-0.598-1.081-1.239c0.045-0.644,0.643-1.09,1.239-1.081l9.276,0.641c0.641,0.046,1.125,0.598,1.081,1.239
						C2211.243,2513.849,2210.732,2514.318,2210.128,2514.318z M2179.211,2512.184c-0.028,0-0.055-0.003-0.081-0.003l-9.276-0.641
						c-0.639-0.046-1.123-0.598-1.079-1.239c0.044-0.644,0.628-1.037,1.24-1.08l9.275,0.641c0.639,0.046,1.124,0.598,1.079,1.239
						C2180.326,2511.714,2179.816,2512.184,2179.211,2512.184z M2148.295,2510.049c-0.028,0-0.055-0.003-0.083-0.003l-9.275-0.641
						c-0.639-0.046-1.123-0.598-1.079-1.239c0.046-0.641,0.653-1.064,1.239-1.081l9.276,0.641c0.639,0.046,1.124,0.598,1.079,1.239
						C2149.41,2509.58,2148.899,2510.049,2148.295,2510.049z M2420.858,2506.606c-0.491,0-0.945-0.314-1.105-0.803
						c-0.198-0.611,0.135-1.265,0.745-1.464l8.842-2.875c0.62-0.201,1.265,0.135,1.465,0.744c0.198,0.611-0.135,1.265-0.747,1.464
						l-8.842,2.875C2421.098,2506.586,2420.977,2506.606,2420.858,2506.606z M2450.331,2497.028c-0.491,0-0.945-0.314-1.105-0.803
						c-0.198-0.611,0.135-1.265,0.747-1.464l8.842-2.875c0.61-0.198,1.264,0.135,1.464,0.744c0.198,0.611-0.135,1.265-0.747,1.464
						l-8.842,2.875C2450.571,2497.008,2450.45,2497.028,2450.331,2497.028z M2134.901,2488.556c-0.562,0-1.056-0.41-1.146-0.981
						c-0.463-2.937-0.935-6.017-1.409-9.208c-0.094-0.638,0.345-1.226,0.979-1.322c0.648-0.102,1.226,0.35,1.32,0.978
						c0.473,3.185,0.943,6.258,1.406,9.189c0.099,0.635-0.334,1.229-0.967,1.328
						C2135.022,2488.549,2134.962,2488.556,2134.901,2488.556z M2479.804,2487.449c-0.491,0-0.945-0.314-1.105-0.803
						c-0.198-0.611,0.135-1.265,0.747-1.464l8.842-2.875c0.61-0.205,1.264,0.135,1.464,0.744c0.198,0.611-0.135,1.265-0.747,1.464
						l-8.842,2.875C2480.043,2487.429,2479.923,2487.449,2479.804,2487.449z M2509.275,2477.87c-0.491,0-0.945-0.314-1.105-0.803
						c-0.198-0.611,0.135-1.265,0.747-1.464l8.842-2.875c0.611-0.202,1.266,0.135,1.464,0.743c0.198,0.611-0.135,1.265-0.747,1.464
						l-8.842,2.875C2509.514,2477.851,2509.394,2477.87,2509.275,2477.87z M2538.747,2468.292c-0.491,0-0.945-0.314-1.105-0.803
						c-0.198-0.611,0.135-1.265,0.747-1.464l8.842-2.875c0.611-0.202,1.264,0.135,1.464,0.743c0.198,0.611-0.135,1.265-0.745,1.464
						l-8.842,2.875C2538.987,2468.272,2538.866,2468.292,2538.747,2468.292z M2568.22,2458.713c-0.49,0-0.947-0.314-1.105-0.803
						c-0.142-0.436-0.011-0.899,0.298-1.196c-0.294-2.643-0.621-5.287-0.977-7.923c-0.086-0.638,0.36-1.223,0.996-1.309
						c0.641-0.083,1.222,0.36,1.307,0.998c0.395,2.927,0.755,5.865,1.074,8.802l0.102,0.938l-1.336,0.436
						C2568.459,2458.693,2568.339,2458.713,2568.22,2458.713z M2130.581,2457.844c-0.578,0-1.081-0.433-1.152-1.021
						c-0.373-3.056-0.732-6.146-1.069-9.255c-0.069-0.638,0.392-1.213,1.029-1.282c0.633-0.046,1.211,0.393,1.28,1.031
						c0.337,3.096,0.696,6.179,1.066,9.222c0.078,0.638-0.375,1.219-1.013,1.295
						C2130.675,2457.841,2130.629,2457.844,2130.581,2457.844z M2564.083,2428.385c-0.547,0-1.034-0.39-1.14-0.945
						c-0.583-3.063-1.194-6.099-1.827-9.093c-0.134-0.628,0.269-1.246,0.897-1.378c0.626-0.129,1.244,0.268,1.376,0.896
						c0.636,3.013,1.251,6.063,1.837,9.139c0.121,0.631-0.294,1.239-0.924,1.361
						C2564.229,2428.378,2564.156,2428.385,2564.083,2428.385z M2127.561,2426.99c-0.604,0-1.115-0.469-1.158-1.084
						c-0.217-3.139-0.398-6.251-0.54-9.314c-0.03-0.641,0.468-1.183,1.108-1.212c0.625-0.109,1.183,0.462,1.214,1.107
						c0.139,3.043,0.321,6.135,0.537,9.261c0.045,0.641-0.439,1.193-1.08,1.239
						C2127.616,2426.987,2127.589,2426.99,2127.561,2426.99z M2557.306,2398.136c-0.517,0-0.99-0.35-1.123-0.876
						c-0.787-3.066-1.58-6.06-2.374-8.97c-0.169-0.621,0.197-1.259,0.816-1.427c0.62-0.182,1.256,0.195,1.427,0.813
						c0.798,2.924,1.594,5.931,2.381,9.01c0.16,0.621-0.215,1.255-0.838,1.414C2557.5,2398.123,2557.402,2398.136,2557.306,2398.136
						z M2126.834,2396.008c-0.015,0-0.03,0-0.046-0.003c-0.641-0.023-1.14-0.565-1.115-1.206l0.087-1.982
						c0.055-1.11,0.853-1.992,1.943-2.148l5.733-0.806c0.656-0.103,1.222,0.35,1.313,0.988c0.089,0.638-0.355,1.223-0.99,1.312
						l-5.729,0.806l-0.035,1.923C2127.971,2395.515,2127.456,2396.008,2126.834,2396.008z M2155.094,2389.175
						c-0.572,0-1.069-0.423-1.15-1.005c-0.088-0.634,0.357-1.222,0.991-1.308l9.219-1.272c0.621-0.109,1.221,0.357,1.308,0.991
						c0.088,0.638-0.358,1.222-0.994,1.308l-9.212,1.272C2155.202,2389.172,2155.147,2389.175,2155.094,2389.175z
						 M2185.808,2384.956c-0.572,0-1.07-0.423-1.15-1.004c-0.088-0.638,0.358-1.223,0.994-1.309l9.215-1.255
						c0.624-0.083,1.221,0.357,1.308,0.998c0.086,0.634-0.359,1.219-0.995,1.308l-9.215,1.249
						C2185.913,2384.952,2185.861,2384.956,2185.808,2384.956z M2216.531,2380.809c-0.573,0-1.072-0.426-1.15-1.008
						c-0.086-0.638,0.36-1.223,0.996-1.308l9.222-1.232c0.624-0.083,1.219,0.363,1.305,0.998c0.086,0.638-0.362,1.222-0.998,1.308
						l-9.218,1.232C2216.635,2380.806,2216.582,2380.809,2216.531,2380.809z M2247.262,2376.729c-0.575,0-1.074-0.426-1.15-1.011
						c-0.084-0.638,0.364-1.219,1.001-1.305l9.219-1.209c0.657-0.083,1.221,0.364,1.303,1.001c0.084,0.638-0.363,1.219-0.999,1.305
						l-9.222,1.209C2247.363,2376.725,2247.314,2376.729,2247.262,2376.729z M2278.002,2372.727c-0.575,0-1.075-0.429-1.152-1.014
						c-0.081-0.638,0.368-1.219,1.004-1.302l9.227-1.183c0.656-0.083,1.218,0.373,1.299,1.008c0.081,0.638-0.372,1.219-1.008,1.298
						l-9.22,1.183C2278.101,2372.724,2278.052,2372.727,2278.002,2372.727z M2308.943,2368.795l-0.291-2.306l9.176-1.15
						c0.646-0.059,1.219,0.373,1.297,1.011c0.079,0.635-0.373,1.216-1.01,1.295L2308.943,2368.795z M2548.83,2368.319
						c-0.496,0-0.953-0.321-1.108-0.816c-0.986-3.156-1.94-6.109-2.842-8.842c-0.202-0.608,0.129-1.266,0.739-1.467
						c0.618-0.205,1.267,0.132,1.469,0.74c0.905,2.739,1.862,5.706,2.851,8.875c0.192,0.615-0.149,1.265-0.762,1.457
						C2549.061,2368.303,2548.944,2368.319,2548.83,2368.319z M2308.747,2367.649h0.03H2308.747z M2339.501,2364.999
						c-0.578,0-1.081-0.433-1.151-1.021c-0.078-0.638,0.375-1.219,1.013-1.295l9.23-1.124c0.664-0.086,1.218,0.374,1.293,1.014
						c0.078,0.635-0.377,1.216-1.013,1.292l-9.23,1.124C2339.596,2364.996,2339.549,2364.999,2339.501,2364.999z M2370.271,2361.305
						c-0.582,0-1.082-0.436-1.153-1.027c-0.074-0.638,0.382-1.216,1.019-1.289l9.235-1.081c0.629-0.102,1.216,0.383,1.289,1.018
						c0.074,0.638-0.383,1.216-1.021,1.289l-9.232,1.08C2370.362,2361.302,2370.317,2361.305,2370.271,2361.305z M2401.059,2357.756
						c-0.583,0-1.087-0.439-1.153-1.034c-0.071-0.638,0.386-1.212,1.026-1.285l9.24-1.031c0.662-0.063,1.212,0.39,1.283,1.027
						s-0.388,1.213-1.026,1.285l-9.24,1.031C2401.146,2357.753,2401.102,2357.756,2401.059,2357.756z M2431.868,2354.389
						c-0.586,0-1.09-0.443-1.155-1.041c-0.066-0.637,0.396-1.209,1.034-1.279l9.251-0.961c0.666-0.036,1.211,0.396,1.275,1.038
						c0.064,0.637-0.4,1.209-1.037,1.275l-9.245,0.962C2431.95,2354.386,2431.909,2354.389,2431.868,2354.389z M2462.703,2351.28
						c-0.591,0-1.099-0.453-1.155-1.054c-0.061-0.638,0.408-1.206,1.046-1.266c3.159-0.301,6.246-0.591,9.261-0.866
						c0.624-0.069,1.204,0.413,1.264,1.051c0.058,0.641-0.413,1.206-1.052,1.262c-3.012,0.274-6.096,0.565-9.251,0.866
						C2462.778,2351.277,2462.74,2351.28,2462.703,2351.28z M2493.572,2348.548c-0.6,0-1.108-0.462-1.156-1.07
						c-0.051-0.641,0.426-1.199,1.066-1.252c3.202-0.254,6.294-0.492,9.278-0.71c0.613-0.033,1.196,0.433,1.244,1.074
						c0.046,0.641-0.435,1.199-1.075,1.246c-2.977,0.218-6.066,0.456-9.261,0.71
						C2493.635,2348.544,2493.603,2348.548,2493.572,2348.548z M2524.495,2346.489c-0.616,0-1.13-0.486-1.16-1.107
						c-0.03-0.641,0.464-1.186,1.105-1.216c3.324-0.159,6.428-0.281,9.311-0.37c0.6-0.033,1.176,0.489,1.196,1.13
						c0.02,0.641-0.486,1.176-1.127,1.196c-2.87,0.083-5.961,0.205-9.268,0.363
						C2524.533,2346.489,2524.515,2346.489,2524.495,2346.489z"/>
					
						<linearGradient id="SVGID_00000094605336260047901310000010227497130392177296_" gradientUnits="userSpaceOnUse" x1="-11.2366" y1="2992.134" x2="-36.7232" y2="3194.0652" gradientTransform="matrix(0.9919 -0.127 0.127 0.9919 1989.9969 -609.5969)">
						<stop  offset="0" style="stop-color:#A737D5"/>
						<stop  offset="1" style="stop-color:#EF497A"/>
					</linearGradient>
					<path style="fill:url(#SVGID_00000094605336260047901310000010227497130392177296_);" d="M2395.792,2556.941l-56.188,7.19
						c-7.364,0.942-14.265-3.743-16.07-10.908l-13.411-53.238c-2.136-8.48,3.651-16.922,12.366-18.037l67.501-8.637
						c8.538-1.093,16.171,5.337,16.5,13.898l2.098,54.685C2408.878,2549.448,2403.325,2555.977,2395.792,2556.941z"/>
					<defs>
						
							<filter id="Adobe_OpacityMaskFilter_00000181081067171072172380000007143411732857262515_" filterUnits="userSpaceOnUse" x="2322.067" y="2484.137" width="75.289" height="69.308">
							<feFlood  style="flood-color:white;flood-opacity:1" result="back"/>
							<feBlend  in="SourceGraphic" in2="back" mode="normal"/>
						</filter>
					</defs>
					
						<mask maskUnits="userSpaceOnUse" x="2322.067" y="2484.137" width="75.289" height="69.308" id="SVGID_00000067942411617807090450000002295916082687690624_">
						<g style="filter:url(#Adobe_OpacityMaskFilter_00000181081067171072172380000007143411732857262515_);">
							<defs>
								
									<filter id="Adobe_OpacityMaskFilter_00000034807566529863059470000011767819802947374777_" filterUnits="userSpaceOnUse" x="2322.067" y="2484.137" width="75.289" height="69.308">
									<feFlood  style="flood-color:white;flood-opacity:1" result="back"/>
									<feBlend  in="SourceGraphic" in2="back" mode="normal"/>
								</filter>
							</defs>
							
								<mask maskUnits="userSpaceOnUse" x="2322.067" y="2484.137" width="75.289" height="69.308" id="SVGID_00000067942411617807090450000002295916082687690624_">
								<g style="filter:url(#Adobe_OpacityMaskFilter_00000034807566529863059470000011767819802947374777_);">
								</g>
							</mask>
							
								<linearGradient id="SVGID_00000102536404431432485040000000205617753155533460_" gradientUnits="userSpaceOnUse" x1="-65.8591" y1="3150.5654" x2="8.2526" y2="3150.5654" gradientTransform="matrix(0.9919 -0.127 0.127 0.9919 1989.9969 -609.5969)">
								<stop  offset="0" style="stop-color:#FFFFFF"/>
								<stop  offset="1" style="stop-color:#000000"/>
							</linearGradient>
							
								<path style="mask:url(#SVGID_00000067942411617807090450000002295916082687690624_);fill:url(#SVGID_00000102536404431432485040000000205617753155533460_);" d="
								M2387.609,2547.881l-42.765,5.472c-5.604,0.717-10.858-2.849-12.231-8.302l-10.207-40.52
								c-1.625-6.455,2.78-12.879,9.413-13.729l51.375-6.574c6.498-0.831,12.308,4.062,12.558,10.579l1.597,41.621
								C2397.568,2542.177,2393.342,2547.147,2387.609,2547.881z"/>
						</g>
					</mask>
					
						<linearGradient id="SVGID_00000087388252718014348850000013474301290774448297_" gradientUnits="userSpaceOnUse" x1="-65.8591" y1="3150.5654" x2="8.2526" y2="3150.5654" gradientTransform="matrix(0.9919 -0.127 0.127 0.9919 1989.9969 -609.5969)">
						<stop  offset="0" style="stop-color:#FFFFFF"/>
						<stop  offset="1" style="stop-color:#FFFFFF"/>
					</linearGradient>
					<path style="opacity:0.32;fill:url(#SVGID_00000087388252718014348850000013474301290774448297_);" d="M2387.609,2547.881
						l-42.765,5.472c-5.604,0.717-10.858-2.849-12.231-8.302l-10.207-40.52c-1.625-6.455,2.78-12.879,9.413-13.729l51.375-6.574
						c6.498-0.831,12.308,4.062,12.558,10.579l1.597,41.621C2397.568,2542.177,2393.342,2547.147,2387.609,2547.881z"/>
				</g>
				
					<linearGradient id="SVGID_00000162318569416812230690000006900852316081187970_" gradientUnits="userSpaceOnUse" x1="2404.7554" y1="2147.627" x2="2261.2073" y2="2423.6812">
					<stop  offset="0" style="stop-color:#F9B776"/>
					<stop  offset="1" style="stop-color:#F47960"/>
				</linearGradient>
				<path style="fill:url(#SVGID_00000162318569416812230690000006900852316081187970_);" d="M2354.188,2117.012
					c13.255,54.764,13.605,108.339,11.589,127.847c-0.76,7.355-6.672,13.097-14.047,13.614c-8.378,0.586-19.781,1.356-29.971,1.943
					c-11.201,0.646-23.633-6.434-31.947-12.351c-4.244-3.021-9.735,1.683-7.364,6.322c4.083,7.99,11.177,14.284,18.219,19.634
					c4.236,3.218,18.314,8.936,17.331,15.273c-0.31,1.999-1.515,3.74-2.81,5.294c-7.824,9.387-19.66,14.401-31.342,17.987
					c-1.466,0.45-3.013,0.929-4.045,2.063c-0.29,7.555,22.948,15.948,28.946,17.938c8.986,2.983,18.516,4.246,27.952,3.252
					c23.384-2.463,44.977-18.602,57.572-38.062c33.668-52.023,51.075-114.843,57.435-162.888
					C2420.385,2103.567,2373.102,2111.504,2354.188,2117.012z"/>
				<g>
					
						<linearGradient id="SVGID_00000041994309910676123600000004721283111167739558_" gradientUnits="userSpaceOnUse" x1="2207.8391" y1="1819.9835" x2="2908.3511" y2="2564.9309">
						<stop  offset="0" style="stop-color:#FDF53F"/>
						<stop  offset="0.294" style="stop-color:#F2BF4A"/>
						<stop  offset="1" style="stop-color:#D93C65"/>
					</linearGradient>
					<path style="fill:url(#SVGID_00000041994309910676123600000004721283111167739558_);" d="M2451.704,2139.823
						c24.978-188.68-120.426-333.762-120.426-333.762l-86.511,100.855c65.68,81.868,96.902,156.887,111.165,215.808
						C2374.844,2117.216,2420.385,2108.514,2451.704,2139.823z"/>
					
						<linearGradient id="SVGID_00000073682104434111249630000011509443186773678488_" gradientUnits="userSpaceOnUse" x1="2745.1335" y1="1503.155" x2="1835.8972" y2="2531.5068">
						<stop  offset="0" style="stop-color:#FDF53F"/>
						<stop  offset="0.294" style="stop-color:#F2BF4A"/>
						<stop  offset="1" style="stop-color:#D93C65"/>
					</linearGradient>
					<path style="fill:url(#SVGID_00000073682104434111249630000011509443186773678488_);" d="M2353.867,2121.801
						c-2.414,0-4.609-1.643-5.203-4.097c-17.579-72.634-54.636-144.54-110.133-213.716c-1.852-2.307-1.484-5.682,0.823-7.534
						c2.305-1.847,5.682-1.481,7.531,0.826c56.491,70.416,94.239,143.729,112.194,217.901c0.696,2.878-1.073,5.771-3.947,6.467
						C2354.709,2121.754,2354.285,2121.801,2353.867,2121.801z"/>
				</g>
			</g>
			<g>
				<g>
					
						<linearGradient id="SVGID_00000137820803506728389760000009758977661143580300_" gradientUnits="userSpaceOnUse" x1="-231.4175" y1="3196.3574" x2="-107.8841" y2="3196.3574" gradientTransform="matrix(1 0 0 1 1290.1023 0)">
						<stop  offset="0" style="stop-color:#2B3582"/>
						<stop  offset="1" style="stop-color:#150E42"/>
					</linearGradient>
					<path style="fill:url(#SVGID_00000137820803506728389760000009758977661143580300_);" d="M1182.216,3240.343
						c0.014-0.92-0.047-1.852-0.283-2.79c-13.913-55.162-82.97-89.519-82.97-89.519l-27.365,2.145
						c-15.734,48.619-13.712,78.436-11.185,91.717c0.07,0.373,0.184,0.727,0.282,1.086
						C1083.268,3245,1129.73,3246.317,1182.216,3240.343z"/>
					
						<linearGradient id="SVGID_00000027574097781485993010000007045614613258550424_" gradientUnits="userSpaceOnUse" x1="77.8422" y1="3050.6228" x2="-371.5765" y2="3403.5078" gradientTransform="matrix(1 0 0 1 1290.1023 0)">
						<stop  offset="0" style="stop-color:#53D8FF"/>
						<stop  offset="1" style="stop-color:#3840F7"/>
					</linearGradient>
					<path style="fill:url(#SVGID_00000027574097781485993010000007045614613258550424_);" d="M1060.695,3242.982
						c1.219,4.436,4.493,7.889,8.684,8.77c32.111,6.753,83.148,1.319,104.576-1.483c4.728-0.618,8.183-4.99,8.262-9.927
						C1129.73,3246.317,1083.268,3245,1060.695,3242.982z"/>
					
						<linearGradient id="SVGID_00000023993720583300663880000005130929256436962452_" gradientUnits="userSpaceOnUse" x1="-197.0641" y1="3055.7202" x2="-220.6611" y2="3261.6584" gradientTransform="matrix(1 0 0 1 1290.1023 0)">
						<stop  offset="0" style="stop-color:#C4421B"/>
						<stop  offset="1" style="stop-color:#5C0E16"/>
					</linearGradient>
					<path style="fill:url(#SVGID_00000023993720583300663880000005130929256436962452_);" d="M1060.595,3109.421l11.59,55.793
						c0.849,4.088,3.99,7.15,7.795,7.507c4.657,0.438,11.288,0.694,17.956-0.286c5.979-0.878,10.143-6.954,9.083-13.474
						l-8.056-49.54H1060.595z"/>
					
						<linearGradient id="SVGID_00000046336297789333833880000015245607273292901269_" gradientUnits="userSpaceOnUse" x1="157.6789" y1="3152.1531" x2="-291.7405" y2="3505.0383" gradientTransform="matrix(1 0 0 1 1290.1023 0)">
						<stop  offset="0" style="stop-color:#53D8FF"/>
						<stop  offset="1" style="stop-color:#3840F7"/>
					</linearGradient>
					<path style="fill:url(#SVGID_00000046336297789333833880000015245607273292901269_);" d="M1300.729,3242.277
						c-30.222-0.846-45.854-4.406-53.935-7.708c-0.019,3.005-0.002,6.063,0.096,9.232c0.104,3.384,2.61,6.087,5.694,6.068
						l165.939-1.072c5.296-0.034,8.39-6.175,6.095-11.032C1402.861,3239.563,1347.447,3243.584,1300.729,3242.277z"/>
					
						<linearGradient id="SVGID_00000120558343687755497320000001383566325452900742_" gradientUnits="userSpaceOnUse" x1="-43.309" y1="3199.4973" x2="134.5158" y2="3199.4973" gradientTransform="matrix(1 0 0 1 1290.1023 0)">
						<stop  offset="0" style="stop-color:#2B3582"/>
						<stop  offset="1" style="stop-color:#150E42"/>
					</linearGradient>
					<path style="fill:url(#SVGID_00000120558343687755497320000001383566325452900742_);" d="M1424.618,3237.765
						c-0.2-0.422-0.372-0.853-0.657-1.251c-14.655-20.477-51.979-61.251-125.734-78.937l-35.381-1.116
						c0,0-15.755,27.384-16.053,78.108c8.081,3.303,23.713,6.862,53.935,7.708
						C1347.447,3243.584,1402.861,3239.563,1424.618,3237.765z"/>
					
						<linearGradient id="SVGID_00000060749518071283656950000018028337002607852695_" gradientUnits="userSpaceOnUse" x1="98.8148" y1="3023.969" x2="75.2175" y2="3229.9106" gradientTransform="matrix(0.998 -0.0629 0.0629 0.998 993.2088 65.7657)">
						<stop  offset="0" style="stop-color:#C4421B"/>
						<stop  offset="1" style="stop-color:#5C0E16"/>
					</linearGradient>
					<path style="fill:url(#SVGID_00000060749518071283656950000018028337002607852695_);" d="M1254.709,3104.484
						c0.558,2.608,7.921,42.307,10.772,57.7c0.678,3.657,3.527,6.342,6.919,6.531c6.058,0.34,15.83,0.38,24.232-1.902
						c4.533-1.231,7.579-5.853,7.255-10.981l-3.959-62.795L1254.709,3104.484z"/>
					
						<linearGradient id="SVGID_00000101818649643648880970000002240964567881846943_" gradientUnits="userSpaceOnUse" x1="1086.5239" y1="3291.2163" x2="1261.224" y2="2012.722">
						<stop  offset="0" style="stop-color:#2B3582"/>
						<stop  offset="1" style="stop-color:#150E42"/>
					</linearGradient>
					<path style="fill:url(#SVGID_00000101818649643648880970000002240964567881846943_);" d="M1227.898,2371.472
						c0,0,48.672,334.45,83.796,732.44c0.655,7.413-5.253,13.863-12.533,15.396c-10.73,2.26-26.503,4.943-39.56,4.577
						c-6.97-0.195-12.797-5.364-13.97-12.239c-11.965-70.172-97.35-446.777-119.76-529.663c0,0-25.741,352.083-17.513,534.747
						c0.205,4.542-3.121,8.482-7.637,9.004c-6.851,0.792-17.811,1.393-31.76-0.088c-5.295-0.562-9.566-4.564-10.323-9.836
						c-8.523-59.388-57.581-412.889-55.495-667.539c0.118-14.36,16.849-132.349,16.849-132.349L1227.898,2371.472z"/>
				</g>
				
					<linearGradient id="SVGID_00000121240233961268023050000012415228282234870949_" gradientUnits="userSpaceOnUse" x1="409.6229" y1="1735.2349" x2="-288.535" y2="2656.0815" gradientTransform="matrix(0.991 -0.1339 0.1339 0.991 690.6002 157.8111)">
					<stop  offset="0" style="stop-color:#CB236D"/>
					<stop  offset="1" style="stop-color:#4C246D"/>
				</linearGradient>
				<path style="fill:url(#SVGID_00000121240233961268023050000012415228282234870949_);" d="M1012.677,2390.749
					c-5.004-1.778-8.493-6.315-9.037-11.598c-6.472-62.794-37.811-452.142,160.037-612.304c0,0,11.346-29.686,104.607,43.286
					c93.261,72.971,43.329,149.457,21.002,254.954c-27.019,127.659-74.425,232.008-53.45,310.567
					c1.447,5.421-1.403,11.114-6.668,13.054C1156.721,2415.408,1084.555,2416.291,1012.677,2390.749z"/>
				
					<linearGradient id="SVGID_00000139981817773126236750000013299108353326969501_" gradientUnits="userSpaceOnUse" x1="1164.6099" y1="1884.6707" x2="1291.6649" y2="1598.7969">
					<stop  offset="0" style="stop-color:#C4421B"/>
					<stop  offset="1" style="stop-color:#5C0E16"/>
				</linearGradient>
				<path style="fill:url(#SVGID_00000139981817773126236750000013299108353326969501_);" d="M1240.851,1650.19
					c-0.063,5.54-79.065,117.753-79.065,117.753s14.18,27.928,81.877,50.603l58.436-120.147L1240.851,1650.19z"/>
				<g>
					
						<linearGradient id="SVGID_00000014634114403078730100000009860066856354560957_" gradientUnits="userSpaceOnUse" x1="1263.3688" y1="1715.3411" x2="1255.4279" y2="1302.4119">
						<stop  offset="0" style="stop-color:#C4421B"/>
						<stop  offset="1" style="stop-color:#5C0E16"/>
					</linearGradient>
					<path style="fill:url(#SVGID_00000014634114403078730100000009860066856354560957_);" d="M1303.052,1585.889
						c0,0,28.11,64.575,29.999,98.468c1.888,33.893,9.191,55.885-29.999,62.711c-39.189,6.825-72.203-12.698-90.088-46.459
						c0,0-28.023-52.022-21.737-73.327C1197.513,1605.977,1303.052,1585.889,1303.052,1585.889z"/>
					
						<linearGradient id="SVGID_00000141434764173287502290000008731958955012165024_" gradientUnits="userSpaceOnUse" x1="1139.4446" y1="1485.2236" x2="1274.9448" y2="1643.9261">
						<stop  offset="0" style="stop-color:#2B3582"/>
						<stop  offset="1" style="stop-color:#150E42"/>
					</linearGradient>
					<path style="fill:url(#SVGID_00000141434764173287502290000008731958955012165024_);" d="M1226.355,1676.335l2.231-0.983
						c2.84-1.252,4.056-4.633,2.629-7.389c-5.526-10.678-16.3-35.146-2.382-40.854c17.936-7.356,88.983-21.844,104.312-47.054
						c14.733-24.228,1.679-55.504-17.938-64.4c-1.313-0.595-2.861-0.123-3.534,1.152l-1.635,3.093
						c-1.12,2.118-4.247,1.797-4.913-0.504l0,0c-0.639-2.209-3.577-2.637-4.796-0.687c-4.712,7.542-17.433,19.77-51.451,26.048
						c-48.348,8.923-80.311,28.488-81.107,61.897c-0.05,2.122-2.308,3.302-4.122,2.197c-3.569-2.175-9.282-3.196-16.916,3.224
						c-13.278,11.164-7.844,40.125,21.262,63.948c1.383,1.132,1.372,3.291-0.126,4.265c-5.277,3.435-13.143,11.608,7.239,22.503
						c21.082,11.27,36.825,10.345,42.887,9.345c1.508-0.249,2.48-1.709,2.151-3.201l-6.469-29.363
						c-0.367-1.662,0.899-3.236,2.6-3.236H1226.355z"/>
					
						<linearGradient id="SVGID_00000029030556649246560770000003336245560764881821_" gradientUnits="userSpaceOnUse" x1="1210.7423" y1="1716.353" x2="1202.8015" y2="1303.4249">
						<stop  offset="0" style="stop-color:#C4421B"/>
						<stop  offset="1" style="stop-color:#5C0E16"/>
					</linearGradient>
					<path style="fill:url(#SVGID_00000029030556649246560770000003336245560764881821_);" d="M1227.573,1682.531
						c0,0-10.724-41.25-29.218-29.684c-18.494,11.566,9.597,46.219,24.465,47.762L1227.573,1682.531z"/>
				</g>
				<g>
					
						<linearGradient id="SVGID_00000133523053976984183500000017873274394268871340_" gradientUnits="userSpaceOnUse" x1="1362.7732" y1="1882.957" x2="1247.6598" y2="2000.4196">
						<stop  offset="0" style="stop-color:#CB236D"/>
						<stop  offset="1" style="stop-color:#4C246D"/>
					</linearGradient>
					<path style="fill:url(#SVGID_00000133523053976984183500000017873274394268871340_);" d="M1298.284,1843.995l5.447,146.29
						c15.471,5.324,30.2,9.465,44.226,12.557c8.774-28.245,28.092-62.912,43.91-88.688
						C1333.748,1893.609,1298.284,1843.995,1298.284,1843.995z"/>
					
						<linearGradient id="SVGID_00000142144640000461922380000002157915949727113910_" gradientUnits="userSpaceOnUse" x1="1693.7086" y1="1829.2145" x2="1348.9543" y2="2000.7106">
						<stop  offset="0" style="stop-color:#C4421B"/>
						<stop  offset="1" style="stop-color:#5C0E16"/>
					</linearGradient>
					<path style="fill:url(#SVGID_00000142144640000461922380000002157915949727113910_);" d="M1588.454,1841.506
						c-79.726,86.079-144.256,91.146-196.586,72.647c-15.819,25.776-35.137,60.443-43.91,88.688
						C1560.864,2049.781,1611,1854.053,1611,1854.053L1588.454,1841.506z"/>
					
						<linearGradient id="SVGID_00000141425865320268693200000010428650331847941522_" gradientUnits="userSpaceOnUse" x1="1688.6616" y1="1786.2024" x2="1570.7375" y2="1909.3677">
						<stop  offset="0" style="stop-color:#C4421B"/>
						<stop  offset="1" style="stop-color:#5C0E16"/>
					</linearGradient>
					<path style="fill:url(#SVGID_00000141425865320268693200000010428650331847941522_);" d="M1604.623,1832.363
						c0,0,9.184-9.862,26.181-6.763c16.997,3.099,32.126,9.004,42.717,0c10.591-9.005,14.313,3.08,14.313,3.08l-31.712,24.107
						L1604.623,1832.363z"/>
					
						<linearGradient id="SVGID_00000160879056837649109950000016207212774467093943_" gradientUnits="userSpaceOnUse" x1="1695.3473" y1="1827.182" x2="1350.5941" y2="1998.6775">
						<stop  offset="0" style="stop-color:#C4421B"/>
						<stop  offset="1" style="stop-color:#5C0E16"/>
					</linearGradient>
					<path style="fill:url(#SVGID_00000160879056837649109950000016207212774467093943_);" d="M1585.655,1849.223
						c0,0,6.293-26.312,25.257-22.706c18.963,3.607,62.015,27.019,73.11,22.706s25.282-14.636,32.561-10.987l-12.821,15.94
						c0,0,32.959-19.014,38.633-7.331l-54.843,30.862C1687.552,1877.706,1607.315,1869.673,1585.655,1849.223z"/>
				</g>
				
					<linearGradient id="SVGID_00000076604764863590401860000010163232248311028415_" gradientUnits="userSpaceOnUse" x1="1839.4152" y1="2118.1638" x2="838.9094" y2="1937.2446">
					<stop  offset="0" style="stop-color:#C4421B"/>
					<stop  offset="1" style="stop-color:#5C0E16"/>
				</linearGradient>
				<path style="fill:url(#SVGID_00000076604764863590401860000010163232248311028415_);" d="M1209.782,2035.458
					c0,0,149.888,125.532,311.743,70.757c10.038-3.398,21.015-2.659,30.387,2.289l46.532,24.576
					c19.531,10.314,43.718,3.543,55.051-15.414c6.464-10.814,11.981-23.165,13.078-34.998l-91.05-36.859l6.713-11.165
					c0,0-44.454-3.766-56.09,28.094c0,0-84.673,35.219-227.468-121.844C1298.679,1940.893,1233.88,1995.991,1209.782,2035.458z"/>
				
					<linearGradient id="SVGID_00000030457333921652674790000007197208193792765085_" gradientUnits="userSpaceOnUse" x1="1484.2174" y1="1355.8245" x2="580.8925" y2="3060.9797">
					<stop  offset="0" style="stop-color:#CB236D"/>
					<stop  offset="1" style="stop-color:#4C246D"/>
				</linearGradient>
				<path style="fill:url(#SVGID_00000030457333921652674790000007197208193792765085_);" d="M1201.714,2034.159
					c-0.494,0-0.995-0.141-1.433-0.441c-63.112-42.641-92.801-111.466-93.095-112.158c-0.551-1.308,0.057-2.811,1.36-3.363
					c1.308-0.556,2.809,0.05,3.365,1.358c0.286,0.677,29.424,68.143,91.241,109.913c1.175,0.792,1.483,2.385,0.689,3.563
					C1203.347,2033.763,1202.538,2034.159,1201.714,2034.159z"/>
				
					<linearGradient id="SVGID_00000127029994183152421330000010118164662742102412_" gradientUnits="userSpaceOnUse" x1="1487.3691" y1="1357.4979" x2="584.0452" y2="3062.6516">
					<stop  offset="0" style="stop-color:#CB236D"/>
					<stop  offset="1" style="stop-color:#4C246D"/>
				</linearGradient>
				<path style="fill:url(#SVGID_00000127029994183152421330000010118164662742102412_);" d="M1295.721,1938.764
					c-0.842,0-1.669-0.417-2.159-1.178c-0.191-0.295-19.472-30.308-56.195-96.066c-11.293-20.22-26.134-33.025-44.112-38.057
					c-29.772-8.318-58.464,7.643-58.747,7.803c-1.235,0.682-2.796,0.271-3.498-0.962c-0.699-1.233-0.271-2.797,0.962-3.498
					c1.238-0.701,30.749-17.214,62.618-8.294c19.364,5.402,35.265,19.029,47.256,40.501c36.631,65.593,55.839,95.5,56.029,95.796
					c0.767,1.188,0.424,2.776-0.767,3.544C1296.677,1938.634,1296.197,1938.764,1295.721,1938.764z"/>
			</g>
		</g>
	</g>
</g>
</svg>
