<?xml version="1.0" encoding="utf-8"?>
<!-- Generator: Adobe Illustrator 27.5.0, SVG Export Plug-In . SVG Version: 6.00 Build 0)  -->
<svg version="1.1" xmlns="http://www.w3.org/2000/svg" xmlns:xlink="http://www.w3.org/1999/xlink" x="0px" y="0px"
	 viewBox="0 0 3710 3710" style="enable-background:new 0 0 3710 3710;" xml:space="preserve">
<g id="Background">
	<g>
		<g>
			<rect style="fill:#FFFFFF;" width="3710" height="3710"/>
		</g>
	</g>
</g>
<g id="Illustration">
	<g>
		<path style="fill:#F4F7FA;" d="M3221.442,1650.966c-76.318-499.541-389.224-1113.263-1007.405-1177.489
			c0,0-469.351-57.09-932.029,29.435c-274.599,51.352-515.383,204.217-667.741,423.922
			C461.909,1146.54,411.016,1414.44,472.781,1669.85c40.116,165.891,67.224,337.582,59.784,508.045
			c-12.948,296.675-5.498,573.599,282.418,750.527c257.076,157.978,580.61,297.308,889.266,321.712
			c209.76,16.585,444.993-10.253,647.163-64.864C3381.711,2906.954,3297.76,2150.507,3221.442,1650.966z"/>
		<g>
			<g>
				<path style="fill:#97A6B7;" d="M3053.145,1132.55L2030.952,535.746l-32.561-18.699l10.341-10.765l-56.842-16.154l-80.137,38.205
					L660.925,1133.172h-1.926v34.418v52.998v1419.587v83.282l67.06,8.042l27.524-8.62l-7.905-8.823l772.641-76.078l77.816-7.662
					l695.564-68.488l70.246-6.917l628.939-61.985l63.697-6.328v-70.319V1205.053v-45.219v-27.314L3053.145,1132.55z
					 M1951.926,575.191l963.453,557.56l-2068.532,2.592L1951.926,575.191z M745.295,2633.49V1220.508l773.214-4.956v1346.089
					L745.295,2633.49z M1597.901,2554.172V1215.073l693.821-4.628V2489.08L1597.901,2554.172z M2988.996,2423.803l-624.784,58.917
					V1210.076l624.784-4.139V2423.803z"/>
				<g>
					<polygon style="fill:#D8DEE8;" points="2087.515,552.551 2008.803,592.709 766.303,1226.362 730.862,1154.455 
						1929.255,546.574 2008.803,506.485 					"/>
					<polygon style="fill:#D8DEE8;" points="3103.737,1147.566 3074.496,1210.53 2008.803,592.709 1929.255,546.574 
						2008.803,506.485 2087.515,552.551 					"/>
					<polygon style="fill:#D8DEE8;" points="814.332,2721.678 731.488,2729.96 731.488,1182.842 814.332,1182.505 					"/>
					<polygon style="fill:#D8DEE8;" points="1656.583,2637.622 1577.191,2645.495 1577.191,1179.212 1656.583,1178.935 					"/>
					<polygon style="fill:#D8DEE8;" points="2412.537,2562.314 2343.5,2569.431 2343.5,1176.073 2412.537,1175.745 					"/>
					<polygon style="fill:#D8DEE8;" points="3102.906,2494.111 3044.225,2500.211 3044.225,1173.191 3102.906,1172.915 					"/>
					<polygon style="fill:#D8DEE8;" points="3102.906,2494.111 731.488,2729.96 731.488,2649.529 3102.906,2425.425 					"/>
					<polygon style="fill:#D8DEE8;" points="3102.906,1217.359 731.488,1234.886 731.488,1154.455 3102.906,1148.672 					"/>
				</g>
			</g>
			<g style="opacity:0.3;">
				
					<ellipse transform="matrix(0.7071 -0.7071 0.7071 0.7071 -620.1052 908.2309)" style="fill:#97A6B7;" cx="786.279" cy="1202.649" rx="23.713" ry="23.713"/>
				
					<ellipse transform="matrix(0.2298 -0.9732 0.9732 0.2298 79.8375 2506.1765)" style="fill:#97A6B7;" cx="1623.265" cy="1202.649" rx="23.713" ry="23.713"/>
				
					<ellipse transform="matrix(0.7071 -0.7071 0.7071 0.7071 -144.3675 2031.4001)" style="fill:#97A6B7;" cx="2379.933" cy="1189.967" rx="23.713" ry="23.713"/>
				
					<ellipse transform="matrix(0.7071 -0.7071 0.7071 0.7071 56.2076 2515.6313)" style="fill:#97A6B7;" cx="3064.74" cy="1189.967" rx="23.713" ry="23.713"/>
				
					<ellipse transform="matrix(0.7071 -0.7071 0.7071 0.7071 193.8022 1579.6542)" style="fill:#97A6B7;" cx="2003.712" cy="555.887" rx="23.713" ry="23.713"/>
				
					<ellipse transform="matrix(0.7071 -0.7071 0.7071 0.7071 -1364.3438 1909.886)" style="fill:#97A6B7;" cx="1623.265" cy="2601.852" rx="23.713" ry="23.713"/>
				
					<ellipse transform="matrix(0.2298 -0.9732 0.9732 0.2298 -2013.6984 2811.4663)" style="fill:#97A6B7;" cx="769.37" cy="2677.941" rx="23.713" ry="23.713"/>
				
					<ellipse transform="matrix(0.2298 -0.9732 0.9732 0.2298 -629.1722 4264.9854)" style="fill:#97A6B7;" cx="2379.933" cy="2529.989" rx="23.713" ry="23.713"/>
				
					<ellipse transform="matrix(0.7071 -0.7071 0.7071 0.7071 -844.2719 2890.1543)" style="fill:#97A6B7;" cx="3066.589" cy="2464.203" rx="21.336" ry="21.336"/>
			</g>
		</g>
		<g>
			<g>
				<linearGradient id="SVGID_1_" gradientUnits="userSpaceOnUse" x1="2452.3569" y1="1867.0671" x2="2726.4614" y2="1867.0671">
					<stop  offset="0.0036" style="stop-color:#E38DDD"/>
					<stop  offset="1" style="stop-color:#9571F6"/>
				</linearGradient>
				<path style="fill:url(#SVGID_1_);" d="M2628.708,2019.752c-47.171-14.649-82.573-47.259-108.775-84.055
					c-51.618-72.459-67.575-161.222-67.575-161.222l14.344-22.976l28.425-45.471c24.285,97.919,213.451,176.568,213.451,176.568
					C2720.872,1924.405,2768.829,2063.306,2628.708,2019.752z"/>
				
					<linearGradient id="SVGID_00000178205897430995179380000004370690141041690002_" gradientUnits="userSpaceOnUse" x1="2452.3569" y1="1865.5718" x2="2667.1311" y2="1865.5718">
					<stop  offset="0.0036" style="stop-color:#E38DDD"/>
					<stop  offset="1" style="stop-color:#9571F6"/>
				</linearGradient>
				<path style="opacity:0.3;fill:url(#SVGID_00000178205897430995179380000004370690141041690002_);" d="M2643.879,1979.644
					c0,0-65.745-8.241-123.947-43.946c-51.618-72.459-67.575-161.222-67.575-161.222l14.344-22.976
					c14.693,9.94,36.579,30.343,44.949,66.66c13.079,56.851,79.914,36.534,132.23,82.311
					C2696.196,1946.248,2643.879,1979.644,2643.879,1979.644z"/>
			</g>
			<g>
				
					<linearGradient id="SVGID_00000025405499736521269350000004145353188805020334_" gradientUnits="userSpaceOnUse" x1="3283.9426" y1="1926.9154" x2="3361.4712" y2="1926.9154" gradientTransform="matrix(-0.9182 -0.396 -0.396 0.9182 6105.7471 1215.8492)">
					<stop  offset="0" style="stop-color:#311944"/>
					<stop  offset="0.5554" style="stop-color:#6F2B60"/>
					<stop  offset="1" style="stop-color:#A03976"/>
				</linearGradient>
				<path style="fill:url(#SVGID_00000025405499736521269350000004145353188805020334_);" d="M2285.666,1628.661
					c0,0-66.393,58.083-32.036,72.902l56.045,24.172l13.377-91.563L2285.666,1628.661z"/>
				<polygon style="fill:#26264F;" points="2504.454,1705.288 2458.982,1937.316 2256.152,1849.835 2310.297,1621.549 				"/>
				
					<linearGradient id="SVGID_00000100374459696911036480000000706748211234873490_" gradientUnits="userSpaceOnUse" x1="3532.4541" y1="1757.9642" x2="3754.8091" y2="1757.9642" gradientTransform="matrix(-0.9182 -0.396 -0.396 0.9182 6105.7471 1215.8492)">
					<stop  offset="0" style="stop-color:#311944"/>
					<stop  offset="0.5554" style="stop-color:#6F2B60"/>
					<stop  offset="1" style="stop-color:#A03976"/>
				</linearGradient>
				<path style="fill:url(#SVGID_00000100374459696911036480000000706748211234873490_);" d="M2166.525,1430.161
					c4.529-10.502-0.312-22.687-10.814-27.217l-166.134-71.653c-10.502-4.529-22.687,0.312-27.217,10.814l-0.863,2.002
					c-4.529,10.502,0.312,22.687,10.814,27.217l166.134,71.653c10.502,4.529,22.687-0.312,27.217-10.814L2166.525,1430.161z"/>
				<path style="fill:#26264F;" d="M2207.04,1424.291c6.516-15.108-0.449-32.638-15.557-39.154l-1.334-0.575
					c-15.108-6.516-32.638,0.449-39.154,15.557l-19.568,45.37c-6.516,15.108,0.449,32.638,15.557,39.154l1.334,0.576
					c15.108,6.516,32.638-0.449,39.154-15.557L2207.04,1424.291z"/>
				<g>
					
						<linearGradient id="SVGID_00000088840570738465429540000010130810871767519416_" gradientUnits="userSpaceOnUse" x1="3474.853" y1="1644.7821" x2="3446.5571" y2="1898.561" gradientTransform="matrix(-0.9182 -0.396 -0.396 0.9182 6105.7471 1215.8492)">
						<stop  offset="0" style="stop-color:#FFC444"/>
						<stop  offset="0.9964" style="stop-color:#F36F56"/>
					</linearGradient>
					<path style="fill:url(#SVGID_00000088840570738465429540000010130810871767519416_);" d="M2140.24,1504.588
						c-7.199,15.888-2.281,34.639,11.776,44.728c27.987,20.086,56.236,39.899,84.742,59.439
						c32.416-79.095,64.833-158.191,97.246-237.29c-31.614-5.483-63.228-11.322-94.828-17.513
						c-16.542-3.241-33.131,5.408-40.144,20.888C2179.437,1418.091,2159.837,1461.338,2140.24,1504.588z"/>
					
						<linearGradient id="SVGID_00000115517268965526079240000004980703361446943638_" gradientUnits="userSpaceOnUse" x1="3474.853" y1="1644.7821" x2="3446.5571" y2="1898.561" gradientTransform="matrix(-0.9182 -0.396 -0.396 0.9182 6105.7471 1215.8492)">
						<stop  offset="0" style="stop-color:#FFC444"/>
						<stop  offset="0.9964" style="stop-color:#F36F56"/>
					</linearGradient>
					<path style="opacity:0.3;fill:url(#SVGID_00000115517268965526079240000004980703361446943638_);" d="M2140.24,1504.588
						c-7.199,15.888-2.281,34.639,11.776,44.728c27.987,20.086,56.236,39.899,84.742,59.439
						c32.416-79.095,64.833-158.191,97.246-237.29c-31.614-5.483-63.228-11.322-94.828-17.513
						c-16.542-3.241-33.131,5.408-40.144,20.888C2179.437,1418.091,2159.837,1461.338,2140.24,1504.588z"/>
				</g>
				
					<linearGradient id="SVGID_00000156562424607881077360000009411563216754373765_" gradientUnits="userSpaceOnUse" x1="3221.24" y1="1615.7745" x2="3189.1946" y2="1903.1814" gradientTransform="matrix(-0.9182 -0.396 -0.396 0.9182 6105.7471 1215.8492)">
					<stop  offset="0" style="stop-color:#FFC444"/>
					<stop  offset="0.9964" style="stop-color:#F36F56"/>
				</linearGradient>
				<path style="fill:url(#SVGID_00000156562424607881077360000009411563216754373765_);" d="M2334.535,1370.868l-101.868,236.191
					l272.22,117.407c55.283,23.843,119.401-1.631,143.245-56.916l15.539-36.029c23.844-55.285-1.634-119.402-56.917-143.245
					L2334.535,1370.868z"/>
				
					<linearGradient id="SVGID_00000004521503350468673870000006289425722313619864_" gradientUnits="userSpaceOnUse" x1="3071.1772" y1="1632.1033" x2="3042.771" y2="1886.8721" gradientTransform="matrix(-0.9182 -0.396 -0.396 0.9182 6105.7471 1215.8492)">
					<stop  offset="0" style="stop-color:#FFC444"/>
					<stop  offset="0.9964" style="stop-color:#F36F56"/>
				</linearGradient>
				<path style="opacity:0.3;fill:url(#SVGID_00000004521503350468673870000006289425722313619864_);" d="M2606.755,1488.276
					l-101.868,236.191c56.045,24.172,119.401-1.631,143.245-56.916l15.539-36.029
					C2687.515,1576.236,2662.8,1512.448,2606.755,1488.276z"/>
				
					<linearGradient id="SVGID_00000031914171613874056010000005761264730458481324_" gradientUnits="userSpaceOnUse" x1="3254.3838" y1="1670.9102" x2="3248.0952" y2="1727.3121" gradientTransform="matrix(-0.9182 -0.396 -0.396 0.9182 6105.7471 1215.8492)">
					<stop  offset="0" style="stop-color:#FFC444"/>
					<stop  offset="0.9964" style="stop-color:#F36F56"/>
				</linearGradient>
				<path style="fill:url(#SVGID_00000031914171613874056010000005761264730458481324_);" d="M2537.9,1526.83
					c4.172-9.673-0.288-20.896-9.96-25.068l-145.117-62.589c-9.673-4.172-20.896,0.288-25.068,9.96l-0.431,1.001
					c-4.172,9.673,0.288,20.896,9.96,25.068l145.117,62.588c9.673,4.172,20.896-0.288,25.068-9.96L2537.9,1526.83z"/>
				
					<linearGradient id="SVGID_00000179609731211445791720000007324750187421412268_" gradientUnits="userSpaceOnUse" x1="3017.991" y1="2132.9224" x2="3358.0632" y2="2132.9224" gradientTransform="matrix(-0.9182 -0.396 -0.396 0.9182 6105.7471 1215.8492)">
					<stop  offset="0" style="stop-color:#FFC444"/>
					<stop  offset="0.9964" style="stop-color:#F36F56"/>
				</linearGradient>
				<path style="fill:url(#SVGID_00000179609731211445791720000007324750187421412268_);" d="M2489.99,1979.176
					c9.536-22.109-0.657-47.762-22.767-57.298l-232.188-100.142c-22.109-9.536-47.762,0.657-57.298,22.767l0,0
					c-9.536,22.109,0.657,47.763,22.767,57.298l232.188,100.141C2454.801,2011.478,2480.454,2001.286,2489.99,1979.176
					L2489.99,1979.176z"/>
			</g>
			<g>
				
					<linearGradient id="SVGID_00000078041629340040552930000018162708924420126648_" gradientUnits="userSpaceOnUse" x1="3406.53" y1="3679.2617" x2="3454.3269" y2="3679.2617" gradientTransform="matrix(-0.9858 -0.1678 -0.1678 0.9858 6596.02 -81.3323)">
					<stop  offset="0.0036" style="stop-color:#F36F56"/>
					<stop  offset="1" style="stop-color:#FFC444"/>
				</linearGradient>
				<path style="fill:url(#SVGID_00000078041629340040552930000018162708924420126648_);" d="M2613.054,2941.767l3.473,55.541
					c0,0-7.886,8.354-23.059,2.539l-16.573-54.539L2613.054,2941.767z"/>
				
					<linearGradient id="SVGID_00000020358252283563763740000013551955621949084592_" gradientUnits="userSpaceOnUse" x1="3498.9023" y1="3482.322" x2="3373.5676" y2="3922.0569" gradientTransform="matrix(-0.9858 -0.1678 -0.1678 0.9858 6596.02 -81.3323)">
					<stop  offset="0" style="stop-color:#444B8C"/>
					<stop  offset="0.9964" style="stop-color:#26264F"/>
				</linearGradient>
				<path style="fill:url(#SVGID_00000020358252283563763740000013551955621949084592_);" d="M2606.101,2982.604
					c0,0,27.201,11.095,21.921,23.126c-2.835,6.46-12.646,21.052-21.126,33.181c-7.847,11.225-22.022,16.193-35.143,12.262
					c-4.403-1.319-8.906-2.609-12.893-3.637c-8.245-2.126-8.728-13.653-0.698-16.484c3.894-1.372,7.751-2.483,11.11-3.001
					c9.958-1.537,23.661-25.063,25.265-34.487C2596.142,2984.14,2606.101,2982.604,2606.101,2982.604z"/>
				
					<linearGradient id="SVGID_00000129166192316504773710000017669425379998241459_" gradientUnits="userSpaceOnUse" x1="4127.0776" y1="2561.5413" x2="3721.7908" y2="2894.4561" gradientTransform="matrix(-1 0 0 1 6597 0)">
					<stop  offset="0.0036" style="stop-color:#26264F"/>
					<stop  offset="1" style="stop-color:#444B8C"/>
				</linearGradient>
				<path style="fill:url(#SVGID_00000129166192316504773710000017669425379998241459_);" d="M2671.485,2408.685
					c-40.067,13.826-188.231,69.833-221.233,198.295c-1.762,6.858-6.281,25.929-6.485,57.078
					c-0.852,129.663,74.549,239.4,129.385,303.238c17.288-0.288,34.576-0.578,51.864-0.867c8.628-33.093,16.557-82.59,4.149-138.284
					c-18.965-85.121-68.165-107.199-58.677-148.979c17.229-75.87,193.401-64.391,210.002-132.329
					C2786.487,2522.298,2773.31,2480.652,2671.485,2408.685z"/>
				
					<linearGradient id="SVGID_00000010989183452295929340000001995130308370236068_" gradientUnits="userSpaceOnUse" x1="3857.9429" y1="2292.0913" x2="3747.0295" y2="2681.2288" gradientTransform="matrix(-0.9956 0.0937 0.0937 0.9956 6576.9712 69.0563)">
					<stop  offset="0" style="stop-color:#444B8C"/>
					<stop  offset="0.9964" style="stop-color:#26264F"/>
				</linearGradient>
				<path style="fill:url(#SVGID_00000010989183452295929340000001995130308370236068_);" d="M3167.052,3184.96l-75.232-1.754
					c-4.636-0.107-6.626-5.887-3.076-8.871c3.5-2.94,8.336-5.346,14.519-4.703c14.301,1.487,46.403-18.526,60.968-14.233
					c4.758,1.403,8.624,12.596,10.605,15.69C3178.725,3177.167,3174.265,3185.129,3167.052,3184.96z"/>
				
					<linearGradient id="SVGID_00000124141977306064026890000006716396223269005228_" gradientUnits="userSpaceOnUse" x1="3686.9189" y1="2739.4124" x2="3743.3123" y2="2739.4124" gradientTransform="matrix(-0.9956 0.0937 0.0937 0.9956 6576.9712 69.0563)">
					<stop  offset="0.0036" style="stop-color:#F36F56"/>
					<stop  offset="1" style="stop-color:#FFC444"/>
				</linearGradient>
				<path style="fill:url(#SVGID_00000124141977306064026890000006716396223269005228_);" d="M3133.251,3127.162l30.979,28.239
					c0,0-10.815,8.081-26.594,4.617l-31.664-21.793L3133.251,3127.162z"/>
				<g>
					
						<linearGradient id="SVGID_00000147194709044554044380000001889316813598385083_" gradientUnits="userSpaceOnUse" x1="3759.8628" y1="3609.5779" x2="3294.6238" y2="3358.9009" gradientTransform="matrix(-0.9858 -0.1678 -0.1678 0.9858 6596.02 -81.3323)">
						<stop  offset="0.0036" style="stop-color:#26264F"/>
						<stop  offset="1" style="stop-color:#444B8C"/>
					</linearGradient>
					<path style="fill:url(#SVGID_00000147194709044554044380000001889316813598385083_);" d="M2538.571,2743.228
						c-20.78-56.102-45.697-125.275-17.239-164.55c28.8-39.747,91.897-6.198,155.194-38.225c23.479-11.88,47.607-33.14,67.68-71.616
						c35.534,36.686,40.362,61.307,36.282,78.002c-16.6,67.938-192.773,56.458-210.002,132.329
						c-9.488,41.779,39.712,63.857,58.677,148.979c10.668,47.88,6.295,91.149-0.62,123.383
						c-6.166-29.935-15.745-61.374-30.393-93.107C2575.445,2809.229,2560.462,2802.329,2538.571,2743.228z"/>
				</g>
				
					<linearGradient id="SVGID_00000074422174564411195300000004421427389574150531_" gradientUnits="userSpaceOnUse" x1="2823.0754" y1="3723.6494" x2="2373.8816" y2="4190.1196" gradientTransform="matrix(-0.9542 -0.2992 -0.2992 0.9542 6611.04 -148.0025)">
					<stop  offset="0.0036" style="stop-color:#26264F"/>
					<stop  offset="1" style="stop-color:#444B8C"/>
				</linearGradient>
				<path style="fill:url(#SVGID_00000074422174564411195300000004421427389574150531_);" d="M2648.532,2392.484
					c24.389,111.961,76.352,282.922,195.406,461.375c88.138,132.111,184.965,226.237,260.912,289.124
					c5.402,1.615,14.612,3.598,25.902,2.213c8.39-1.03,15.044-3.566,19.518-5.7c-5.232-31.563-16.265-78.191-42.43-128.552
					c-47.879-92.156-90.514-89.196-138.604-170.531c-35.212-59.555-46.662-122.821-69.561-249.352
					c-17.682-97.704-17.694-121.057-41.905-149.073C2808.817,2385.345,2716.899,2384.705,2648.532,2392.484z"/>
				<g>
					
						<linearGradient id="SVGID_00000021087565178184085810000013226183514282730938_" gradientUnits="userSpaceOnUse" x1="2789.2878" y1="3710.5208" x2="2349.4233" y2="4167.3027" gradientTransform="matrix(-0.9542 -0.2992 -0.2992 0.9542 6611.04 -148.0025)">
						<stop  offset="0.0036" style="stop-color:#26264F"/>
						<stop  offset="1" style="stop-color:#444B8C"/>
					</linearGradient>
					<path style="fill:url(#SVGID_00000021087565178184085810000013226183514282730938_);" d="M3089.484,3031.782
						c-17.088-26.967-47.405-55.051-107.208-110.45c-61.805-57.252-59.429-46.902-71.594-63.82
						c-54.465-75.748-24.973-156.688-38.438-254.368c-7.513-54.497-31.576-125.712-101.635-205.482
						c32.834,6.054,64.271,19.074,87.16,44.325c28.104,31.006,26.033,61.367,41.905,149.073
						c22.899,126.531,34.348,189.797,69.561,249.352c48.09,81.335,90.724,78.375,138.604,170.531
						c26.165,50.361,37.198,96.989,42.43,128.552c-4.474,2.135-11.128,4.67-19.518,5.7c-6.653,0.816-12.555,0.451-17.41-0.307
						C3117.29,3080.852,3098.152,3045.462,3089.484,3031.782z"/>
				</g>
				
					<linearGradient id="SVGID_00000029039337019547565010000002488658960657032351_" gradientUnits="userSpaceOnUse" x1="-4225.355" y1="2110.4048" x2="-4235.2397" y2="1991.7882" gradientTransform="matrix(0.9986 0.0537 -0.0537 0.9986 7101.5518 -55.8024)">
					<stop  offset="0" style="stop-color:#444B8C"/>
					<stop  offset="0.9964" style="stop-color:#26264F"/>
				</linearGradient>
				<path style="fill:url(#SVGID_00000029039337019547565010000002488658960657032351_);" d="M2740.399,1806.826
					c-8.214-16.177-11.601-16.083-13.619-24.621c-4.598-19.459,7.271-44.173,17.337-44.516c6.489-0.221,7.026,9.866,20.762,25.589
					c16.828,19.259,27.04,16.732,36.943,33.452c2.317,3.91,12.741,21.514,6.331,34.652c-8.182,16.767-40.442,19.423-53.926,6.489
					C2747.831,1831.736,2750.518,1826.756,2740.399,1806.826z"/>
				
					<linearGradient id="SVGID_00000003071641690560827260000016576101714049271456_" gradientUnits="userSpaceOnUse" x1="3847.6667" y1="1714.4385" x2="3880.2346" y2="2202.9539" gradientTransform="matrix(-1 0 0 1 6597 0)">
					<stop  offset="0.0036" style="stop-color:#F36F56"/>
					<stop  offset="1" style="stop-color:#FFC444"/>
				</linearGradient>
				<path style="fill:url(#SVGID_00000003071641690560827260000016576101714049271456_);" d="M2764.582,1824.283
					c0,0-5.761,30.747-1.661,55.746c3.708,22.593,45.562,46.064,53.584,52.795c8.021,6.73-21.277,14.033-48.155,10.515
					c-26.876-3.516-100.466-27.065-111.648-40.189c-11.184-13.124,13.021-6.657,33.376-9.143
					c20.356-2.485,39.788-36.599,40.381-54.011C2731.053,1822.583,2764.582,1824.283,2764.582,1824.283z"/>
				<g>
					
						<linearGradient id="SVGID_00000127004526063230395600000000763458781943560068_" gradientUnits="userSpaceOnUse" x1="6578.2578" y1="3173.7124" x2="6671.4839" y2="3271.9775" gradientTransform="matrix(-0.966 -0.2584 -0.2584 0.966 10008.835 402.9503)">
						<stop  offset="0.0036" style="stop-color:#F36F56"/>
						<stop  offset="1" style="stop-color:#FFC444"/>
					</linearGradient>
					<path style="fill:url(#SVGID_00000127004526063230395600000000763458781943560068_);" d="M2755.817,1847.229
						c0,0-20.575,9.035-38.799-5.538c-16.317-13.049,7.945-53.132,24.543-53.644c5.537-0.171,13.62,3.797,18.392,9.601
						c2.818,3.429,2.986,5.713,7.701,11.226c4.346,5.083,6.259,5.541,6.918,8.01c0.828,3.087-0.593,8.248-11.765,17.119
						c5.567-1.027,10.367,0.441,12.226,3.686c0.296,0.518,0.913,2.136,0.729,3.806
						C2775.094,1847.543,2767.193,1850.344,2755.817,1847.229z"/>
				</g>
				
					<linearGradient id="SVGID_00000122699890062030220540000015510713687119917475_" gradientUnits="userSpaceOnUse" x1="-4626.7246" y1="1741.8535" x2="-4607.1982" y2="1804.2111" gradientTransform="matrix(1 0 0 1 6915.9722 0)">
					<stop  offset="0.0036" style="stop-color:#F36F56"/>
					<stop  offset="1" style="stop-color:#FFC444"/>
				</linearGradient>
				<path style="fill:url(#SVGID_00000122699890062030220540000015510713687119917475_);" d="M2303.641,1740.286
					c0,0-12.46-1.737-8.576-25.535c3.046-18.655,0.74-24.928-3.665-21.622c-4.403,3.307-5.025,14.087-5.025,14.087
					s-16.062-13.699-22.677-31.651c-6.613-17.951-10.865-2.835-12.282,6.141c-1.418,8.975,9.447,36.847,15.59,42.045
					c6.141,5.196,15.116,28.099,15.116,28.099L2303.641,1740.286z"/>
				
					<linearGradient id="SVGID_00000070118323911326544420000018227550825783964329_" gradientUnits="userSpaceOnUse" x1="2270.4392" y1="2099.6262" x2="2919.9612" y2="2099.6262">
					<stop  offset="0.0036" style="stop-color:#E38DDD"/>
					<stop  offset="1" style="stop-color:#9571F6"/>
				</linearGradient>
				<path style="fill:url(#SVGID_00000070118323911326544420000018227550825783964329_);" d="M2270.439,1746.662
					c14.174-9.928,28.35-19.852,42.525-29.781c17.247,106.023,56.451,147.632,89.749,165.834
					c80.33,43.908,152.024-34.338,305.782-2.406c42.371,8.798,116.225,25.189,157.177,85.55
					c10.765,15.866,14.594,27.88,32.469,141.701c22.849,145.494,23.661,170.886,20.44,202.213
					c-5.896,57.331-9.469,92.074-35.904,122.824c-70.193,81.658-219.387,39.554-238.093,34.014
					c-34.556-10.234-88.261-26.144-109.599-71.806c-10.041-21.483-8.974-41.125,6.458-119.692
					c30.565-155.636,34.47-165.708,25.938-182.751c-28.793-57.515-120.025-24.605-197.093-78.091
					C2325.227,1982.998,2274.435,1914.85,2270.439,1746.662z"/>
				
					<linearGradient id="SVGID_00000157309423008969742050000008869349834106664089_" gradientUnits="userSpaceOnUse" x1="2307.3086" y1="2209.5762" x2="2758.2471" y2="2209.5762">
					<stop  offset="0.0036" style="stop-color:#E38DDD"/>
					<stop  offset="1" style="stop-color:#9571F6"/>
				</linearGradient>
				<path style="opacity:0.3;fill:url(#SVGID_00000157309423008969742050000008869349834106664089_);" d="M2714.502,2445.825
					c-15.044-30.854,5.174-59.287-17.005-96.37c-28.267-47.263-79.125-31.216-98.261-66.138
					c-32.728-59.722,96.092-143.014,69.917-238.093c-12.498-45.396-56.137-78.254-92.592-90.702
					c-80.934-27.636-133.873,42.812-209.75,20.785c-17.983-5.221-38.625-16.039-59.501-38.486
					c18.452,38.93,41.369,62.45,62.981,77.449c77.069,53.486,168.3,20.576,197.093,78.091c8.532,17.043,4.627,27.115-25.938,182.751
					c-15.432,78.567-16.499,98.209-6.458,119.692c21.338,45.662,75.043,61.572,109.599,71.806
					c10.239,3.034,59.584,16.981,113.661,15.629C2734.121,2472.438,2721.138,2459.437,2714.502,2445.825z"/>
				
					<linearGradient id="SVGID_00000178199428592202445550000016443661503051329958_" gradientUnits="userSpaceOnUse" x1="2521.6077" y1="2180.5313" x2="2915.554" y2="2180.5313">
					<stop  offset="0.0036" style="stop-color:#26264F"/>
					<stop  offset="1" style="stop-color:#444B8C"/>
				</linearGradient>
				<path style="fill:url(#SVGID_00000178199428592202445550000016443661503051329958_);" d="M2617.176,2468.836
					c0,0-134.464-40.968-84.398-259.26c34.606-117.215,19.623-109.95,19.623-109.95s185.646,35.681,215.583,0
					c29.938-35.681-75.057-199.563-114.113-226.614c0,0,30.593-10.671,54.624,7.297c24.031,17.968,119.945,208.341,147.556,209.795
					c27.611,1.453-12.258-137.92-29.381-164.147c0,0,35.525,19.298,52.798,75.01c17.273,55.712,58.921,398.675,19.932,440.819
					c-38.99,42.144-128.792,49.41-128.792,49.41L2617.176,2468.836z"/>
			</g>
		</g>
		<g>
			<g>
				<g>
					<g>
						<g>
							<g>
								<defs>
									<path id="SVGID_00000059300909694759520880000006582845089484280997_" d="M1165.864,2651.356
										c19.037,23.402,37.317,40.5,56.979,62.496c-121.571,37.046-231.976,95.046-355.163,132.829
										c26.922-163.917,77.99-250.451-33.682-407.382c-52.406-73.645-177.27-203.436-173.955-295.398
										c3.776-104.771,77.365-105.799,29.842-180.776c-74.277-117.188-62.833-274.461,129.897-285.732
										c190.216-11.123,356.058,454.845,305.76,617.446C1110.465,2441.779,1066.456,2529.16,1165.864,2651.356z"/>
								</defs>
								
									<linearGradient id="SVGID_00000031919162868330401580000004778428224363781810_" gradientUnits="userSpaceOnUse" x1="936.2881" y1="2241.3667" x2="870.7053" y2="3874.9473">
									<stop  offset="0.0036" style="stop-color:#E38DDD"/>
									<stop  offset="1" style="stop-color:#9571F6"/>
								</linearGradient>
								
									<use xlink:href="#SVGID_00000059300909694759520880000006582845089484280997_"  style="overflow:visible;fill:url(#SVGID_00000031919162868330401580000004778428224363781810_);"/>
								<clipPath id="SVGID_00000128480513088779825720000001894393692164565432_">
									<use xlink:href="#SVGID_00000059300909694759520880000006582845089484280997_"  style="overflow:visible;"/>
								</clipPath>
								<g style="opacity:0.7;clip-path:url(#SVGID_00000128480513088779825720000001894393692164565432_);">
									<g>
										<path style="fill:#FCFDFE;" d="M1031.298,2768.917l2.708-0.414c-7.096-46.327-10.636-93.776-14.059-139.662l-1.306-17.434
											c-2.798-36.909-5.958-69.871-8.748-98.954c-1.561-16.291-3.047-31.773-4.36-46.752
											c-4.016-45.827-6.741-77.903-8.094-93.849l-0.9-10.532c-11.055-125.656-72.303-292.333-105.209-381.88
											c-3.561-9.69-6.744-18.353-9.436-25.81c-46.26-128.188-79.044-267.109-97.441-412.903l-2.72,0.343
											c18.422,145.995,51.254,285.113,97.584,413.49c2.692,7.462,5.877,16.13,9.441,25.825
											c32.861,89.427,94.029,255.881,105.052,381.175l0.899,10.524c1.354,15.948,4.079,48.027,8.095,93.857
											c1.314,14.985,2.799,30.475,4.362,46.773c2.787,29.071,5.947,62.018,8.742,98.901l1.307,17.428
											C1020.643,2674.982,1024.186,2722.486,1031.298,2768.917z"/>
										<path style="fill:#FCFDFE;" d="M1012.714,2536.454l2.713-0.371c-11.254-82.692-57.787-175.287-134.569-267.777
											c-63.952-77.036-147.138-151.228-228.231-203.552l-1.485,2.3C808.32,2168.474,988.51,2358.625,1012.714,2536.454z"/>
										<path style="fill:#FCFDFE;" d="M894.456,1995.299l2.254-1.555c-40.983-59.381-89.711-113.927-136.837-166.677
											c-32.25-36.1-65.599-73.429-96.192-112.001l-2.146,1.704c30.643,38.633,64.019,75.994,96.295,112.123
											C804.9,1881.58,853.571,1936.06,894.456,1995.299z"/>
										<path style="fill:#FCFDFE;" d="M969.023,2216.372c4.052-100.225,54.924-232.58,108.865-283.241l-1.875-1.998
											c-54.378,51.069-105.651,184.306-109.726,285.128L969.023,2216.372z"/>
									</g>
								</g>
							</g>
						</g>
					</g>
				</g>
			</g>
			<g>
				<defs>
					
						<rect id="SVGID_00000155144845208268566350000008923210205632726441_" x="506.861" y="2101.276" width="1023.844" height="886.075"/>
				</defs>
				<clipPath id="SVGID_00000119813402581191410870000012863897005968841385_">
					<use xlink:href="#SVGID_00000155144845208268566350000008923210205632726441_"  style="overflow:visible;"/>
				</clipPath>
				<g style="clip-path:url(#SVGID_00000119813402581191410870000012863897005968841385_);">
					<g>
						<g>
							<defs>
								<path id="SVGID_00000075160157154729845040000015346741761244178840_" d="M1345.951,3364.436
									c63.529-31.952,126.537-65.147,188.973-99.563c1.367,0.422-19.704-127.279-110.76-165.536
									c-179.155-73.123-126.868-215.225-123.958-289.351c8.668-106.088-48.369-197.129-160.772-158.436
									c-125.39,40.899-208.834-121.561-241.783-284.761c-9.649-81.896-128.427-142.834-221.718-133.021
									c-95.889,8.192-166.29,87.135-139.182,247.549c21.851,189.157,212.95,239.37,301.064,306.514
									c86.629,65.867-18.6,182.082,113.31,220.647c112.245,36.049,240.619,44.849,230.388,144.406
									C1169.826,3251.879,1204.363,3316.988,1345.951,3364.436z"/>
							</defs>
							
								<linearGradient id="SVGID_00000161632720973610994410000004567306164371911577_" gradientUnits="userSpaceOnUse" x1="1174.7684" y1="2414.6643" x2="899.8857" y2="3195.9106">
								<stop  offset="0" style="stop-color:#AA80F9"/>
								<stop  offset="0.9964" style="stop-color:#6165D7"/>
							</linearGradient>
							
								<use xlink:href="#SVGID_00000075160157154729845040000015346741761244178840_"  style="overflow:visible;fill:url(#SVGID_00000161632720973610994410000004567306164371911577_);"/>
							<clipPath id="SVGID_00000121967667263797244730000015412193036755613069_">
								<use xlink:href="#SVGID_00000075160157154729845040000015346741761244178840_"  style="overflow:visible;"/>
							</clipPath>
							<g style="clip-path:url(#SVGID_00000121967667263797244730000015412193036755613069_);">
								<path style="fill:#BEB8F2;" d="M1440.667,3338.445c-0.362-1.072-153.982-230.576-351.271-436.872
									c-29.305-34.306-60.058-68.501-89.795-101.572c-165.616-184.165-322.048-358.119-313.045-617.215l-4.17,0.323
									c-9.042,260.304,147.78,434.692,313.811,619.321c29.725,33.056,60.464,67.237,89.802,101.578
									c198.354,207.413,349.95,434.47,350.702,435.951L1440.667,3338.445z"/>
								<path style="fill:#BEB8F2;" d="M847.571,2628.817l2.177-3.289c-98.441-41.727-222.475-106.737-289.11-141.661
									c-53.93-28.265-54.095-28.19-56.036-27.188l0.893,1.529l-0.419,1.769c2.587,0.568,24.882,12.252,53.105,27.044
									C624.864,2521.972,748.984,2587.028,847.571,2628.817z"/>
								<path style="fill:#BEB8F2;" d="M792.73,2542.472c-12.598-83.376,7.623-148.524,26.806-188.495
									c20.895-43.54,46.102-69.16,49.654-71.065l-0.728-1.17l0.781-2.238c-1.194-0.198-2.247,0.449-3.776,1.711
									c-21.874,18.073-99.028,115.528-76.875,262.139L792.73,2542.472z"/>
								<path style="fill:#BEB8F2;" d="M1208.059,3040.438l3.832-1.818c-78.041-147.825-2.531-338.982,33.557-414.307
									c1.939-4.046,2.56-5.357,2.732-5.988l-4.055-0.422l2.028,0.211l-2.023-0.224c-0.139,0.447-1.238,2.737-2.507,5.388
									c-26.026,54.323-44.951,108.401-56.251,160.73C1163.667,2884.534,1171.3,2970.808,1208.059,3040.438z"/>
								<path style="fill:#BEB8F2;" d="M864.967,2950.227l-0.722-1.584l-0.075,1.786l-1.95-1.138l0.933-2.088
									c0.005-0.004,0.013-0.008,0.024-0.013c2.634-1.228,172.841-53.616,290.489,24.519l-2.776,2.968
									C1034.417,2897.321,866.546,2949.62,864.967,2950.227z M864.245,2948.622l0.076-1.798L864.245,2948.622z"/>
								<path style="fill:#BEB8F2;" d="M1414.849,3301.207c-12.703-31.12-18.339-89.939,26.927-193.42
									c2.569-5.872,2.569-5.872,2.114-6.676l-3.788,1.896l1.894-0.948l-2.048-0.039c-0.115,0.422-1.013,2.474-2.051,4.849
									c-45.73,104.539-39.926,164.228-27.003,195.892L1414.849,3301.207z"/>
								<path style="fill:#BEB8F2;" d="M1372.75,3249.196l3.51-2.303c-39.853-49.348-149.411-56.582-211.17-56.501
									c-1.959,0.002-3.218,0.007-3.679-0.021l-0.771,3.609c0.494,0.029,1.851,0.03,3.96,0.028
									C1225.628,3193.931,1333.822,3200.995,1372.75,3249.196z"/>
							</g>
						</g>
					</g>
				</g>
			</g>
		</g>
		<g>
			<g>
				
					<linearGradient id="SVGID_00000096763633285275908580000017566522626249474707_" gradientUnits="userSpaceOnUse" x1="1290.3363" y1="2303.1528" x2="1081.1848" y2="3192.6753">
					<stop  offset="0" style="stop-color:#FFC444"/>
					<stop  offset="0.9964" style="stop-color:#F36F56"/>
				</linearGradient>
				<path style="fill:url(#SVGID_00000096763633285275908580000017566522626249474707_);" d="M1261.805,2296.444H1176.7h-31.456
					h-57.854c-17.858,0-33.031,10.807-38.282,26.191l-113.962,335.94v457.941l215.205-23.772l31.78-3.535l200.189-22.066
					l-5.11-431.081L1261.805,2296.444z"/>
				
					<linearGradient id="SVGID_00000089552727191582032290000017772860520601644949_" gradientUnits="userSpaceOnUse" x1="976.8344" y1="2703.9583" x2="1420.5619" y2="2703.9583">
					<stop  offset="0" style="stop-color:#FFC444"/>
					<stop  offset="0.9964" style="stop-color:#F36F56"/>
				</linearGradient>
				<path style="fill:url(#SVGID_00000089552727191582032290000017772860520601644949_);" d="M1308.049,2321.742
					c-5.083-14.824-19.69-25.297-36.574-25.297h-55.84h-31.115h-57.223c-17.662,0-32.828,10.752-38.003,26.05l-112.46,333.486
					l0.516,455.492l212.443-23.27l31.743-3.432l199.026-21.888l-5.432-428.166L1308.049,2321.742z"/>
			</g>
			
				<linearGradient id="SVGID_00000132787714648874308060000000874141620792952963_" gradientUnits="userSpaceOnUse" x1="1651.0986" y1="2343.8186" x2="1600.2927" y2="2559.8965">
				<stop  offset="0" style="stop-color:#FFC444"/>
				<stop  offset="0.9964" style="stop-color:#F36F56"/>
			</linearGradient>
			<path style="fill:url(#SVGID_00000132787714648874308060000000874141620792952963_);" d="M1187.132,2375.205v-3.417
				c0-0.109-1.063-0.515-1.831-0.576c-13.598-1.086-24.455,16.142-24.455,38.503s10.755,41.281,24.354,42.214
				c0.768,0.053,1.932-0.069,1.932-0.179v-1.498l900.932,61.848v-65.539L1187.132,2375.205z"/>
			<g>
				
					<linearGradient id="SVGID_00000147194587518129879460000014041681223959130549_" gradientUnits="userSpaceOnUse" x1="1387.3389" y1="2767.8616" x2="2260.656" y2="2767.8616">
					<stop  offset="0" style="stop-color:#FFC444"/>
					<stop  offset="0.9964" style="stop-color:#F36F56"/>
				</linearGradient>
				<polygon style="fill:url(#SVGID_00000147194587518129879460000014041681223959130549_);" points="2260.656,2916.212 
					1387.339,2814.94 1387.339,2619.512 2260.656,2722.854 				"/>
				<polygon style="opacity:0.6;fill:#FFFFFF;" points="2260.656,2749.393 1387.339,2646.335 1387.339,2619.512 2260.656,2722.854 
									"/>
			</g>
			<g>
				<g>
					<polygon style="fill:#97A6B7;" points="1847.774,3175.818 1776.523,3135.629 1775.935,3053.853 1704.684,3013.664 
						1704.211,2931.849 1632.881,2891.621 1632.293,2809.849 1561.842,2769.603 1561.906,2769.028 1561.503,2768.848 
						1561.288,2768.681 1561.796,2685.102 1493.774,2643.094 1493.212,2642.842 1490.521,2643.03 1489.944,2644.098 
						1488.996,2564.853 1420.644,2526.823 1419.978,2525.941 1419.458,2444.877 1350.271,2405.898 1348.106,2402.322 
						1347.583,2322.993 1279.891,2284.779 1276.272,2278.623 1275.744,2201.028 1209.748,2163.771 1204.395,2154.806 
						1203.906,2079.067 1139.368,2042.651 1135.491,2035.993 1144.475,2033.832 1421.153,1965.654 1507.874,1944.296 
						1974.464,3085.427 1944.49,3106.876 					"/>
					<polygon style="fill:#FFFFFF;" points="1944.49,3106.876 1421.153,1965.654 1507.874,1944.296 1974.464,3085.427 					"/>
				</g>
				
					<linearGradient id="SVGID_00000013884337747303502630000007549246674158911879_" gradientUnits="userSpaceOnUse" x1="4494.5049" y1="1359.9819" x2="4356.3677" y2="1947.48" gradientTransform="matrix(-0.4085 0.9128 -0.9128 -0.4085 4575.9053 -1545.9618)">
					<stop  offset="0" style="stop-color:#FF9085"/>
					<stop  offset="1" style="stop-color:#FB6FBB"/>
				</linearGradient>
				<path style="fill:url(#SVGID_00000013884337747303502630000007549246674158911879_);" d="M1530.245,1926.51l-144.598-367.656
					c-5.522-14.015-19.398-22.921-34.414-22.092l-29.789,1.657c-0.968,0.035-1.9,0.138-2.865,0.276
					c-14.463,1.968-26.337,12.841-29.376,27.373l-7.283,34.622c-2.727,12.773-12.323,22.99-24.888,26.475l-221.643,61.098
					c-48.809,13.462-77.528,63.928-64.135,112.806l48.223,175.906c5.281,19.4,17.569,36.141,34.449,47.049l102.588,66.241
					c7.111,4.591,15.361,6.834,23.646,6.593c4.384-0.104,8.768-0.932,13.013-2.485l312.669-113.738
					c10.527-3.797,19.019-11.701,23.61-21.92C1534.076,1948.533,1534.353,1936.935,1530.245,1926.51z M1380.919,1876.424
					l-217.743,85.882c-6.455,2.52-13.635,2.278-19.883-0.69c-6.246-2.934-10.976-8.353-13.083-14.947l-48.014-149.879
					c-2.038-6.317-1.45-13.186,1.588-19.089c3.073-5.902,8.318-10.356,14.67-12.357l225.612-71.454
					c6.422-2.036,13.359-1.38,19.261,1.76c5.936,3.141,10.356,8.526,12.253,14.981l40.111,135.451
					C1399.387,1858.508,1392.965,1871.66,1380.919,1876.424z"/>
				
					<linearGradient id="SVGID_00000163771389060178663060000001783959321260093868_" gradientUnits="userSpaceOnUse" x1="1334.4684" y1="1894.59" x2="1016.8872" y2="1652.3091">
					<stop  offset="0" style="stop-color:#FF9085"/>
					<stop  offset="1" style="stop-color:#FB6FBB"/>
				</linearGradient>
				<path style="opacity:0.3;fill:url(#SVGID_00000163771389060178663060000001783959321260093868_);" d="M1328.657,1580.773
					c-9.216,37.97-12.668,85.399-70.176,86.4c-57.542,1.036-255.437,49.362-253.158,97.687
					c2.313,48.326,41.422,230.48,69.037,240.663c0,0,102.831,71.039,105.799,91.336c-8.284,0.242-16.535-2.001-23.646-6.593
					l-102.588-66.241c-16.88-10.908-29.169-27.649-34.449-47.049l-48.223-175.906c-13.393-48.878,15.326-99.344,64.135-112.806
					l221.643-61.098c12.565-3.486,22.161-13.703,24.888-26.475l7.283-34.622c3.039-14.532,14.913-25.405,29.376-27.373
					C1326.621,1549.258,1332.834,1563.583,1328.657,1580.773z"/>
			</g>
			<g>
				
					<linearGradient id="SVGID_00000111888084370439693870000004019325437143609535_" gradientUnits="userSpaceOnUse" x1="-456.0763" y1="3301.8369" x2="-499.6514" y2="2718.3159" gradientTransform="matrix(-0.8243 -0.5661 -0.5661 0.8243 2998.9795 -381.7667)">
					<stop  offset="0" style="stop-color:#40447E"/>
					<stop  offset="0.9964" style="stop-color:#3C3B6B"/>
				</linearGradient>
				<path style="fill:url(#SVGID_00000111888084370439693870000004019325437143609535_);" d="M1514.156,2573.549
					c-8.25,12.012-5.2,28.439,6.812,36.689l3.921,2.693c12.013,8.25,28.439,5.2,36.689-6.812l302.023-439.752
					c8.25-12.013,5.2-28.439-6.812-36.689l-3.921-2.693c-12.013-8.25-28.439-5.2-36.689,6.812L1514.156,2573.549z"/>
				
					<linearGradient id="SVGID_00000148627811072451226290000004535707161894220193_" gradientUnits="userSpaceOnUse" x1="-477.2057" y1="3048.7813" x2="-477.2057" y2="3279.6494" gradientTransform="matrix(-0.8243 -0.5661 -0.5661 0.8243 2998.9795 -381.7667)">
					<stop  offset="0.0036" style="stop-color:#E38DDD"/>
					<stop  offset="1" style="stop-color:#9571F6"/>
				</linearGradient>
				<path style="fill:url(#SVGID_00000148627811072451226290000004535707161894220193_);" d="M1449.175,2524.265
					c-8.25,12.012-5.2,28.439,6.812,36.689l137.154,94.198c12.013,8.25,28.439,5.2,36.689-6.812l13.549-19.728
					c8.25-12.013,5.2-28.439-6.812-36.689l-137.154-94.198c-12.013-8.25-28.439-5.2-36.689,6.812L1449.175,2524.265z"/>
				
					<linearGradient id="SVGID_00000031894579023014738070000008691240411524042655_" gradientUnits="userSpaceOnUse" x1="-616.923" y1="3562.3733" x2="-337.4722" y2="3562.3733" gradientTransform="matrix(-0.8243 -0.5661 -0.5661 0.8243 2998.9795 -381.7667)">
					<stop  offset="0.0036" style="stop-color:#E38DDD"/>
					<stop  offset="1" style="stop-color:#9571F6"/>
				</linearGradient>
				<path style="fill:url(#SVGID_00000031894579023014738070000008691240411524042655_);" d="M1407.366,2531.911l-293.789,427.763
					c-6.984,10.168-9.85,21.99-9.07,33.437c1.036,15.543,9.006,30.54,22.836,40.038l143.192,98.345
					c24.016,16.494,56.884,10.392,73.378-13.625l293.789-427.763c12.051-17.546,12.076-39.878,1.81-57.011
					c-3.755-6.34-8.894-12.025-15.364-16.469l-143.192-98.345C1456.939,2501.787,1423.86,2507.895,1407.366,2531.911z"/>
				<g style="opacity:0.5;">
					
						<linearGradient id="SVGID_00000135651699118077442440000012319333472523418793_" gradientUnits="userSpaceOnUse" x1="-512.5379" y1="3911.2842" x2="-563.124" y2="3233.877" gradientTransform="matrix(-0.8243 -0.5661 -0.5661 0.8243 2998.9795 -381.7667)">
						<stop  offset="0.0036" style="stop-color:#E38DDD"/>
						<stop  offset="1" style="stop-color:#9571F6"/>
					</linearGradient>
					<path style="fill:url(#SVGID_00000135651699118077442440000012319333472523418793_);" d="M1279.268,3037.791
						c-5.996,8.73-3.779,20.668,4.951,26.664l0,0c8.73,5.996,20.668,3.78,26.664-4.951l243.497-354.536
						c5.996-8.73,3.779-20.668-4.951-26.664l0,0c-8.73-5.996-20.668-3.78-26.664,4.951L1279.268,3037.791z"/>
					
						<linearGradient id="SVGID_00000021115114058106860950000002254900983843025849_" gradientUnits="userSpaceOnUse" x1="-392.6673" y1="3902.2981" x2="-443.2534" y2="3224.8911" gradientTransform="matrix(-0.8243 -0.5661 -0.5661 0.8243 2998.9795 -381.7667)">
						<stop  offset="0.0036" style="stop-color:#E38DDD"/>
						<stop  offset="1" style="stop-color:#9571F6"/>
					</linearGradient>
					<path style="fill:url(#SVGID_00000021115114058106860950000002254900983843025849_);" d="M1179.908,2969.55
						c-5.996,8.73-3.779,20.668,4.951,26.664l0,0c8.73,5.996,20.668,3.779,26.664-4.951l243.497-354.536
						c5.996-8.73,3.779-20.668-4.951-26.664l0,0c-8.73-5.996-20.668-3.779-26.664,4.951L1179.908,2969.55z"/>
				</g>
				
					<linearGradient id="SVGID_00000165934544188624188020000003028729798837126284_" gradientUnits="userSpaceOnUse" x1="-474.4204" y1="2737.9036" x2="-488.375" y2="2551.0364" gradientTransform="matrix(-0.8243 -0.5661 -0.5661 0.8243 2998.9795 -381.7667)">
					<stop  offset="0" style="stop-color:#40447E"/>
					<stop  offset="0.9964" style="stop-color:#3C3B6B"/>
				</linearGradient>
				<path style="fill:url(#SVGID_00000165934544188624188020000003028729798837126284_);" d="M1821.159,2062.099l87.926-84.844
					c3.922-3.786,9.934-4.24,14.427-1.154l17.416,11.961l14.5,9.959l17.655,12.125c4.493,3.086,6.227,8.86,4.102,13.88
					l-47.643,112.546c-1.481,3.497-4.032,6.419-7.297,8.362l-27.369,16.02c-8.936,5.315-19.849,4.514-28.42-1.373l-14.941-10.262
					l-14.5-9.959l-14.702-10.097c-8.571-5.886-13.232-15.79-11.479-26.039l5.279-31.516
					C1816.755,2067.964,1818.426,2064.737,1821.159,2062.099z"/>
				
					<linearGradient id="SVGID_00000044865759531582866180000010804461755993019539_" gradientUnits="userSpaceOnUse" x1="-479.805" y1="3881.5068" x2="-526.92" y2="3250.5815" gradientTransform="matrix(-0.8243 -0.5661 -0.5661 0.8243 2998.9795 -381.7667)">
					<stop  offset="0.0036" style="stop-color:#E38DDD"/>
					<stop  offset="1" style="stop-color:#9571F6"/>
				</linearGradient>
				<path style="opacity:0.3;fill:url(#SVGID_00000044865759531582866180000010804461755993019539_);" d="M1104.577,2993.16
					c1.036,15.543,8.936,30.491,22.765,39.99l143.192,98.345c24.016,16.494,56.884,10.392,73.378-13.625l293.789-427.763
					c12.051-17.546,12.041-39.827,1.775-56.96c-14.616,32.429-34.44,80.673-67.609,98.44
					c-31.645,16.946-86.887,64.366-104.863,129.379c-17.976,65.013-85.443,188.065-152.048,203.674
					C1248.37,3080.26,1196.71,3090.769,1104.577,2993.16z"/>
			</g>
			<g>
				
					<linearGradient id="SVGID_00000036969729794435848740000012228504280779593630_" gradientUnits="userSpaceOnUse" x1="973.1173" y1="2786.0669" x2="1842.9825" y2="2786.0669">
					<stop  offset="0" style="stop-color:#FFC444"/>
					<stop  offset="0.9964" style="stop-color:#F36F56"/>
				</linearGradient>
				<polygon style="fill:url(#SVGID_00000036969729794435848740000012228504280779593630_);" points="1842.983,2934.417 
					973.117,2833.145 973.117,2637.717 1842.983,2741.059 				"/>
				<polygon style="opacity:0.6;fill:#FFFFFF;" points="1842.983,2767.599 973.117,2664.54 973.117,2637.717 1842.983,2741.059 				
					"/>
			</g>
			<g>
				
					<linearGradient id="SVGID_00000124873303934137751720000013172127987656332438_" gradientUnits="userSpaceOnUse" x1="973.1173" y1="3064.3154" x2="1842.9825" y2="3064.3154">
					<stop  offset="0" style="stop-color:#FFC444"/>
					<stop  offset="0.9964" style="stop-color:#F36F56"/>
				</linearGradient>
				<polygon style="fill:url(#SVGID_00000124873303934137751720000013172127987656332438_);" points="1842.983,3211.184 
					973.117,3112.875 973.117,2917.447 1842.983,3017.826 				"/>
				<polygon style="opacity:0.6;fill:#FFFFFF;" points="1842.983,3048.157 973.117,2948.103 973.117,2917.447 1842.983,3017.826 
									"/>
			</g>
			<g>
				
					<linearGradient id="SVGID_00000089558181781311567070000013694450346196920203_" gradientUnits="userSpaceOnUse" x1="2190.6362" y1="2341.4092" x2="2068.761" y2="2923.2654">
					<stop  offset="0" style="stop-color:#FFC444"/>
					<stop  offset="0.9964" style="stop-color:#F36F56"/>
				</linearGradient>
				<path style="fill:url(#SVGID_00000089558181781311567070000013694450346196920203_);" d="M2170.139,2355.126h-84.96h-31.434
					h-57.861c-17.872,0-33.298,12.076-38.591,28.358l-114.311,353.859v473.841l211.01-25.762l31.843-3.863l198.635-24.301
					l-0.852-444.132L2170.139,2355.126z"/>
				
					<linearGradient id="SVGID_00000072273406603007348670000006512240188955239580_" gradientUnits="userSpaceOnUse" x1="2117.8503" y1="3391.9363" x2="2182.2537" y2="4520.8911">
					<stop  offset="0" style="stop-color:#FFC444"/>
					<stop  offset="0.9239" style="stop-color:#F47555"/>
					<stop  offset="0.9964" style="stop-color:#F36F56"/>
				</linearGradient>
				<path style="fill:url(#SVGID_00000072273406603007348670000006512240188955239580_);" d="M2311.037,2711.861l0.978,442.042
					l-436.676,53.461l-0.07-471.696l113.807-352.298c5.211-16.2,21.043-28.245,38.756-28.245h144.361
					c16.883,0,30.849,11.684,35.777,27.348L2311.037,2711.861z"/>
				
					<linearGradient id="SVGID_00000075873255236627975110000017997274737359540866_" gradientUnits="userSpaceOnUse" x1="2124.0044" y1="2439.3247" x2="2114.384" y2="2485.2542">
					<stop  offset="0" style="stop-color:#FFC444"/>
					<stop  offset="0.9964" style="stop-color:#F36F56"/>
				</linearGradient>
				<path style="fill:url(#SVGID_00000075873255236627975110000017997274737359540866_);" d="M2139.661,2475.222
					c0.028,19.876-10.311,36.233-23.136,36.532c-12.875,0.299-23.367-15.685-23.391-35.7c-0.023-20.011,10.427-36.361,23.297-36.522
					C2129.253,2439.372,2139.633,2455.35,2139.661,2475.222z"/>
				
					<linearGradient id="SVGID_00000090973158218788024290000017835938437885684104_" gradientUnits="userSpaceOnUse" x1="2203.6094" y1="2681.625" x2="2127.5579" y2="3044.7102">
					<stop  offset="0" style="stop-color:#FFC444"/>
					<stop  offset="0.9964" style="stop-color:#F36F56"/>
				</linearGradient>
				<path style="opacity:0.2;fill:url(#SVGID_00000090973158218788024290000017835938437885684104_);" d="M2311.044,2715.367
					l0.97,438.536l-417.668,51.134c-0.842-61.589,13.221-127.481,72.796-166.165c45.74-29.753,108.976-17.812,148.91-52.747
					c32.071-28.077,32.853-74.647,40.563-111.166c17.261-81.233,88.193-92.725,141.233-145.144
					C2301.585,2726.09,2304.241,2721.226,2311.044,2715.367z"/>
			</g>
		</g>
		<g>
			
				<linearGradient id="SVGID_00000034798745865658336430000005442990415061306016_" gradientUnits="userSpaceOnUse" x1="2397.6177" y1="988.0128" x2="3027.8218" y2="988.0128">
				<stop  offset="0" style="stop-color:#AB316D"/>
				<stop  offset="1" style="stop-color:#792D3D"/>
			</linearGradient>
			<path style="fill:url(#SVGID_00000034798745865658336430000005442990415061306016_);" d="M2922.419,1151.466
				c23.69,12.028,53.453,0.984,66.476-24.668c13.024-25.651,4.377-56.197-19.313-68.225c-1.227-0.623-2.479-1.147-3.736-1.648
				c4.401-14.194,7.719-28.499,9.945-42.809c1.358-0.004,2.72-0.027,4.105-0.15c27.028-2.41,48.479-27.245,47.914-55.475
				c-0.566-28.229-22.936-49.161-49.964-46.751c-1.413,0.127-2.8,0.349-4.18,0.595c-2.823-13.989-6.691-27.655-11.572-40.881
				c1.243-0.727,2.48-1.479,3.689-2.326c23.123-16.2,30.517-48.175,16.512-71.417c-14.004-23.243-44.103-28.95-67.227-12.75
				c-1.185,0.831-2.3,1.727-3.401,2.637c-9.133-10.096-19.15-19.454-29.989-27.993c0.762-1.25,1.508-2.515,2.183-3.844
				c13.024-25.651,30.043-53.672,6.167-65.327c-55.232-26.963-78.932-3.882-91.957,21.77c-0.675,1.329-1.256,2.678-1.815,4.03
				c-13.29-3.711-26.755-6.276-40.296-7.692c0.085-1.426,0.15-2.855,0.122-4.302c-0.567-28.228,7.809-43.504-19.321-44.032
				c-59.162-1.15-79.123,24.529-78.557,52.756c0.03,1.476,0.153,2.918,0.299,4.351c-13.558,3.864-26.873,8.806-39.833,14.782
				c-0.616-1.259-1.255-2.511-1.987-3.726c-14.004-23.242-44.102-28.95-67.227-12.748c-23.125,16.201-30.517,48.175-16.513,71.417
				c0.717,1.191,1.503,2.304,2.301,3.403c-10.24,10.242-19.831,21.362-28.692,33.292c-1.146-0.719-2.309-1.422-3.536-2.045
				c-23.69-12.028-53.452-0.984-66.476,24.668c-13.024,25.651-4.377,56.197,19.313,68.224c1.227,0.624,2.48,1.147,3.737,1.648
				c-4.401,14.194-7.72,28.499-9.945,42.809c-1.358,0.004-2.721,0.027-4.104,0.149c-27.03,2.411-48.481,27.246-47.915,55.476
				c0.566,28.229,22.937,49.159,49.964,46.75c1.412-0.126,2.8-0.348,4.179-0.594c2.823,13.99,6.691,27.655,11.572,40.881
				c-1.243,0.728-2.48,1.479-3.689,2.326c-23.124,16.2-30.517,48.176-16.513,71.418c14.005,23.243,60.368,34.041,83.491,17.84
				c1.185-0.83-13.965-6.817-12.863-7.727c9.134,10.097,19.151,19.453,29.988,27.993c-0.761,1.249-1.508,2.515-2.182,3.844
				c-13.024,25.651-4.377,56.197,19.313,68.224c23.69,12.028,53.453,0.984,66.477-24.667c0.675-1.329,1.256-2.678,1.815-4.031
				c13.29,3.71,26.755,6.276,40.296,7.692c-0.085,1.426-0.15,2.855-0.122,4.302c0.566,28.228,22.936,49.159,49.964,46.75
				c27.028-2.41,48.48-27.247,47.914-55.475c-0.03-1.475-0.153-2.918-0.299-4.35c13.558-3.864,26.874-8.805,39.833-14.782
				c0.616,1.259,1.255,2.51,1.987,3.725c14.004,23.242,44.102,28.951,67.226,12.75c23.125-16.202,30.518-48.176,16.514-71.419
				c-0.718-1.189-1.504-2.303-2.302-3.401c10.24-10.241,19.83-21.362,28.692-33.291
				C2920.03,1150.141,2921.192,1150.844,2922.419,1151.466z M2627.099,1155.214c-86.013-43.671-117.408-154.574-70.121-247.709
				c47.286-93.135,155.347-133.233,241.361-89.563c86.014,43.671,117.408,154.573,70.122,247.708
				C2821.174,1158.786,2713.113,1198.885,2627.099,1155.214z"/>
			
				<linearGradient id="SVGID_00000168819395183963314760000003152253936023375524_" gradientUnits="userSpaceOnUse" x1="2649.7747" y1="1016.0229" x2="3027.8218" y2="1016.0229">
				<stop  offset="0" style="stop-color:#AB316D"/>
				<stop  offset="1" style="stop-color:#792D3D"/>
			</linearGradient>
			<path style="fill:url(#SVGID_00000168819395183963314760000003152253936023375524_);" d="M2979.897,1013.967
				c27.028-2.41,48.479-27.247,47.914-55.476c-0.566-28.229-22.936-49.161-49.964-46.751c-1.413,0.126-2.8,0.35-4.18,0.594
				c-2.822-13.99-6.691-27.654-11.572-40.881c1.243-0.726,2.48-1.479,3.689-2.326c23.123-16.2,51.732-55.345,35.418-77.028
				c-30.964-41.152-63.008-23.339-86.132-7.139c-1.185,0.831-2.3,1.727-3.401,2.636c-9.134-10.097-19.151-19.453-29.99-27.992
				c0.762-1.249,1.508-2.514,2.183-3.843c7.088-13.961,7.714-29.353,3.032-42.439c-22.335,39.311-44.369,78.787-66.008,118.477
				c68.619,50.282,90.464,149.372,47.573,233.851c-36.346,71.588-108.596,111.785-179.143,106.748
				c-3.147,8.161-6.236,16.367-9.607,24.449c-9.144,21.934-19.533,43.416-29.936,64.871c6.542,1.233,13.113,2.204,19.702,2.894
				c-0.085,1.427-0.15,2.856-0.122,4.302c0.566,28.229,17.705,52.213,66.689,49.615c27.097-1.437,31.754-30.11,31.188-58.34
				c-0.03-1.474-0.153-2.917-0.299-4.35c13.558-3.864,26.873-8.806,39.833-14.782c0.616,1.259,1.255,2.51,1.987,3.724
				c14.004,23.243,62.586,33.119,85.71,16.917c23.125-16.202,12.034-52.342-1.97-75.585c-0.718-1.191-1.504-2.304-2.302-3.403
				c10.24-10.241,19.831-21.361,28.692-33.29c1.146,0.719,2.308,1.422,3.535,2.043c23.69,12.029,53.453,0.984,66.477-24.668
				c13.023-25.65,4.377-56.197-19.313-68.224c-1.227-0.624-2.48-1.147-3.736-1.648c4.401-14.194,7.719-28.5,9.945-42.809
				C2977.15,1014.113,2978.512,1014.089,2979.897,1013.967z"/>
			
				<linearGradient id="SVGID_00000183247462775944003060000004814363896797431962_" gradientUnits="userSpaceOnUse" x1="2919.573" y1="667.5027" x2="2128.9761" y2="2070.9644">
				<stop  offset="0" style="stop-color:#FF9085"/>
				<stop  offset="1" style="stop-color:#FB6FBB"/>
			</linearGradient>
			<path style="fill:url(#SVGID_00000183247462775944003060000004814363896797431962_);" d="M2947.899,1154.364
				c23.69,12.028,53.453,0.984,66.477-24.668c13.023-25.651,4.377-56.196-19.314-68.224c-1.227-0.623-2.479-1.147-3.736-1.648
				c4.402-14.194,7.72-28.499,9.945-42.81c1.358-0.003,2.721-0.026,4.105-0.15c27.028-2.409,48.479-27.245,47.913-55.475
				c-0.566-28.23-22.935-49.161-49.963-46.752c-1.413,0.127-2.8,0.349-4.18,0.595c-2.823-13.99-6.691-27.655-11.572-40.881
				c1.243-0.727,2.481-1.479,3.689-2.326c23.123-16.2,30.517-48.176,16.513-71.418c-14.004-23.242-44.103-28.95-67.227-12.75
				c-1.185,0.831-2.3,1.727-3.401,2.637c-9.133-10.096-19.15-19.453-29.989-27.992c0.762-1.249,1.508-2.516,2.183-3.844
				c13.024-25.651,4.377-56.197-19.313-68.225c-23.69-12.028-53.453-0.984-66.477,24.668c-0.675,1.329-1.256,2.678-1.816,4.03
				c-13.29-3.711-26.754-6.276-40.295-7.692c0.084-1.427,0.149-2.855,0.121-4.302c-0.567-28.228-22.936-49.159-49.965-46.75
				c-27.028,2.409-48.479,27.246-47.914,55.474c0.03,1.476,0.153,2.917,0.299,4.35c-13.558,3.865-26.873,8.806-39.833,14.782
				c-0.616-1.259-1.255-2.51-1.986-3.726c-14.004-23.242-44.103-28.95-67.227-12.749c-23.125,16.202-30.516,48.176-16.513,71.418
				c0.718,1.19,1.503,2.304,2.302,3.403c-10.24,10.241-19.831,21.361-28.692,33.291c-1.146-0.719-2.308-1.421-3.536-2.044
				c-23.69-12.029-53.452-0.984-66.476,24.667c-13.024,25.652-4.377,56.197,19.313,68.225c1.228,0.623,2.48,1.147,3.737,1.648
				c-4.401,14.194-7.72,28.499-9.945,42.81c-1.358,0.004-2.721,0.027-4.105,0.149c-27.028,2.411-48.48,27.247-47.914,55.476
				c0.566,28.229,22.936,49.159,49.964,46.75c1.412-0.126,2.8-0.348,4.179-0.594c2.823,13.989,6.692,27.655,11.572,40.881
				c-1.243,0.727-2.48,1.479-3.688,2.326c-23.124,16.2-30.517,48.176-16.513,71.417c14.004,23.243,44.103,28.951,67.226,12.75
				c1.185-0.831,2.3-1.727,3.401-2.637c9.134,10.097,19.151,19.453,29.989,27.993c-0.761,1.249-1.508,2.515-2.182,3.844
				c-13.024,25.651-4.377,56.196,19.313,68.225c23.69,12.027,53.453,0.984,66.477-24.668c0.675-1.328,1.256-2.678,1.815-4.03
				c13.29,3.71,26.755,6.276,40.296,7.692c-0.084,1.426-0.151,2.855-0.122,4.302c0.567,28.228,22.936,49.159,49.964,46.75
				c27.028-2.409,48.48-27.247,47.914-55.475c-0.029-1.475-0.153-2.918-0.299-4.351c13.558-3.864,26.873-8.805,39.833-14.782
				c0.616,1.259,1.256,2.51,1.988,3.724c14.004,23.243,44.103,28.952,67.226,12.751c23.125-16.201,30.517-48.175,16.514-71.419
				c-0.718-1.19-1.504-2.304-2.302-3.402c10.24-10.241,19.831-21.362,28.693-33.292
				C2945.51,1153.038,2946.672,1153.74,2947.899,1154.364z M2652.58,1158.111c-86.013-43.671-117.408-154.573-70.121-247.708
				c47.288-93.135,155.347-133.233,241.361-89.562c86.014,43.671,117.408,154.574,70.122,247.709
				C2846.654,1161.684,2738.594,1201.781,2652.58,1158.111z"/>
		</g>
	</g>
</g>
</svg>
